<svg width="33" height="33" viewBox="0 0 33 33" fill="none" xmlns="http://www.w3.org/2000/svg">
<g clip-path="url(#clip0_7844_19107)">
<path d="M16.2008 32.3977C7.21442 32.3977 0 25.0839 0 16.1988C0 7.21355 7.21442 0 16.2008 0C25.1872 0 32.4016 7.21355 32.4016 16.1988C32.4016 25.0839 25.1872 32.3977 16.2008 32.3977ZM16.2008 2.72141C8.78084 2.72141 2.71566 8.77977 2.71566 16.1999C2.71566 23.6199 8.78084 29.6834 16.2008 29.6834C23.6208 29.6834 29.686 23.6189 29.686 16.1999C29.686 8.78079 23.6208 2.72141 16.2008 2.72141ZM24.1483 17.7651H12.4402C12.1921 17.7664 11.9536 17.6695 11.7768 17.4956C11.5999 17.3216 11.4992 17.0847 11.4965 16.8367V15.4709C11.4965 14.9434 11.9127 14.5273 12.4402 14.5273H24.2476C24.77 14.5273 25.1862 14.9495 25.1862 15.4709V16.8266C25.0859 17.349 24.6647 17.7651 24.1483 17.7651ZM21.1157 12.5389H9.3023C9.05407 12.5408 8.81524 12.4441 8.63829 12.27C8.46134 12.0959 8.36075 11.8587 8.35861 11.6105V10.2448C8.35861 9.82257 8.78084 9.40647 9.3023 9.40647H21.1097C21.5319 9.40647 21.9481 9.82865 21.9481 10.2448V11.6004C21.9481 12.1228 21.5329 12.5389 21.1157 12.5389ZM9.30332 19.8588H21.1167C21.6392 19.8588 22.0554 20.2749 22.0554 20.7973V22.1529C22.0565 22.4018 21.9588 22.6409 21.7837 22.8178C21.6087 22.9947 21.3707 23.0949 21.1218 23.0965H9.30332C8.78084 22.9912 8.36468 22.5741 8.36468 22.0527V20.692C8.35962 20.2759 8.78084 19.8588 9.30332 19.8588Z" fill="#4589EF"/>
</g>
<defs>
<clipPath id="clip0_7844_19107">
<rect width="32.4016" height="32.3977" fill="white"/>
</clipPath>
</defs>
</svg>
