<svg width="100%" height="100%" viewBox="0 0 24 25" fill="none" xmlns="http://www.w3.org/2000/svg">
<path d="M6 2.5C4.9 2.5 4.01 3.4 4.01 4.5L4 20.5C4 21.6 4.89 22.5 5.99 22.5H18C19.1 22.5 20 21.6 20 20.5V8.5L14 2.5H6ZM13 9.5V4L18.5 9.5H13Z" fill="currentColor"/>
<path d="M7.97632 16.5V13.6562H8.89233C9.14364 13.6562 9.36955 13.7135 9.57007 13.8281C9.77059 13.9414 9.92684 14.1022 10.0388 14.3105C10.1521 14.5176 10.2094 14.75 10.2107 15.0078V15.1387C10.2107 15.3991 10.1554 15.6328 10.0447 15.8398C9.9353 16.0456 9.78035 16.207 9.57983 16.3242C9.38061 16.4401 9.15796 16.4987 8.91186 16.5H7.97632ZM8.66186 14.1855V15.9727H8.90015C9.09676 15.9727 9.2478 15.903 9.35327 15.7637C9.45874 15.623 9.51147 15.4147 9.51147 15.1387V15.0156C9.51147 14.7409 9.45874 14.5339 9.35327 14.3945C9.2478 14.2552 9.09416 14.1855 8.89233 14.1855H8.66186ZM12.9705 15.1367C12.9705 15.4141 12.919 15.6595 12.8162 15.873C12.7133 16.0866 12.5668 16.2513 12.3767 16.3672C12.1879 16.4818 11.9724 16.5391 11.7302 16.5391C11.488 16.5391 11.2732 16.4837 11.0857 16.373C10.8982 16.2611 10.7517 16.1016 10.6462 15.8945C10.5421 15.6875 10.4874 15.4499 10.4822 15.1816V15.0215C10.4822 14.7428 10.533 14.4974 10.6345 14.2852C10.7374 14.0716 10.8839 13.9069 11.074 13.791C11.2654 13.6751 11.4828 13.6172 11.7263 13.6172C11.9672 13.6172 12.182 13.6745 12.3708 13.7891C12.5597 13.9036 12.7061 14.0671 12.8103 14.2793C12.9158 14.4902 12.9692 14.7324 12.9705 15.0059V15.1367ZM12.2732 15.0176C12.2732 14.735 12.2257 14.5208 12.1306 14.375C12.0369 14.2279 11.9021 14.1543 11.7263 14.1543C11.3826 14.1543 11.2009 14.4121 11.1814 14.9277L11.1794 15.1367C11.1794 15.4154 11.2257 15.6296 11.3181 15.7793C11.4106 15.929 11.5479 16.0039 11.7302 16.0039C11.9034 16.0039 12.0369 15.9303 12.1306 15.7832C12.2244 15.6361 12.2719 15.4245 12.2732 15.1484V15.0176ZM15.6248 15.5371C15.6156 15.735 15.5623 15.9102 15.4646 16.0625C15.3669 16.2135 15.2296 16.3307 15.0525 16.4141C14.8767 16.4974 14.6755 16.5391 14.449 16.5391C14.0753 16.5391 13.781 16.4173 13.5662 16.1738C13.3513 15.9303 13.2439 15.5866 13.2439 15.1426V15.002C13.2439 14.7233 13.2921 14.4798 13.3884 14.2715C13.4861 14.0618 13.6261 13.9004 13.8083 13.7871C13.9906 13.6725 14.2016 13.6152 14.4412 13.6152C14.7862 13.6152 15.0636 13.7064 15.2732 13.8887C15.4828 14.0697 15.602 14.3197 15.6306 14.6387H14.947C14.9418 14.4655 14.8982 14.3411 14.8162 14.2656C14.7341 14.1901 14.6091 14.1523 14.4412 14.1523C14.2706 14.1523 14.1456 14.2161 14.0662 14.3438C13.9867 14.4714 13.9451 14.6751 13.9412 14.9551V15.1562C13.9412 15.4596 13.9789 15.6764 14.0544 15.8066C14.1313 15.9368 14.2628 16.002 14.449 16.002C14.6065 16.002 14.727 15.9648 14.8103 15.8906C14.8936 15.8164 14.9379 15.6986 14.9431 15.5371H15.6248Z" fill="white"/>
</svg>
