<svg width="100%" height="100%" viewBox="0 0 33 33" fill="none" xmlns="http://www.w3.org/2000/svg">
<g clip-path="url(#clip0_7794_8656)">
<path d="M16.4996 32.3977C7.51325 32.3977 0.298828 25.0839 0.298828 16.1988C0.298828 7.21355 7.51325 0 16.4996 0C25.486 0 32.7005 7.21355 32.7005 16.1988C32.7005 25.0839 25.486 32.3977 16.4996 32.3977ZM16.4996 2.72141C9.07967 2.72141 3.01449 8.77977 3.01449 16.1999C3.01449 23.6199 9.07967 29.6834 16.4996 29.6834C23.9196 29.6834 29.9848 23.6189 29.9848 16.1999C29.9848 8.78079 23.9196 2.72141 16.4996 2.72141ZM24.4472 17.7651H12.739C12.491 17.7664 12.2524 17.6695 12.0756 17.4956C11.8988 17.3216 11.798 17.0847 11.7953 16.8367V15.4709C11.7953 14.9434 12.2115 14.5273 12.739 14.5273H24.5464C25.0689 14.5273 25.485 14.9495 25.485 15.4709V16.8266C25.3848 17.349 24.9636 17.7651 24.4472 17.7651ZM21.4146 12.5389H9.60113C9.3529 12.5408 9.11407 12.4441 8.93712 12.27C8.76017 12.0959 8.65957 11.8587 8.65743 11.6105V10.2448C8.65743 9.82257 9.07967 9.40647 9.60113 9.40647H21.4085C21.8307 9.40647 22.2469 9.82865 22.2469 10.2448V11.6004C22.2469 12.1228 21.8317 12.5389 21.4146 12.5389ZM9.60214 19.8588H21.4156C21.938 19.8588 22.3542 20.2749 22.3542 20.7973V22.1529C22.3553 22.4018 22.2576 22.6409 22.0826 22.8178C21.9076 22.9947 21.6695 23.0949 21.4206 23.0965H9.60214C9.07967 22.9912 8.66351 22.5741 8.66351 22.0527V20.692C8.65845 20.2759 9.07967 19.8588 9.60214 19.8588Z" fill="#4589EF"/>
</g>
<defs>
<clipPath id="clip0_7794_8656">
<rect width="32.4016" height="32.3977" fill="white" transform="translate(0.298828)"/>
</clipPath>
</defs>
</svg>
