<svg width="100%" height="100%" viewBox="0 0 24 24" fill="none" xmlns="http://www.w3.org/2000/svg">
<path d="M22.2654 2.42802C21.9807 2.19118 21.6371 2.03597 21.2712 1.97892C20.9052 1.92186 20.5307 1.9651 20.1874 2.10403L2.26639 9.33902C1.88325 9.49672 1.5571 9.76719 1.33124 10.1145C1.10537 10.4619 0.990452 10.8697 1.00173 11.2839C1.01302 11.6981 1.14996 12.099 1.3944 12.4336C1.63885 12.7681 1.97923 13.0204 2.37039 13.157L5.99539 14.418L8.01539 21.1C8.04308 21.1892 8.08313 21.274 8.13439 21.352C8.14239 21.364 8.15339 21.372 8.16139 21.385C8.22032 21.4671 8.29148 21.5396 8.37239 21.6C8.39498 21.6177 8.41833 21.6344 8.44239 21.65C8.53711 21.7129 8.64199 21.7589 8.75239 21.786L8.76539 21.787L8.77139 21.79C8.83822 21.8034 8.90623 21.8101 8.97439 21.81L8.99239 21.807C9.09481 21.8053 9.19634 21.7878 9.29339 21.755C9.31639 21.747 9.33539 21.735 9.35739 21.725C9.42999 21.6953 9.4988 21.657 9.56239 21.611C9.61304 21.568 9.66371 21.525 9.71439 21.482L12.4164 18.499L16.4464 21.621C16.8011 21.8973 17.2378 22.0476 17.6874 22.048C18.1586 22.0475 18.6154 21.8849 18.981 21.5876C19.3466 21.2903 19.5988 20.8763 19.6954 20.415L22.9584 4.39802C23.0322 4.03768 23.0067 3.66406 22.8846 3.31708C22.7626 2.9701 22.5485 2.6628 22.2654 2.42802V2.42802ZM9.37039 14.736C9.2319 14.8742 9.13728 15.0503 9.09839 15.242L8.78839 16.746L8.00439 14.153L12.0694 12.036L9.37039 14.736ZM17.6724 20.04L12.9094 16.35C12.7101 16.1962 12.4602 16.1232 12.2094 16.1454C11.9587 16.1677 11.7255 16.2836 11.5564 16.47L10.6904 17.425L10.9964 15.938L18.0794 8.85502C18.2474 8.68594 18.3496 8.46238 18.3673 8.22465C18.3851 7.98691 18.3174 7.75065 18.1763 7.55845C18.0353 7.36625 17.8302 7.23077 17.5981 7.17641C17.366 7.12206 17.1221 7.15242 16.9104 7.26202L6.74539 12.554L3.02039 11.191L20.9994 4.00003L17.6724 20.04Z" fill="currentColor"/>
</svg>
