<?xml version="1.0" encoding="utf-8"?>
<!-- Generator: Adobe Illustrator 26.0.1, SVG Export Plug-In . SVG Version: 6.00 Build 0)  -->
<svg version="1.1" id="Layer_1" xmlns="http://www.w3.org/2000/svg" xmlns:xlink="http://www.w3.org/1999/xlink" x="0px" y="0px"
	 viewBox="0 0 120 120" style="enable-background:new 0 0 120 120;" xml:space="preserve">
<path d="M46.4,80.5l-3.7,3.7c-0.5,0.5-1,0.8-1.6,1.1c-0.6,0.3-1.3,0.4-1.9,0.4c-0.7,0-1.3-0.1-1.9-0.4c-0.6-0.2-1.2-0.6-1.6-1.1
	L16.5,65c-0.5-0.5-0.9-1-1.1-1.6c-0.3-0.6-0.4-1.3-0.4-2c0-0.7,0.1-1.3,0.4-2c0.2-0.6,0.6-1.2,1.1-1.7c0.5-0.5,1-0.9,1.6-1.1
	c0.6-0.3,1.3-0.4,1.9-0.4c0.7,0,1.3,0.1,2,0.4c0.6,0.2,1.2,0.6,1.7,1.1l14.1,14.1l1.6,1.6L46.4,80.5z"/>
<path d="M85.2,39.7c0,0.7-0.1,1.4-0.4,2c-0.3,0.6-0.7,1.2-1.2,1.7L59.2,67.7L52,60.5L76.5,36c0.5-0.5,1-0.8,1.6-1.1
	c0.6-0.2,1.3-0.4,1.9-0.4s1.3,0.1,1.9,0.4c0.6,0.3,1.2,0.6,1.6,1.1c0.5,0.5,0.9,1,1.2,1.7C85,38.3,85.2,39,85.2,39.7z"/>
<path d="M105.2,39.7c0,0.7-0.1,1.4-0.4,2c-0.3,0.6-0.7,1.2-1.2,1.7L62.8,84.2c-0.5,0.5-1,0.8-1.6,1.1c-0.6,0.3-1.3,0.4-1.9,0.4
	c-0.7,0-1.3-0.1-1.9-0.4c-0.6-0.2-1.2-0.6-1.6-1.1L36.5,65c-0.5-0.5-0.9-1-1.1-1.6c-0.3-0.6-0.4-1.3-0.4-2c0-0.7,0.1-1.3,0.4-2
	c0.2-0.6,0.6-1.2,1.1-1.7c0.5-0.5,1-0.9,1.6-1.1c0.6-0.3,1.3-0.4,1.9-0.4c0.7,0,1.3,0.1,2,0.4c0.6,0.2,1.2,0.6,1.7,1.1l5.7,5.7
	l7.2,7.2l2.8,2.8L96.5,36c0.5-0.5,1-0.8,1.6-1.1c0.6-0.2,1.3-0.4,1.9-0.4s1.3,0.1,1.9,0.4c0.6,0.3,1.2,0.6,1.6,1.1
	c0.5,0.5,0.9,1,1.2,1.7C105,38.3,105.2,39,105.2,39.7z"/>
</svg>
