<svg width="100%" height="100%" viewBox="0 0 24 24" fill="none" xmlns="http://www.w3.org/2000/svg">
<path d="M12 9C12.1978 9 12.3911 9.05865 12.5556 9.16853C12.72 9.27841 12.8482 9.43459 12.9239 9.61732C12.9996 9.80004 13.0194 10.0011 12.9808 10.1951C12.9422 10.3891 12.847 10.5673 12.7071 10.7071C12.5673 10.847 12.3891 10.9422 12.1951 10.9808C12.0011 11.0194 11.8 10.9996 11.6173 10.9239C11.4346 10.8482 11.2784 10.72 11.1685 10.5556C11.0586 10.3911 11 10.1978 11 10C11 9.73478 11.1054 9.48043 11.2929 9.29289C11.4804 9.10536 11.7348 9 12 9ZM5 2H19C19.7956 2 20.5587 2.31607 21.1213 2.87868C21.6839 3.44129 22 4.20435 22 5V15C22 15.7956 21.6839 16.5587 21.1213 17.1213C20.5587 17.6839 19.7956 18 19 18H7.41L3.71 21.71C3.61656 21.8027 3.50574 21.876 3.38391 21.9258C3.26207 21.9755 3.13161 22.0008 3 22C2.86882 22.0034 2.73868 21.976 2.62 21.92C2.43738 21.845 2.28105 21.7176 2.17072 21.5539C2.06039 21.3901 2.00099 21.1974 2 21V5C2 4.20435 2.31607 3.44129 2.87868 2.87868C3.44129 2.31607 4.20435 2 5 2ZM4 18.59L6.29 16.29C6.38344 16.1973 6.49426 16.124 6.61609 16.0742C6.73793 16.0245 6.86839 15.9992 7 16H19C19.2652 16 19.5196 15.8946 19.7071 15.7071C19.8946 15.5196 20 15.2652 20 15V5C20 4.73478 19.8946 4.48043 19.7071 4.29289C19.5196 4.10536 19.2652 4 19 4H5C4.73478 4 4.48043 4.10536 4.29289 4.29289C4.10536 4.48043 4 4.73478 4 5V18.59ZM16 9C16.1978 9 16.3911 9.05865 16.5556 9.16853C16.72 9.27841 16.8482 9.43459 16.9239 9.61732C16.9996 9.80004 17.0194 10.0011 16.9808 10.1951C16.9422 10.3891 16.847 10.5673 16.7071 10.7071C16.5673 10.847 16.3891 10.9422 16.1951 10.9808C16.0011 11.0194 15.8 10.9996 15.6173 10.9239C15.4346 10.8482 15.2784 10.72 15.1685 10.5556C15.0586 10.3911 15 10.1978 15 10C15 9.73478 15.1054 9.48043 15.2929 9.29289C15.4804 9.10536 15.7348 9 16 9V9ZM8 9C8.19778 9 8.39112 9.05865 8.55557 9.16853C8.72002 9.27841 8.84819 9.43459 8.92388 9.61732C8.99957 9.80004 9.01937 10.0011 8.98079 10.1951C8.9422 10.3891 8.84696 10.5673 8.70711 10.7071C8.56725 10.847 8.38907 10.9422 8.19509 10.9808C8.00111 11.0194 7.80004 10.9996 7.61732 10.9239C7.43459 10.8482 7.27841 10.72 7.16853 10.5556C7.05865 10.3911 7 10.1978 7 10C7 9.73478 7.10536 9.48043 7.29289 9.29289C7.48043 9.10536 7.73478 9 8 9Z" fill="currentColor"/>
</svg>
