<svg width="100%" height="100%" viewBox="0 0 24 24" fill="none" xmlns="http://www.w3.org/2000/svg">
<path d="M8 21H4C3.73478 21 3.48043 20.8946 3.29289 20.7071C3.10536 20.5196 3 20.2652 3 20V16C3 15.7348 2.89464 15.4804 2.70711 15.2929C2.51957 15.1054 2.26522 15 2 15C1.73478 15 1.48043 15.1054 1.29289 15.2929C1.10536 15.4804 1 15.7348 1 16V20C1 20.7956 1.31607 21.5587 1.87868 22.1213C2.44129 22.6839 3.20435 23 4 23H8C8.26522 23 8.51957 22.8946 8.70711 22.7071C8.89464 22.5196 9 22.2652 9 22C9 21.7348 8.89464 21.4804 8.70711 21.2929C8.51957 21.1054 8.26522 21 8 21ZM22 15C21.7348 15 21.4804 15.1054 21.2929 15.2929C21.1054 15.4804 21 15.7348 21 16V20C21 20.2652 20.8946 20.5196 20.7071 20.7071C20.5196 20.8946 20.2652 21 20 21H16C15.7348 21 15.4804 21.1054 15.2929 21.2929C15.1054 21.4804 15 21.7348 15 22C15 22.2652 15.1054 22.5196 15.2929 22.7071C15.4804 22.8946 15.7348 23 16 23H20C20.7956 23 21.5587 22.6839 22.1213 22.1213C22.6839 21.5587 23 20.7956 23 20V16C23 15.7348 22.8946 15.4804 22.7071 15.2929C22.5196 15.1054 22.2652 15 22 15ZM20 1H16C15.7348 1 15.4804 1.10536 15.2929 1.29289C15.1054 1.48043 15 1.73478 15 2C15 2.26522 15.1054 2.51957 15.2929 2.70711C15.4804 2.89464 15.7348 3 16 3H20C20.2652 3 20.5196 3.10536 20.7071 3.29289C20.8946 3.48043 21 3.73478 21 4V8C21 8.26522 21.1054 8.51957 21.2929 8.70711C21.4804 8.89464 21.7348 9 22 9C22.2652 9 22.5196 8.89464 22.7071 8.70711C22.8946 8.51957 23 8.26522 23 8V4C23 3.20435 22.6839 2.44129 22.1213 1.87868C21.5587 1.31607 20.7956 1 20 1ZM2 9C2.26522 9 2.51957 8.89464 2.70711 8.70711C2.89464 8.51957 3 8.26522 3 8V4C3 3.73478 3.10536 3.48043 3.29289 3.29289C3.48043 3.10536 3.73478 3 4 3H8C8.26522 3 8.51957 2.89464 8.70711 2.70711C8.89464 2.51957 9 2.26522 9 2C9 1.73478 8.89464 1.48043 8.70711 1.29289C8.51957 1.10536 8.26522 1 8 1H4C3.20435 1 2.44129 1.31607 1.87868 1.87868C1.31607 2.44129 1 3.20435 1 4V8C1 8.26522 1.10536 8.51957 1.29289 8.70711C1.48043 8.89464 1.73478 9 2 9Z" fill="currentColor"/>
<path d="M16.6673 8.33302H15.814L15.6007 7.66636C15.4624 7.27518 15.2058 6.93669 14.8666 6.6978C14.5274 6.4589 14.1222 6.33142 13.7073 6.33302H10.294C9.87502 6.33381 9.46687 6.46614 9.12716 6.71136C8.78745 6.95657 8.53332 7.30228 8.40065 7.69969L8.18732 8.36636H7.33398C6.80355 8.36636 6.29484 8.57707 5.91977 8.95214C5.5447 9.32721 5.33398 9.83592 5.33398 10.3664V15.6997C5.33398 16.2301 5.5447 16.7388 5.91977 17.1139C6.29484 17.489 6.80355 17.6997 7.33398 17.6997H16.6673C17.1977 17.6997 17.7065 17.489 18.0815 17.1139C18.4566 16.7388 18.6673 16.2301 18.6673 15.6997V10.3664C18.6717 10.1009 18.6233 9.83726 18.5248 9.59075C18.4262 9.34424 18.2796 9.11981 18.0934 8.93054C17.9073 8.74128 17.6853 8.59098 17.4405 8.48839C17.1956 8.3858 16.9328 8.33299 16.6673 8.33302ZM17.334 15.6664C17.334 15.8432 17.2637 16.0127 17.1387 16.1378C17.0137 16.2628 16.8441 16.333 16.6673 16.333H7.33398C7.15717 16.333 6.9876 16.2628 6.86258 16.1378C6.73756 16.0127 6.66732 15.8432 6.66732 15.6664V10.333C6.66732 10.1562 6.73756 9.98664 6.86258 9.86162C6.9876 9.73659 7.15717 9.66636 7.33398 9.66636H8.66732C8.81269 9.67394 8.95656 9.63374 9.07694 9.55188C9.19732 9.47002 9.2876 9.35101 9.33398 9.21302L9.69398 8.11969C9.73871 7.98727 9.82392 7.87227 9.93756 7.79092C10.0512 7.70957 10.1876 7.666 10.3273 7.66636H13.7406C13.8804 7.666 14.0168 7.70957 14.1304 7.79092C14.2441 7.87227 14.3293 7.98727 14.374 8.11969L14.734 9.21302C14.7768 9.34019 14.8569 9.45148 14.964 9.53236C15.071 9.61324 15.2 9.65994 15.334 9.66636H16.6673C16.8441 9.66636 17.0137 9.73659 17.1387 9.86162C17.2637 9.98664 17.334 10.1562 17.334 10.333V15.6664ZM12.0007 9.66636C11.4732 9.66636 10.9577 9.82275 10.5191 10.1158C10.0806 10.4088 9.73881 10.8253 9.53697 11.3125C9.33514 11.7998 9.28233 12.336 9.38522 12.8533C9.48812 13.3705 9.74209 13.8457 10.115 14.2186C10.488 14.5916 10.9631 14.8456 11.4804 14.9485C11.9977 15.0513 12.5339 14.9985 13.0211 14.7967C13.5084 14.5949 13.9249 14.2531 14.2179 13.8145C14.5109 13.376 14.6673 12.8604 14.6673 12.333C14.6673 11.6258 14.3864 10.9475 13.8863 10.4474C13.3862 9.94731 12.7079 9.66636 12.0007 9.66636ZM12.0007 13.6664C11.7369 13.6664 11.4792 13.5882 11.2599 13.4416C11.0406 13.2951 10.8697 13.0869 10.7688 12.8433C10.6679 12.5996 10.6415 12.3315 10.6929 12.0729C10.7444 11.8143 10.8714 11.5767 11.0578 11.3902C11.2443 11.2037 11.4819 11.0768 11.7405 11.0253C11.9992 10.9739 12.2673 11.0003 12.5109 11.1012C12.7545 11.2021 12.9628 11.373 13.1093 11.5923C13.2558 11.8115 13.334 12.0693 13.334 12.333C13.334 12.6866 13.1935 13.0258 12.9435 13.2758C12.6934 13.5259 12.3543 13.6664 12.0007 13.6664Z" fill="currentColor"/>
</svg>
