<svg width="100%" height="100%" viewBox="0 0 24 24" fill="none" xmlns="http://www.w3.org/2000/svg">
<path d="M19.9009 12.66C19.7406 12.4775 19.6521 12.2429 19.6521 12C19.6521 11.757 19.7406 11.5224 19.9009 11.34L21.1809 9.89996C21.3219 9.74262 21.4095 9.54466 21.4311 9.33446C21.4526 9.12427 21.407 8.91264 21.3009 8.72996L19.3009 5.26996C19.1958 5.08748 19.0358 4.94283 18.8436 4.85664C18.6515 4.77045 18.437 4.74711 18.2309 4.78996L16.3509 5.16996C16.1117 5.21938 15.8626 5.17954 15.6508 5.05796C15.4389 4.93637 15.2789 4.74144 15.2009 4.50996L14.5909 2.67996C14.5238 2.48134 14.396 2.30882 14.2255 2.1868C14.055 2.06478 13.8505 1.99941 13.6409 1.99996H9.64087C9.42281 1.98857 9.20701 2.04888 9.02644 2.17167C8.84587 2.29446 8.71045 2.47298 8.64087 2.67996L8.08087 4.50996C8.00287 4.74144 7.84284 4.93637 7.63099 5.05796C7.41913 5.17954 7.17009 5.21938 6.93087 5.16996L5.00087 4.78996C4.80542 4.76234 4.60617 4.79318 4.42822 4.8786C4.25027 4.96401 4.10157 5.10018 4.00087 5.26996L2.00087 8.72996C1.89203 8.91061 1.84309 9.12104 1.86106 9.33118C1.87902 9.54132 1.96296 9.7404 2.10087 9.89996L3.37087 11.34C3.53119 11.5224 3.61961 11.757 3.61961 12C3.61961 12.2429 3.53119 12.4775 3.37087 12.66L2.10087 14.1C1.96296 14.2595 1.87902 14.4586 1.86106 14.6687C1.84309 14.8789 1.89203 15.0893 2.00087 15.27L4.00087 18.73C4.10597 18.9124 4.26599 19.0571 4.45812 19.1433C4.65026 19.2295 4.8647 19.2528 5.07087 19.21L6.95087 18.83C7.19009 18.7805 7.43913 18.8204 7.65099 18.942C7.86284 19.0635 8.02287 19.2585 8.10087 19.49L8.71087 21.32C8.78045 21.5269 8.91587 21.7055 9.09644 21.8282C9.27701 21.951 9.49281 22.0113 9.71087 22H13.7109C13.9205 22.0005 14.125 21.9351 14.2955 21.8131C14.466 21.6911 14.5938 21.5186 14.6609 21.32L15.2709 19.49C15.3489 19.2585 15.5089 19.0635 15.7208 18.942C15.9326 18.8204 16.1817 18.7805 16.4209 18.83L18.3009 19.21C18.507 19.2528 18.7215 19.2295 18.9136 19.1433C19.1058 19.0571 19.2658 18.9124 19.3709 18.73L21.3709 15.27C21.477 15.0873 21.5226 14.8756 21.5011 14.6654C21.4795 14.4553 21.3919 14.2573 21.2509 14.1L19.9009 12.66ZM18.4109 14L19.2109 14.9L17.9309 17.12L16.7509 16.88C16.0307 16.7327 15.2814 16.8551 14.6455 17.2238C14.0095 17.5924 13.531 18.1818 13.3009 18.88L12.9209 20H10.3609L10.0009 18.86C9.77073 18.1618 9.29225 17.5724 8.65628 17.2038C8.0203 16.8351 7.27109 16.7127 6.55087 16.86L5.37087 17.1L4.07087 14.89L4.87087 13.99C5.36283 13.4399 5.6348 12.7279 5.6348 11.99C5.6348 11.252 5.36283 10.54 4.87087 9.98996L4.07087 9.08996L5.35087 6.88996L6.53087 7.12996C7.25109 7.27718 8.0003 7.15484 8.63628 6.78615C9.27225 6.41747 9.75073 5.82811 9.98087 5.12996L10.3609 3.99996H12.9209L13.3009 5.13996C13.531 5.83811 14.0095 6.42747 14.6455 6.79615C15.2814 7.16484 16.0307 7.28718 16.7509 7.13996L17.9309 6.89996L19.2109 9.11996L18.4109 10.02C17.9244 10.5687 17.6558 11.2766 17.6558 12.01C17.6558 12.7433 17.9244 13.4512 18.4109 14ZM11.6409 7.99996C10.8497 7.99996 10.0764 8.23455 9.41859 8.67408C8.76079 9.1136 8.24811 9.73832 7.94535 10.4692C7.6426 11.2001 7.56339 12.0044 7.71773 12.7803C7.87207 13.5562 8.25304 14.269 8.81245 14.8284C9.37186 15.3878 10.0846 15.7688 10.8605 15.9231C11.6364 16.0774 12.4407 15.9982 13.1716 15.6955C13.9025 15.3927 14.5272 14.88 14.9668 14.2222C15.4063 13.5644 15.6409 12.7911 15.6409 12C15.6409 10.9391 15.2194 9.92167 14.4693 9.17153C13.7192 8.42138 12.7017 7.99996 11.6409 7.99996ZM11.6409 14C11.2453 14 10.8586 13.8827 10.5297 13.6629C10.2008 13.4431 9.94449 13.1308 9.79311 12.7653C9.64174 12.3999 9.60213 11.9977 9.6793 11.6098C9.75647 11.2218 9.94695 10.8654 10.2267 10.5857C10.5064 10.306 10.8627 10.1156 11.2507 10.0384C11.6387 9.96122 12.0408 10.0008 12.4062 10.1522C12.7717 10.3036 13.084 10.5599 13.3038 10.8888C13.5236 11.2177 13.6409 11.6044 13.6409 12C13.6409 12.5304 13.4302 13.0391 13.0551 13.4142C12.68 13.7892 12.1713 14 11.6409 14Z" fill="currentColor"/>
</svg>
