<svg width="100%" height="100%" viewBox="0 0 24 24" fill="none" xmlns="http://www.w3.org/2000/svg">
<path d="M18.5402 9.00003L8.88021 3.46003C8.3575 3.15819 7.76421 3.00006 7.16061 3.00172C6.557 3.00338 5.96459 3.16476 5.44354 3.46947C4.92249 3.77417 4.49137 4.21135 4.19396 4.7366C3.89655 5.26185 3.74345 5.85646 3.75021 6.46003V17.58C3.75021 18.4871 4.11053 19.357 4.75191 19.9983C5.39328 20.6397 6.26317 21 7.17021 21C7.77065 20.999 8.3603 20.8404 8.88021 20.54L18.5402 15C19.0593 14.6996 19.4902 14.268 19.7898 13.7485C20.0894 13.2289 20.2471 12.6397 20.2471 12.04C20.2471 11.4403 20.0894 10.8511 19.7898 10.3316C19.4902 9.81206 19.0593 9.38044 18.5402 9.08003V9.00003Z" fill="currentColor"/>
</svg>
