<svg width="100%" height="100%" viewBox="0 0 24 24" fill="none" xmlns="http://www.w3.org/2000/svg">
<path d="M14.8297 11.2901L10.5897 7.05007C10.4967 6.95634 10.3861 6.88195 10.2643 6.83118C10.1424 6.78041 10.0117 6.75427 9.8797 6.75427C9.74769 6.75427 9.61698 6.78041 9.49512 6.83118C9.37326 6.88195 9.26266 6.95634 9.1697 7.05007C8.98345 7.23743 8.87891 7.49088 8.87891 7.75507C8.87891 8.01926 8.98345 8.27271 9.1697 8.46007L12.7097 12.0001L9.1697 15.5401C8.98345 15.7274 8.87891 15.9809 8.87891 16.2451C8.87891 16.5093 8.98345 16.7627 9.1697 16.9501C9.26314 17.0428 9.37395 17.1161 9.49579 17.1658C9.61763 17.2156 9.74809 17.2408 9.8797 17.2401C10.0113 17.2408 10.1418 17.2156 10.2636 17.1658C10.3854 17.1161 10.4963 17.0428 10.5897 16.9501L14.8297 12.7101C14.9234 12.6171 14.9978 12.5065 15.0486 12.3846C15.0994 12.2628 15.1255 12.1321 15.1255 12.0001C15.1255 11.8681 15.0994 11.7374 15.0486 11.6155C14.9978 11.4936 14.9234 11.383 14.8297 11.2901Z" fill="currentColor"/>
</svg>
