<svg width="100%" height="100%" viewBox="0 0 24 24" fill="none" xmlns="http://www.w3.org/2000/svg">
<path d="M12 11C12.2652 11 12.5196 10.8946 12.7071 10.7071C12.8946 10.5196 13 10.2652 13 10V7C13 6.73478 12.8946 6.48043 12.7071 6.29289C12.5196 6.10536 12.2652 6 12 6C11.7348 6 11.4804 6.10536 11.2929 6.29289C11.1054 6.48043 11 6.73478 11 7V10C11 10.2652 11.1054 10.5196 11.2929 10.7071C11.4804 10.8946 11.7348 11 12 11ZM5 2H19C19.7956 2 20.5587 2.31607 21.1213 2.87868C21.6839 3.44129 22 4.20435 22 5V15C22 15.7956 21.6839 16.5587 21.1213 17.1213C20.5587 17.6839 19.7956 18 19 18H7.41L3.71 21.71C3.61656 21.8027 3.50574 21.876 3.38391 21.9258C3.26207 21.9755 3.13161 22.0008 3 22C2.86882 22.0034 2.73868 21.976 2.62 21.92C2.43738 21.845 2.28105 21.7176 2.17072 21.5539C2.06039 21.3901 2.00099 21.1974 2 21V5C2 4.20435 2.31607 3.44129 2.87868 2.87868C3.44129 2.31607 4.20435 2 5 2ZM4 18.59L6.29 16.29C6.38344 16.1973 6.49426 16.124 6.61609 16.0742C6.73793 16.0245 6.86839 15.9992 7 16H19C19.2652 16 19.5196 15.8946 19.7071 15.7071C19.8946 15.5196 20 15.2652 20 15V5C20 4.73478 19.8946 4.48043 19.7071 4.29289C19.5196 4.10536 19.2652 4 19 4H5C4.73478 4 4.48043 4.10536 4.29289 4.29289C4.10536 4.48043 4 4.73478 4 5V18.59ZM12 14C12.1978 14 12.3911 13.9414 12.5556 13.8315C12.72 13.7216 12.8482 13.5654 12.9239 13.3827C12.9996 13.2 13.0194 12.9989 12.9808 12.8049C12.9422 12.6109 12.847 12.4327 12.7071 12.2929C12.5673 12.153 12.3891 12.0578 12.1951 12.0192C12.0011 11.9806 11.8 12.0004 11.6173 12.0761C11.4346 12.1518 11.2784 12.28 11.1685 12.4444C11.0586 12.6089 11 12.8022 11 13C11 13.2652 11.1054 13.5196 11.2929 13.7071C11.4804 13.8946 11.7348 14 12 14Z" fill="currentColor"/>
</svg>