<svg width="100%" height="100%" viewBox="0 0 24 24" fill="none" xmlns="http://www.w3.org/2000/svg">
<path d="M12.7102 21.715C12.6151 21.806 12.5029 21.8774 12.3802 21.925C12.1367 22.025 11.8636 22.025 11.6202 21.925C11.4974 21.8774 11.3853 21.806 11.2902 21.715L8.79018 19.215C8.60188 19.0267 8.49609 18.7713 8.49609 18.505C8.49609 18.2387 8.60188 17.9833 8.79018 17.795C8.97849 17.6067 9.23388 17.5009 9.50019 17.5009C9.76649 17.5009 10.0219 17.6067 10.2102 17.795L11.0002 18.595V14.005C11.0002 13.7398 11.1055 13.4854 11.2931 13.2979C11.4806 13.1103 11.735 13.005 12.0002 13.005C12.2654 13.005 12.5198 13.1103 12.7073 13.2979C12.8948 13.4854 13.0002 13.7398 13.0002 14.005V18.595L13.7902 17.795C13.8831 17.7013 13.9937 17.6269 14.1156 17.5761C14.2375 17.5253 14.3682 17.4992 14.5002 17.4992C14.6322 17.4992 14.7629 17.5253 14.8848 17.5761C15.0066 17.6269 15.1172 17.7013 15.2102 17.795C15.3039 17.888 15.3783 17.9985 15.4291 18.1204C15.4798 18.2423 15.506 18.373 15.506 18.505C15.506 18.637 15.4798 18.7677 15.4291 18.8896C15.3783 19.0114 15.3039 19.122 15.2102 19.215L12.7102 21.715ZM11.2902 2.29023C11.3853 2.19919 11.4974 2.12783 11.6202 2.08023C11.7399 2.02733 11.8693 2 12.0002 2C12.1311 2 12.2605 2.02733 12.3802 2.08023C12.5029 2.12783 12.6151 2.19919 12.7102 2.29023L15.2102 4.79023C15.3034 4.88347 15.3774 4.99416 15.4278 5.11598C15.4783 5.23781 15.5043 5.36837 15.5043 5.50023C15.5043 5.63209 15.4783 5.76266 15.4278 5.88448C15.3774 6.0063 15.3034 6.11699 15.2102 6.21023C15.1169 6.30347 15.0063 6.37743 14.8844 6.42789C14.7626 6.47835 14.632 6.50432 14.5002 6.50432C14.3683 6.50432 14.2378 6.47835 14.1159 6.42789C13.9941 6.37743 13.8834 6.30347 13.7902 6.21023L13.0002 5.41023V10.0002C13.0002 10.2654 12.8948 10.5198 12.7073 10.7073C12.5198 10.8949 12.2654 11.0002 12.0002 11.0002C11.735 11.0002 11.4806 10.8949 11.2931 10.7073C11.1055 10.5198 11.0002 10.2654 11.0002 10.0002V5.41023L10.2102 6.21023C10.0219 6.39854 9.76649 6.50432 9.50019 6.50432C9.23388 6.50432 8.97849 6.39854 8.79018 6.21023C8.60188 6.02193 8.49609 5.76653 8.49609 5.50023C8.49609 5.23393 8.60188 4.97854 8.79018 4.79023L11.2902 2.29023Z" fill="currentColor"/>
</svg>