<svg width="100%" height="100%" viewBox="0 0 24 24" fill="none" xmlns="http://www.w3.org/2000/svg">
<path d="M11.2908 12.0001L14.8308 8.46007C15.017 8.27271 15.1216 8.01926 15.1216 7.75507C15.1216 7.49089 15.017 7.23743 14.8308 7.05007C14.7378 6.95634 14.6272 6.88195 14.5054 6.83118C14.3835 6.78041 14.2528 6.75427 14.1208 6.75427C13.9888 6.75427 13.8581 6.78041 13.7362 6.83118C13.6144 6.88195 13.5038 6.95634 13.4108 7.05007L9.1708 11.2901C9.07707 11.383 9.00268 11.4936 8.95191 11.6155C8.90114 11.7374 8.875 11.8681 8.875 12.0001C8.875 12.1321 8.90114 12.2628 8.95191 12.3846C9.00268 12.5065 9.07707 12.6171 9.1708 12.7101L13.4108 17.0001C13.5042 17.0928 13.6151 17.1661 13.7369 17.2158C13.8587 17.2656 13.9892 17.2908 14.1208 17.2901C14.2524 17.2908 14.3829 17.2656 14.5047 17.2158C14.6265 17.1661 14.7374 17.0928 14.8308 17.0001C15.017 16.8127 15.1216 16.5593 15.1216 16.2951C15.1216 16.0309 15.017 15.7774 14.8308 15.5901L11.2908 12.0001Z" fill="currentColor"/>
</svg>
