<svg width="100%" height="100%" viewBox="0 0 43 42" fill="none" xmlns="http://www.w3.org/2000/svg">
<rect x="0.5" width="42" height="42" rx="8" fill="#F8F9FA"/>
<path d="M11.7 14.5833H31.3V27.4167H34.1V13.7083C34.1 12.9041 33.3151 12.25 32.35 12.25H10.65C9.68487 12.25 8.9 12.9041 8.9 13.7083V27.4167H11.7V14.5833ZM34.8 28.5833H28.5V26.25H20.1V28.5833H8.2C7.81325 28.5833 7.5 28.8444 7.5 29.1667V30.3333C7.5 30.6556 7.81325 30.9167 8.2 30.9167H34.8C35.1867 30.9167 35.5 30.6556 35.5 30.3333V29.1667C35.5 28.8444 35.1867 28.5833 34.8 28.5833Z" fill="currentColor"/>
</svg>
