<svg width="100%" height="100%" viewBox="0 0 24 24" fill="none" xmlns="http://www.w3.org/2000/svg">
<path d="M16.9997 9.17006C16.8123 8.98381 16.5589 8.87927 16.2947 8.87927C16.0305 8.87927 15.7771 8.98381 15.5897 9.17006L11.9997 12.7101L8.4597 9.17006C8.27234 8.98381 8.01889 8.87927 7.7547 8.87927C7.49052 8.87927 7.23707 8.98381 7.0497 9.17006C6.95598 9.26303 6.88158 9.37363 6.83081 9.49549C6.78004 9.61735 6.75391 9.74805 6.75391 9.88006C6.75391 10.0121 6.78004 10.1428 6.83081 10.2646C6.88158 10.3865 6.95598 10.4971 7.0497 10.5901L11.2897 14.8301C11.3827 14.9238 11.4933 14.9982 11.6151 15.049C11.737 15.0997 11.8677 15.1259 11.9997 15.1259C12.1317 15.1259 12.2624 15.0997 12.3843 15.049C12.5061 14.9982 12.6167 14.9238 12.7097 14.8301L16.9997 10.5901C17.0934 10.4971 17.1678 10.3865 17.2186 10.2646C17.2694 10.1428 17.2955 10.0121 17.2955 9.88006C17.2955 9.74805 17.2694 9.61735 17.2186 9.49549C17.1678 9.37363 17.0934 9.26303 16.9997 9.17006Z" fill="currentColor"/>
</svg>
