<svg width="100%" height="100%" viewBox="0 0 24 24" fill="none" xmlns="http://www.w3.org/2000/svg">
<path d="M8.00001 2H16C16.7957 2 17.5587 2.31607 18.1213 2.87868C18.6839 3.44129 19 4.20435 19 5V21C19.0007 21.1762 18.9548 21.3495 18.867 21.5023C18.7792 21.655 18.6526 21.7819 18.5 21.87C18.3476 21.9564 18.1752 22.0012 18 22C17.8248 22.0012 17.6524 21.9564 17.5 21.87L12 18.69L6.50001 21.87C6.34799 21.9578 6.17554 22.004 6.00001 22.004C5.82447 22.004 5.65203 21.9578 5.50001 21.87C5.3474 21.7819 5.22079 21.655 5.13299 21.5023C5.04518 21.3495 4.99931 21.1762 5.00001 21V5C5.00001 4.20435 5.31608 3.44129 5.87869 2.87868C6.4413 2.31607 7.20436 2 8.00001 2Z" fill="currentColor"/>
</svg>
