<svg width="20" height="20" viewBox="0 0 20 20" fill="none" xmlns="http://www.w3.org/2000/svg">
<path d="M10.5 2.75C10.5 2.55109 10.421 2.36032 10.2803 2.21967C10.1397 2.07902 9.94891 2 9.75 2C9.55109 2 9.36032 2.07902 9.21967 2.21967C9.07902 2.36032 9 2.55109 9 2.75V9H2.75C2.55109 9 2.36032 9.07902 2.21967 9.21967C2.07902 9.36032 2 9.55109 2 9.75C2 9.94891 2.07902 10.1397 2.21967 10.2803C2.36032 10.421 2.55109 10.5 2.75 10.5H9V16.75C9 16.9489 9.07902 17.1397 9.21967 17.2803C9.36032 17.421 9.55109 17.5 9.75 17.5C9.94891 17.5 10.1397 17.421 10.2803 17.2803C10.421 17.1397 10.5 16.9489 10.5 16.75V10.5H16.75C16.9489 10.5 17.1397 10.421 17.2803 10.2803C17.421 10.1397 17.5 9.94891 17.5 9.75C17.5 9.55109 17.421 9.36032 17.2803 9.21967C17.1397 9.07902 16.9489 9 16.75 9H10.5V2.75Z" fill="black"/>
</svg>
