<svg width="20" height="20" viewBox="0 0 20 20" fill="none" xmlns="http://www.w3.org/2000/svg">
<path d="M9.386 4.29L8.066 3.3C7.80636 3.10527 7.49056 3 7.166 3H4.5C3.83696 3 3.20107 3.26339 2.73223 3.73223C2.26339 4.20107 2 4.83696 2 5.5V6.5H7.07C7.13793 6.50002 7.20515 6.4862 7.26756 6.45938C7.32997 6.43255 7.38626 6.3933 7.433 6.344L9.386 4.29Z" fill="black"/>
<path d="M10.565 4.5L8.158 7.033C8.01794 7.18047 7.84935 7.29791 7.66249 7.37819C7.47562 7.45847 7.27438 7.49992 7.071 7.5H2V14.5C2 15.163 2.26339 15.7989 2.73223 16.2678C3.20107 16.7366 3.83696 17 4.5 17H9.6C9.02447 15.8734 8.85493 14.5828 9.11996 13.3457C9.38498 12.1087 10.0684 11.0008 11.0549 10.2089C12.0415 9.41692 13.2709 8.98929 14.536 8.99806C15.8011 9.00682 17.0245 9.45145 18 10.257V7L17.995 6.836C17.9534 6.20265 17.6724 5.60885 17.209 5.17504C16.7457 4.74123 16.1347 4.4999 15.5 4.5H10.565V4.5Z" fill="black"/>
<path d="M19 14.5C19 15.6935 18.5259 16.8381 17.682 17.682C16.8381 18.5259 15.6935 19 14.5 19C13.3065 19 12.1619 18.5259 11.318 17.682C10.4741 16.8381 10 15.6935 10 14.5C10 13.3065 10.4741 12.1619 11.318 11.318C12.1619 10.4741 13.3065 10 14.5 10C15.6935 10 16.8381 10.4741 17.682 11.318C18.5259 12.1619 19 13.3065 19 14.5V14.5ZM15 12.5C15 12.3674 14.9473 12.2402 14.8536 12.1464C14.7598 12.0527 14.6326 12 14.5 12C14.3674 12 14.2402 12.0527 14.1464 12.1464C14.0527 12.2402 14 12.3674 14 12.5V14H12.5C12.3674 14 12.2402 14.0527 12.1464 14.1464C12.0527 14.2402 12 14.3674 12 14.5C12 14.6326 12.0527 14.7598 12.1464 14.8536C12.2402 14.9473 12.3674 15 12.5 15H14V16.5C14 16.6326 14.0527 16.7598 14.1464 16.8536C14.2402 16.9473 14.3674 17 14.5 17C14.6326 17 14.7598 16.9473 14.8536 16.8536C14.9473 16.7598 15 16.6326 15 16.5V15H16.5C16.6326 15 16.7598 14.9473 16.8536 14.8536C16.9473 14.7598 17 14.6326 17 14.5C17 14.3674 16.9473 14.2402 16.8536 14.1464C16.7598 14.0527 16.6326 14 16.5 14H15V12.5Z" fill="black"/>
</svg>
