<svg width="20" height="20" viewBox="0 0 20 20" fill="none" xmlns="http://www.w3.org/2000/svg">
<path d="M4.5 3C3.83696 3 3.20107 3.26339 2.73223 3.73223C2.26339 4.20107 2 4.83696 2 5.5V14.5C2 15.163 2.26339 15.7989 2.73223 16.2678C3.20107 16.7366 3.83696 17 4.5 17H9.6C9.43647 16.6804 9.30483 16.3454 9.207 16H4.5C4.10218 16 3.72064 15.842 3.43934 15.5607C3.15804 15.2794 3 14.8978 3 14.5V7.5H7.071C7.27431 7.50005 7.4755 7.45876 7.66237 7.37865C7.84923 7.29854 8.01785 7.18129 8.158 7.034L9.619 5.5H15.5C15.8978 5.5 16.2794 5.65804 16.5607 5.93934C16.842 6.22064 17 6.60218 17 7V9.6C17.358 9.783 17.693 10.004 18 10.257V7C18 6.33696 17.7366 5.70107 17.2678 5.23223C16.7989 4.76339 16.163 4.5 15.5 4.5H9.667L8.067 3.3C7.80736 3.10527 7.49156 3 7.167 3H4.5ZM3 5.5C3 5.10218 3.15804 4.72064 3.43934 4.43934C3.72064 4.15804 4.10218 4 4.5 4H7.167C7.27518 4 7.38045 4.03509 7.467 4.1L8.694 5.02L7.434 6.345C7.38718 6.39412 7.33085 6.43319 7.26844 6.45984C7.20604 6.48648 7.13886 6.50015 7.071 6.5H3V5.5Z" fill="black"/>
<path d="M19 14.5C19 15.6935 18.5259 16.8381 17.682 17.682C16.8381 18.5259 15.6935 19 14.5 19C13.3065 19 12.1619 18.5259 11.318 17.682C10.4741 16.8381 10 15.6935 10 14.5C10 13.3065 10.4741 12.1619 11.318 11.318C12.1619 10.4741 13.3065 10 14.5 10C15.6935 10 16.8381 10.4741 17.682 11.318C18.5259 12.1619 19 13.3065 19 14.5V14.5ZM15 12.5C15 12.3674 14.9473 12.2402 14.8536 12.1464C14.7598 12.0527 14.6326 12 14.5 12C14.3674 12 14.2402 12.0527 14.1464 12.1464C14.0527 12.2402 14 12.3674 14 12.5V14H12.5C12.3674 14 12.2402 14.0527 12.1464 14.1464C12.0527 14.2402 12 14.3674 12 14.5C12 14.6326 12.0527 14.7598 12.1464 14.8536C12.2402 14.9473 12.3674 15 12.5 15H14V16.5C14 16.6326 14.0527 16.7598 14.1464 16.8536C14.2402 16.9473 14.3674 17 14.5 17C14.6326 17 14.7598 16.9473 14.8536 16.8536C14.9473 16.7598 15 16.6326 15 16.5V15H16.5C16.6326 15 16.7598 14.9473 16.8536 14.8536C16.9473 14.7598 17 14.6326 17 14.5C17 14.3674 16.9473 14.2402 16.8536 14.1464C16.7598 14.0527 16.6326 14 16.5 14H15V12.5Z" fill="black"/>
</svg>
