<svg width="20" height="20" viewBox="0 0 20 20" fill="none" xmlns="http://www.w3.org/2000/svg">
<path d="M16.998 7V9.002C16.2831 9.03416 15.6062 9.33317 15.101 9.84L10.271 14.669C9.862 15.079 9.571 15.592 9.431 16.154L9.22 16.999H5.5C4.83696 16.999 4.20107 16.7356 3.73223 16.2668C3.26339 15.7979 3 15.162 3 14.499V6.999H16.998V7ZM14.498 3C15.161 3 15.7969 3.26339 16.2658 3.73223C16.7346 4.20107 16.998 4.83696 16.998 5.5V6H3V5.5C3 4.83696 3.26339 4.20107 3.73223 3.73223C4.20107 3.26339 4.83696 3 5.5 3H14.499H14.498ZM10.978 15.376L15.808 10.546C16.1589 10.1954 16.6347 9.99852 17.1307 9.9987C17.6267 9.99889 18.1024 10.1961 18.453 10.547C18.8036 10.8979 19.0005 11.3737 19.0003 11.8697C19.0001 12.3657 18.8029 12.8414 18.452 13.192L13.623 18.02C13.3416 18.3015 12.9891 18.5013 12.603 18.598L11.105 18.973C10.956 19.01 10.8 19.0078 10.6521 18.9667C10.5042 18.9255 10.3695 18.8468 10.261 18.7382C10.1525 18.6297 10.0739 18.4948 10.0329 18.3469C9.99192 18.199 9.98988 18.043 10.027 17.894L10.401 16.396C10.498 16.01 10.697 15.657 10.979 15.376H10.978Z" fill="black"/>
</svg>
