<svg width="20" height="20" viewBox="0 0 20 20" fill="none" xmlns="http://www.w3.org/2000/svg">
<path d="M14.499 3C14.8273 3 15.1524 3.06466 15.4557 3.1903C15.759 3.31594 16.0346 3.50009 16.2668 3.73223C16.4989 3.96438 16.6831 4.23998 16.8087 4.54329C16.9343 4.84661 16.999 5.1717 16.999 5.5V9.002C16.6546 9.01766 16.3159 9.09523 15.999 9.231V7H3.999V14.499C3.999 14.8968 4.15704 15.2784 4.43834 15.5597C4.71964 15.841 5.10118 15.999 5.499 15.999H9.474C9.458 16.049 9.444 16.102 9.431 16.154L9.22 16.999H5.5C4.83696 16.999 4.20107 16.7356 3.73223 16.2668C3.26339 15.7979 3 15.162 3 14.499V5.499C3.00027 4.83613 3.26377 4.2005 3.73259 3.73188C4.2014 3.26325 4.83713 3 5.5 3H14.499ZM14.499 4H5.499C5.10135 4.00027 4.72007 4.15842 4.43899 4.43969C4.1579 4.72097 4 5.10235 4 5.5V6H16V5.5C16 5.10218 15.842 4.72064 15.5607 4.43934C15.2794 4.15804 14.8978 4 14.5 4H14.499ZM10.979 15.376L15.808 10.546C16.1589 10.1954 16.6347 9.99852 17.1307 9.9987C17.6267 9.99889 18.1024 10.1961 18.453 10.547C18.8036 10.8979 19.0005 11.3737 19.0003 11.8697C19.0001 12.3657 18.8029 12.8414 18.452 13.192L13.623 18.02C13.3416 18.3015 12.9891 18.5013 12.603 18.598L11.105 18.973C10.956 19.01 10.8 19.0078 10.6521 18.9667C10.5042 18.9255 10.3695 18.8468 10.261 18.7382C10.1525 18.6297 10.0739 18.4948 10.0329 18.3469C9.99192 18.199 9.98988 18.043 10.027 17.894L10.401 16.396C10.498 16.01 10.697 15.657 10.979 15.376V15.376Z" fill="black"/>
</svg>
