<svg width="20" height="20" viewBox="0 0 20 20" fill="none" xmlns="http://www.w3.org/2000/svg">
<path d="M7.99985 3.75C7.99985 3.55109 8.07886 3.36032 8.21952 3.21967C8.36017 3.07902 8.55093 3 8.74985 3H16.2498C16.4488 3 16.6395 3.07902 16.7802 3.21967C16.9208 3.36032 16.9998 3.55109 16.9998 3.75V11.25C16.9998 11.4489 16.9208 11.6397 16.7802 11.7803C16.6395 11.921 16.4488 12 16.2498 12C16.0509 12 15.8602 11.921 15.7195 11.7803C15.5789 11.6397 15.4998 11.4489 15.4998 11.25V5.56L4.27985 16.78C4.13767 16.9125 3.94963 16.9846 3.75532 16.9812C3.56102 16.9777 3.37564 16.899 3.23822 16.7616C3.10081 16.6242 3.0221 16.4388 3.01867 16.2445C3.01524 16.0502 3.08737 15.8622 3.21985 15.72L14.4398 4.5H8.74985C8.55093 4.5 8.36017 4.42098 8.21952 4.28033C8.07886 4.13968 7.99985 3.94891 7.99985 3.75V3.75Z" fill="black"/>
</svg>
