<svg width="20" height="20" viewBox="0 0 20 20" fill="none" xmlns="http://www.w3.org/2000/svg">
<path d="M15.7931 7.73318C15.9302 7.87723 16.0045 8.0698 15.9996 8.26857C15.9947 8.46733 15.9111 8.65603 15.7671 8.79318L10.5171 13.7942C10.3777 13.9272 10.1924 14.0013 9.99964 14.0013C9.80694 14.0013 9.62163 13.9272 9.48214 13.7942L4.23214 8.79418C4.088 8.65707 4.00423 8.4683 3.99926 8.26942C3.99429 8.07054 4.06853 7.87783 4.20564 7.73368C4.34276 7.58954 4.53152 7.50577 4.73041 7.5008C4.92929 7.49583 5.122 7.57007 5.26614 7.70718L10.0001 12.2162L14.7341 7.70618C14.8783 7.56925 15.071 7.49518 15.2697 7.50024C15.4685 7.50531 15.6571 7.58909 15.7941 7.73318H15.7931Z" fill="black"/>
</svg>
