<svg width="20" height="20" viewBox="0 0 20 20" fill="none" xmlns="http://www.w3.org/2000/svg">
<path d="M4.20715 12.2672C4.07009 12.1231 3.99584 11.9306 4.00071 11.7318C4.00559 11.533 4.08919 11.3443 4.23315 11.2072L9.48315 6.20519C9.62263 6.07222 9.80794 5.99805 10.0006 5.99805C10.1934 5.99805 10.3787 6.07222 10.5181 6.20519L15.7681 11.2062C15.8424 11.2733 15.9024 11.3547 15.9447 11.4454C15.987 11.5361 16.0107 11.6344 16.0144 11.7344C16.0181 11.8344 16.0018 11.9342 15.9664 12.0278C15.9309 12.1214 15.8771 12.207 15.8081 12.2795C15.7391 12.352 15.6563 12.4099 15.5645 12.4499C15.4727 12.4899 15.3739 12.5111 15.2738 12.5123C15.1737 12.5134 15.0744 12.4946 14.9817 12.4568C14.889 12.419 14.8049 12.363 14.7341 12.2922L10.0001 7.78419L5.26615 12.2922C5.12224 12.4294 4.92974 12.5038 4.73097 12.4991C4.5322 12.4944 4.34343 12.411 4.20615 12.2672H4.20715Z" fill="black"/>
</svg>
