<svg width="20" height="20" viewBox="0 0 20 20" fill="none" xmlns="http://www.w3.org/2000/svg">
<path d="M12.2682 15.7922C12.1241 15.9292 11.9316 16.0035 11.7328 15.9986C11.534 15.9937 11.3453 15.9101 11.2082 15.7662L6.20617 10.5162C6.0732 10.3767 5.99902 10.1914 5.99902 9.99865C5.99902 9.80595 6.0732 9.62064 6.20617 9.48115L11.2072 4.23115C11.2743 4.15694 11.3557 4.09691 11.4464 4.05462C11.5371 4.01232 11.6354 3.98862 11.7354 3.98489C11.8354 3.98117 11.9352 3.99751 12.0288 4.03294C12.1224 4.06837 12.208 4.12218 12.2805 4.1912C12.3529 4.26022 12.4109 4.34305 12.4509 4.43481C12.4908 4.52657 12.512 4.62541 12.5132 4.7255C12.5144 4.82558 12.4956 4.92489 12.4578 5.01758C12.42 5.11026 12.364 5.19444 12.2932 5.26515L7.78517 9.99915L12.2932 14.7332C12.4304 14.8771 12.5048 15.0696 12.5001 15.2683C12.4954 15.4671 12.412 15.6559 12.2682 15.7932V15.7922Z" fill="black"/>
</svg>
