<svg width="20" height="20" viewBox="0 0 20 20" fill="none" xmlns="http://www.w3.org/2000/svg">
<path d="M3.89716 4.05416L3.97016 3.97016C4.09715 3.84314 4.2655 3.76591 4.44461 3.75252C4.62372 3.73912 4.80169 3.79044 4.94616 3.89716L5.03016 3.97016L10.0002 8.93916L14.9702 3.96916C15.0973 3.84229 15.2657 3.76525 15.4448 3.75203C15.6239 3.73882 15.8018 3.79032 15.9462 3.89716L16.0302 3.97016C16.1572 4.09715 16.2344 4.2655 16.2478 4.44461C16.2612 4.62372 16.2099 4.80169 16.1032 4.94616L16.0302 5.03016L11.0612 10.0002L16.0312 14.9702C16.158 15.0973 16.2351 15.2657 16.2483 15.4448C16.2615 15.6239 16.21 15.8018 16.1032 15.9462L16.0302 16.0302C15.9032 16.1572 15.7348 16.2344 15.5557 16.2478C15.3766 16.2612 15.1986 16.2099 15.0542 16.1032L14.9702 16.0302L10.0002 11.0612L5.03016 16.0312C4.90304 16.158 4.73463 16.2351 4.55552 16.2483C4.37641 16.2615 4.19851 16.21 4.05416 16.1032L3.97016 16.0302C3.84314 15.9032 3.76591 15.7348 3.75252 15.5557C3.73912 15.3766 3.79044 15.1986 3.89716 15.0542L3.97016 14.9702L8.93916 10.0002L3.96916 5.03016C3.84229 4.90304 3.76525 4.73463 3.75203 4.55552C3.73882 4.37641 3.79032 4.19851 3.89716 4.05416L3.97016 3.97016L3.89716 4.05416V4.05416Z" fill="black"/>
</svg>
