<svg width="20" height="20" viewBox="0 0 20 20" fill="none" xmlns="http://www.w3.org/2000/svg">
<path d="M5.76988 3.16638C8.14288 1.71238 10.9429 1.57638 13.6969 2.99238C17.6729 5.03438 19.1989 9.15438 17.8839 13.4274C17.4689 14.7774 16.6389 16.1254 15.5129 17.0174C14.3729 17.9194 12.9089 18.3644 11.3069 17.8164C10.2049 17.4394 9.51688 16.8494 9.10388 16.1364C8.69988 15.4404 8.58388 14.6744 8.52988 14.0044C8.51465 13.8092 8.50165 13.6139 8.49088 13.4184C8.48388 13.2864 8.47688 13.1594 8.46888 13.0494C8.45586 12.7937 8.42209 12.5396 8.36788 12.2894C8.3345 12.1207 8.26415 11.9616 8.16188 11.8234C8.06166 11.704 7.92676 11.6187 7.77588 11.5794C7.25788 11.4204 6.90188 11.4534 6.61988 11.5434C6.37188 11.6214 6.17288 11.7434 5.93088 11.8894C5.86888 11.9274 5.80388 11.9674 5.73388 12.0084C5.41788 12.1944 5.01388 12.4044 4.49588 12.3784C3.98188 12.3534 3.45088 12.1034 2.83988 11.6054C2.16988 11.0594 1.90588 10.2954 1.90188 9.49338C1.89888 8.70538 2.14488 7.85838 2.51588 7.05938C3.25288 5.46938 4.55888 3.90938 5.76988 3.16638V3.16638ZM9.74988 6.75038C10.0151 6.75038 10.2695 6.64503 10.457 6.45749C10.6445 6.26995 10.7499 6.0156 10.7499 5.75038C10.7499 5.48517 10.6445 5.23081 10.457 5.04328C10.2695 4.85574 10.0151 4.75038 9.74988 4.75038C9.48467 4.75038 9.23031 4.85574 9.04278 5.04328C8.85524 5.23081 8.74988 5.48517 8.74988 5.75038C8.74988 6.0156 8.85524 6.26995 9.04278 6.45749C9.23031 6.64503 9.48467 6.75038 9.74988 6.75038V6.75038ZM12.7499 7.75038C13.0151 7.75038 13.2695 7.64503 13.457 7.45749C13.6445 7.26995 13.7499 7.0156 13.7499 6.75038C13.7499 6.48517 13.6445 6.23081 13.457 6.04328C13.2695 5.85574 13.0151 5.75038 12.7499 5.75038C12.4847 5.75038 12.2303 5.85574 12.0428 6.04328C11.8552 6.23081 11.7499 6.48517 11.7499 6.75038C11.7499 7.0156 11.8552 7.26995 12.0428 7.45749C12.2303 7.64503 12.4847 7.75038 12.7499 7.75038V7.75038ZM15.4999 9.00038C15.4999 8.73517 15.3945 8.48081 15.207 8.29328C15.0195 8.10574 14.7651 8.00038 14.4999 8.00038C14.2347 8.00038 13.9803 8.10574 13.7928 8.29328C13.6052 8.48081 13.4999 8.73517 13.4999 9.00038C13.4999 9.2656 13.6052 9.51995 13.7928 9.70749C13.9803 9.89503 14.2347 10.0004 14.4999 10.0004C14.7651 10.0004 15.0195 9.89503 15.207 9.70749C15.3945 9.51995 15.4999 9.2656 15.4999 9.00038ZM14.4999 13.0004C14.7651 13.0004 15.0195 12.895 15.207 12.7075C15.3945 12.52 15.4999 12.2656 15.4999 12.0004C15.4999 11.7352 15.3945 11.4808 15.207 11.2933C15.0195 11.1057 14.7651 11.0004 14.4999 11.0004C14.2347 11.0004 13.9803 11.1057 13.7928 11.2933C13.6052 11.4808 13.4999 11.7352 13.4999 12.0004C13.4999 12.2656 13.6052 12.52 13.7928 12.7075C13.9803 12.895 14.2347 13.0004 14.4999 13.0004V13.0004ZM13.4999 14.0004C13.4999 13.7352 13.3945 13.4808 13.207 13.2933C13.0195 13.1057 12.7651 13.0004 12.4999 13.0004C12.2347 13.0004 11.9803 13.1057 11.7928 13.2933C11.6052 13.4808 11.4999 13.7352 11.4999 14.0004C11.4999 14.2656 11.6052 14.52 11.7928 14.7075C11.9803 14.895 12.2347 15.0004 12.4999 15.0004C12.7651 15.0004 13.0195 14.895 13.207 14.7075C13.3945 14.52 13.4999 14.2656 13.4999 14.0004Z" fill="black"/>
</svg>
