<svg width="20" height="20" viewBox="0 0 20 20" fill="none" xmlns="http://www.w3.org/2000/svg">
<path d="M9.75 6.5C9.94891 6.5 10.1397 6.42098 10.2803 6.28033C10.421 6.13968 10.5 5.94891 10.5 5.75C10.5 5.55109 10.421 5.36032 10.2803 5.21967C10.1397 5.07902 9.94891 5 9.75 5C9.55109 5 9.36032 5.07902 9.21967 5.21967C9.07902 5.36032 9 5.55109 9 5.75C9 5.94891 9.07902 6.13968 9.21967 6.28033C9.36032 6.42098 9.55109 6.5 9.75 6.5Z" fill="black"/>
<path d="M12.75 7.5C12.9489 7.5 13.1397 7.42098 13.2803 7.28033C13.421 7.13968 13.5 6.94891 13.5 6.75C13.5 6.55109 13.421 6.36032 13.2803 6.21967C13.1397 6.07902 12.9489 6 12.75 6C12.5511 6 12.3603 6.07902 12.2197 6.21967C12.079 6.36032 12 6.55109 12 6.75C12 6.94891 12.079 7.13968 12.2197 7.28033C12.3603 7.42098 12.5511 7.5 12.75 7.5Z" fill="black"/>
<path d="M15.25 9C15.25 9.19891 15.171 9.38968 15.0303 9.53033C14.8897 9.67098 14.6989 9.75 14.5 9.75C14.3011 9.75 14.1103 9.67098 13.9697 9.53033C13.829 9.38968 13.75 9.19891 13.75 9C13.75 8.80109 13.829 8.61032 13.9697 8.46967C14.1103 8.32902 14.3011 8.25 14.5 8.25C14.6989 8.25 14.8897 8.32902 15.0303 8.46967C15.171 8.61032 15.25 8.80109 15.25 9Z" fill="black"/>
<path d="M14.5 12.75C14.6989 12.75 14.8897 12.671 15.0303 12.5303C15.171 12.3897 15.25 12.1989 15.25 12C15.25 11.8011 15.171 11.6103 15.0303 11.4697C14.8897 11.329 14.6989 11.25 14.5 11.25C14.3011 11.25 14.1103 11.329 13.9697 11.4697C13.829 11.6103 13.75 11.8011 13.75 12C13.75 12.1989 13.829 12.3897 13.9697 12.5303C14.1103 12.671 14.3011 12.75 14.5 12.75Z" fill="black"/>
<path d="M13.25 14C13.25 14.0985 13.2306 14.196 13.1929 14.287C13.1552 14.378 13.1 14.4607 13.0303 14.5303C12.9607 14.6 12.878 14.6552 12.787 14.6929C12.696 14.7306 12.5985 14.75 12.5 14.75C12.4015 14.75 12.304 14.7306 12.213 14.6929C12.122 14.6552 12.0393 14.6 11.9697 14.5303C11.9 14.4607 11.8448 14.378 11.8071 14.287C11.7694 14.196 11.75 14.0985 11.75 14C11.75 13.8011 11.829 13.6103 11.9697 13.4697C12.1103 13.329 12.3011 13.25 12.5 13.25C12.6989 13.25 12.8897 13.329 13.0303 13.4697C13.171 13.6103 13.25 13.8011 13.25 14V14Z" fill="black"/>
<path d="M13.6969 2.99199C10.9429 1.57699 8.14288 1.71199 5.76988 3.16599C4.55988 3.90799 3.25288 5.46899 2.51588 7.05899C2.14588 7.85899 1.89888 8.70499 1.90188 9.49299C1.90588 10.294 2.16988 11.059 2.83988 11.605C3.44988 12.103 3.98188 12.353 4.49588 12.378C5.01388 12.404 5.41788 12.194 5.73388 12.008C5.80388 11.967 5.86888 11.927 5.93088 11.889C6.17288 11.742 6.37188 11.621 6.62088 11.543C6.90088 11.453 7.25788 11.421 7.77588 11.579C7.96588 11.637 8.08188 11.723 8.16188 11.823C8.24788 11.929 8.31688 12.077 8.36788 12.289C8.41988 12.502 8.44788 12.753 8.46788 13.049C8.47688 13.159 8.48388 13.286 8.49088 13.418C8.50288 13.61 8.51388 13.815 8.52988 14.004C8.58388 14.674 8.69988 15.44 9.10388 16.136C9.51788 16.849 10.2039 17.439 11.3069 17.816C12.9089 18.364 14.3729 17.919 15.5129 17.016C16.6389 16.125 17.4689 14.776 17.8839 13.427C19.1989 9.15399 17.6729 5.03399 13.6969 2.99199V2.99199ZM6.29188 4.01899C8.35688 2.75399 10.7839 2.61899 13.2399 3.88099C16.7469 5.68299 18.1129 9.28099 16.9279 13.133C16.5619 14.323 15.8339 15.487 14.8919 16.233C13.9629 16.968 12.8489 17.286 11.6309 16.87C10.7269 16.56 10.2469 16.113 9.96788 15.634C9.67988 15.137 9.57788 14.556 9.52588 13.922C9.51088 13.733 9.50088 13.562 9.49088 13.388C9.48354 13.2513 9.4752 13.1146 9.46588 12.978C9.44936 12.6667 9.40722 12.3573 9.33988 12.053C9.26688 11.754 9.14888 11.453 8.93988 11.193C8.71391 10.9188 8.40973 10.7199 8.06788 10.623C7.36588 10.408 6.80288 10.436 6.31788 10.589C5.94288 10.709 5.61988 10.906 5.37188 11.059L5.22588 11.146C4.94088 11.315 4.75388 11.39 4.54588 11.38C4.33288 11.37 4.00288 11.262 3.47188 10.83C3.08688 10.516 2.90488 10.067 2.90188 9.48999C2.89988 8.89899 3.08788 8.20199 3.42288 7.47999C4.09688 6.02699 5.28488 4.63599 6.29288 4.01899H6.29188Z" fill="black"/>
</svg>
