<svg width="20" height="20" viewBox="0 0 20 20" fill="none" xmlns="http://www.w3.org/2000/svg">
<path d="M6.5 2C5.91636 1.99993 5.35109 2.20406 4.90215 2.57701C4.45322 2.94997 4.14892 3.46824 4.042 4.042C3.46824 4.14892 2.94997 4.45322 2.57701 4.90215C2.20406 5.35109 1.99993 5.91636 2 6.5V13.5C2 14.163 2.26339 14.7989 2.73223 15.2678C3.20107 15.7366 3.83696 16 4.5 16H5V17.028C4.99998 17.2117 5.05058 17.3919 5.14623 17.5487C5.24189 17.7056 5.3789 17.8331 5.54225 17.9172C5.70559 18.0013 5.88894 18.0387 6.07218 18.0255C6.25542 18.0122 6.43147 17.9487 6.581 17.842L9.161 16H13.5C14.163 16 14.7989 15.7366 15.2678 15.2678C15.7366 14.7989 16 14.163 16 13.5V12.95C16.5647 12.8347 17.0722 12.5279 17.4367 12.0815C17.8011 11.635 18.0001 11.0763 18 10.5V5.5C18 4.57174 17.6313 3.6815 16.9749 3.02513C16.3185 2.36875 15.4283 2 14.5 2H6.5ZM13.5 15H8.84L6 17.028V15H4.5C4.10218 15 3.72064 14.842 3.43934 14.5607C3.15804 14.2794 3 13.8978 3 13.5V6.5C3 6.10218 3.15804 5.72064 3.43934 5.43934C3.72064 5.15804 4.10218 5 4.5 5H13.5C13.8978 5 14.2794 5.15804 14.5607 5.43934C14.842 5.72064 15 6.10218 15 6.5V13.5C15 13.8978 14.842 14.2794 14.5607 14.5607C14.2794 14.842 13.8978 15 13.5 15ZM13.5 4H5.085C5.18844 3.70742 5.38008 3.45413 5.63351 3.27503C5.88694 3.09593 6.18967 2.99984 6.5 3H14.5C15.163 3 15.7989 3.26339 16.2678 3.73223C16.7366 4.20107 17 4.83696 17 5.5V10.5C17.0002 10.8103 16.9041 11.1131 16.725 11.3665C16.5459 11.6199 16.2926 11.8116 16 11.915V6.5C16 5.83696 15.7366 5.20107 15.2678 4.73223C14.7989 4.26339 14.163 4 13.5 4Z" fill="black"/>
</svg>
