<svg width="20" height="20" viewBox="0 0 20 20" fill="none" xmlns="http://www.w3.org/2000/svg">
<path d="M6.49995 2C5.91836 1.99987 5.35492 2.20251 4.90664 2.57303C4.45836 2.94356 4.15328 3.45878 4.04395 4.03C4.19395 4.01 4.34595 4 4.49995 4H12.4999C13.4282 4 14.3184 4.36875 14.9748 5.02513C15.6312 5.6815 15.9999 6.57174 15.9999 7.5V12.95C16.5646 12.8347 17.0721 12.5279 17.4366 12.0815C17.8011 11.635 18.0001 11.0763 17.9999 10.5V6C17.9999 4.93913 17.5785 3.92172 16.8284 3.17157C16.0782 2.42143 15.0608 2 13.9999 2H6.49995Z" fill="black"/>
<path d="M4.5 5C3.83696 5 3.20107 5.26339 2.73223 5.73223C2.26339 6.20107 2 6.83696 2 7.5V13.5C2 14.163 2.26339 14.7989 2.73223 15.2678C3.20107 15.7366 3.83696 16 4.5 16H5V17.028C4.99998 17.2117 5.05058 17.3919 5.14623 17.5487C5.24189 17.7056 5.3789 17.8331 5.54225 17.9172C5.70559 18.0013 5.88894 18.0387 6.07218 18.0255C6.25542 18.0122 6.43147 17.9487 6.581 17.842L9.161 16H12.5C13.163 16 13.7989 15.7366 14.2678 15.2678C14.7366 14.7989 15 14.163 15 13.5V7.5C15 6.83696 14.7366 6.20107 14.2678 5.73223C13.7989 5.26339 13.163 5 12.5 5H4.5Z" fill="black"/>
</svg>
