<svg width="20" height="20" viewBox="0 0 20 20" fill="none" xmlns="http://www.w3.org/2000/svg">
<path d="M7.03215 13.9078L3.56115 10.0028C3.42907 9.85404 3.2433 9.76381 3.0447 9.752C2.8461 9.74018 2.65094 9.80775 2.50215 9.93982C2.35336 10.0719 2.26314 10.2577 2.25133 10.4563C2.23951 10.6549 2.30707 10.85 2.43915 10.9988L6.43915 15.4988C6.50705 15.5752 6.58986 15.6369 6.68248 15.6802C6.7751 15.7234 6.87558 15.7473 6.97775 15.7503C7.07992 15.7533 7.18162 15.7353 7.27661 15.6976C7.37161 15.6599 7.45789 15.6031 7.53015 15.5308L18.0302 5.03082C18.1626 4.88865 18.2348 4.7006 18.2313 4.5063C18.2279 4.312 18.1492 4.12661 18.0118 3.9892C17.8744 3.85179 17.689 3.77308 17.4947 3.76965C17.3004 3.76622 17.1123 3.83834 16.9701 3.97082L7.03215 13.9078V13.9078Z" fill="black"/>
</svg>
