<svg width="20" height="20" viewBox="0 0 20 20" fill="none" xmlns="http://www.w3.org/2000/svg">
<path d="M3 4.5C3 4.10218 3.15804 3.72064 3.43934 3.43934C3.72064 3.15804 4.10218 3 4.5 3H15.5C15.8978 3 16.2794 3.15804 16.5607 3.43934C16.842 3.72064 17 4.10218 17 4.5V11.5C17 11.8978 16.842 12.2794 16.5607 12.5607C16.2794 12.842 15.8978 13 15.5 13H10V12H15.5C15.6326 12 15.7598 11.9473 15.8536 11.8536C15.9473 11.7598 16 11.6326 16 11.5V4.5C16 4.36739 15.9473 4.24021 15.8536 4.14645C15.7598 4.05268 15.6326 4 15.5 4H4.5C4.36739 4 4.24021 4.05268 4.14645 4.14645C4.05268 4.24021 4 4.36739 4 4.5V6H3V4.5Z" fill="black"/>
<path d="M10 15H17.5C17.6326 15 17.7598 14.9473 17.8536 14.8536C17.9473 14.7598 18 14.6326 18 14.5C18 14.3674 17.9473 14.2402 17.8536 14.1464C17.7598 14.0527 17.6326 14 17.5 14H10V15Z" fill="black"/>
<path d="M5 15C4.86739 15 4.74021 15.0527 4.64645 15.1464C4.55268 15.2402 4.5 15.3674 4.5 15.5C4.5 15.6326 4.55268 15.7598 4.64645 15.8536C4.74021 15.9473 4.86739 16 5 16H6C6.13261 16 6.25979 15.9473 6.35355 15.8536C6.44732 15.7598 6.5 15.6326 6.5 15.5C6.5 15.3674 6.44732 15.2402 6.35355 15.1464C6.25979 15.0527 6.13261 15 6 15H5Z" fill="black"/>
<path d="M2 8.5C2 8.10218 2.15804 7.72064 2.43934 7.43934C2.72064 7.15804 3.10218 7 3.5 7H7.5C7.89782 7 8.27936 7.15804 8.56066 7.43934C8.84196 7.72064 9 8.10218 9 8.5V16.5C9 16.8978 8.84196 17.2794 8.56066 17.5607C8.27936 17.842 7.89782 18 7.5 18H3.5C3.10218 18 2.72064 17.842 2.43934 17.5607C2.15804 17.2794 2 16.8978 2 16.5V8.5ZM3.5 8C3.36739 8 3.24021 8.05268 3.14645 8.14645C3.05268 8.24021 3 8.36739 3 8.5V16.5C3 16.6326 3.05268 16.7598 3.14645 16.8536C3.24021 16.9473 3.36739 17 3.5 17H7.5C7.63261 17 7.75979 16.9473 7.85355 16.8536C7.94732 16.7598 8 16.6326 8 16.5V8.5C8 8.36739 7.94732 8.24021 7.85355 8.14645C7.75979 8.05268 7.63261 8 7.5 8H3.5Z" fill="black"/>
</svg>
