<svg width="20" height="20" viewBox="0 0 20 20" fill="none" xmlns="http://www.w3.org/2000/svg">
<path d="M11.6768 4.3843L15.6128 8.3203L7.57484 16.3593C7.37008 16.5638 7.12341 16.7214 6.85184 16.8213L6.68684 16.8743L2.63184 17.9803C2.55329 18.0019 2.47064 18.0041 2.39108 17.9865C2.31153 17.9689 2.23748 17.9321 2.17537 17.8794C2.11327 17.8266 2.065 17.7595 2.03475 17.6839C2.00451 17.6082 1.99321 17.5263 2.00184 17.4453L2.01784 17.3653L3.12384 13.3113C3.19984 13.0313 3.33584 12.7713 3.52184 12.5513L3.63884 12.4233L11.6768 4.3833V4.3843ZM13.2448 2.8173C13.7552 2.30783 14.4434 2.01636 15.1644 2.0043C15.8855 1.99224 16.583 2.26053 17.1102 2.75265C17.6373 3.24476 17.9528 3.92228 17.9902 4.64244C18.0277 5.36261 17.7841 6.06919 17.3108 6.6133L17.1808 6.7533L16.3198 7.6133L12.3838 3.6773L13.2448 2.8173V2.8173Z" fill="black"/>
</svg>
