<svg width="20" height="20" viewBox="0 0 20 20" fill="none" xmlns="http://www.w3.org/2000/svg">
<path d="M13.2448 2.8173C13.7552 2.30783 14.4434 2.01636 15.1644 2.0043C15.8855 1.99224 16.583 2.26053 17.1102 2.75265C17.6373 3.24476 17.9528 3.92228 17.9902 4.64244C18.0277 5.36261 17.7841 6.06919 17.3108 6.6133L17.1808 6.7533L7.57484 16.3593C7.37008 16.5638 7.12341 16.7214 6.85184 16.8213L6.68684 16.8743L2.63184 17.9803C2.55329 18.0019 2.47064 18.0041 2.39108 17.9865C2.31153 17.9689 2.23748 17.9321 2.17537 17.8794C2.11327 17.8266 2.065 17.7595 2.03475 17.6839C2.00451 17.6082 1.99321 17.5263 2.00184 17.4453L2.01784 17.3653L3.12384 13.3113C3.19984 13.0313 3.33584 12.7713 3.52184 12.5513L3.63884 12.4233L13.2448 2.8173V2.8173ZM12.3848 5.0923L4.34584 13.1303C4.25399 13.2223 4.18096 13.3313 4.13084 13.4513L4.08884 13.5743L3.21184 16.7843L6.42384 15.9093C6.5075 15.8865 6.58784 15.8529 6.66284 15.8093L6.76984 15.7373L6.86784 15.6523L14.9058 7.6123L12.3848 5.0923V5.0923ZM16.4738 3.5243C16.1594 3.2096 15.7386 3.02383 15.2942 3.00348C14.8497 2.98312 14.4138 3.12966 14.0718 3.4143L13.9518 3.5243L13.0918 4.3843L15.6118 6.9063L16.4738 6.0463C16.7885 5.73183 16.9743 5.31106 16.9947 4.86664C17.015 4.42221 16.8685 3.98622 16.5838 3.6443L16.4738 3.5243V3.5243Z" fill="black"/>
</svg>
