<svg width="20" height="20" viewBox="0 0 20 20" fill="none" xmlns="http://www.w3.org/2000/svg">
<path d="M17 5.5C17 4.83696 16.7366 4.20107 16.2678 3.73223C15.7989 3.26339 15.163 3 14.5 3H5.5C4.83696 3 4.20107 3.26339 3.73223 3.73223C3.26339 4.20107 3 4.83696 3 5.5V14.5C3 15.163 3.26339 15.7989 3.73223 16.2678C4.20107 16.7366 4.83696 17 5.5 17H9.6C9.43647 16.6804 9.30483 16.3454 9.207 16H5.5C5.10218 16 4.72064 15.842 4.43934 15.5607C4.15804 15.2794 4 14.8978 4 14.5V7H16V9.207C16.349 9.306 16.683 9.437 17 9.6V5.5ZM5.5 4H14.5C14.8978 4 15.2794 4.15804 15.5607 4.43934C15.842 4.72064 16 5.10218 16 5.5V6H4V5.5C4 5.10218 4.15804 4.72064 4.43934 4.43934C4.72064 4.15804 5.10218 4 5.5 4V4Z" fill="black"/>
<path d="M14.5 19C15.6935 19 16.8381 18.5259 17.682 17.682C18.5259 16.8381 19 15.6935 19 14.5C19 13.3065 18.5259 12.1619 17.682 11.318C16.8381 10.4741 15.6935 10 14.5 10C13.3065 10 12.1619 10.4741 11.318 11.318C10.4741 12.1619 10 13.3065 10 14.5C10 15.6935 10.4741 16.8381 11.318 17.682C12.1619 18.5259 13.3065 19 14.5 19V19ZM14 12.5C14 12.3674 14.0527 12.2402 14.1464 12.1464C14.2402 12.0527 14.3674 12 14.5 12C14.6326 12 14.7598 12.0527 14.8536 12.1464C14.9473 12.2402 15 12.3674 15 12.5V14H16C16.1326 14 16.2598 14.0527 16.3536 14.1464C16.4473 14.2402 16.5 14.3674 16.5 14.5C16.5 14.6326 16.4473 14.7598 16.3536 14.8536C16.2598 14.9473 16.1326 15 16 15H14.5C14.3674 15 14.2402 14.9473 14.1464 14.8536C14.0527 14.7598 14 14.6326 14 14.5V12.5Z" fill="black"/>
</svg>
