<svg width="20" height="20" viewBox="0 0 20 20" fill="none" xmlns="http://www.w3.org/2000/svg">
<path d="M7.167 3C7.437 3 7.702 3.073 7.932 3.21L8.067 3.3L9.667 4.5H15.5C16.1066 4.49992 16.6926 4.72041 17.1487 5.12039C17.6048 5.52037 17.8999 6.07254 17.979 6.674L17.995 6.836L18 7V14.5C18.0001 15.1347 17.7588 15.7457 17.325 16.209C16.8912 16.6724 16.2974 16.9534 15.664 16.995L15.5 17H4.5C3.86528 17.0001 3.25429 16.7588 2.79095 16.325C2.32762 15.8912 2.04664 15.2974 2.005 14.664L2 14.5V5.5C1.9999 4.86528 2.24123 4.25429 2.67504 3.79095C3.10885 3.32762 3.70265 3.04664 4.336 3.005L4.5 3H7.167ZM8.157 7.034C7.91052 7.29298 7.57964 7.4554 7.224 7.492L7.071 7.5L3 7.499V14.5C3.00002 14.8729 3.13892 15.2324 3.38962 15.5084C3.64032 15.7844 3.98484 15.9572 4.356 15.993L4.5 16H15.5C15.8727 16 16.2321 15.8612 16.5081 15.6108C16.7841 15.3603 16.957 15.016 16.993 14.645L17 14.5V7C17 6.62727 16.8612 6.2679 16.6108 5.99189C16.3603 5.71589 16.016 5.54303 15.645 5.507L15.5 5.5H9.617L8.157 7.034ZM7.168 4H4.5C4.12712 4.00002 3.76761 4.13892 3.49158 4.38962C3.21555 4.64032 3.0428 4.98484 3.007 5.356L3 5.5V6.499L7.071 6.5C7.17998 6.50015 7.28603 6.46468 7.373 6.399L7.433 6.345L8.694 5.02L7.467 4.1C7.40226 4.05168 7.32677 4.01977 7.247 4.007L7.167 4H7.168Z" fill="black"/>
</svg>
