<svg width="20" height="20" viewBox="0 0 20 20" fill="none" xmlns="http://www.w3.org/2000/svg">
<path d="M10.565 4.5H15.5C16.1066 4.49992 16.6926 4.72041 17.1487 5.12039C17.6048 5.52037 17.8999 6.07254 17.979 6.674L17.995 6.836L18 7V14.5C18.0001 15.1347 17.7588 15.7457 17.325 16.209C16.8912 16.6724 16.2974 16.9534 15.664 16.995L15.5 17H4.5C3.86528 17.0001 3.25429 16.7588 2.79095 16.325C2.32762 15.8912 2.04664 15.2974 2.005 14.664L2 14.5V7.5H7.07L7.224 7.492C7.52788 7.46088 7.81501 7.33772 8.047 7.139L8.158 7.033L10.565 4.5ZM7.167 3C7.437 3 7.702 3.073 7.932 3.21L8.067 3.3L9.385 4.289L7.433 6.344L7.373 6.399C7.30806 6.44782 7.23221 6.48009 7.152 6.493L7.071 6.5H2V5.5C1.9999 4.86528 2.24123 4.25429 2.67504 3.79095C3.10885 3.32762 3.70265 3.04664 4.336 3.005L4.5 3H7.167Z" fill="black"/>
</svg>
