<svg width="20" height="20" viewBox="0 0 20 20" fill="none" xmlns="http://www.w3.org/2000/svg">
<path d="M3 5.25C3 4.65326 3.23705 4.08097 3.65901 3.65901C4.08097 3.23705 4.65326 3 5.25 3H7.115C7.31391 3 7.50468 3.07902 7.64533 3.21967C7.78598 3.36032 7.865 3.55109 7.865 3.75C7.865 3.94891 7.78598 4.13968 7.64533 4.28033C7.50468 4.42098 7.31391 4.5 7.115 4.5H5.25C5.05109 4.5 4.86032 4.57902 4.71967 4.71967C4.57902 4.86032 4.5 5.05109 4.5 5.25V7.115C4.5 7.31391 4.42098 7.50468 4.28033 7.64533C4.13968 7.78598 3.94891 7.865 3.75 7.865C3.55109 7.865 3.36032 7.78598 3.21967 7.64533C3.07902 7.50468 3 7.31391 3 7.115V5.25ZM12.135 3.75C12.135 3.55109 12.214 3.36032 12.3547 3.21967C12.4953 3.07902 12.6861 3 12.885 3H14.75C15.3467 3 15.919 3.23705 16.341 3.65901C16.7629 4.08097 17 4.65326 17 5.25V7.115C17 7.31391 16.921 7.50468 16.7803 7.64533C16.6397 7.78598 16.4489 7.865 16.25 7.865C16.0511 7.865 15.8603 7.78598 15.7197 7.64533C15.579 7.50468 15.5 7.31391 15.5 7.115V5.25C15.5 5.05109 15.421 4.86032 15.2803 4.71967C15.1397 4.57902 14.9489 4.5 14.75 4.5H12.885C12.6861 4.5 12.4953 4.42098 12.3547 4.28033C12.214 4.13968 12.135 3.94891 12.135 3.75V3.75ZM3.75 12.135C3.94891 12.135 4.13968 12.214 4.28033 12.3547C4.42098 12.4953 4.5 12.6861 4.5 12.885V14.75C4.5 15.164 4.836 15.5 5.25 15.5H7.115C7.31391 15.5 7.50468 15.579 7.64533 15.7197C7.78598 15.8603 7.865 16.0511 7.865 16.25C7.865 16.4489 7.78598 16.6397 7.64533 16.7803C7.50468 16.921 7.31391 17 7.115 17H5.25C4.65326 17 4.08097 16.7629 3.65901 16.341C3.23705 15.919 3 15.3467 3 14.75V12.885C3 12.6861 3.07902 12.4953 3.21967 12.3547C3.36032 12.214 3.55109 12.135 3.75 12.135V12.135ZM16.25 12.135C16.4489 12.135 16.6397 12.214 16.7803 12.3547C16.921 12.4953 17 12.6861 17 12.885V14.75C17 15.3467 16.7629 15.919 16.341 16.341C15.919 16.7629 15.3467 17 14.75 17H12.885C12.6861 17 12.4953 16.921 12.3547 16.7803C12.214 16.6397 12.135 16.4489 12.135 16.25C12.135 16.0511 12.214 15.8603 12.3547 15.7197C12.4953 15.579 12.6861 15.5 12.885 15.5H14.75C14.9489 15.5 15.1397 15.421 15.2803 15.2803C15.421 15.1397 15.5 14.9489 15.5 14.75V12.885C15.5 12.6861 15.579 12.4953 15.7197 12.3547C15.8603 12.214 16.0511 12.135 16.25 12.135Z" fill="black"/>
</svg>
