<svg width="100%" height="100%" viewBox="0 0 24 24" fill="none" xmlns="http://www.w3.org/2000/svg">
<path d="M12 4.0007C15.87 4.0007 19 7.1307 19 11.0007V13.0007H16.08L21 17.9207V11.0007C21 6.0307 16.97 2.0007 12 2.0007C10.05 2.0007 8.24 2.6207 6.77 3.6807L8.21 5.1207C9.3 4.4107 10.6 4.0007 12 4.0007ZM2.27 1.7207L1 3.0007L4.33 6.3207C3.49 7.6807 3 9.2907 3 11.0007V18.0007C3 19.6607 4.34 21.0007 6 21.0007H9V13.0007H5V11.0007C5 9.8307 5.29 8.7407 5.79 7.7807L15 17.0007V21.0007H18C18.3 21.0007 18.59 20.9407 18.86 20.8607L21 23.0007L22.27 21.7307L2.27 1.7207Z" fill='currentColor' />
</svg>