<svg width="20" height="20" viewBox="0 0 20 20" fill="none" xmlns="http://www.w3.org/2000/svg">
<path d="M10 2C12.1217 2 14.1566 2.84285 15.6569 4.34315C17.1571 5.84344 18 7.87827 18 10C18 12.1217 17.1571 14.1566 15.6569 15.6569C14.1566 17.1571 12.1217 18 10 18C7.87827 18 5.84344 17.1571 4.34315 15.6569C2.84285 14.1566 2 12.1217 2 10C2 7.87827 2.84285 5.84344 4.34315 4.34315C5.84344 2.84285 7.87827 2 10 2V2ZM10 13.5C9.80109 13.5 9.61032 13.579 9.46967 13.7197C9.32902 13.8603 9.25 14.0511 9.25 14.25C9.25 14.4489 9.32902 14.6397 9.46967 14.7803C9.61032 14.921 9.80109 15 10 15C10.1989 15 10.3897 14.921 10.5303 14.7803C10.671 14.6397 10.75 14.4489 10.75 14.25C10.75 14.0511 10.671 13.8603 10.5303 13.7197C10.3897 13.579 10.1989 13.5 10 13.5ZM10 5.5C9.33696 5.5 8.70107 5.76339 8.23223 6.23223C7.76339 6.70107 7.5 7.33696 7.5 8C7.5 8.13261 7.55268 8.25979 7.64645 8.35355C7.74021 8.44732 7.86739 8.5 8 8.5C8.13261 8.5 8.25979 8.44732 8.35355 8.35355C8.44732 8.25979 8.5 8.13261 8.5 8C8.49997 7.75774 8.55862 7.51908 8.67094 7.30443C8.78325 7.08978 8.94588 6.90552 9.14493 6.76742C9.34397 6.62932 9.5735 6.54149 9.81388 6.51143C10.0543 6.48137 10.2984 6.50998 10.5253 6.59482C10.7522 6.67965 10.9552 6.81819 11.1169 6.99858C11.2786 7.17896 11.3942 7.39583 11.4539 7.63064C11.5135 7.86545 11.5154 8.1112 11.4593 8.34689C11.4032 8.58257 11.2909 8.80118 11.132 8.984L11.026 9.094L10.908 9.194L10.661 9.379C10.5342 9.47732 10.4152 9.58531 10.305 9.702C9.793 10.248 9.5 10.988 9.5 12C9.5 12.1326 9.55268 12.2598 9.64645 12.3536C9.74021 12.4473 9.86739 12.5 10 12.5C10.1326 12.5 10.2598 12.4473 10.3536 12.3536C10.4473 12.2598 10.5 12.1326 10.5 12C10.5 11.242 10.696 10.746 11.035 10.386L11.11 10.31L11.19 10.237L11.278 10.165L11.497 10.002L11.651 9.877C12.0324 9.54143 12.3026 9.09761 12.4255 8.60466C12.5483 8.11171 12.5181 7.59303 12.3388 7.11768C12.1595 6.64234 11.8396 6.23291 11.4218 5.94391C11.004 5.65491 10.508 5.50007 10 5.5V5.5Z" fill="black"/>
</svg>
