<svg width="20" height="20" viewBox="0 0 20 20" fill="none" xmlns="http://www.w3.org/2000/svg">
<path d="M10 2C12.1217 2 14.1566 2.84285 15.6569 4.34315C17.1571 5.84344 18 7.87827 18 10C18 12.1217 17.1571 14.1566 15.6569 15.6569C14.1566 17.1571 12.1217 18 10 18C7.87827 18 5.84344 17.1571 4.34315 15.6569C2.84285 14.1566 2 12.1217 2 10C2 7.87827 2.84285 5.84344 4.34315 4.34315C5.84344 2.84285 7.87827 2 10 2V2ZM10 3C9.08075 3 8.1705 3.18106 7.32122 3.53284C6.47194 3.88463 5.70026 4.40024 5.05025 5.05025C4.40024 5.70026 3.88463 6.47194 3.53284 7.32122C3.18106 8.1705 3 9.08075 3 10C3 10.9193 3.18106 11.8295 3.53284 12.6788C3.88463 13.5281 4.40024 14.2997 5.05025 14.9497C5.70026 15.5998 6.47194 16.1154 7.32122 16.4672C8.1705 16.8189 9.08075 17 10 17C11.8565 17 13.637 16.2625 14.9497 14.9497C16.2625 13.637 17 11.8565 17 10C17 8.14348 16.2625 6.36301 14.9497 5.05025C13.637 3.7375 11.8565 3 10 3ZM10 13.5C10.1989 13.5 10.3897 13.579 10.5303 13.7197C10.671 13.8603 10.75 14.0511 10.75 14.25C10.75 14.4489 10.671 14.6397 10.5303 14.7803C10.3897 14.921 10.1989 15 10 15C9.80109 15 9.61032 14.921 9.46967 14.7803C9.32902 14.6397 9.25 14.4489 9.25 14.25C9.25 14.0511 9.32902 13.8603 9.46967 13.7197C9.61032 13.579 9.80109 13.5 10 13.5ZM10 5.5C10.508 5.50007 11.004 5.65491 11.4218 5.94391C11.8396 6.23291 12.1595 6.64234 12.3388 7.11768C12.5181 7.59303 12.5483 8.11171 12.4255 8.60466C12.3026 9.09761 12.0324 9.54143 11.651 9.877L11.497 10.002L11.278 10.165L11.191 10.237C11.1363 10.2838 11.0842 10.3335 11.035 10.386C10.696 10.746 10.5 11.242 10.5 12C10.5 12.1326 10.4473 12.2598 10.3536 12.3536C10.2598 12.4473 10.1326 12.5 10 12.5C9.86739 12.5 9.74021 12.4473 9.64645 12.3536C9.55268 12.2598 9.5 12.1326 9.5 12C9.5 10.988 9.793 10.248 10.305 9.702C10.4152 9.58531 10.5342 9.47732 10.661 9.379L10.908 9.194L11.026 9.094C11.2074 8.92387 11.3437 8.71129 11.4226 8.4754C11.5015 8.23951 11.5204 7.98771 11.4778 7.74266C11.4352 7.49761 11.3323 7.26702 11.1784 7.07162C11.0245 6.87623 10.8244 6.72217 10.5961 6.62332C10.3679 6.52447 10.1187 6.48393 9.87085 6.50535C9.62305 6.52676 9.38446 6.60946 9.17656 6.746C8.96866 6.88254 8.79798 7.06864 8.67988 7.28754C8.56178 7.50644 8.49996 7.75127 8.5 8C8.50013 8.13261 8.44758 8.25984 8.35391 8.3537C8.26023 8.44756 8.13311 8.50037 8.0005 8.5005C7.86789 8.50063 7.74066 8.44808 7.6468 8.35441C7.55294 8.26073 7.50013 8.13361 7.5 8.001C7.49987 7.67261 7.56444 7.34741 7.69001 7.04398C7.81559 6.74056 7.99972 6.46484 8.23188 6.23259C8.46404 6.00033 8.73968 5.8161 9.04306 5.6904C9.34644 5.5647 9.67161 5.5 10 5.5V5.5Z" fill="black"/>
</svg>
