<svg width="20" height="20" viewBox="0 0 20 20" fill="none" xmlns="http://www.w3.org/2000/svg">
<path d="M11.5 7.5C11.7652 7.5 12.0196 7.39464 12.2071 7.20711C12.3946 7.01957 12.5 6.76522 12.5 6.5C12.5 6.23478 12.3946 5.98043 12.2071 5.79289C12.0196 5.60536 11.7652 5.5 11.5 5.5C11.2348 5.5 10.9804 5.60536 10.7929 5.79289C10.6054 5.98043 10.5 6.23478 10.5 6.5C10.5 6.76522 10.6054 7.01957 10.7929 7.20711C10.9804 7.39464 11.2348 7.5 11.5 7.5V7.5Z" fill="black"/>
<path d="M3 6C3 5.20435 3.31607 4.44129 3.87868 3.87868C4.44129 3.31607 5.20435 3 6 3H12C12.7956 3 13.5587 3.31607 14.1213 3.87868C14.6839 4.44129 15 5.20435 15 6V12C15 12.7956 14.6839 13.5587 14.1213 14.1213C13.5587 14.6839 12.7956 15 12 15H6C5.20435 15 4.44129 14.6839 3.87868 14.1213C3.31607 13.5587 3 12.7956 3 12V6ZM6 4C5.46957 4 4.96086 4.21071 4.58579 4.58579C4.21071 4.96086 4 5.46957 4 6V12C4 12.37 4.101 12.718 4.277 13.016L7.586 9.707C7.96106 9.33206 8.46967 9.12143 9 9.12143C9.53033 9.12143 10.0389 9.33206 10.414 9.707L13.724 13.016C13.899 12.718 14 12.371 14 12V6C14 5.46957 13.7893 4.96086 13.4142 4.58579C13.0391 4.21071 12.5304 4 12 4H6ZM9.707 10.414C9.51947 10.2265 9.26516 10.1212 9 10.1212C8.73484 10.1212 8.48053 10.2265 8.293 10.414L4.984 13.724C5.282 13.899 5.629 14 6 14H12C12.37 14 12.718 13.899 13.016 13.723L9.707 10.414V10.414Z" fill="black"/>
<path d="M8.00016 16.9997C7.578 17.0002 7.16052 16.9113 6.77514 16.739C6.38976 16.5666 6.04522 16.3147 5.76416 15.9997H12.5002C13.4284 15.9997 14.3187 15.6309 14.975 14.9745C15.6314 14.3182 16.0002 13.4279 16.0002 12.4997V5.76367C16.6142 6.31367 17.0002 7.11167 17.0002 7.99967V12.4997C17.0002 13.6931 16.5261 14.8377 15.6821 15.6817C14.8382 16.5256 13.6936 16.9997 12.5002 16.9997H8.00016Z" fill="black"/>
</svg>
