<svg width="20" height="20" viewBox="0 0 20 20" fill="none" xmlns="http://www.w3.org/2000/svg">
<path d="M6 3C5.20435 3 4.44129 3.31607 3.87868 3.87868C3.31607 4.44129 3 5.20435 3 6V12C3 12.648 3.205 13.248 3.555 13.738L7.585 9.708C7.77075 9.52205 7.99132 9.37453 8.23412 9.27388C8.47692 9.17323 8.73717 9.12143 9 9.12143C9.26283 9.12143 9.52308 9.17323 9.76588 9.27388C10.0087 9.37453 10.2293 9.52205 10.415 9.708L14.445 13.738C14.795 13.248 15 12.648 15 12V6C15 5.20435 14.6839 4.44129 14.1213 3.87868C13.5587 3.31607 12.7956 3 12 3H6ZM12.5 6.5C12.5 6.76522 12.3946 7.01957 12.2071 7.20711C12.0196 7.39464 11.7652 7.5 11.5 7.5C11.2348 7.5 10.9804 7.39464 10.7929 7.20711C10.6054 7.01957 10.5 6.76522 10.5 6.5C10.5 6.23478 10.6054 5.98043 10.7929 5.79289C10.9804 5.60536 11.2348 5.5 11.5 5.5C11.7652 5.5 12.0196 5.60536 12.2071 5.79289C12.3946 5.98043 12.5 6.23478 12.5 6.5Z" fill="black"/>
<path d="M13.7382 14.4444L9.70821 10.4144C9.61533 10.3214 9.50505 10.2476 9.38365 10.1973C9.26225 10.147 9.13212 10.1211 9.00071 10.1211C8.86929 10.1211 8.73916 10.147 8.61777 10.1973C8.49637 10.2476 8.38608 10.3214 8.29321 10.4144L4.26221 14.4444C4.75221 14.7944 5.35221 14.9994 6.00021 14.9994H12.0002C12.6482 14.9994 13.2482 14.7944 13.7382 14.4444Z" fill="black"/>
<path d="M5.76416 15.9997C6.31416 16.6137 7.11216 16.9997 8.00016 16.9997H12.5002C13.6936 16.9997 14.8382 16.5256 15.6821 15.6817C16.5261 14.8377 17.0002 13.6931 17.0002 12.4997V7.99967C17.0002 7.11167 16.6142 6.31267 16.0002 5.76367V12.4997C16.0002 13.4279 15.6314 14.3182 14.975 14.9745C14.3187 15.6309 13.4284 15.9997 12.5002 15.9997H5.76416Z" fill="black"/>
</svg>
