<svg width="20" height="20" viewBox="0 0 20 20" fill="none" xmlns="http://www.w3.org/2000/svg">
<path d="M12.5 8C12.6326 8 12.7598 7.94732 12.8536 7.85355C12.9473 7.75979 13 7.63261 13 7.5C13 7.36739 12.9473 7.24021 12.8536 7.14645C12.7598 7.05268 12.6326 7 12.5 7C12.3674 7 12.2402 7.05268 12.1464 7.14645C12.0527 7.24021 12 7.36739 12 7.5C12 7.63261 12.0527 7.75979 12.1464 7.85355C12.2402 7.94732 12.3674 8 12.5 8ZM3 6C3 5.20435 3.31607 4.44129 3.87868 3.87868C4.44129 3.31607 5.20435 3 6 3H14C14.7957 3 15.5587 3.31607 16.1213 3.87868C16.6839 4.44129 17 5.20435 17 6V14C17 14.65 16.794 15.25 16.443 15.742L11.053 10.434C10.7724 10.1577 10.3943 10.0028 10.0005 10.0028C9.60666 10.0028 9.22862 10.1577 8.948 10.434L3.558 15.742C3.19435 15.234 2.99919 14.6247 3 14V6ZM12.5 9C12.8978 9 13.2794 8.84196 13.5607 8.56066C13.842 8.27936 14 7.89782 14 7.5C14 7.10218 13.842 6.72064 13.5607 6.43934C13.2794 6.15804 12.8978 6 12.5 6C12.1022 6 11.7206 6.15804 11.4393 6.43934C11.158 6.72064 11 7.10218 11 7.5C11 7.89782 11.158 8.27936 11.4393 8.56066C11.7206 8.84196 12.1022 9 12.5 9V9ZM4.265 16.448C4.755 16.796 5.354 17 6 17H14C14.646 17 15.245 16.796 15.735 16.448L10.351 11.148C10.2574 11.0558 10.1314 11.0041 10 11.0041C9.86864 11.0041 9.74256 11.0558 9.649 11.148L4.265 16.448V16.448Z" fill="black"/>
</svg>
