<svg width="20" height="20" viewBox="0 0 20 20" fill="none" xmlns="http://www.w3.org/2000/svg">
<path d="M18 10C18 7.87827 17.1571 5.84344 15.6569 4.34315C14.1566 2.84285 12.1217 2 10 2C7.87827 2 5.84344 2.84285 4.34315 4.34315C2.84285 5.84344 2 7.87827 2 10C2 12.1217 2.84285 14.1566 4.34315 15.6569C5.84344 17.1571 7.87827 18 10 18C12.1217 18 14.1566 17.1571 15.6569 15.6569C17.1571 14.1566 18 12.1217 18 10ZM9.508 8.91C9.52887 8.79472 9.58957 8.69043 9.67949 8.61532C9.76941 8.54022 9.88284 8.49908 10 8.49908C10.1172 8.49908 10.2306 8.54022 10.3205 8.61532C10.4104 8.69043 10.4711 8.79472 10.492 8.91L10.5 9V13.502L10.492 13.592C10.4711 13.7073 10.4104 13.8116 10.3205 13.8867C10.2306 13.9618 10.1172 14.0029 10 14.0029C9.88284 14.0029 9.76941 13.9618 9.67949 13.8867C9.58957 13.8116 9.52887 13.7073 9.508 13.592L9.5 13.502V9L9.508 8.91V8.91ZM9.25 6.75C9.25 6.55109 9.32902 6.36032 9.46967 6.21967C9.61032 6.07902 9.80109 6 10 6C10.1989 6 10.3897 6.07902 10.5303 6.21967C10.671 6.36032 10.75 6.55109 10.75 6.75C10.75 6.94891 10.671 7.13968 10.5303 7.28033C10.3897 7.42098 10.1989 7.5 10 7.5C9.80109 7.5 9.61032 7.42098 9.46967 7.28033C9.32902 7.13968 9.25 6.94891 9.25 6.75Z" fill="black"/>
</svg>
