<svg width="20" height="20" viewBox="0 0 20 20" fill="none" xmlns="http://www.w3.org/2000/svg">
<path d="M9.38802 4.28973C8.98884 3.88271 8.51274 3.5591 7.9874 3.33769C7.46206 3.11629 6.89795 3.0015 6.32786 3.00001C5.75777 2.99853 5.19307 3.11036 4.66658 3.32902C4.14009 3.54768 3.66232 3.86881 3.26102 4.27373C1.57302 5.97873 1.58102 8.74973 3.27702 10.4627L9.55402 16.8027C9.81402 17.0657 10.236 17.0657 10.496 16.8027L16.741 10.4987C17.5512 9.67181 18.0035 8.55939 18.0003 7.40174C17.9972 6.2441 17.5387 5.13418 16.724 4.31173C16.3244 3.90393 15.8477 3.57969 15.3216 3.35788C14.7955 3.13607 14.2306 3.02113 13.6597 3.01973C13.0887 3.01833 12.5232 3.13052 11.996 3.34975C11.4689 3.56899 10.9906 3.89089 10.589 4.29673L9.99302 4.89973L9.38802 4.28973Z" fill="black"/>
</svg>
