<svg width="20" height="20" viewBox="0 0 20 20" fill="none" xmlns="http://www.w3.org/2000/svg">
<path d="M10.75 2.5C10.75 2.30109 10.671 2.11032 10.5303 1.96967C10.3897 1.82902 10.1989 1.75 10 1.75C9.80109 1.75 9.61032 1.82902 9.46967 1.96967C9.32902 2.11032 9.25 2.30109 9.25 2.5V8.5C9.25 8.69891 9.32902 8.88968 9.46967 9.03033C9.61032 9.17098 9.80109 9.25 10 9.25C10.1989 9.25 10.3897 9.17098 10.5303 9.03033C10.671 8.88968 10.75 8.69891 10.75 8.5V2.5Z" fill="black"/>
<path d="M13.7429 4.00008C13.6575 3.94922 13.5628 3.91586 13.4643 3.90193C13.3659 3.888 13.2657 3.89378 13.1695 3.91894C13.0733 3.94411 12.9831 3.98814 12.904 4.0485C12.825 4.10885 12.7588 4.18431 12.7092 4.27049C12.6596 4.35667 12.6277 4.45185 12.6152 4.5505C12.6027 4.64914 12.61 4.74928 12.6366 4.84509C12.6632 4.94089 12.7085 5.03046 12.7701 5.10857C12.8316 5.18668 12.908 5.25178 12.9949 5.30008C14.1399 5.95911 15.0353 6.97757 15.5423 8.19746C16.0493 9.41734 16.1395 10.7705 15.799 12.0469C15.4584 13.3233 14.7062 14.4516 13.6589 15.2568C12.6116 16.062 11.3278 16.4991 10.0068 16.5002C8.68571 16.5013 7.40122 16.0664 6.35259 15.2629C5.30395 14.4594 4.5498 13.3324 4.20713 12.0565C3.86446 10.7807 3.95243 9.42743 4.4574 8.2067C4.96236 6.98597 5.85609 5.96601 6.99992 5.30508C7.08528 5.25584 7.16011 5.19026 7.22012 5.1121C7.28014 5.03394 7.32417 4.94472 7.34971 4.84954C7.37525 4.75436 7.38178 4.65508 7.36895 4.55737C7.35612 4.45967 7.32417 4.36544 7.27492 4.28008C7.22568 4.19473 7.1601 4.1199 7.08194 4.05989C7.00378 3.99987 6.91456 3.95584 6.81938 3.9303C6.7242 3.90476 6.62492 3.89823 6.52721 3.91106C6.42951 3.92389 6.33528 3.95584 6.24992 4.00508C4.8197 4.83056 3.70189 6.10499 3.06994 7.63064C2.43799 9.15629 2.32723 10.8479 2.75484 12.4429C3.18245 14.0379 4.12452 15.4472 5.4349 16.4522C6.74527 17.4571 8.35068 18.0015 10.002 18.0008C11.6534 18.0001 13.2584 17.4545 14.5679 16.4485C15.8775 15.4425 16.8184 14.0325 17.2448 12.4371C17.6711 10.8417 17.559 9.15024 16.9258 7.6251C16.2926 6.09995 15.1738 4.82642 13.7429 4.00208V4.00008Z" fill="black"/>
</svg>
