<svg width="20" height="20" viewBox="0 0 20 20" fill="none" xmlns="http://www.w3.org/2000/svg">
<path d="M11.9971 3.00595C11.9971 2.13295 10.9571 1.67895 10.3171 2.27295L6.44507 5.86595C6.35271 5.95191 6.23125 5.99978 6.10507 5.99995H3.49707C3.09925 5.99995 2.71771 6.15798 2.43641 6.43929C2.15511 6.72059 1.99707 7.10212 1.99707 7.49995V12.4999C1.99707 12.8978 2.15511 13.2793 2.43641 13.5606C2.71771 13.8419 3.09925 13.9999 3.49707 13.9999H6.10507C6.23112 13.9998 6.35255 14.0473 6.44507 14.1329L10.3171 17.7269C10.9571 18.3199 11.9971 17.8669 11.9971 16.9939V3.00595ZM7.12507 6.59895L10.9971 3.00595V16.9939L7.12507 13.3999C6.84767 13.1428 6.48334 12.9999 6.10507 12.9999H3.49707C3.36446 12.9999 3.23729 12.9473 3.14352 12.8535C3.04975 12.7597 2.99707 12.6326 2.99707 12.4999V7.49995C2.99707 7.36734 3.04975 7.24016 3.14352 7.14639C3.23729 7.05262 3.36446 6.99995 3.49707 6.99995H6.10507C6.48334 7 6.84767 6.85712 7.12507 6.59995V6.59895Z" fill="black"/>
<path d="M14.081 12.9321C13.9662 12.8658 13.8824 12.7566 13.8481 12.6285C13.8138 12.5004 13.8317 12.3639 13.898 12.2491C14.293 11.565 14.5009 10.7889 14.5007 9.99895C14.5006 9.20899 14.2923 8.43301 13.897 7.74908C13.8318 7.6343 13.8146 7.49837 13.8492 7.37095C13.8838 7.24353 13.9674 7.13496 14.0817 7.06894C14.196 7.00293 14.3319 6.98482 14.4595 7.01856C14.5871 7.05231 14.6963 7.13518 14.763 7.24908C15.2461 8.08503 15.5005 9.03346 15.5007 9.99895C15.5009 10.9644 15.2468 11.913 14.764 12.7491C14.6977 12.8639 14.5885 12.9477 14.4604 12.982C14.3324 13.0164 14.1959 12.9984 14.081 12.9321Z" fill="black"/>
</svg>
