<svg width="20" height="20" viewBox="0 0 20 20" fill="none" xmlns="http://www.w3.org/2000/svg">
<path d="M12 3.00595C12 2.13295 10.96 1.67895 10.32 2.27295L6.448 5.86595C6.35564 5.95191 6.23418 5.99978 6.108 5.99995H3.5C3.10218 5.99995 2.72064 6.15798 2.43934 6.43929C2.15804 6.72059 2 7.10212 2 7.49995V12.4999C2 12.8978 2.15804 13.2793 2.43934 13.5606C2.72064 13.8419 3.10218 13.9999 3.5 13.9999H6.107C6.23305 13.9998 6.35448 14.0473 6.447 14.1329L10.32 17.7269C10.96 18.3199 12 17.8669 12 16.9939V3.00595Z" fill="black"/>
<path d="M14.0789 12.9337C14.022 12.9009 13.9721 12.8573 13.932 12.8052C13.8919 12.7532 13.8625 12.6937 13.8454 12.6303C13.8283 12.5669 13.8239 12.5007 13.8324 12.4355C13.8409 12.3704 13.8621 12.3076 13.8949 12.2507C14.2901 11.5666 14.4981 10.7906 14.4981 10.0007C14.4981 9.2107 14.2901 8.43468 13.8949 7.75066C13.8588 7.69375 13.8345 7.63011 13.8235 7.56357C13.8126 7.49703 13.8152 7.42896 13.8313 7.36347C13.8473 7.29797 13.8764 7.23639 13.9169 7.18244C13.9573 7.12849 14.0083 7.08328 14.0667 7.04954C14.1251 7.01579 14.1897 6.9942 14.2566 6.98607C14.3235 6.97794 14.3914 6.98343 14.4562 7.00222C14.521 7.02101 14.5813 7.05271 14.6335 7.0954C14.6857 7.13809 14.7287 7.19091 14.7599 7.25066C15.243 8.08661 15.4974 9.03503 15.4976 10.0005C15.4978 10.966 15.2437 11.9145 14.7609 12.7507C14.6946 12.8652 14.5856 12.9488 14.4578 12.9831C14.3299 13.0174 14.1937 12.9996 14.0789 12.9337Z" fill="black"/>
</svg>
