<svg width="20" height="20" viewBox="0 0 20 20" fill="none" xmlns="http://www.w3.org/2000/svg">
<path d="M12 3.00595C12 2.13295 10.96 1.67895 10.32 2.27295L6.448 5.86595C6.35564 5.95191 6.23418 5.99978 6.108 5.99995H3.5C3.10218 5.99995 2.72064 6.15798 2.43934 6.43929C2.15804 6.72059 2 7.10212 2 7.49995V12.4999C2 12.8978 2.15804 13.2793 2.43934 13.5606C2.72064 13.8419 3.10218 13.9999 3.5 13.9999H6.107C6.23305 13.9998 6.35448 14.0473 6.447 14.1329L10.32 17.7269C10.96 18.3199 12 17.8669 12 16.9939V3.00595Z" fill="black"/>
<path d="M15.2541 4.62703C15.303 4.58329 15.3602 4.54964 15.4222 4.52798C15.4841 4.50632 15.5498 4.49709 15.6154 4.5008C15.6809 4.50451 15.7451 4.52111 15.8042 4.54963C15.8634 4.57815 15.9163 4.61804 15.9601 4.66703C17.2718 6.13371 17.9969 8.03236 17.9969 10C17.9969 11.9677 17.2718 13.8663 15.9601 15.333C15.9165 15.3826 15.8635 15.4231 15.8041 15.4521C15.7448 15.4812 15.6803 15.4981 15.6144 15.5021C15.5484 15.506 15.4824 15.4969 15.42 15.4752C15.3576 15.4534 15.3002 15.4196 15.251 15.3755C15.2017 15.3314 15.1618 15.2781 15.1333 15.2185C15.1048 15.1589 15.0884 15.0942 15.0851 15.0282C15.0818 14.9623 15.0915 14.8963 15.1138 14.8341C15.1362 14.772 15.1706 14.7148 15.2151 14.666C16.3629 13.3827 16.9974 11.7213 16.9974 9.99953C16.9974 8.27776 16.3629 6.61639 15.2151 5.33303C15.1266 5.23423 15.081 5.10435 15.0884 4.97195C15.0957 4.83955 15.1553 4.71548 15.2541 4.62703V4.62703Z" fill="black"/>
<path d="M14.0789 12.9337C14.022 12.9009 13.9721 12.8573 13.932 12.8052C13.8919 12.7532 13.8625 12.6937 13.8454 12.6303C13.8283 12.5669 13.8239 12.5007 13.8324 12.4355C13.8409 12.3704 13.8621 12.3076 13.8949 12.2507C14.2901 11.5666 14.4981 10.7906 14.4981 10.0007C14.4981 9.2107 14.2901 8.43468 13.8949 7.75066C13.8588 7.69375 13.8345 7.63011 13.8235 7.56357C13.8126 7.49703 13.8152 7.42896 13.8313 7.36347C13.8473 7.29797 13.8764 7.23639 13.9169 7.18244C13.9573 7.12849 14.0083 7.08328 14.0667 7.04954C14.1251 7.01579 14.1897 6.9942 14.2566 6.98607C14.3235 6.97794 14.3914 6.98343 14.4562 7.00222C14.521 7.02101 14.5813 7.05271 14.6335 7.0954C14.6857 7.13809 14.7287 7.19091 14.7599 7.25066C15.243 8.08661 15.4974 9.03503 15.4976 10.0005C15.4978 10.966 15.2437 11.9145 14.7609 12.7507C14.6946 12.8652 14.5856 12.9488 14.4578 12.9831C14.3299 13.0174 14.1937 12.9996 14.0789 12.9337Z" fill="black"/>
</svg>
