<svg width="20" height="20" viewBox="0 0 20 20" fill="none" xmlns="http://www.w3.org/2000/svg">
<path d="M11.9971 3.0055C11.9971 2.1325 10.9571 1.6795 10.3171 2.2725L6.44507 5.8665C6.35255 5.95211 6.23112 5.99961 6.10507 5.9995H3.49707C3.09925 5.9995 2.71771 6.15754 2.43641 6.43884C2.15511 6.72015 1.99707 7.10168 1.99707 7.4995V12.4995C1.99707 12.8973 2.15511 13.2789 2.43641 13.5602C2.71771 13.8415 3.09925 13.9995 3.49707 13.9995H6.10507C6.23125 13.9997 6.35271 14.0475 6.44507 14.1335L10.3171 17.7265C10.9571 18.3205 11.9971 17.8665 11.9971 16.9935V3.0055ZM7.12507 6.5995L10.9971 3.0055V16.9935L7.12507 13.4005C6.84767 13.1433 6.48334 13.0005 6.10507 13.0005H3.49707C3.36446 13.0005 3.23729 12.9478 3.14352 12.8541C3.04975 12.7603 2.99707 12.6331 2.99707 12.5005V7.5005C2.99707 7.36789 3.04975 7.24072 3.14352 7.14695C3.23729 7.05318 3.36446 7.0005 3.49707 7.0005H6.10507C6.48348 7.00028 6.84782 6.85704 7.12507 6.5995V6.5995Z" fill="black"/>
<path d="M15.2573 4.62747C15.3561 4.53903 15.486 4.49345 15.6184 4.50076C15.7508 4.50808 15.8748 4.56768 15.9633 4.66647C17.2753 6.13322 18.0006 8.03207 18.0006 9.99997C18.0006 11.9679 17.2753 13.8667 15.9633 15.3335C15.8745 15.4308 15.7508 15.4892 15.6191 15.4959C15.4875 15.5025 15.3586 15.4569 15.2604 15.369C15.1622 15.2811 15.1027 15.158 15.0948 15.0264C15.0869 14.8948 15.1313 14.7655 15.2183 14.6665C16.3661 13.3831 17.0006 11.7217 17.0006 9.99997C17.0006 8.27821 16.3661 6.61684 15.2183 5.33347C15.1298 5.23468 15.0843 5.10479 15.0916 4.97239C15.0989 4.83999 15.1585 4.71592 15.2573 4.62747V4.62747Z" fill="black"/>
<path d="M14.081 12.934C13.9662 12.8677 13.8824 12.7585 13.8481 12.6304C13.8138 12.5023 13.8317 12.3659 13.898 12.251C14.293 11.5669 14.5009 10.7909 14.5007 10.0009C14.5006 9.21095 14.2923 8.43497 13.897 7.75104C13.8318 7.63626 13.8146 7.50032 13.8492 7.3729C13.8838 7.24548 13.9674 7.13692 14.0817 7.0709C14.196 7.00488 14.3319 6.98677 14.4595 7.02052C14.5871 7.05426 14.6963 7.13713 14.763 7.25104C15.2459 8.08687 15.5002 9.03511 15.5004 10.0004C15.5006 10.9657 15.2466 11.914 14.764 12.75C14.7313 12.807 14.6876 12.8569 14.6356 12.897C14.5835 12.9371 14.5241 12.9665 14.4607 12.9836C14.3972 13.0006 14.3311 13.0051 14.2659 12.9966C14.2008 12.9881 14.138 12.9668 14.081 12.934Z" fill="black"/>
</svg>
