<svg width="20" height="20" viewBox="0 0 20 20" fill="none" xmlns="http://www.w3.org/2000/svg">
<path d="M6.75 10C6.75 10.2298 6.70474 10.4574 6.61679 10.6697C6.52884 10.882 6.39994 11.0749 6.23744 11.2374C6.07493 11.3999 5.88202 11.5288 5.6697 11.6168C5.45738 11.7047 5.22981 11.75 5 11.75C4.77019 11.75 4.54262 11.7047 4.3303 11.6168C4.11798 11.5288 3.92507 11.3999 3.76256 11.2374C3.60006 11.0749 3.47116 10.882 3.38321 10.6697C3.29527 10.4574 3.25 10.2298 3.25 10C3.25 9.53587 3.43437 9.09075 3.76256 8.76256C4.09075 8.43437 4.53587 8.25 5 8.25C5.46413 8.25 5.90925 8.43437 6.23744 8.76256C6.56563 9.09075 6.75 9.53587 6.75 10Z" fill="black"/>
<path d="M11.75 10C11.75 10.2298 11.7047 10.4574 11.6168 10.6697C11.5288 10.882 11.3999 11.0749 11.2374 11.2374C11.0749 11.3999 10.882 11.5288 10.6697 11.6168C10.4574 11.7047 10.2298 11.75 10 11.75C9.77019 11.75 9.54262 11.7047 9.3303 11.6168C9.11798 11.5288 8.92507 11.3999 8.76256 11.2374C8.60006 11.0749 8.47116 10.882 8.38321 10.6697C8.29527 10.4574 8.25 10.2298 8.25 10C8.25 9.53587 8.43437 9.09075 8.76256 8.76256C9.09075 8.43437 9.53587 8.25 10 8.25C10.4641 8.25 10.9092 8.43437 11.2374 8.76256C11.5656 9.09075 11.75 9.53587 11.75 10Z" fill="black"/>
<path d="M15 11.75C15.2298 11.75 15.4574 11.7047 15.6697 11.6168C15.882 11.5288 16.0749 11.3999 16.2374 11.2374C16.3999 11.0749 16.5288 10.882 16.6168 10.6697C16.7047 10.4574 16.75 10.2298 16.75 10C16.75 9.77019 16.7047 9.54262 16.6168 9.3303C16.5288 9.11798 16.3999 8.92507 16.2374 8.76256C16.0749 8.60006 15.882 8.47116 15.6697 8.38321C15.4574 8.29527 15.2298 8.25 15 8.25C14.5359 8.25 14.0908 8.43437 13.7626 8.76256C13.4344 9.09075 13.25 9.53587 13.25 10C13.25 10.4641 13.4344 10.9092 13.7626 11.2374C14.0908 11.5656 14.5359 11.75 15 11.75V11.75Z" fill="black"/>
</svg>
