<svg width="20" height="20" viewBox="0 0 20 20" fill="none" xmlns="http://www.w3.org/2000/svg">
<path d="M5.5 10C5.5 9.86739 5.44732 9.74021 5.35355 9.64645C5.25979 9.55268 5.13261 9.5 5 9.5C4.86739 9.5 4.74021 9.55268 4.64645 9.64645C4.55268 9.74021 4.5 9.86739 4.5 10C4.49981 11.3723 5.01261 12.695 5.93772 13.7086C6.86283 14.7221 8.13342 15.3532 9.5 15.478V17.5C9.5 17.6326 9.55268 17.7598 9.64645 17.8536C9.74021 17.9473 9.86739 18 10 18C10.1326 18 10.2598 17.9473 10.3536 17.8536C10.4473 17.7598 10.5 17.6326 10.5 17.5V15.478C11.8666 15.3532 13.1372 14.7221 14.0623 13.7086C14.9874 12.695 15.5002 11.3723 15.5 10C15.5 9.86739 15.4473 9.74021 15.3536 9.64645C15.2598 9.55268 15.1326 9.5 15 9.5C14.8674 9.5 14.7402 9.55268 14.6464 9.64645C14.5527 9.74021 14.5 9.86739 14.5 10C14.5 10.5909 14.3836 11.1761 14.1575 11.7221C13.9313 12.268 13.5998 12.7641 13.182 13.182C12.7641 13.5998 12.268 13.9313 11.7221 14.1575C11.1761 14.3836 10.5909 14.5 10 14.5C9.40905 14.5 8.82389 14.3836 8.27792 14.1575C7.73196 13.9313 7.23588 13.5998 6.81802 13.182C6.40016 12.7641 6.06869 12.268 5.84254 11.7221C5.6164 11.1761 5.5 10.5909 5.5 10V10Z" fill="black"/>
<path d="M13 10C13 10.7956 12.6839 11.5587 12.1213 12.1213C11.5587 12.6839 10.7956 13 10 13C9.20435 13 8.44129 12.6839 7.87868 12.1213C7.31607 11.5587 7 10.7956 7 10V5C7 4.20435 7.31607 3.44129 7.87868 2.87868C8.44129 2.31607 9.20435 2 10 2C10.7956 2 11.5587 2.31607 12.1213 2.87868C12.6839 3.44129 13 4.20435 13 5V10Z" fill="black"/>
</svg>
