<svg width="20" height="20" viewBox="0 0 20 20" fill="none" xmlns="http://www.w3.org/2000/svg">
<path d="M11.9971 3.00595C11.9971 2.13295 10.9571 1.67895 10.3171 2.27295L6.44507 5.86595C6.35271 5.95191 6.23125 5.99978 6.10507 5.99995H3.49707C3.09925 5.99995 2.71771 6.15798 2.43641 6.43929C2.15511 6.72059 1.99707 7.10212 1.99707 7.49995V12.4999C1.99707 12.8978 2.15511 13.2793 2.43641 13.5606C2.71771 13.8419 3.09925 13.9999 3.49707 13.9999H6.10507C6.23112 13.9998 6.35255 14.0473 6.44507 14.1329L10.3171 17.7269C10.9571 18.3199 11.9971 17.8669 11.9971 16.9939V3.00595ZM7.12507 6.59895L10.9971 3.00595V16.9939L7.12507 13.3999C6.84767 13.1428 6.48334 12.9999 6.10507 12.9999H3.49707C3.36446 12.9999 3.23729 12.9473 3.14352 12.8535C3.04975 12.7597 2.99707 12.6326 2.99707 12.4999V7.49995C2.99707 7.36734 3.04975 7.24016 3.14352 7.14639C3.23729 7.05262 3.36446 6.99995 3.49707 6.99995H6.10507C6.48334 7 6.84767 6.85712 7.12507 6.59995V6.59895Z" fill="black"/>
</svg>
