<svg width="20" height="20" viewBox="0 0 20 20" fill="none" xmlns="http://www.w3.org/2000/svg">
<path d="M12 3.00595C12 2.13295 10.96 1.67895 10.32 2.27295L6.448 5.86595C6.35564 5.95191 6.23418 5.99978 6.108 5.99995H3.5C3.10218 5.99995 2.72064 6.15798 2.43934 6.43929C2.15804 6.72059 2 7.10212 2 7.49995V12.4999C2 12.8978 2.15804 13.2793 2.43934 13.5606C2.72064 13.8419 3.10218 13.9999 3.5 13.9999H6.107C6.23305 13.9998 6.35448 14.0473 6.447 14.1329L10.32 17.7269C10.96 18.3199 12 17.8669 12 16.9939V3.00595Z" fill="black"/>
</svg>
