<svg width="20" height="20" viewBox="0 0 20 20" fill="none" xmlns="http://www.w3.org/2000/svg">
<path d="M6 2C5.46957 2 4.96086 2.21071 4.58579 2.58579C4.21071 2.96086 4 3.46957 4 4V9.207C4.32688 9.11447 4.66165 9.05254 5 9.022V4C5 3.73478 5.10536 3.48043 5.29289 3.29289C5.48043 3.10536 5.73478 3 6 3H10V6.5C10 6.89782 10.158 7.27936 10.4393 7.56066C10.7206 7.84196 11.1022 8 11.5 8H15V16C15 16.2652 14.8946 16.5196 14.7071 16.7071C14.5196 16.8946 14.2652 17 14 17H10.4C10.218 17.3562 9.99767 17.6915 9.743 18H14C14.5304 18 15.0391 17.7893 15.4142 17.4142C15.7893 17.0391 16 16.5304 16 16V7.414C15.9996 7.01631 15.8414 6.63503 15.56 6.354L11.646 2.439C11.3648 2.15798 10.9835 2.00008 10.586 2H6ZM14.793 7H11.5C11.3674 7 11.2402 6.94732 11.1464 6.85355C11.0527 6.75979 11 6.63261 11 6.5V3.207L14.793 7Z" fill="black"/>
<path d="M10 14.5C10 15.6935 9.52589 16.8381 8.68198 17.682C7.83807 18.5259 6.69347 19 5.5 19C4.30653 19 3.16193 18.5259 2.31802 17.682C1.47411 16.8381 1 15.6935 1 14.5C1 13.3065 1.47411 12.1619 2.31802 11.318C3.16193 10.4741 4.30653 10 5.5 10C6.69347 10 7.83807 10.4741 8.68198 11.318C9.52589 12.1619 10 13.3065 10 14.5V14.5ZM6 12.5C6 12.3674 5.94732 12.2402 5.85355 12.1464C5.75979 12.0527 5.63261 12 5.5 12C5.36739 12 5.24021 12.0527 5.14645 12.1464C5.05268 12.2402 5 12.3674 5 12.5V14H3.5C3.36739 14 3.24021 14.0527 3.14645 14.1464C3.05268 14.2402 3 14.3674 3 14.5C3 14.6326 3.05268 14.7598 3.14645 14.8536C3.24021 14.9473 3.36739 15 3.5 15H5V16.5C5 16.6326 5.05268 16.7598 5.14645 16.8536C5.24021 16.9473 5.36739 17 5.5 17C5.63261 17 5.75979 16.9473 5.85355 16.8536C5.94732 16.7598 6 16.6326 6 16.5V15H7.5C7.63261 15 7.75979 14.9473 7.85355 14.8536C7.94732 14.7598 8 14.6326 8 14.5C8 14.3674 7.94732 14.2402 7.85355 14.1464C7.75979 14.0527 7.63261 14 7.5 14H6V12.5Z" fill="black"/>
</svg>
