<svg width="20" height="20" viewBox="0 0 20 20" fill="none" xmlns="http://www.w3.org/2000/svg">
<path d="M2.85414 2.14663C2.80766 2.10014 2.75247 2.06327 2.69173 2.03811C2.63099 2.01295 2.56589 2 2.50014 2C2.4344 2 2.3693 2.01295 2.30856 2.03811C2.24782 2.06327 2.19263 2.10014 2.14614 2.14663C2.09966 2.19312 2.06278 2.24831 2.03762 2.30905C2.01246 2.36979 1.99951 2.43489 1.99951 2.50063C1.99951 2.56638 2.01246 2.63148 2.03762 2.69221C2.06278 2.75295 2.09966 2.80814 2.14614 2.85463L3.50114 4.20863C3.05501 4.40311 2.67535 4.72357 2.40872 5.13071C2.14209 5.53785 2.00009 6.01396 2.00014 6.50063V13.5006C2.00014 14.1637 2.26354 14.7996 2.73238 15.2684C3.20122 15.7372 3.8371 16.0006 4.50014 16.0006H10.5001C11.1286 16.0006 11.7339 15.764 12.1957 15.3378C12.6575 14.9115 12.9419 14.327 12.9921 13.7006L17.1461 17.8546C17.24 17.9485 17.3674 18.0013 17.5001 18.0013C17.6329 18.0013 17.7603 17.9485 17.8541 17.8546C17.948 17.7607 18.0008 17.6334 18.0008 17.5006C18.0008 17.3679 17.948 17.2405 17.8541 17.1466L2.85414 2.14663V2.14663Z" fill="black"/>
<path d="M16.764 14.4331L15.354 13.2341L14 11.8811V7.93108L16.77 5.61708C16.8795 5.52587 17.0127 5.46775 17.1541 5.44952C17.2954 5.43129 17.439 5.45371 17.5681 5.51415C17.6971 5.57458 17.8063 5.67054 17.8828 5.79078C17.9593 5.91102 17.9999 6.05057 18 6.19308V13.8601C18.0001 14.0033 17.9593 14.1437 17.8822 14.2644C17.8051 14.3852 17.695 14.4813 17.565 14.5415C17.435 14.6017 17.2904 14.6233 17.1485 14.6039C17.0065 14.5846 16.8731 14.5249 16.764 14.4321V14.4331Z" fill="black"/>
<path d="M13.0001 10.88L6.12109 4H10.5001C10.8285 4 11.1537 4.0647 11.457 4.1904C11.7604 4.3161 12.0361 4.50033 12.2682 4.73259C12.5004 4.96484 12.6845 5.24056 12.8101 5.54398C12.9357 5.84741 13.0002 6.17261 13.0001 6.501V10.881V10.88Z" fill="black"/>
</svg>
