<svg width="20" height="20" viewBox="0 0 20 20" fill="none" xmlns="http://www.w3.org/2000/svg">
<path d="M2.85414 2.14663C2.80766 2.10014 2.75247 2.06327 2.69173 2.03811C2.63099 2.01295 2.56589 2 2.50014 2C2.4344 2 2.3693 2.01295 2.30856 2.03811C2.24782 2.06327 2.19263 2.10014 2.14614 2.14663C2.09966 2.19312 2.06278 2.24831 2.03762 2.30905C2.01246 2.36979 1.99951 2.43489 1.99951 2.50063C1.99951 2.56638 2.01246 2.63148 2.03762 2.69221C2.06278 2.75295 2.09966 2.80814 2.14614 2.85463L3.50114 4.20863C3.05501 4.40311 2.67535 4.72357 2.40872 5.13071C2.14209 5.53785 2.00009 6.01396 2.00014 6.50063V13.5006C2.00014 14.1637 2.26354 14.7996 2.73238 15.2684C3.20122 15.7372 3.8371 16.0006 4.50014 16.0006H11.5001C11.9867 16.0008 12.4627 15.8589 12.8699 15.5925C13.277 15.326 13.5975 14.9466 13.7921 14.5006L17.1461 17.8546C17.24 17.9485 17.3674 18.0013 17.5001 18.0013C17.6329 18.0013 17.7603 17.9485 17.8541 17.8546C17.948 17.7607 18.0008 17.6334 18.0008 17.5006C18.0008 17.3679 17.948 17.2405 17.8541 17.1466L2.85414 2.14663V2.14663ZM12.9871 13.6956C12.9398 14.0565 12.7629 14.3879 12.4893 14.628C12.2157 14.8681 11.8641 15.0006 11.5001 15.0006H4.50014C4.10232 15.0006 3.72079 14.8426 3.43948 14.5613C3.15818 14.28 3.00014 13.8985 3.00014 13.5006V6.50063C2.99997 6.13646 3.13228 5.78465 3.37241 5.51086C3.61253 5.23706 3.94406 5.05997 4.30514 5.01263L12.9881 13.6956H12.9871Z" fill="black"/>
<path d="M13.0001 10.879L16.4701 14.348C16.6215 14.4426 16.7954 14.495 16.9738 14.4997C17.1523 14.5043 17.3287 14.4612 17.4849 14.3746C17.641 14.2881 17.7711 14.1614 17.8617 14.0076C17.9523 13.8538 18.0001 13.6785 18.0001 13.5V6.5C18.0001 6.31429 17.9484 6.13224 17.8507 5.97427C17.7531 5.81629 17.6134 5.68863 17.4473 5.60557C17.2812 5.52252 17.0952 5.48736 16.9103 5.50404C16.7253 5.52072 16.5487 5.58857 16.4001 5.7L14.0001 7.5V6.5C14.0001 5.83696 13.7367 5.20107 13.2679 4.73223C12.799 4.26339 12.1631 4 11.5001 4H6.12109L7.12109 5H11.5001C11.8979 5 12.2794 5.15804 12.5608 5.43934C12.8421 5.72064 13.0001 6.10218 13.0001 6.5V10.879ZM14.0001 8.75L17.0001 6.5V13.5L14.0001 11.25V8.75Z" fill="black"/>
</svg>
