<svg width="20" height="20" viewBox="0 0 20 20" fill="none" xmlns="http://www.w3.org/2000/svg">
<path d="M11.9971 3.00595C11.9971 2.13295 10.9571 1.67895 10.3171 2.27295L6.44507 5.86595C6.35271 5.95191 6.23125 5.99978 6.10507 5.99995H3.49707C3.09925 5.99995 2.71771 6.15798 2.43641 6.43929C2.15511 6.72059 1.99707 7.10212 1.99707 7.49995V12.4999C1.99707 12.8978 2.15511 13.2793 2.43641 13.5606C2.71771 13.8419 3.09925 13.9999 3.49707 13.9999H6.10507C6.23112 13.9998 6.35255 14.0473 6.44507 14.1329L10.3171 17.7269C10.9571 18.3199 11.9971 17.8669 11.9971 16.9939V3.00595Z" fill="black"/>
<path d="M13.1429 7.64689C13.1893 7.60033 13.2445 7.56339 13.3052 7.53818C13.366 7.51297 13.4311 7.5 13.4969 7.5C13.5626 7.5 13.6277 7.51297 13.6885 7.53818C13.7492 7.56339 13.8044 7.60033 13.8509 7.64689L15.4969 9.29389L17.1429 7.64689C17.2366 7.55301 17.3638 7.50021 17.4965 7.50012C17.5622 7.50007 17.6273 7.51296 17.688 7.53806C17.7487 7.56316 17.8039 7.59997 17.8504 7.64639C17.8968 7.69282 17.9337 7.74794 17.9589 7.80862C17.9841 7.8693 17.9971 7.93434 17.9971 8.00004C17.9972 8.06574 17.9843 8.1308 17.9592 8.19151C17.9341 8.25223 17.8973 8.30741 17.8509 8.35389L16.2039 10.0009L17.8509 11.6469C17.8986 11.693 17.9367 11.7482 17.9629 11.8092C17.9891 11.8702 18.0029 11.9358 18.0035 12.0022C18.0041 12.0686 17.9914 12.1344 17.9663 12.1959C17.9411 12.2573 17.904 12.3131 17.8571 12.3601C17.8101 12.407 17.7543 12.4442 17.6928 12.4693C17.6314 12.4944 17.5655 12.5071 17.4992 12.5065C17.4328 12.5059 17.3672 12.4921 17.3062 12.4659C17.2452 12.4397 17.19 12.4016 17.1439 12.3539L15.4969 10.7079L13.8509 12.3539C13.8044 12.4004 13.7493 12.4373 13.6886 12.4625C13.628 12.4876 13.5629 12.5006 13.4972 12.5007C13.4315 12.5007 13.3665 12.4878 13.3057 12.4627C13.245 12.4376 13.1898 12.4008 13.1434 12.3544C13.0969 12.308 13.06 12.2528 13.0348 12.1922C13.0096 12.1315 12.9966 12.0664 12.9966 12.0007C12.9965 11.935 13.0094 11.87 13.0345 11.8093C13.0596 11.7486 13.0964 11.6934 13.1429 11.6469L14.7899 10.0009L13.1439 8.35389C13.0501 8.26013 12.9975 8.13298 12.9975 8.00039C12.9975 7.86781 13.0501 7.74066 13.1439 7.64689H13.1429Z" fill="black"/>
</svg>
