<svg width="20" height="20" viewBox="0 0 20 20" fill="none" xmlns="http://www.w3.org/2000/svg">
<path d="M16.996 7.073V7C16.996 6.33696 16.7326 5.70107 16.2638 5.23223C15.7949 4.76339 15.159 4.5 14.496 4.5H9.664L8.064 3.3C7.80436 3.10527 7.48856 3 7.164 3H4.5C3.83696 3 3.20107 3.26339 2.73223 3.73223C2.26339 4.20107 2 4.83696 2 5.5L2.001 14.498C2.00101 15.1093 2.22497 15.6993 2.63052 16.1567C3.03608 16.614 3.59513 16.9069 4.202 16.98C4.287 16.994 4.374 17.002 4.462 17.002H15.18C15.5281 17.0019 15.8653 16.8807 16.1339 16.6592C16.4025 16.4377 16.5856 16.1297 16.652 15.788L18.01 8.788C18.08 8.42759 18.0154 8.05404 17.8286 7.73801C17.6417 7.42198 17.3455 7.18539 16.996 7.073V7.073ZM4.5 4H7.164C7.27219 4 7.37745 4.03509 7.464 4.1L9.198 5.4C9.28455 5.46491 9.38982 5.5 9.498 5.5H14.496C14.8938 5.5 15.2754 5.65804 15.5567 5.93934C15.838 6.22064 15.996 6.60218 15.996 7V7.002H5.824C5.47589 7.00211 5.13865 7.1233 4.87009 7.34479C4.60154 7.56627 4.41837 7.87427 4.352 8.216L3.054 14.892C3.01862 14.7636 3.00046 14.6311 3 14.498V5.5C3 5.10218 3.15804 4.72064 3.43934 4.43934C3.72064 4.15804 4.10218 4 4.5 4V4ZM5.333 8.407C5.35507 8.29297 5.41614 8.19019 5.50574 8.11628C5.59533 8.04238 5.70786 8.00197 5.824 8.002H16.537C16.6107 8.00198 16.6835 8.01827 16.7502 8.04969C16.8169 8.08112 16.8758 8.1269 16.9228 8.18376C16.9697 8.24062 17.0034 8.30716 17.0216 8.3786C17.0398 8.45004 17.042 8.52462 17.028 8.597L15.671 15.597C15.6489 15.711 15.5879 15.8138 15.4983 15.8877C15.4087 15.9616 15.2961 16.002 15.18 16.002H4.463C4.38936 16.0019 4.31666 15.9855 4.2501 15.954C4.18353 15.9225 4.12474 15.8767 4.07793 15.8199C4.03111 15.763 3.99744 15.6965 3.9793 15.6252C3.96116 15.5538 3.95901 15.4793 3.973 15.407L5.333 8.407V8.407Z" fill="black"/>
</svg>
