<svg width="20" height="20" viewBox="0 0 20 20" fill="none" xmlns="http://www.w3.org/2000/svg">
<path d="M2 5.5C2 4.83696 2.26339 4.20107 2.73223 3.73223C3.20108 3.26339 3.83696 3 4.5 3H7.164C7.489 3 7.804 3.105 8.064 3.3L9.664 4.5H14.496C15.159 4.5 15.7949 4.76339 16.2638 5.23223C16.7326 5.70107 16.996 6.33696 16.996 7V7.002H5.824C5.47569 7.0016 5.13809 7.12243 4.86914 7.34376C4.60019 7.56509 4.41664 7.87312 4.35 8.215L2.773 16.305C2.52843 16.0719 2.3338 15.7915 2.20092 15.4809C2.06803 15.1703 1.99968 14.8359 2 14.498V5.5Z" fill="black"/>
<path d="M3.77278 16.407C3.75877 16.4793 3.76094 16.5539 3.77914 16.6254C3.79733 16.6968 3.8311 16.7633 3.87802 16.8202C3.92495 16.8771 3.98386 16.9228 4.05055 16.9543C4.11724 16.9857 4.19006 17.002 4.26378 17.002H15.1798C15.5279 17.0018 15.8651 16.8807 16.1337 16.6592C16.4022 16.4377 16.5854 16.1297 16.6518 15.788L18.0468 8.59795C18.061 8.5255 18.0589 8.45081 18.0408 8.37924C18.0227 8.30768 17.9889 8.24101 17.942 8.18403C17.895 8.12705 17.8361 8.08117 17.7693 8.04969C17.7025 8.01821 17.6296 8.00191 17.5558 8.00195H5.82378C5.70778 8.00188 5.59536 8.04215 5.50579 8.11585C5.41621 8.18956 5.35505 8.29211 5.33278 8.40595L3.77278 16.406V16.407Z" fill="black"/>
</svg>
