<svg width="20" height="20" viewBox="0 0 20 20" fill="none" xmlns="http://www.w3.org/2000/svg">
<path d="M5 3.06086C4.99994 2.87123 5.0538 2.68549 5.1553 2.52531C5.2568 2.36513 5.40175 2.23711 5.57324 2.15618C5.74474 2.07525 5.93571 2.04476 6.12388 2.06825C6.31205 2.09174 6.48966 2.16825 6.636 2.28886L17.642 11.3509C18.366 11.9469 17.944 13.1229 17.006 13.1229H11.414C11.1989 13.1228 10.9863 13.1691 10.7906 13.2585C10.595 13.3478 10.4208 13.4783 10.28 13.6409L6.756 17.7139C6.15 18.4139 5 17.9849 5 17.0589V3.06086V3.06086ZM17.006 12.1229L6 3.06086V17.0589L9.524 12.9869C9.75864 12.7157 10.0489 12.4982 10.375 12.3492C10.7011 12.2001 11.0554 12.1229 11.414 12.1229H17.006Z" fill="black"/>
</svg>
