<svg width="20" height="20" viewBox="0 0 20 20" fill="none" xmlns="http://www.w3.org/2000/svg">
<path d="M3.00013 6.50091V3.50091C3.00013 3.3683 3.05281 3.24112 3.14658 3.14735C3.24035 3.05359 3.36753 3.00091 3.50013 3.00091C3.63274 3.00091 3.75992 3.05359 3.85369 3.14735C3.94746 3.24112 4.00013 3.3683 4.00013 3.50091V4.70791C5.38095 3.13945 7.32204 2.17537 9.40613 2.02291C10.2558 1.95831 11.1104 2.03056 11.9371 2.23691C13.5168 2.63159 14.9385 3.49873 16.0125 4.72256C17.0865 5.9464 17.7616 7.4687 17.9477 9.08626C18.1339 10.7038 17.8222 12.3397 17.0543 13.7755C16.2864 15.2113 15.0989 16.3787 13.6501 17.1219C12.6721 17.624 11.6005 17.9179 10.5031 17.9849C8.66788 18.1047 6.84785 17.5845 5.35313 16.5129C4.46456 15.8807 3.71504 15.073 3.15089 14.1398C2.58674 13.2065 2.21993 12.1675 2.07313 11.0869C1.99997 10.5556 1.98021 10.0182 2.01413 9.48291C2.01834 9.41738 2.0354 9.35332 2.06436 9.29438C2.09332 9.23545 2.13361 9.1828 2.18292 9.13943C2.23222 9.09607 2.28959 9.06284 2.35174 9.04165C2.41389 9.02045 2.4796 9.0117 2.54513 9.01591C2.61066 9.02011 2.67472 9.03718 2.73366 9.06614C2.79259 9.0951 2.84524 9.13538 2.88861 9.18469C2.93197 9.234 2.9652 9.29136 2.9864 9.35351C3.00759 9.41566 3.01634 9.48138 3.01213 9.54691C3.00321 9.69807 2.9992 9.84948 3.00013 10.0009C3.00013 13.1009 5.01513 15.7309 7.80813 16.6509C8.81979 16.9838 9.89409 17.0813 10.9491 16.9359C11.7619 16.8256 12.5489 16.5731 13.2741 16.1899C14.6935 15.4366 15.8106 14.218 16.4381 12.7387C17.0656 11.2593 17.1652 9.6092 16.7202 8.06512C16.2753 6.52104 15.3129 5.17694 13.9944 4.25832C12.676 3.3397 11.0817 2.90244 9.47913 3.01991C8.82175 3.07002 8.17455 3.21138 7.55613 3.43991C6.22138 3.93877 5.07005 4.832 4.25513 6.00091H6.00013C6.13274 6.00091 6.25992 6.05359 6.35369 6.14735C6.44746 6.24112 6.50013 6.3683 6.50013 6.50091C6.50013 6.63352 6.44746 6.76069 6.35369 6.85446C6.25992 6.94823 6.13274 7.00091 6.00013 7.00091H3.50013C3.36769 7.00038 3.24082 6.94753 3.14716 6.85388C3.05351 6.76022 3.00066 6.63335 3.00013 6.50091V6.50091ZM7.50013 7.96791C7.50013 7.03791 8.48013 6.43291 9.31213 6.85091L13.3521 8.88391C14.2691 9.34591 14.2691 10.6559 13.3521 11.1179L9.31213 13.1499C9.12168 13.2458 8.90986 13.2913 8.69683 13.2822C8.4838 13.2731 8.27664 13.2097 8.09504 13.098C7.91345 12.9862 7.76345 12.8299 7.65933 12.6438C7.5552 12.4577 7.5004 12.2481 7.50013 12.0349V7.96791V7.96791ZM8.86213 7.74491C8.82406 7.72583 8.78174 7.71679 8.73919 7.71865C8.69664 7.72052 8.65527 7.73322 8.61901 7.75556C8.58275 7.7779 8.5528 7.80913 8.53199 7.84629C8.51119 7.88346 8.50022 7.92532 8.50013 7.96791V12.0339C8.50022 12.0765 8.51119 12.1184 8.53199 12.1555C8.5528 12.1927 8.58275 12.2239 8.61901 12.2463C8.65527 12.2686 8.69664 12.2813 8.73919 12.2832C8.78174 12.285 8.82406 12.276 8.86213 12.2569L12.9021 10.2239C12.9433 10.203 12.978 10.1711 13.0021 10.1318C13.0263 10.0924 13.0391 10.0471 13.0391 10.0009C13.0391 9.95471 13.0263 9.90941 13.0021 9.87005C12.978 9.83068 12.9433 9.79879 12.9021 9.77791L8.86213 7.74491V7.74491Z" fill="black"/>
</svg>
