<svg width="20" height="20" viewBox="0 0 20 20" fill="none" xmlns="http://www.w3.org/2000/svg">
<path d="M4 4C3.46957 4 2.96086 4.21071 2.58579 4.58579C2.21071 4.96086 2 5.46957 2 6V14C2 14.5304 2.21071 15.0391 2.58579 15.4142C2.96086 15.7893 3.46957 16 4 16H16C16.5304 16 17.0391 15.7893 17.4142 15.4142C17.7893 15.0391 18 14.5304 18 14V6C18 5.46957 17.7893 4.96086 17.4142 4.58579C17.0391 4.21071 16.5304 4 16 4H4ZM10 14C9.86739 14 9.74021 13.9473 9.64645 13.8536C9.55268 13.7598 9.5 13.6326 9.5 13.5V7.707L7.854 9.354C7.76011 9.44789 7.63278 9.50063 7.5 9.50063C7.36722 9.50063 7.23989 9.44789 7.146 9.354C7.05211 9.26011 6.99937 9.13278 6.99937 9C6.99937 8.86722 7.05211 8.73989 7.146 8.646L9.646 6.146C9.69245 6.09944 9.74762 6.06249 9.80837 6.03729C9.86911 6.01208 9.93423 5.99911 10 5.99911C10.0658 5.99911 10.1309 6.01208 10.1916 6.03729C10.2524 6.06249 10.3076 6.09944 10.354 6.146L12.854 8.646C12.9479 8.73989 13.0006 8.86722 13.0006 9C13.0006 9.13278 12.9479 9.26011 12.854 9.354C12.7601 9.44789 12.6328 9.50063 12.5 9.50063C12.3672 9.50063 12.2399 9.44789 12.146 9.354L10.5 7.707V13.5C10.5 13.6326 10.4473 13.7598 10.3536 13.8536C10.2598 13.9473 10.1326 14 10 14Z" fill="black"/>
</svg>
