<svg width="20" height="20" viewBox="0 0 20 20" fill="none" xmlns="http://www.w3.org/2000/svg">
<path d="M8.50003 3C9.52393 2.99994 10.5275 3.28568 11.3978 3.82507C12.2681 4.36447 12.9705 5.13608 13.4261 6.05306C13.8816 6.97004 14.0721 7.99597 13.9762 9.01536C13.8802 10.0347 13.5017 11.0071 12.883 11.823L17.03 15.97C17.163 16.104 17.2405 16.2832 17.2472 16.4719C17.2538 16.6605 17.1891 16.8447 17.0659 16.9878C16.9427 17.1308 16.7701 17.2221 16.5825 17.2434C16.395 17.2648 16.2062 17.2147 16.054 17.103L15.97 17.03L11.823 12.883C11.1276 13.4102 10.3167 13.7643 9.45736 13.9161C8.59801 14.0679 7.71487 14.0131 6.8809 13.7561C6.04694 13.4992 5.28609 13.0474 4.66122 12.4383C4.03635 11.8291 3.5654 11.08 3.28729 10.2529C3.00917 9.4257 2.93186 8.54424 3.06176 7.6813C3.19166 6.81837 3.52503 5.99872 4.03433 5.2901C4.54363 4.58148 5.21424 4.00421 5.99075 3.606C6.76726 3.20779 7.62738 3.00007 8.50003 3V3ZM8.50003 4.5C7.43917 4.5 6.42175 4.92143 5.67161 5.67157C4.92146 6.42172 4.50003 7.43913 4.50003 8.5C4.50003 9.56087 4.92146 10.5783 5.67161 11.3284C6.42175 12.0786 7.43917 12.5 8.50003 12.5C9.5609 12.5 10.5783 12.0786 11.3285 11.3284C12.0786 10.5783 12.5 9.56087 12.5 8.5C12.5 7.43913 12.0786 6.42172 11.3285 5.67157C10.5783 4.92143 9.5609 4.5 8.50003 4.5Z" fill="black"/>
</svg>
