<svg width="20" height="20" viewBox="0 0 20 20" fill="none" xmlns="http://www.w3.org/2000/svg">
<path d="M2.72078 2.05138L18.0758 9.61737C18.1595 9.65864 18.23 9.72252 18.2793 9.80178C18.3286 9.88104 18.3548 9.97253 18.3548 10.0659C18.3548 10.1592 18.3286 10.2507 18.2793 10.33C18.23 10.4092 18.1595 10.4731 18.0758 10.5144L2.71978 18.0804C2.63376 18.1226 2.53739 18.1393 2.44217 18.1283C2.34695 18.1174 2.25689 18.0793 2.18271 18.0186C2.10853 17.9579 2.05335 17.8771 2.02376 17.786C1.99416 17.6948 1.9914 17.5971 2.01578 17.5044L3.53678 11.7594C3.56144 11.6664 3.61238 11.5825 3.68351 11.5178C3.75463 11.4531 3.84292 11.4102 3.93778 11.3944L10.8188 10.2474C10.8598 10.2406 10.8985 10.2237 10.9313 10.1982C10.9641 10.1727 10.9901 10.1394 11.0068 10.1014L11.0248 10.0414C11.0341 9.98576 11.0244 9.92863 10.9972 9.87925C10.9699 9.82987 10.9268 9.79115 10.8748 9.76938L10.8188 9.75338L3.89978 8.60038C3.8051 8.58437 3.71703 8.54144 3.6461 8.47671C3.57516 8.41199 3.52437 8.3282 3.49978 8.23537L2.01578 2.62838C1.99114 2.53561 1.99372 2.43772 2.02321 2.34639C2.05269 2.25505 2.10784 2.17413 2.18208 2.11329C2.25631 2.05245 2.34648 2.01426 2.44183 2.00328C2.53718 1.9923 2.63367 2.009 2.71978 2.05138H2.72078Z" fill="black"/>
</svg>
