<svg width="20" height="20" viewBox="0 0 20 20" fill="none" xmlns="http://www.w3.org/2000/svg">
<path d="M2.72096 2.05194L18.076 9.61794C18.1597 9.65921 18.2302 9.72308 18.2795 9.80235C18.3288 9.88161 18.3549 9.9731 18.3549 10.0664C18.3549 10.1598 18.3288 10.2513 18.2795 10.3305C18.2302 10.4098 18.1597 10.4737 18.076 10.5149L2.71996 18.0809C2.63393 18.1232 2.53757 18.1398 2.44235 18.1289C2.34713 18.1179 2.25707 18.0798 2.18288 18.0191C2.1087 17.9585 2.05353 17.8777 2.02393 17.7866C1.99434 17.6954 1.99157 17.5976 2.01596 17.5049L3.98496 10.0709L2.01496 2.62894C1.99017 2.53606 1.99268 2.43799 2.02219 2.3465C2.05171 2.25501 2.10697 2.17396 2.18137 2.11307C2.25576 2.05218 2.34614 2.01403 2.44166 2.00319C2.53719 1.99235 2.63381 2.00928 2.71996 2.05194H2.72096ZM3.26396 3.43494L4.87396 9.51694L4.93596 9.50494L4.99996 9.50094H12C12.1249 9.50071 12.2454 9.54727 12.3377 9.63145C12.4301 9.71563 12.4875 9.83133 12.4988 9.95576C12.5101 10.0802 12.4744 10.2044 12.3987 10.3038C12.3231 10.4032 12.2129 10.4707 12.09 10.4929L12 10.5009H4.99996C4.96911 10.5011 4.93832 10.4984 4.90796 10.4929L3.26496 16.6989L16.723 10.0669L3.26396 3.43494V3.43494Z" fill="black"/>
</svg>
