<svg width="20" height="20" viewBox="0 0 20 20" fill="none" xmlns="http://www.w3.org/2000/svg">
<path d="M1.91 7.38226C2.2795 6.24134 2.88649 5.19163 3.691 4.30226C3.7575 4.22877 3.84434 4.1767 3.94048 4.15267C4.03663 4.12863 4.13775 4.13371 4.231 4.16726L6.14901 4.85326C6.28555 4.90201 6.43106 4.9205 6.57546 4.90743C6.71985 4.89435 6.85968 4.85004 6.98524 4.77755C7.11081 4.70507 7.21911 4.60614 7.30265 4.48764C7.38618 4.36913 7.44294 4.23388 7.46901 4.09126L7.83401 2.08526C7.85168 1.98761 7.89802 1.89742 7.96711 1.82619C8.03621 1.75496 8.12494 1.7059 8.22201 1.68526C9.39386 1.43564 10.6052 1.43564 11.777 1.68526C11.8741 1.7059 11.9628 1.75496 12.0319 1.82619C12.101 1.89742 12.1473 1.98761 12.165 2.08526L12.531 4.09126C12.5571 4.23388 12.6138 4.36913 12.6974 4.48764C12.7809 4.60614 12.8892 4.70507 13.0148 4.77755C13.1403 4.85004 13.2802 4.89435 13.4246 4.90743C13.569 4.9205 13.7145 4.90201 13.851 4.85326L15.77 4.16726C15.8632 4.13404 15.9642 4.12924 16.0601 4.15345C16.1561 4.17766 16.2427 4.22979 16.309 4.30326C17.113 5.19243 17.7197 6.24178 18.089 7.38226C18.1195 7.47646 18.1213 7.5776 18.0943 7.67284C18.0672 7.76809 18.0125 7.85315 17.937 7.91726L16.382 9.23726C16.2715 9.33113 16.1828 9.44791 16.122 9.57948C16.0611 9.71106 16.0296 9.85429 16.0296 9.99926C16.0296 10.1442 16.0611 10.2875 16.122 10.419C16.1828 10.5506 16.2715 10.6674 16.382 10.7613L17.937 12.0813C18.0125 12.1454 18.0672 12.2304 18.0943 12.3257C18.1213 12.4209 18.1195 12.5221 18.089 12.6163C17.7198 13.7571 17.1132 14.8068 16.309 15.6963C16.2425 15.7697 16.1557 15.8218 16.0595 15.8458C15.9634 15.8699 15.8623 15.8648 15.769 15.8313L13.851 15.1453C13.7145 15.0965 13.569 15.078 13.4246 15.0911C13.2802 15.1042 13.1403 15.1485 13.0148 15.221C12.8892 15.2934 12.7809 15.3924 12.6974 15.5109C12.6138 15.6294 12.5571 15.7646 12.531 15.9073L12.164 17.9143C12.1462 18.0116 12.0999 18.1015 12.0311 18.1725C11.9622 18.2435 11.8738 18.2925 11.777 18.3133C10.6052 18.5629 9.39385 18.5629 8.22201 18.3133C8.12494 18.2926 8.03621 18.2436 7.96711 18.1723C7.89802 18.1011 7.85168 18.0109 7.83401 17.9133L7.46901 15.9073C7.44294 15.7646 7.38618 15.6294 7.30265 15.5109C7.21911 15.3924 7.11081 15.2934 6.98524 15.221C6.85968 15.1485 6.71985 15.1042 6.57546 15.0911C6.43106 15.078 6.28555 15.0965 6.14901 15.1453L4.23001 15.8313C4.13679 15.8645 4.03581 15.8693 3.93986 15.8451C3.84391 15.8209 3.75731 15.7687 3.691 15.6953C2.88695 14.8061 2.28031 13.7567 1.91101 12.6163C1.88052 12.5221 1.87869 12.4209 1.90575 12.3257C1.93281 12.2304 1.98754 12.1454 2.063 12.0813L3.61801 10.7613C3.72847 10.6674 3.8172 10.5506 3.87806 10.419C3.93891 10.2875 3.97043 10.1442 3.97043 9.99926C3.97043 9.85429 3.93891 9.71106 3.87806 9.57948C3.8172 9.44791 3.72847 9.33113 3.61801 9.23726L2.063 7.91726C1.98754 7.85315 1.93281 7.76809 1.90575 7.67284C1.87869 7.5776 1.88052 7.47646 1.91101 7.38226H1.91ZM2.971 7.37626L4.265 8.47426C4.48628 8.66201 4.66404 8.89566 4.78596 9.15901C4.90788 9.42235 4.97103 9.70906 4.97103 9.99926C4.97103 10.2895 4.90788 10.5762 4.78596 10.8395C4.66404 11.1028 4.48628 11.3365 4.265 11.5243L2.971 12.6223C3.263 13.4043 3.68501 14.1323 4.21601 14.7743L5.812 14.2043C6.08516 14.1067 6.37626 14.0698 6.66511 14.096C6.95396 14.1222 7.23366 14.2109 7.4848 14.356C7.73595 14.5011 7.95254 14.6991 8.11955 14.9362C8.28657 15.1733 8.4 15.4439 8.452 15.7293L8.75701 17.3973C9.57966 17.5344 10.4193 17.5344 11.242 17.3973L11.547 15.7273C11.5991 15.442 11.7127 15.1715 11.8797 14.9345C12.0468 14.6975 12.2634 14.4996 12.5145 14.3547C12.7657 14.2097 13.0453 14.1211 13.3341 14.0949C13.6229 14.0688 13.9139 14.1057 14.187 14.2033L15.784 14.7743C16.316 14.1313 16.7368 13.4039 17.029 12.6223L15.735 11.5243C15.5134 11.3367 15.3354 11.1031 15.2133 10.8397C15.0911 10.5764 15.0279 10.2896 15.0279 9.99926C15.0279 9.70896 15.0911 9.42214 15.2133 9.15878C15.3354 8.89541 15.5134 8.66182 15.735 8.47426L17.029 7.37626C16.7368 6.59458 16.316 5.86722 15.784 5.22426L14.188 5.79426C13.9149 5.89177 13.6239 5.92874 13.3351 5.90259C13.0463 5.87645 12.7667 5.78782 12.5155 5.64285C12.2644 5.49788 12.0478 5.30003 11.8807 5.06302C11.7137 4.82601 11.6001 4.55551 11.548 4.27026L11.242 2.60126C10.4193 2.4641 9.57966 2.4641 8.75701 2.60126L8.45301 4.27026C8.401 4.5556 8.28756 4.82621 8.12055 5.06334C7.95354 5.30046 7.73695 5.49843 7.4858 5.6435C7.23466 5.78858 6.95496 5.87729 6.66611 5.9035C6.37726 5.9297 6.08616 5.89277 5.81301 5.79526L4.21601 5.22426C3.68403 5.86723 3.26324 6.59458 2.971 7.37626V7.37626ZM7.50001 9.99926C7.50001 9.33622 7.7634 8.70033 8.23224 8.23149C8.70108 7.76265 9.33696 7.49926 10 7.49926C10.663 7.49926 11.2989 7.76265 11.7678 8.23149C12.2366 8.70033 12.5 9.33622 12.5 9.99926C12.5 10.6623 12.2366 11.2982 11.7678 11.767C11.2989 12.2359 10.663 12.4993 10 12.4993C9.33696 12.4993 8.70108 12.2359 8.23224 11.767C7.7634 11.2982 7.50001 10.6623 7.50001 9.99926ZM8.50001 9.99926C8.50001 10.3971 8.65804 10.7786 8.93934 11.0599C9.22065 11.3412 9.60218 11.4993 10 11.4993C10.3978 11.4993 10.7794 11.3412 11.0607 11.0599C11.342 10.7786 11.5 10.3971 11.5 9.99926C11.5 9.60143 11.342 9.2199 11.0607 8.9386C10.7794 8.65729 10.3978 8.49926 10 8.49926C9.60218 8.49926 9.22065 8.65729 8.93934 8.9386C8.65804 9.2199 8.50001 9.60143 8.50001 9.99926V9.99926Z" fill="black"/>
</svg>
