<svg width="20" height="20" viewBox="0 0 20 20" fill="none" xmlns="http://www.w3.org/2000/svg">
<path d="M1.91 7.38226C2.2795 6.24134 2.88649 5.19163 3.691 4.30226C3.7575 4.22877 3.84434 4.1767 3.94048 4.15267C4.03663 4.12863 4.13775 4.13371 4.231 4.16726L6.14901 4.85326C6.28555 4.90201 6.43106 4.9205 6.57546 4.90743C6.71985 4.89435 6.85968 4.85004 6.98524 4.77755C7.11081 4.70507 7.21911 4.60614 7.30265 4.48764C7.38618 4.36913 7.44294 4.23388 7.46901 4.09126L7.83401 2.08526C7.85168 1.98761 7.89802 1.89742 7.96711 1.82619C8.03621 1.75496 8.12494 1.7059 8.22201 1.68526C9.39386 1.43564 10.6052 1.43564 11.777 1.68526C11.8741 1.7059 11.9628 1.75496 12.0319 1.82619C12.101 1.89742 12.1473 1.98761 12.165 2.08526L12.531 4.09126C12.5571 4.23388 12.6138 4.36913 12.6974 4.48764C12.7809 4.60614 12.8892 4.70507 13.0148 4.77755C13.1403 4.85004 13.2802 4.89435 13.4246 4.90743C13.569 4.9205 13.7145 4.90201 13.851 4.85326L15.77 4.16726C15.8632 4.13404 15.9642 4.12924 16.0601 4.15345C16.1561 4.17766 16.2427 4.22979 16.309 4.30326C17.113 5.19243 17.7197 6.24178 18.089 7.38226C18.1195 7.47646 18.1213 7.5776 18.0943 7.67284C18.0672 7.76809 18.0125 7.85315 17.937 7.91726L16.382 9.23726C16.2715 9.33113 16.1828 9.44791 16.122 9.57948C16.0611 9.71106 16.0296 9.85429 16.0296 9.99926C16.0296 10.1442 16.0611 10.2875 16.122 10.419C16.1828 10.5506 16.2715 10.6674 16.382 10.7613L17.937 12.0813C18.0125 12.1454 18.0672 12.2304 18.0943 12.3257C18.1213 12.4209 18.1195 12.5221 18.089 12.6163C17.7198 13.7571 17.1132 14.8068 16.309 15.6963C16.2425 15.7697 16.1557 15.8218 16.0595 15.8458C15.9634 15.8699 15.8623 15.8648 15.769 15.8313L13.851 15.1453C13.7145 15.0965 13.569 15.078 13.4246 15.0911C13.2802 15.1042 13.1403 15.1485 13.0148 15.221C12.8892 15.2934 12.7809 15.3924 12.6974 15.5109C12.6138 15.6294 12.5571 15.7646 12.531 15.9073L12.164 17.9143C12.1462 18.0116 12.0999 18.1015 12.0311 18.1725C11.9622 18.2435 11.8738 18.2925 11.777 18.3133C10.6052 18.5629 9.39385 18.5629 8.22201 18.3133C8.12494 18.2926 8.03621 18.2436 7.96711 18.1723C7.89802 18.1011 7.85168 18.0109 7.83401 17.9133L7.46901 15.9073C7.44294 15.7646 7.38618 15.6294 7.30265 15.5109C7.21911 15.3924 7.11081 15.2934 6.98524 15.221C6.85968 15.1485 6.71985 15.1042 6.57546 15.0911C6.43106 15.078 6.28555 15.0965 6.14901 15.1453L4.23001 15.8313C4.13679 15.8645 4.03581 15.8693 3.93986 15.8451C3.84391 15.8209 3.75731 15.7687 3.691 15.6953C2.88695 14.8061 2.28031 13.7567 1.91101 12.6163C1.88052 12.5221 1.87869 12.4209 1.90575 12.3257C1.93281 12.2304 1.98754 12.1454 2.063 12.0813L3.61801 10.7613C3.72847 10.6674 3.8172 10.5506 3.87806 10.419C3.93891 10.2875 3.97043 10.1442 3.97043 9.99926C3.97043 9.85429 3.93891 9.71106 3.87806 9.57948C3.8172 9.44791 3.72847 9.33113 3.61801 9.23726L2.063 7.91726C1.98754 7.85315 1.93281 7.76809 1.90575 7.67284C1.87869 7.5776 1.88052 7.47646 1.91101 7.38226H1.91ZM8.00001 9.99926C8.00001 10.5297 8.21072 11.0384 8.58579 11.4135C8.96086 11.7885 9.46957 11.9993 10 11.9993C10.5304 11.9993 11.0391 11.7885 11.4142 11.4135C11.7893 11.0384 12 10.5297 12 9.99926C12 9.46882 11.7893 8.96012 11.4142 8.58504C11.0391 8.20997 10.5304 7.99926 10 7.99926C9.46957 7.99926 8.96086 8.20997 8.58579 8.58504C8.21072 8.96012 8.00001 9.46882 8.00001 9.99926V9.99926Z" fill="black"/>
</svg>
