<svg width="20" height="20" viewBox="0 0 20 20" fill="none" xmlns="http://www.w3.org/2000/svg">
<path d="M7.50013 2.99915C6.34864 2.99714 5.24019 3.43662 4.40293 4.22715C3.56567 5.01767 3.06331 6.09907 2.99924 7.24878C2.93518 8.39848 3.31429 9.52901 4.05854 10.4077C4.80278 11.2863 5.85554 11.8462 7.00013 11.9721V12.9771C5.95935 12.882 4.96723 12.4922 4.13996 11.8536C3.31269 11.2149 2.68451 10.3538 2.32899 9.37097C1.97346 8.38818 1.90531 7.32444 2.13252 6.30432C2.35973 5.28419 2.87288 4.34992 3.61189 3.61091C4.3509 2.8719 5.28517 2.35875 6.30529 2.13154C7.32541 1.90434 8.38916 1.97249 9.37194 2.32801C10.3547 2.68353 11.2159 3.31172 11.8545 4.13899C12.4932 4.96626 12.883 5.95837 12.9781 6.99915H11.9731C11.8501 5.89896 11.3259 4.88271 10.5007 4.14476C9.67545 3.40681 8.60717 2.99894 7.50013 2.99915V2.99915Z" fill="black"/>
<path d="M10.5 8C9.83696 8 9.20107 8.26339 8.73223 8.73223C8.26339 9.20107 8 9.83696 8 10.5V15.5C8 16.163 8.26339 16.7989 8.73223 17.2678C9.20107 17.7366 9.83696 18 10.5 18H15.5C16.163 18 16.7989 17.7366 17.2678 17.2678C17.7366 16.7989 18 16.163 18 15.5V10.5C18 9.83696 17.7366 9.20107 17.2678 8.73223C16.7989 8.26339 16.163 8 15.5 8H10.5ZM9 10.5C9 10.1022 9.15804 9.72064 9.43934 9.43934C9.72064 9.15804 10.1022 9 10.5 9H15.5C15.8978 9 16.2794 9.15804 16.5607 9.43934C16.842 9.72064 17 10.1022 17 10.5V15.5C17 15.8978 16.842 16.2794 16.5607 16.5607C16.2794 16.842 15.8978 17 15.5 17H10.5C10.1022 17 9.72064 16.842 9.43934 16.5607C9.15804 16.2794 9 15.8978 9 15.5V10.5Z" fill="black"/>
</svg>
