<svg width="20" height="20" viewBox="0 0 20 20" fill="none" xmlns="http://www.w3.org/2000/svg">
<path d="M2.00001 7.50083C1.99778 6.08397 2.54243 4.72091 3.52044 3.69573C4.49845 2.67055 5.83437 2.06235 7.24976 1.99789C8.66515 1.93342 10.0508 2.41767 11.118 3.3497C12.1851 4.28173 12.8514 5.58963 12.978 7.00083H10.5C9.57175 7.00083 8.68151 7.36957 8.02513 8.02595C7.36876 8.68233 7.00001 9.57257 7.00001 10.5008V12.9788C5.63342 12.8541 4.36284 12.223 3.43773 11.2094C2.51262 10.1959 1.99981 8.87309 2.00001 7.50083V7.50083Z" fill="black"/>
<path d="M10.5 8C9.83696 8 9.20107 8.26339 8.73223 8.73223C8.26339 9.20107 8 9.83696 8 10.5V15.5C8 16.163 8.26339 16.7989 8.73223 17.2678C9.20107 17.7366 9.83696 18 10.5 18H15.5C16.163 18 16.7989 17.7366 17.2678 17.2678C17.7366 16.7989 18 16.163 18 15.5V10.5C18 9.83696 17.7366 9.20107 17.2678 8.73223C16.7989 8.26339 16.163 8 15.5 8H10.5Z" fill="black"/>
</svg>
