<svg width="20" height="20" viewBox="0 0 20 20" fill="none" xmlns="http://www.w3.org/2000/svg">
<path d="M15.75 9.24973C15.9312 9.24974 16.1063 9.31537 16.2429 9.4345C16.3795 9.55362 16.4684 9.71818 16.493 9.89773L16.5 9.99973V15.2497C16.5 15.95 16.2329 16.6239 15.7531 17.134C15.2733 17.6441 14.617 17.952 13.918 17.9947L13.75 17.9997H6.25C5.54971 17.9998 4.87579 17.7326 4.3657 17.2528C3.85561 16.773 3.54778 16.1167 3.505 15.4177L3.5 15.2497V9.99973C3.50006 9.80971 3.57224 9.62679 3.70197 9.48794C3.8317 9.34909 4.0093 9.26466 4.19888 9.25171C4.38846 9.23875 4.57589 9.29825 4.7233 9.41816C4.87071 9.53808 4.9671 9.70948 4.993 9.89773L5 9.99973V15.2497C5 15.8967 5.492 16.4297 6.122 16.4937L6.25 16.4997H13.75C14.0593 16.4996 14.3576 16.3849 14.5871 16.1776C14.8167 15.9704 14.9613 15.6854 14.993 15.3777L15 15.2497V9.99973C15 9.80082 15.079 9.61006 15.2197 9.4694C15.3603 9.32875 15.5511 9.24973 15.75 9.24973ZM5.227 6.46173L9.47 2.21973C9.59699 2.09271 9.76534 2.01549 9.94445 2.00209C10.1236 1.98869 10.3015 2.04002 10.446 2.14673L10.53 2.21973L14.773 6.46173C14.9089 6.59518 14.989 6.77533 14.9969 6.96563C15.0048 7.15594 14.9401 7.34213 14.8158 7.48643C14.6914 7.63073 14.5169 7.72233 14.3275 7.74263C14.1381 7.76293 13.9481 7.71041 13.796 7.59573L13.712 7.52273L10.75 4.55973V12.2497C10.75 12.431 10.6844 12.6061 10.5652 12.7427C10.4461 12.8793 10.2816 12.9681 10.102 12.9927L10 12.9997C9.81876 12.9997 9.64366 12.9341 9.50707 12.815C9.37048 12.6958 9.28165 12.5313 9.257 12.3517L9.25 12.2497V4.55973L6.288 7.52273C6.16095 7.65001 5.9924 7.7274 5.81307 7.7408C5.63373 7.7542 5.45555 7.70272 5.311 7.59573L5.227 7.52273C5.09972 7.39569 5.02233 7.22714 5.00893 7.0478C4.99553 6.86846 5.04701 6.69028 5.154 6.54573L5.227 6.46173L9.47 2.21973L5.227 6.46173Z" fill="black"/>
</svg>
