<svg width="20" height="20" viewBox="0 0 20 20" fill="none" xmlns="http://www.w3.org/2000/svg">
<path d="M14.8398 16.722C14.7682 16.8091 14.6781 16.8793 14.5761 16.9273C14.474 16.9754 14.3626 17.0002 14.2498 17C14.1517 17.0006 14.0545 16.9814 13.964 16.9436C13.8734 16.9058 13.7914 16.8502 13.7228 16.78L10.7188 13.772C10.5784 13.6314 10.4995 13.4408 10.4995 13.242C10.4995 13.0433 10.5784 12.8526 10.7188 12.712C10.7883 12.6422 10.8709 12.5869 10.9619 12.5491C11.0528 12.5113 11.1503 12.4918 11.2488 12.4918C11.3473 12.4918 11.4448 12.5113 11.5358 12.5491C11.6267 12.5869 11.7093 12.6422 11.7788 12.712L13.4998 14.444V3.75001C13.4998 3.5511 13.5788 3.36033 13.7195 3.21968C13.8602 3.07903 14.0509 3.00001 14.2498 3.00001C14.4487 3.00001 14.6395 3.07903 14.7802 3.21968C14.9208 3.36033 14.9998 3.5511 14.9998 3.75001V14.434L16.7218 12.716C16.7913 12.6464 16.8738 12.5911 16.9647 12.5534C17.0556 12.5157 17.153 12.4963 17.2513 12.4963C17.3497 12.4963 17.4471 12.5157 17.538 12.5534C17.6288 12.5911 17.7113 12.6464 17.7808 12.716C17.9213 12.8566 18.0002 13.0473 18.0002 13.246C18.0002 13.4448 17.9213 13.6354 17.7808 13.776L14.8388 16.722H14.8398ZM6.33983 3.27801C6.26819 3.1909 6.1781 3.12077 6.07607 3.0727C5.97405 3.02462 5.86262 2.9998 5.74983 3.00001C5.65172 2.99944 5.5545 3.01862 5.46396 3.05642C5.37342 3.09422 5.29141 3.14985 5.22283 3.22001L2.21983 6.22801C2.07938 6.36864 2.00049 6.55926 2.00049 6.75801C2.00049 6.95676 2.07938 7.14739 2.21983 7.28801C2.28933 7.3578 2.37192 7.41317 2.46287 7.45095C2.55382 7.48873 2.65134 7.50818 2.74983 7.50818C2.84832 7.50818 2.94583 7.48873 3.03678 7.45095C3.12774 7.41317 3.21033 7.3578 3.27983 7.28801L4.99983 5.55701V16.25C4.99983 16.4489 5.07885 16.6397 5.2195 16.7803C5.36015 16.921 5.55092 17 5.74983 17C5.94874 17 6.13951 16.921 6.28016 16.7803C6.42081 16.6397 6.49983 16.4489 6.49983 16.25V5.56601L8.22183 7.28401C8.29131 7.35365 8.37384 7.40889 8.4647 7.44658C8.55556 7.48428 8.65296 7.50368 8.75133 7.50368C8.8497 7.50368 8.9471 7.48428 9.03796 7.44658C9.12882 7.40889 9.21135 7.35365 9.28083 7.28401C9.42128 7.14339 9.50017 6.95276 9.50017 6.75401C9.50017 6.55526 9.42128 6.36464 9.28083 6.22401L6.33883 3.27701L6.33983 3.27801Z" fill="black"/>
</svg>
