<svg width="20" height="20" viewBox="0 0 20 20" fill="none" xmlns="http://www.w3.org/2000/svg">
<path d="M11 6.5V2H7.5C7.10218 2 6.72064 2.15804 6.43934 2.43934C6.15804 2.72064 6 3.10218 6 3.5V14.5C6 14.8978 6.15804 15.2794 6.43934 15.5607C6.72064 15.842 7.10218 16 7.5 16H15.5C15.8978 16 16.2794 15.842 16.5607 15.5607C16.842 15.2794 17 14.8978 17 14.5V8H12.5C12.1022 8 11.7206 7.84196 11.4393 7.56066C11.158 7.27936 11 6.89782 11 6.5Z" fill="black"/>
<path d="M12 6.5V2.25L16.75 7H12.5C12.3674 7 12.2402 6.94732 12.1464 6.85355C12.0527 6.75979 12 6.63261 12 6.5Z" fill="black"/>
<path d="M4 5C4 4.73478 4.10536 4.48043 4.29289 4.29289C4.48043 4.10536 4.73478 4 5 4V14.5C5 15.163 5.26339 15.7989 5.73223 16.2678C6.20107 16.7366 6.83696 17 7.5 17H15C15 17.2652 14.8946 17.5196 14.7071 17.7071C14.5196 17.8946 14.2652 18 14 18H7.548C6.60701 18 5.70456 17.6262 5.03919 16.9608C4.37381 16.2954 4 15.393 4 14.452V5Z" fill="black"/>
</svg>
