<svg width="20" height="20" viewBox="0 0 20 20" fill="none" xmlns="http://www.w3.org/2000/svg">
<path d="M12.4998 3.25008C12.6987 3.25008 12.8895 3.32909 13.0301 3.46975C13.1708 3.6104 13.2498 3.80116 13.2498 4.00008V8.65708C13.7368 8.23746 14.357 8.0046 14.9998 8.00008C16.6568 8.00008 17.9998 9.56708 17.9998 11.5001C17.9998 13.4331 16.6568 15.0001 14.9998 15.0001C14.357 14.9956 13.7368 14.7627 13.2498 14.3431V14.5001C13.2498 14.699 13.1708 14.8898 13.0301 15.0304C12.8895 15.1711 12.6987 15.2501 12.4998 15.2501C12.3009 15.2501 12.1101 15.1711 11.9695 15.0304C11.8288 14.8898 11.7498 14.699 11.7498 14.5001V4.00008C11.7498 3.80116 11.8288 3.6104 11.9695 3.46975C12.1101 3.32909 12.3009 3.25008 12.4998 3.25008V3.25008ZM14.9998 13.5001C15.6198 13.5001 16.4998 12.8301 16.4998 11.5001C16.4998 10.1701 15.6198 9.50008 14.9998 9.50008C14.3798 9.50008 13.4998 10.1701 13.4998 11.5001C13.4998 12.8301 14.3798 13.5001 14.9998 13.5001ZM6.4948 3.25008C6.64882 3.25224 6.79844 3.30177 6.92332 3.39195C7.0482 3.48212 7.14229 3.60856 7.1928 3.75408L10.8448 14.2541C10.8776 14.3472 10.8917 14.446 10.8863 14.5446C10.8808 14.6432 10.856 14.7398 10.8131 14.8288C10.7702 14.9178 10.7102 14.9975 10.6365 15.0632C10.5627 15.1289 10.4767 15.1794 10.3834 15.2118C10.2901 15.2442 10.1913 15.2579 10.0927 15.252C9.99411 15.2461 9.89764 15.2208 9.80884 15.1775C9.72005 15.1342 9.64068 15.0738 9.57529 14.9998C9.5099 14.9258 9.45977 14.8395 9.4278 14.7461L8.6468 12.5001H4.0598L3.1998 14.7661C3.12587 14.9473 2.98404 15.0924 2.80459 15.1705C2.62513 15.2486 2.42227 15.2534 2.23929 15.184C2.05632 15.1145 1.90773 14.9763 1.82524 14.7989C1.74276 14.6214 1.73291 14.4187 1.7978 14.2341L5.7818 3.73408C5.83642 3.59005 5.93405 3.46633 6.06144 3.37974C6.18882 3.29315 6.33978 3.24787 6.4938 3.25008H6.4948ZM4.6298 11.0001H8.1248L6.4538 6.19508L4.6298 11.0001Z" fill="black"/>
</svg>
