<svg width="20" height="20" viewBox="0 0 20 20" fill="none" xmlns="http://www.w3.org/2000/svg">
<path d="M4.5 4C3.83696 4 3.20107 4.26339 2.73223 4.73223C2.26339 5.20107 2 5.83696 2 6.5V13.5C2 14.163 2.26339 14.7989 2.73223 15.2678C3.20107 15.7366 3.83696 16 4.5 16H11.5C12.163 16 12.7989 15.7366 13.2678 15.2678C13.7366 14.7989 14 14.163 14 13.5V12.5L16.4 14.3C16.5486 14.4114 16.7252 14.4793 16.9102 14.496C17.0952 14.5126 17.2811 14.4775 17.4472 14.3944C17.6133 14.3114 17.753 14.1837 17.8507 14.0257C17.9483 13.8678 18 13.6857 18 13.5V6.5C18 6.31429 17.9483 6.13224 17.8507 5.97427C17.753 5.81629 17.6133 5.68863 17.4472 5.60557C17.2811 5.52252 17.0952 5.48736 16.9102 5.50404C16.7252 5.52072 16.5486 5.58857 16.4 5.7L14 7.5V6.5C14 5.83696 13.7366 5.20107 13.2678 4.73223C12.7989 4.26339 12.163 4 11.5 4H4.5ZM14 8.75L17 6.5V13.5L14 11.25V8.75ZM13 6.5V13.5C13 13.8978 12.842 14.2794 12.5607 14.5607C12.2794 14.842 11.8978 15 11.5 15H4.5C4.10218 15 3.72064 14.842 3.43934 14.5607C3.15804 14.2794 3 13.8978 3 13.5V6.5C3 6.10218 3.15804 5.72064 3.43934 5.43934C3.72064 5.15804 4.10218 5 4.5 5H11.5C11.8978 5 12.2794 5.15804 12.5607 5.43934C12.842 5.72064 13 6.10218 13 6.5Z" fill="black"/>
</svg>
