<svg width="20" height="20" viewBox="0 0 20 20" fill="none" xmlns="http://www.w3.org/2000/svg">
<path d="M13 6.5C13 5.83696 12.7366 5.20107 12.2678 4.73223C11.7989 4.26339 11.163 4 10.5 4H4.5C3.83696 4 3.20107 4.26339 2.73223 4.73223C2.26339 5.20107 2 5.83696 2 6.5V13.5C2 14.163 2.26339 14.7989 2.73223 15.2678C3.20107 15.7366 3.83696 16 4.5 16H10.5C11.163 16 11.7989 15.7366 12.2678 15.2678C12.7366 14.7989 13 14.163 13 13.5V6.5Z" fill="black"/>
<path d="M14 7.92908V12.0811L16.764 14.4311C16.8731 14.5239 17.0065 14.5836 17.1485 14.6029C17.2904 14.6223 17.435 14.6007 17.565 14.5405C17.695 14.4803 17.8051 14.3842 17.8822 14.2634C17.9593 14.1427 18.0001 14.0023 18 13.8591V6.19208C17.9998 6.04965 17.959 5.91024 17.8824 5.79015C17.8058 5.67006 17.6966 5.57425 17.5676 5.51393C17.4386 5.45362 17.2951 5.43129 17.1538 5.44955C17.0126 5.46782 16.8794 5.52593 16.77 5.61708L14 7.92908Z" fill="black"/>
</svg>
