<svg width="20" height="20" viewBox="0 0 20 20" fill="none" xmlns="http://www.w3.org/2000/svg">
<path d="M3 10C3 8.14348 3.7375 6.36301 5.05025 5.05025C6.36301 3.7375 8.14348 3 10 3C11.8565 3 13.637 3.7375 14.9497 5.05025C16.2625 6.36301 17 8.14348 17 10V11H13.5C13.3674 11 13.2402 11.0527 13.1464 11.1464C13.0527 11.2402 13 11.3674 13 11.5V17.5C13 17.6326 13.0527 17.7598 13.1464 17.8536C13.2402 17.9473 13.3674 18 13.5 18H16C16.5304 18 17.0391 17.7893 17.4142 17.4142C17.7893 17.0391 18 16.5304 18 16V10C18 7.87827 17.1571 5.84344 15.6569 4.34315C14.1566 2.84285 12.1217 2 10 2C7.87827 2 5.84344 2.84285 4.34315 4.34315C2.84285 5.84344 2 7.87827 2 10V16C2 16.5304 2.21071 17.0391 2.58579 17.4142C2.96086 17.7893 3.46957 18 4 18H6.5C6.63261 18 6.75979 17.9473 6.85355 17.8536C6.94732 17.7598 7 17.6326 7 17.5V11.5C7 11.3674 6.94732 11.2402 6.85355 11.1464C6.75979 11.0527 6.63261 11 6.5 11H3V10Z" fill="black"/>
</svg>
