<svg width="20" height="20" viewBox="0 0 20 20" fill="none" xmlns="http://www.w3.org/2000/svg">
<path d="M10.9376 13.4375C10.9376 13.1889 10.8388 12.9504 10.663 12.7746C10.4872 12.5988 10.2487 12.5 10.0001 12.5C9.75144 12.5 9.51299 12.5988 9.33717 12.7746C9.16136 12.9504 9.06258 13.1889 9.06258 13.4375C9.06258 13.6861 9.16136 13.9246 9.33717 14.1004C9.51299 14.2762 9.75144 14.375 10.0001 14.375C10.2487 14.375 10.4872 14.2762 10.663 14.1004C10.8388 13.9246 10.9376 13.6861 10.9376 13.4375ZM10.6151 6.1375C10.5873 5.98382 10.5029 5.84612 10.3786 5.75152C10.2543 5.65693 10.0992 5.61229 9.94361 5.62641C9.78807 5.64052 9.64344 5.71235 9.53822 5.82777C9.433 5.94319 9.3748 6.09382 9.37508 6.25V10.625L9.38508 10.7375C9.41291 10.8912 9.49727 11.0289 9.62154 11.1235C9.74582 11.2181 9.90101 11.2627 10.0566 11.2486C10.2121 11.2345 10.3567 11.1626 10.4619 11.0472C10.5672 10.9318 10.6254 10.7812 10.6251 10.625V6.25L10.6151 6.1375ZM10.0001 2.5C8.6989 2.49956 7.41998 2.83766 6.289 3.48106C5.15802 4.12446 4.21388 5.05104 3.54937 6.16975C2.88485 7.28846 2.52281 8.5608 2.49883 9.86177C2.47485 11.1627 2.78975 12.4476 3.41258 13.59L2.52508 16.7025C2.49386 16.8118 2.49302 16.9275 2.52268 17.0373C2.55233 17.147 2.61135 17.2466 2.69338 17.3252C2.77541 17.4039 2.87734 17.4588 2.98821 17.4838C3.09908 17.5089 3.21468 17.5032 3.32258 17.4675L6.24508 16.4937C7.24116 17.0693 8.3563 17.4081 9.50423 17.4838C10.6522 17.5594 11.8021 17.37 12.8651 16.9302C13.9281 16.4903 14.8757 15.8118 15.6346 14.9472C16.3934 14.0825 16.9432 13.0549 17.2413 11.9437C17.5395 10.8326 17.578 9.66782 17.354 8.53942C17.1299 7.41102 16.6493 6.34929 15.9493 5.43635C15.2493 4.52342 14.3486 3.78375 13.317 3.27458C12.2854 2.76541 11.1505 2.50038 10.0001 2.5V2.5ZM3.75008 10C3.75029 8.61326 4.21169 7.26596 5.06164 6.17022C5.9116 5.07448 7.10183 4.29254 8.44496 3.94749C9.78809 3.60244 11.2078 3.71388 12.4807 4.26428C13.7535 4.81467 14.8072 5.77275 15.4757 6.98769C16.1443 8.20263 16.3899 9.60541 16.1737 10.9752C15.9575 12.345 15.2919 13.604 14.2817 14.554C13.2714 15.504 11.974 16.091 10.5935 16.2227C9.21299 16.3544 7.82793 16.0232 6.65633 15.2813C6.57797 15.2316 6.48952 15.2 6.39741 15.1887C6.30531 15.1775 6.21185 15.1869 6.12383 15.2163L4.05133 15.9075L4.68883 13.6812C4.71206 13.5993 4.71828 13.5134 4.7071 13.4289C4.69592 13.3444 4.66759 13.2631 4.62383 13.19C4.04997 12.225 3.74804 11.1227 3.75008 10V10Z" fill="black"/>
</svg>
