<svg width="20" height="20" viewBox="0 0 20 20" fill="none" xmlns="http://www.w3.org/2000/svg">
<path d="M2.49994 10.0005C2.50026 8.34932 3.04547 6.74438 4.051 5.43467C5.05653 4.12495 6.46617 3.18368 8.06124 2.75686C9.65632 2.33004 11.3477 2.44153 12.8729 3.07404C14.3981 3.70654 15.672 4.82471 16.4969 6.25508C17.3218 7.68546 17.6517 9.34807 17.4352 10.985C17.2188 12.622 16.4682 14.1417 15.2999 15.3086C14.1316 16.4754 12.6109 17.2241 10.9737 17.4385C9.33649 17.6529 7.67428 17.321 6.24494 16.4943L3.32244 17.4693C3.21447 17.5053 3.0987 17.5112 2.98764 17.4863C2.87657 17.4613 2.77442 17.4065 2.69221 17.3278C2.61 17.2491 2.55086 17.1494 2.52116 17.0395C2.49146 16.9296 2.49234 16.8137 2.52369 16.7043L3.41369 13.5905C2.81246 12.4896 2.49821 11.2549 2.49994 10.0005ZM10.9374 13.438C10.9374 13.1894 10.8387 12.9509 10.6629 12.7751C10.487 12.5993 10.2486 12.5005 9.99994 12.5005C9.7513 12.5005 9.51285 12.5993 9.33703 12.7751C9.16122 12.9509 9.06244 13.1894 9.06244 13.438C9.06244 13.6866 9.16122 13.9251 9.33703 14.1009C9.51285 14.2767 9.7513 14.3755 9.99994 14.3755C10.2486 14.3755 10.487 14.2767 10.6629 14.1009C10.8387 13.9251 10.9374 13.6866 10.9374 13.438ZM10.6149 6.13801C10.5871 5.98432 10.5028 5.84663 10.3785 5.75203C10.2542 5.65744 10.099 5.6128 9.94347 5.62691C9.78793 5.64103 9.6433 5.71286 9.53808 5.82828C9.43285 5.94369 9.37466 6.09433 9.37494 6.25051V10.6255L9.38494 10.738C9.41277 10.8917 9.49713 11.0294 9.6214 11.124C9.74568 11.2186 9.90087 11.2632 10.0564 11.2491C10.212 11.235 10.3566 11.1632 10.4618 11.0477C10.567 10.9323 10.6252 10.7817 10.6249 10.6255V6.25051L10.6149 6.13801Z" fill="black"/>
</svg>
