<svg width="20" height="20" viewBox="0 0 20 20" fill="none" xmlns="http://www.w3.org/2000/svg">
<path d="M14 8.49966C14 9.74766 13.584 10.8997 12.883 11.8227L17.03 15.9697C17.163 16.1037 17.2405 16.2829 17.2471 16.4715C17.2538 16.6602 17.189 16.8444 17.0658 16.9874C16.9426 17.1304 16.77 17.2217 16.5825 17.2431C16.3949 17.2645 16.2062 17.2143 16.054 17.1027L15.97 17.0297L11.823 12.8827C10.8348 13.632 9.62226 14.0253 8.38235 13.9987C7.14243 13.9722 5.94787 13.5274 4.99258 12.7365C4.03728 11.9456 3.37733 10.8551 3.11985 9.64188C2.86236 8.4287 3.02246 7.16411 3.57416 6.05338C4.12585 4.94264 5.03675 4.05096 6.159 3.52309C7.28125 2.99521 8.54897 2.86212 9.75639 3.14543C10.9638 3.42873 12.04 4.11179 12.8104 5.08374C13.5807 6.05568 13.9999 7.25946 14 8.49966V8.49966ZM8.50001 5.24966C8.30109 5.24966 8.11033 5.32868 7.96968 5.46933C7.82902 5.60998 7.75001 5.80075 7.75001 5.99966V7.74966H6.00001C5.80109 7.74966 5.61033 7.82868 5.46968 7.96933C5.32902 8.10998 5.25001 8.30075 5.25001 8.49966C5.25001 8.69857 5.32902 8.88934 5.46968 9.02999C5.61033 9.17064 5.80109 9.24966 6.00001 9.24966H7.75001V10.9997C7.75001 11.1986 7.82902 11.3893 7.96968 11.53C8.11033 11.6706 8.30109 11.7497 8.50001 11.7497C8.69892 11.7497 8.88968 11.6706 9.03034 11.53C9.17099 11.3893 9.25001 11.1986 9.25001 10.9997V9.24966H11C11.1989 9.24966 11.3897 9.17064 11.5303 9.02999C11.671 8.88934 11.75 8.69857 11.75 8.49966C11.75 8.30075 11.671 8.10998 11.5303 7.96933C11.3897 7.82868 11.1989 7.74966 11 7.74966H9.25001V5.99966C9.25001 5.80075 9.17099 5.60998 9.03034 5.46933C8.88968 5.32868 8.69892 5.24966 8.50001 5.24966Z" fill="black"/>
</svg>
