<svg width="20" height="20" viewBox="0 0 20 20" fill="none" xmlns="http://www.w3.org/2000/svg">
<path d="M11.5 8.5C11.5 8.36739 11.4473 8.24021 11.3536 8.14645C11.2598 8.05268 11.1326 8 11 8H9V6C9 5.86739 8.94732 5.74021 8.85355 5.64645C8.75979 5.55268 8.63261 5.5 8.5 5.5C8.36739 5.5 8.24021 5.55268 8.14645 5.64645C8.05268 5.74021 8 5.86739 8 6V8H6C5.86739 8 5.74021 8.05268 5.64645 8.14645C5.55268 8.24021 5.5 8.36739 5.5 8.5C5.5 8.63261 5.55268 8.75979 5.64645 8.85355C5.74021 8.94732 5.86739 9 6 9H8V11C8 11.1326 8.05268 11.2598 8.14645 11.3536C8.24021 11.4473 8.36739 11.5 8.5 11.5C8.63261 11.5 8.75979 11.4473 8.85355 11.3536C8.94732 11.2598 9 11.1326 9 11V9H11C11.1326 9 11.2598 8.94732 11.3536 8.85355C11.4473 8.75979 11.5 8.63261 11.5 8.5Z" fill="black"/>
<path d="M8.49985 3C9.54518 2.99982 10.5689 3.29754 11.4511 3.85829C12.3333 4.41903 13.0375 5.21957 13.4811 6.16612C13.9246 7.11267 14.0893 8.16603 13.9557 9.2028C13.8221 10.2396 13.3959 11.2168 12.7269 12.02L16.8539 16.146C16.9424 16.2342 16.9948 16.3524 17.0006 16.4772C17.0063 16.6021 16.9651 16.7246 16.8851 16.8206C16.805 16.9166 16.6919 16.9791 16.568 16.9958C16.4442 17.0126 16.3185 16.9823 16.2159 16.911L16.1459 16.854L12.0199 12.727C11.341 13.2921 10.5361 13.6854 9.6732 13.8736C8.81027 14.0619 7.91469 14.0395 7.06221 13.8085C6.20974 13.5774 5.42544 13.1445 4.77567 12.5462C4.12589 11.948 3.62975 11.2021 3.3292 10.3716C3.02865 9.54104 2.93254 8.65035 3.04899 7.77483C3.16545 6.89931 3.49104 6.06471 3.99823 5.34163C4.50543 4.61855 5.1793 4.02825 5.96286 3.62066C6.74642 3.21307 7.61662 3.00018 8.49985 3V3ZM8.49985 4C7.30638 4 6.16178 4.47411 5.31787 5.31802C4.47396 6.16193 3.99985 7.30653 3.99985 8.5C3.99985 9.69347 4.47396 10.8381 5.31787 11.682C6.16178 12.5259 7.30638 13 8.49985 13C9.69332 13 10.8379 12.5259 11.6818 11.682C12.5257 10.8381 12.9999 9.69347 12.9999 8.5C12.9999 7.30653 12.5257 6.16193 11.6818 5.31802C10.8379 4.47411 9.69332 4 8.49985 4Z" fill="black"/>
</svg>
