<svg width="23" height="23" viewBox="0 0 23 23" fill="none" xmlns="http://www.w3.org/2000/svg">
<g clip-path="url(#clip0_8138_73336)">
<path d="M11.4661 22.4C5.19052 22.4 0.152344 17.3432 0.152344 11.2C0.152344 4.9875 5.19052 0 11.4661 0C17.7418 0 22.7799 4.9875 22.7799 11.2C22.7799 17.3432 17.7418 22.4 11.4661 22.4ZM11.4661 1.8816C6.28442 1.8816 2.04882 6.0704 2.04882 11.2007C2.04882 16.331 6.28442 20.5233 11.4661 20.5233C16.6479 20.5233 20.8835 16.3303 20.8835 11.2007C20.8835 6.0711 16.6479 1.8816 11.4661 1.8816ZM17.0163 12.2829H8.83993C8.66669 12.2838 8.50012 12.2168 8.37663 12.0966C8.25313 11.9763 8.18276 11.8125 8.1809 11.641V10.6967C8.1809 10.332 8.47152 10.0443 8.83993 10.0443H17.0856C17.4504 10.0443 17.7411 10.3362 17.7411 10.6967V11.634C17.6711 11.9952 17.3769 12.2829 17.0163 12.2829ZM14.8985 8.6695H6.64859C6.47523 8.67081 6.30845 8.60393 6.18488 8.48357C6.0613 8.36321 5.99105 8.19921 5.98956 8.0276V7.0833C5.98956 6.7914 6.28442 6.5037 6.64859 6.5037H14.8942C15.1891 6.5037 15.4797 6.7956 15.4797 7.0833V8.0206C15.4797 8.3818 15.1898 8.6695 14.8985 8.6695ZM6.64929 13.7305H14.8992C15.264 13.7305 15.5547 14.0182 15.5547 14.3794V15.3167C15.5554 15.4887 15.4872 15.6541 15.365 15.7764C15.2427 15.8987 15.0765 15.968 14.9027 15.9691H6.64929C6.28442 15.8963 5.9938 15.6079 5.9938 15.2474V14.3066C5.99026 14.0189 6.28442 13.7305 6.64929 13.7305Z" fill="#4589EF"/>
</g>
<defs>
<clipPath id="clip0_8138_73336">
<rect width="22.6276" height="22.4" fill="white" transform="translate(0.152344)"/>
</clipPath>
</defs>
</svg>
