<svg width="130" height="90" viewBox="0 0 130 90" fill="none" xmlns="http://www.w3.org/2000/svg">
<path d="M99.2951 60.3642C99.2405 60.3642 99.186 60.3611 99.1313 60.3578C99.2918 59.4156 99.4587 58.4701 99.6802 57.5215C99.892 58.4349 100.056 59.3419 100.21 60.2521C99.9099 60.3231 99.6032 60.3607 99.2951 60.3642Z" fill="black"/>
<path d="M100.328 60.9468C100.321 61.4916 100.321 62.0365 100.321 62.5813C100.321 63.1774 100.325 63.7768 100.321 64.3729V81.4968C100.126 82.641 99.9363 83.7819 99.6795 84.9229C99.4228 83.7819 99.2334 82.641 99.0377 81.4968V62.6615C99.0377 62.091 99.0377 61.5173 99.0312 60.9468C99.0537 60.8186 99.0729 60.6936 99.0954 60.5654C99.4819 60.6108 99.8728 60.6033 100.257 60.543C100.283 60.6775 100.305 60.8122 100.328 60.9468Z" fill="black"/>
<path d="M78.5461 31.9873C78.5461 31.9873 78.6135 32.1059 78.7451 32.2918L78.7387 32.2982L77.7951 33.3078C77.41 33.5802 77.0249 33.8526 76.6108 34.0962C76.8291 33.6699 77.0763 33.2693 77.3201 32.8655L78.0358 32.1059C78.3472 32.0418 78.5461 31.9873 78.5461 31.9873Z" fill="black"/>
<path d="M84.1847 26.0254C83.9633 26.4485 83.7161 26.8523 83.4722 27.2529L82.5254 28.2624L82.3521 28.4451C82.1212 28.3681 81.8853 28.3071 81.646 28.2624L82.0568 27.8234L83.0036 26.8138C83.3888 26.5445 83.7739 26.2754 84.1847 26.0254Z" fill="black"/>
<path d="M94.6753 33.7913C94.7251 33.6803 94.8017 33.5833 94.8983 33.5091C94.9706 33.4547 95.0555 33.4193 95.145 33.4062C95.2346 33.3939 95.3258 33.4051 95.4097 33.4385C95.5223 33.4835 95.6215 33.5564 95.6982 33.6502H95.699L95.703 33.6561L95.699 33.662L95.6998 33.6621C95.6502 33.7726 95.5733 33.8686 95.4763 33.9413C95.404 33.9954 95.3188 34.0299 95.2292 34.0413C95.1393 34.0519 95.0481 34.0398 94.9641 34.006C94.8516 33.9594 94.7523 33.8856 94.6753 33.7913Z" fill="#020202"/>
<path d="M81.6026 35.5243L74.5801 36.3911C72.2391 36.6781 69.8972 36.9573 67.5545 37.2288C62.8684 37.7665 58.1859 38.3358 53.4965 38.8426L39.4324 40.4002L25.3604 41.884L25.3586 41.8843C25.3198 41.8882 25.2805 41.884 25.2433 41.8722C23.237 41.223 21.2285 40.5804 19.2278 39.9138L13.2203 37.9306C11.2164 37.2737 9.21588 36.6065 7.21861 35.929L1.22656 33.8975L7.28614 35.7184C9.3059 36.3256 11.3225 36.9425 13.3361 37.5693L19.3801 39.4386C21.3966 40.0561 23.4054 40.6977 25.4163 41.3326L25.2993 41.3207L39.3637 39.7656L53.436 38.2842C58.1254 37.778 62.8216 37.3342 67.5144 36.859C69.8607 36.6204 72.2082 36.3931 74.557 36.1772L81.6026 35.5243Z" fill="#020202"/>
<path d="M1.22559 36.8838C3.21408 37.575 5.19003 38.2991 7.17194 39.0076L13.0976 41.1854L16.0592 42.2776L19.0112 43.3945L24.9153 45.6283L24.7646 45.6102C27.5782 45.2306 30.3976 44.8951 33.2147 44.5425L41.6681 43.5008L50.129 42.5163C52.9517 42.2071 55.7728 41.8856 58.5987 41.6014C55.7922 42.0365 52.9808 42.4345 50.1711 42.8448L41.7345 44.0188L33.2907 45.1355C30.4754 45.5024 27.6622 45.8865 24.8435 46.2263L24.84 46.2268C24.79 46.2326 24.7395 46.2262 24.6926 46.2082L18.8075 43.9248L15.8649 42.783L12.9319 41.6167L7.06835 39.2772C5.12053 38.4799 3.16675 37.6983 1.22559 36.8838Z" fill="#020202"/>
<path d="M24.5642 74.6214C24.504 71.8669 24.4846 69.1134 24.506 66.3609C24.5185 63.6081 24.5686 60.8562 24.626 58.1045C24.6952 55.3531 24.7726 52.6018 24.8874 49.8515C24.993 47.1008 25.1402 44.3512 25.329 41.6025C25.39 44.3569 25.4097 47.1104 25.3882 49.863C25.3754 52.6157 25.3254 55.3676 25.2672 58.1193C25.1971 60.8708 25.1197 63.622 25.0048 66.3724C24.8989 69.123 24.752 71.8726 24.5642 74.6214Z" fill="#020202"/>
<path d="M110.65 11.9375C110.255 11.7613 109.893 11.5199 109.578 11.2236C109.266 10.9185 108.996 10.5732 108.776 10.197C108.559 9.81868 108.38 9.42026 108.241 9.00731C108.1 8.59001 107.999 8.16057 107.938 7.72456C107.936 7.7046 107.936 7.68436 107.94 7.66455L107.947 7.62855C108.046 7.18055 108.097 6.72328 108.099 6.2645C108.102 5.80769 108.054 5.35196 107.955 4.90593C107.758 4.01698 107.388 3.17536 106.866 2.429L106.901 2.46601C106.346 1.93591 105.727 1.47595 105.06 1.09648C104.382 0.725076 103.646 0.471092 102.884 0.345323C101.319 0.147979 99.7317 0.459252 98.3579 1.23302C98.0126 1.41756 97.6797 1.62424 97.3611 1.85178C97.2022 1.96508 97.0465 2.08237 96.8964 2.20452C96.8261 2.26257 96.7377 2.33472 96.6907 2.38362C96.631 2.44786 96.5698 2.52282 96.5108 2.59551C96.0514 3.20661 95.7054 3.89503 95.4893 4.62807C95.272 5.35744 95.158 6.11357 95.1504 6.8745C95.1583 7.63796 95.25 8.39825 95.424 9.14173C95.4353 9.19486 95.4362 9.24967 95.4268 9.30315C95.354 9.70393 95.2757 10.0959 95.1869 10.492C95.102 10.8955 94.9946 11.2939 94.8651 11.6853C94.8047 11.8686 94.6606 12.1885 94.6928 12.1219C94.6794 12.099 94.7003 12.1591 94.8134 12.238C95.0708 12.3943 95.3645 12.4809 95.6656 12.4891L95.6962 12.4879C95.7635 12.4856 95.8304 12.4997 95.891 12.5291C95.9516 12.5586 96.004 12.6023 96.0438 12.6567C96.4936 13.2784 96.9691 13.8915 97.4411 14.4988C97.901 15.1018 98.4 15.674 98.9349 16.2118C99.001 16.2718 99.0669 16.3283 99.1314 16.3776C99.1621 16.3991 99.1945 16.4221 99.2211 16.438L99.2567 16.4579C99.2674 16.4636 99.2649 16.4596 99.269 16.4642C99.2817 16.4713 99.241 16.4574 99.23 16.4687C99.2202 16.4746 99.2618 16.4621 99.2752 16.4599C99.3171 16.451 99.3586 16.4401 99.3994 16.427C99.4839 16.4035 99.5714 16.3726 99.658 16.3434C100.009 16.2142 100.35 16.0569 100.676 15.8733C101.344 15.5301 101.919 15.0307 102.351 14.4176L102.362 14.4015C102.37 14.3879 102.382 14.3763 102.395 14.3671C102.408 14.3579 102.423 14.3514 102.439 14.348C102.455 14.3446 102.471 14.3443 102.487 14.3472C102.503 14.35 102.518 14.356 102.531 14.3647L102.545 14.3746C102.737 14.5368 102.915 14.7142 103.079 14.9051C103.162 15.0006 103.236 15.1033 103.301 15.2119C103.371 15.321 103.419 15.4426 103.442 15.5699C103.444 15.5798 103.441 15.5898 103.436 15.5981C103.43 15.6063 103.421 15.6121 103.412 15.6144C103.402 15.6166 103.392 15.6151 103.383 15.6102C103.374 15.6053 103.368 15.5973 103.365 15.5878L103.364 15.5855C103.273 15.369 103.13 15.1776 102.949 15.0277C102.774 14.8656 102.587 14.7175 102.389 14.5851L102.582 14.5421C102.195 15.2586 101.627 15.8617 100.935 16.2917C100.598 16.5164 100.244 16.7135 99.8757 16.8813C99.7805 16.9214 99.6877 16.9639 99.5863 16.9983C99.5376 17.0168 99.486 17.034 99.431 17.0494C99.3996 17.06 99.3674 17.0682 99.3348 17.0738C99.2738 17.0834 99.2117 17.0825 99.1511 17.0714C99.0139 17.0395 98.8843 16.9815 98.7692 16.9005C98.6748 16.8374 98.5893 16.7721 98.5072 16.706C97.9093 16.1772 97.354 15.6023 96.8465 14.9865C96.3316 14.3915 95.851 13.7775 95.3709 13.1527L95.7488 13.3201C95.4972 13.3359 95.2446 13.3086 95.0022 13.2393C94.7635 13.1781 94.537 13.0769 94.3321 12.9402C94.2064 12.8571 94.097 12.7518 94.009 12.6296C93.8948 12.4743 93.8364 12.285 93.8433 12.0924C93.8455 11.9983 93.8646 11.9053 93.8996 11.818L93.9446 11.7048L93.969 11.6504C94.0022 11.5808 94.0338 11.4921 94.064 11.4074C94.2998 10.6679 94.4952 9.91603 94.6494 9.15528L94.6522 9.31655C94.4865 8.50759 94.411 7.68278 94.4272 6.85721C94.4604 6.02792 94.6232 5.20891 94.9097 4.4298C94.9798 4.23536 95.0691 4.04765 95.1517 3.85877C95.2512 3.67693 95.3346 3.48796 95.4474 3.31402C95.656 2.95662 95.9005 2.62141 96.1771 2.31358C96.2488 2.23666 96.3179 2.1617 96.3989 2.08557C96.4808 2.01557 96.5663 1.94989 96.655 1.88879C96.8215 1.77056 96.991 1.65953 97.1632 1.55311C97.5071 1.33942 97.8661 1.15391 98.2278 0.976445C99.6797 0.247012 101.3 -0.0837649 102.922 0.018018C103.741 0.0867102 104.542 0.291863 105.294 0.624967C106.046 0.96372 106.743 1.41329 107.362 1.95866C107.374 1.9689 107.385 1.98013 107.395 1.99223L107.397 1.99575C107.714 2.40093 107.978 2.84499 108.182 3.31708C108.388 3.78088 108.54 4.26697 108.634 4.76564C108.737 5.26323 108.777 5.77199 108.751 6.27953C108.728 6.78514 108.649 7.28665 108.515 7.77472L108.524 7.67887C108.554 8.07938 108.621 8.47629 108.724 8.86469C108.823 9.25876 108.958 9.64309 109.126 10.013C109.297 10.3824 109.513 10.7295 109.769 11.0464C110.033 11.3637 110.342 11.6402 110.687 11.867L110.69 11.8687C110.698 11.8743 110.704 11.8829 110.706 11.8926C110.708 11.9023 110.707 11.9125 110.702 11.9211C110.697 11.9298 110.689 11.9363 110.679 11.9393C110.67 11.9424 110.659 11.9417 110.65 11.9375L110.65 11.9375Z" fill="black"/>
<path d="M96.1388 11.4862C96.0695 11.4863 96.0013 11.4683 95.9411 11.434C95.8808 11.3997 95.8306 11.3502 95.7954 11.2906L94.696 9.42897C94.6692 9.38398 94.6516 9.33416 94.6442 9.28237C94.6367 9.23057 94.6396 9.17782 94.6526 9.12714C94.6656 9.07645 94.6885 9.02883 94.72 8.98699C94.7515 8.94516 94.7909 8.90994 94.836 8.88334C94.8811 8.85675 94.9311 8.8393 94.983 8.83201C95.0348 8.82472 95.0876 8.82771 95.1384 8.84084C95.1891 8.85396 95.2367 8.87695 95.2785 8.90848C95.3204 8.94001 95.3555 8.97947 95.382 9.0246L96.4815 10.8862C96.5173 10.9466 96.5363 11.0153 96.5369 11.0855C96.5374 11.1556 96.5194 11.2246 96.4846 11.2855C96.4498 11.3464 96.3994 11.3971 96.3387 11.4323C96.278 11.4676 96.209 11.4862 96.1388 11.4862Z" fill="black"/>
<path d="M95.2792 9.8343C95.2368 9.83425 95.1956 9.82071 95.1614 9.79566C95.1273 9.77061 95.102 9.73534 95.0893 9.69498C95.0766 9.65462 95.077 9.61126 95.0907 9.57119C95.1043 9.53113 95.1304 9.49644 95.1651 9.47218C95.743 9.06968 100.845 5.54771 101.93 5.59122C101.956 5.59241 101.982 5.59872 102.005 5.60981C102.029 5.6209 102.05 5.63654 102.068 5.65584C102.086 5.67514 102.099 5.69772 102.108 5.72229C102.117 5.74685 102.121 5.77293 102.12 5.79903C102.117 5.85148 102.093 5.90064 102.054 5.93606C102.016 5.97148 101.964 5.99037 101.912 5.9887C101.907 5.98838 101.902 5.98838 101.897 5.98838C101.145 5.98838 97.5183 8.31821 95.393 9.7983C95.3596 9.82164 95.3199 9.83421 95.2792 9.8343Z" fill="black"/>
<path d="M101.349 6.74633C101.342 6.44933 101.437 6.15898 101.619 5.92413C101.674 5.8603 101.742 5.80812 101.817 5.77068C101.893 5.73324 101.975 5.71129 102.059 5.70614L102.187 5.7041C102.228 5.7088 102.267 5.72061 102.307 5.72914C102.385 5.7442 102.461 5.77064 102.531 5.80762C102.669 5.87085 102.8 5.94949 102.921 6.04204C103.031 6.13915 103.147 6.22749 103.253 6.33366C103.464 6.54855 103.638 6.79652 103.768 7.06768C104.018 7.61342 104.089 8.22382 103.97 8.81201C103.917 9.10458 103.803 9.38291 103.637 9.62951C103.551 9.75754 103.434 9.86102 103.296 9.92966C103.227 9.96439 103.149 9.97531 103.073 9.96071C102.998 9.94611 102.929 9.90681 102.878 9.84899C102.933 9.88453 102.998 9.90212 103.063 9.89932C103.128 9.89651 103.191 9.87345 103.242 9.83334C103.342 9.75177 103.419 9.64723 103.469 9.52881C103.577 9.28743 103.642 9.02936 103.663 8.76584C103.714 8.24234 103.626 7.71464 103.408 7.23599C103.299 7.00069 103.155 6.78351 102.98 6.59212C102.895 6.49384 102.793 6.4055 102.7 6.31059C102.603 6.22726 102.5 6.15143 102.392 6.08376C102.302 6.01068 102.191 5.96916 102.076 5.96567C101.961 5.96217 101.847 5.9969 101.754 6.06443C101.558 6.24982 101.418 6.4859 101.349 6.74633Z" fill="black"/>
<path d="M96.5093 14.0959C96.8144 14.0621 97.1165 14.0053 97.413 13.9258C97.549 13.888 97.6807 13.8366 97.8063 13.7722C97.9416 13.7109 98.0677 13.6246 98.2328 13.541C98.2059 13.721 98.123 13.8879 97.9958 14.0182C97.8687 14.1552 97.7067 14.2549 97.527 14.3067C97.3506 14.3584 97.1644 14.3672 96.9839 14.3324C96.8057 14.3022 96.6405 14.2199 96.5093 14.0959Z" fill="black"/>
<path d="M95.2793 8.45306C95.265 8.18048 95.3542 7.91253 95.5291 7.70277C95.703 7.48666 95.9321 7.32152 96.1923 7.22484C96.4443 7.13224 96.712 7.08948 96.9804 7.09894C97.1104 7.10864 97.2399 7.12528 97.3681 7.14879C97.4942 7.18114 97.6179 7.222 97.7385 7.27108C97.6149 7.3028 97.4894 7.32717 97.3629 7.34409C97.2409 7.36639 97.1216 7.39291 97.0034 7.40848C96.776 7.45303 96.5526 7.51567 96.3352 7.5958C95.8947 7.7513 95.5217 8.05418 95.2793 8.45306Z" fill="black"/>
<path d="M96.9505 10.1538C97.0667 10.1498 97.1767 10.1009 97.2575 10.0174C97.3383 9.9339 97.3834 9.82236 97.3834 9.70628C97.3834 9.59021 97.3383 9.47867 97.2575 9.39519C97.1767 9.31171 97.0667 9.2628 96.9505 9.25879C96.8343 9.2628 96.7243 9.31171 96.6435 9.39519C96.5627 9.47867 96.5176 9.59021 96.5176 9.70628C96.5176 9.82236 96.5627 9.9339 96.6435 10.0174C96.7243 10.1009 96.8343 10.1498 96.9505 10.1538Z" fill="black"/>
<path d="M105.984 21.4963C105.528 21.1172 105.011 20.8184 104.455 20.6128C103.906 20.4074 103.337 20.262 102.757 20.1791C102.173 20.0915 101.585 20.0431 100.995 20.0342L100.1 20.0384C99.8013 20.052 99.5015 20.0669 99.1963 20.0644C99.4868 19.9798 99.7826 19.9126 100.08 19.8442C100.379 19.7988 100.681 19.753 100.984 19.724C101.596 19.675 102.211 19.6959 102.818 19.7863C103.43 19.8758 104.025 20.0593 104.581 20.3303C105.141 20.592 105.624 20.9936 105.984 21.4963Z" fill="black"/>
<path d="M83.6309 37.813C83.801 37.2493 84.0272 36.704 84.3059 36.1853C84.5778 35.6604 84.8962 35.1608 85.2571 34.6925C85.6159 34.216 86.0352 33.7881 86.5045 33.4195C86.969 33.041 87.5191 32.7817 88.107 32.6641C87.592 32.921 87.1196 33.2555 86.7063 33.6557C86.294 34.0507 85.9147 34.4787 85.5723 34.9354C84.8652 35.8392 84.2605 36.8228 83.6309 37.813Z" fill="black"/>
<path d="M97.7388 43.9294C97.9181 43.9747 98.1046 43.9842 98.2876 43.9572C98.4693 43.9369 98.6482 43.8964 98.8209 43.8363L99.0752 43.736C99.1588 43.7003 99.2368 43.6509 99.3175 43.6093C99.4781 43.5231 99.6316 43.4244 99.7767 43.3142C100.36 42.8721 100.879 42.3517 101.319 41.7678C101.532 41.4693 101.749 41.1734 101.953 40.8687C102.144 40.5547 102.349 40.2503 102.529 39.9292L103.063 38.9628L103.549 37.9696C104.193 36.6349 104.822 35.2855 105.486 33.958L106.482 31.9648C106.826 31.307 107.159 30.6432 107.514 29.9912C107.24 30.6835 106.942 31.3642 106.657 32.0508L105.762 34.0908C105.162 35.4499 104.546 36.7965 103.909 38.1407C103.287 39.5065 102.497 40.7892 101.556 41.9591C101.073 42.5402 100.51 43.0506 99.8848 43.4752C99.7252 43.5774 99.5577 43.6669 99.3841 43.743C99.2965 43.7797 99.2127 43.8236 99.1228 43.8539L98.8509 43.9367C98.488 44.0466 98.1002 44.044 97.7388 43.9294Z" fill="black"/>
<path d="M97.371 34.9637C97.3471 34.9637 97.3233 34.9594 97.301 34.9509L95.5181 34.2823C95.4688 34.2636 95.429 34.2262 95.4073 34.1782C95.3856 34.1303 95.3838 34.0757 95.4024 34.0264C95.4209 33.9772 95.4582 33.9373 95.5062 33.9154C95.5541 33.8936 95.6088 33.8916 95.6582 33.9099L97.4411 34.5784C97.4847 34.5948 97.5212 34.626 97.5442 34.6666C97.5672 34.7071 97.5752 34.7544 97.5669 34.8002C97.5586 34.8461 97.5344 34.8875 97.4986 34.9174C97.4628 34.9473 97.4177 34.9637 97.371 34.9637V34.9637Z" fill="black"/>
<path d="M82.7286 34.4695C82.2999 34.6032 81.8456 34.6331 81.403 34.5569C80.9539 34.4755 80.5238 34.3117 80.1345 34.0738C79.7483 33.8387 79.3927 33.5565 79.0761 33.2339C78.7588 32.9081 78.4771 32.5496 78.2357 32.1643L78.6408 32.3322C77.8183 32.543 76.9697 32.6345 76.121 32.604C75.6869 32.5972 75.2564 32.5242 74.8444 32.3877C74.6244 32.3132 74.4295 32.179 74.2815 32.0002C74.2045 31.9083 74.1459 31.8026 74.1088 31.6887C74.0816 31.5686 74.0816 31.4439 74.1086 31.3238C74.1684 31.1041 74.2847 30.9039 74.446 30.743C74.5893 30.5838 74.7467 30.4378 74.9162 30.3068C75.2442 30.0433 75.5895 29.8018 75.9496 29.5839C76.6588 29.1457 77.3978 28.7576 78.1614 28.4225C78.5456 28.2652 78.9058 28.0815 79.3475 27.9462C79.7778 27.8152 80.2244 27.7456 80.6742 27.7393C81.1187 27.7374 81.5613 27.7967 81.9896 27.9157C82.413 28.0212 82.8246 28.1695 83.2179 28.3582C83.9843 28.7322 84.6945 29.2114 85.328 29.7817C85.9589 30.3327 86.5189 30.9597 86.9951 31.6484C87.0006 31.6563 87.003 31.666 87.0019 31.6757C87.0008 31.6853 86.9962 31.6942 86.989 31.7007C86.9818 31.7071 86.9725 31.7108 86.9628 31.7109C86.9531 31.7111 86.9437 31.7077 86.9363 31.7014L86.9343 31.6998C85.7377 30.6174 84.3748 29.7339 82.8975 29.0833C82.5416 28.9319 82.1714 28.8165 81.7924 28.7388C81.4262 28.6401 81.049 28.5884 80.6698 28.5849C80.2956 28.5732 79.9216 28.6125 79.5581 28.7017C79.2062 28.7866 78.818 28.9536 78.4344 29.0889C77.6726 29.3792 76.9053 29.655 76.1611 29.9802C75.7928 30.1444 75.4363 30.334 75.0943 30.5474C74.9299 30.6564 74.7759 30.7803 74.6344 30.9176C74.4989 31.0427 74.3988 31.2013 74.3442 31.3775C74.3225 31.4592 74.3235 31.5454 74.347 31.6266C74.3706 31.7079 74.4159 31.7812 74.4781 31.8387C74.5986 31.9745 74.7597 32.0678 74.9376 32.1047C75.3217 32.1827 75.7164 32.1931 76.104 32.1354C76.8946 32.0123 77.6783 31.8483 78.4519 31.6441C78.5286 31.6264 78.6089 31.633 78.6815 31.6632C78.7542 31.6933 78.8156 31.7454 78.8571 31.8121C79.0665 32.1533 79.3054 32.4756 79.5711 32.7752C79.8344 33.0816 80.1284 33.3602 80.4485 33.6068C80.7663 33.8533 81.1201 34.0497 81.4976 34.1891C81.8878 34.3294 82.3004 34.3979 82.7151 34.3911C82.7258 34.3908 82.7361 34.3948 82.7439 34.4022C82.7516 34.4096 82.7561 34.4197 82.7563 34.4303C82.7564 34.4389 82.7537 34.4473 82.7487 34.4543C82.7438 34.4614 82.7367 34.4667 82.7286 34.4695Z" fill="black"/>
<path d="M89.4644 62.4437L90.3589 64.6262C90.3631 64.6362 90.3642 64.6472 90.3622 64.6578C90.3602 64.6685 90.3551 64.6783 90.3476 64.6862C90.3401 64.694 90.3305 64.6995 90.3199 64.702C90.3094 64.7045 90.2983 64.7039 90.2881 64.7002L90.2846 64.6989C89.8357 64.524 89.3654 64.4095 88.8862 64.3584C88.4095 64.3184 87.9296 64.3542 87.4642 64.4644C86.5388 64.7246 85.6983 65.2233 85.0269 65.9103C84.3471 66.5937 83.7602 67.3634 83.2813 68.1995C82.7897 69.0292 82.3763 69.9027 82.0463 70.8087L82.0455 70.8107C82.0344 70.8417 82.014 70.8685 81.9871 70.8876C81.9603 70.9067 81.9283 70.9171 81.8953 70.9175C81.8624 70.9179 81.8301 70.9082 81.8028 70.8898C81.7755 70.8713 81.7545 70.845 81.7426 70.8143L80.0059 66.3335L78.2983 61.8416L78.6153 61.7651L79.2265 67.9768C79.424 70.0479 79.639 72.1172 79.8551 74.1864C79.8566 74.2001 79.8537 74.2139 79.8469 74.2258C79.3774 74.9632 78.6674 75.516 77.8368 75.7907C77.0231 76.0705 76.1726 76.2293 75.3126 76.2619C74.457 76.3027 73.5995 76.2828 72.7467 76.2025C71.893 76.1257 71.0447 75.9988 70.2061 75.8223C70.1861 75.818 70.1679 75.8078 70.1538 75.793C70.1398 75.7782 70.1306 75.7595 70.1274 75.7393L70.127 75.7366C69.6391 72.595 69.2294 69.4432 68.898 66.2814C68.5758 63.1189 68.3302 59.9463 68.2478 56.7628C68.2412 55.9664 68.2337 55.1699 68.2452 54.3733L68.2852 53.1777L68.3073 52.5799L68.3564 51.9825L68.4574 50.7879L68.6385 49.5979C68.7015 49.2003 68.7888 48.807 68.8999 48.4201C68.9508 48.2252 68.9955 48.0285 69.0517 47.8351L69.2645 47.2669L69.4803 46.7001C69.5695 46.5184 69.6679 46.3404 69.7613 46.1606C69.8583 45.9826 69.9455 45.7992 70.0508 45.6261L70.4012 45.1272C70.637 44.7958 70.9002 44.4848 71.1882 44.1974C71.3326 44.0541 71.4852 43.9192 71.6451 43.7933C71.7956 43.6563 71.9573 43.5322 72.1287 43.4223L72.6412 43.0909L73.1875 42.8198C73.371 42.7329 73.5595 42.6571 73.7522 42.5929C73.9412 42.5193 74.1352 42.459 74.3327 42.4125C75.1179 42.1978 75.9344 42.1199 76.7461 42.1825L76.6156 42.2566C76.7856 41.8911 76.9959 41.5457 77.2427 41.2269C77.4958 40.9146 77.7819 40.6304 78.0962 40.3795C78.7332 39.896 79.4502 39.5279 80.2147 39.2919C80.9722 39.0587 81.7531 38.9097 82.5434 38.8476C83.3298 38.7789 84.1209 38.7813 84.907 38.8549C84.9122 38.8554 84.917 38.858 84.9204 38.8621C84.9237 38.8661 84.9253 38.8714 84.9248 38.8766C84.9241 38.8818 84.9214 38.8866 84.9173 38.8899C84.9132 38.8932 84.908 38.8948 84.9027 38.8944C84.1196 38.8441 83.3336 38.8645 82.5542 38.9555C81.7767 39.0393 81.0109 39.2085 80.2706 39.46C79.5326 39.7016 78.8423 40.0697 78.2306 40.5477C77.934 40.7923 77.6647 41.0682 77.4273 41.3704C77.1975 41.6772 77.0027 42.0085 76.8463 42.3584C76.8356 42.3817 76.8182 42.4014 76.7961 42.4147C76.7741 42.428 76.7486 42.4344 76.7229 42.433L76.7158 42.4325C75.1494 42.3445 73.5991 42.7874 72.3163 43.6893C71.0647 44.6267 70.1301 45.9239 69.6378 47.4069L69.4338 47.9546C69.38 48.1421 69.3373 48.3334 69.2885 48.5225C69.1813 48.8991 69.0974 49.2819 69.0373 49.6688L68.863 50.8341L68.7667 52.0132L68.7197 52.6028L68.6994 53.1952L68.6628 54.3804C68.6523 55.1711 68.6661 55.9631 68.6688 56.7544C68.7273 59.922 68.9554 63.0884 69.2481 66.2472C69.5351 69.4069 69.8968 72.5595 70.3333 75.7051L70.2542 75.6195C71.0816 75.8072 71.9194 75.946 72.7631 76.0354C73.6068 76.1308 74.4568 76.1595 75.3051 76.1212C76.1519 76.0942 76.9902 75.943 77.7931 75.6726C78.5991 75.4149 79.287 74.8791 79.7335 74.1611L79.7252 74.2004C79.4957 72.1326 79.265 70.065 79.0169 67.9993L78.2883 61.8004C78.2837 61.7607 78.2936 61.7208 78.3164 61.6879C78.3391 61.6551 78.3731 61.6317 78.4119 61.6221C78.4507 61.6125 78.4917 61.6173 78.5271 61.6357C78.5626 61.6541 78.5902 61.6848 78.6046 61.722L78.6053 61.7239L80.3402 66.2055L82.0442 70.6989L81.7406 70.7046C82.0844 69.7804 82.5137 68.8901 83.0228 68.0453C83.5255 67.1942 84.141 66.4148 84.8528 65.7283C85.5653 65.0266 86.45 64.5244 87.4183 64.272C87.9058 64.1658 88.4076 64.1418 88.903 64.2009C89.3934 64.2683 89.8726 64.4007 90.3279 64.5946L90.2536 64.6673L89.4274 62.4583C89.4255 62.4534 89.4257 62.448 89.4278 62.4432C89.4299 62.4384 89.4339 62.4347 89.4387 62.4328C89.4436 62.4309 89.449 62.4309 89.4538 62.433C89.4586 62.435 89.4625 62.4389 89.4644 62.4437H89.4644Z" fill="black"/>
<path d="M78.4511 61.7819L78.8057 65.0595L76.6108 52.6289L79.0086 63.2337L78.4511 61.7819Z" fill="black"/>
<path d="M94.7096 44.275C90.2808 44.275 77.3215 42.5846 76.7041 42.5035C76.6781 42.5002 76.653 42.4918 76.6303 42.4788C76.6076 42.4658 76.5877 42.4484 76.5717 42.4277C76.5557 42.4069 76.5439 42.3833 76.5371 42.358C76.5303 42.3328 76.5286 42.3064 76.532 42.2805C76.5354 42.2545 76.5439 42.2295 76.557 42.2069C76.5701 42.1842 76.5875 42.1643 76.6083 42.1484C76.6291 42.1325 76.6528 42.1209 76.6781 42.1141C76.7035 42.1074 76.7299 42.1057 76.7558 42.1092C76.9254 42.1311 93.7505 44.3248 95.8454 43.8005C95.8708 43.7941 95.8972 43.7927 95.9232 43.7964C95.9491 43.8001 95.974 43.809 95.9966 43.8223C96.0191 43.8357 96.0387 43.8534 96.0544 43.8744C96.07 43.8954 96.0814 43.9193 96.0878 43.9446C96.0942 43.97 96.0955 43.9964 96.0916 44.0223C96.0878 44.0482 96.0789 44.0731 96.0654 44.0955C96.0519 44.1179 96.0341 44.1375 96.013 44.153C95.992 44.1686 95.968 44.1798 95.9426 44.1861C95.5359 44.2594 95.1226 44.2892 94.7096 44.275Z" fill="black"/>
<path d="M124.913 22.4503C124.913 22.4503 110.573 19.1107 107.036 36.1994C103.499 53.2848 102.597 52.0445 102.597 52.0445C96.1434 61.3869 83.5561 55.6564 80.6997 54.1854C80.3752 54.0099 80.005 53.937 79.6382 53.9765C79.2713 54.016 78.9252 54.166 78.6457 54.4066C77.8786 55.1084 77.9974 56.243 77.9974 56.243L78.0519 57.5282C78.0616 57.7352 78.116 57.9378 78.2112 58.1219C78.3065 58.3061 78.4404 58.4676 78.6039 58.5953C83.2576 62.2874 91.5411 63.0535 99.0383 62.6625C99.4683 62.64 99.8984 62.6143 100.322 62.5823C106.802 62.1305 112.486 60.8613 114.399 59.9703C118.699 57.9641 119.941 58.823 126.633 41.1606C133.328 23.5014 124.913 22.4503 124.913 22.4503ZM127.766 27.1583L127.763 27.1551C125.882 26.1319 123.717 25.7535 121.6 26.0782C119.521 26.4275 117.701 27.6422 116.308 29.203C115.606 29.9923 114.98 30.8465 114.44 31.7541C113.888 32.6648 113.397 33.6113 112.97 34.5873C112.129 36.5584 111.427 38.5856 110.868 40.6542C110.595 41.6927 110.31 42.7343 110.066 43.7854C109.937 44.3111 109.787 44.8302 109.652 45.3527C109.517 45.875 109.373 46.3943 109.225 46.9134C108.68 49.0102 108.004 51.0708 107.2 53.0829C106.998 53.5861 106.754 54.0732 106.519 54.5636C106.256 55.0444 106.016 55.5315 105.717 55.9898C105.154 56.9354 104.481 57.8111 103.711 58.5987C102.94 59.4039 101.988 60.0156 100.935 60.3838C100.714 60.4552 100.488 60.5088 100.258 60.544C99.8735 60.6043 99.4826 60.6118 99.0961 60.5665C98.6098 60.5069 98.1417 60.3452 97.7224 60.0921C97.7188 60.0899 97.7156 60.087 97.7131 60.0835C97.7106 60.08 97.7088 60.076 97.7079 60.0718C97.707 60.0676 97.707 60.0632 97.7078 60.059C97.7087 60.0548 97.7104 60.0508 97.7128 60.0473C97.7166 60.0409 97.7226 60.036 97.7297 60.0337C97.7368 60.0313 97.7445 60.0316 97.7514 60.0345L97.7546 60.0376C98.1871 60.2361 98.6555 60.3452 99.1313 60.3581C99.186 60.3614 99.2405 60.3645 99.2951 60.3645C99.6032 60.361 99.91 60.3234 100.21 60.2524C100.419 60.2031 100.625 60.141 100.826 60.0665C101.795 59.6588 102.659 59.0389 103.355 58.2525C104.068 57.4693 104.696 56.6131 105.229 55.6982C105.512 55.2462 105.752 54.7687 106.009 54.304C106.237 53.8201 106.5 53.3553 106.712 52.865C107.628 50.9209 108.4 48.9124 109.023 46.8557C109.344 45.827 109.591 44.779 109.844 43.7342C110.088 42.6829 110.291 41.6285 110.528 40.5709C110.97 38.4452 111.601 36.3632 112.415 34.3501C113.219 32.304 114.363 30.4087 115.801 28.7447C116.546 27.9174 117.417 27.2122 118.381 26.6551C119.352 26.1005 120.419 25.7361 121.527 25.5815C123.731 25.3322 125.953 25.8703 127.798 27.1005C127.801 27.1028 127.805 27.1058 127.807 27.1093C127.81 27.1128 127.811 27.1168 127.812 27.121C127.813 27.1252 127.813 27.1295 127.812 27.1337C127.811 27.1379 127.81 27.1419 127.807 27.1454C127.803 27.152 127.796 27.1568 127.789 27.1591C127.781 27.1615 127.773 27.1612 127.766 27.1583H127.766Z" fill="black"/>
<path d="M113.672 84.712C113.665 85.0412 113.561 85.3609 113.373 85.6309C113.187 85.8968 112.963 86.1337 112.708 86.3339C112.201 86.7317 111.648 87.0672 111.06 87.3332C109.887 87.8671 108.664 88.2832 107.409 88.5753C104.901 89.1693 102.327 89.4365 99.7506 89.3702C97.1831 89.3034 94.6274 88.9977 92.1167 88.4571C90.8571 88.2027 89.6229 87.8361 88.4288 87.3617C87.8232 87.12 87.2494 86.8055 86.7201 86.4251C86.4461 86.2266 86.2049 85.9866 86.005 85.7138C85.79 85.4224 85.6667 85.0737 85.6509 84.712C85.651 84.3455 85.7597 83.9872 85.9634 83.6823C86.154 83.3942 86.3882 83.1372 86.6575 82.9205C87.1743 82.5032 87.7461 82.1587 88.3568 81.8967C89.5486 81.3766 90.7924 80.9844 92.0673 80.7268C94.5941 80.2009 97.1696 79.9441 99.7506 79.9607C102.33 79.9488 104.902 80.2429 107.411 80.8369C108.666 81.1329 109.889 81.5509 111.063 82.0849C111.651 82.3515 112.204 82.6878 112.711 83.0867C112.966 83.2875 113.19 83.5252 113.375 83.7918C113.563 84.0624 113.666 84.3826 113.672 84.712ZM113.592 84.712C113.581 84.0774 113.13 83.5502 112.637 83.1789C112.127 82.8061 111.568 82.5061 110.975 82.2877C109.787 81.8497 108.558 81.5354 107.306 81.3498C104.805 80.9738 102.279 80.793 99.7506 80.8092C97.2251 80.7977 94.7038 81.0155 92.2178 81.4599C90.9853 81.6843 89.7768 82.0244 88.6084 82.4758C88.0379 82.6995 87.4967 82.9913 86.9965 83.345C86.5185 83.6949 86.1068 84.1683 86.087 84.712C86.0704 85.2575 86.4651 85.7751 86.9339 86.1575C87.4212 86.5488 87.9605 86.8707 88.5364 87.1139C89.7027 87.6115 90.9209 87.9772 92.1685 88.2044C93.4169 88.4385 94.6798 88.5877 95.9484 88.6511C97.2152 88.7286 98.4846 88.736 99.7506 88.708C102.281 88.67 104.806 88.4622 107.308 88.0862C108.56 87.8967 109.79 87.5804 110.977 87.1424C111.571 86.9234 112.13 86.6227 112.64 86.2488C113.133 85.8763 113.583 85.3467 113.592 84.712Z" fill="black"/>
<path d="M79.0666 75.0389C79.2761 75.4213 79.431 75.8311 79.5267 76.2564C79.6374 76.6765 79.7224 77.1017 79.7952 77.5286C79.9375 78.3828 80.0531 79.2409 80.1336 80.102C80.1714 80.5371 80.2137 80.954 80.2344 81.4037C80.2452 81.8581 80.1678 82.3103 80.0066 82.7354C79.9253 82.9496 79.8188 83.1534 79.6893 83.3425C79.5582 83.5252 79.4149 83.6989 79.2602 83.8623C78.9519 84.1879 78.596 84.4652 78.2047 84.6848C77.4264 85.11 76.5657 85.3635 75.6809 85.428C75.2432 85.4662 74.8026 85.4558 74.3672 85.3971C74.1483 85.3706 73.9321 85.3257 73.7208 85.263C73.5109 85.1984 73.3091 85.1251 73.1048 85.0511C71.4693 84.4578 69.9819 83.5548 68.3734 82.9384C66.7755 82.3027 65.1266 81.7668 63.543 81.0463C62.7346 80.7003 61.9666 80.2668 61.253 79.7534C60.8928 79.4843 60.5679 79.1711 60.2859 78.8212C60.1243 78.6241 60.0198 78.3865 59.984 78.1343C59.9656 78.0047 59.9687 77.8729 59.9931 77.7442C60.0214 77.6198 60.0656 77.4996 60.1245 77.3865C60.3702 76.9775 60.7331 76.6516 61.1662 76.4506C61.5731 76.2483 62.0109 76.1151 62.4616 76.0564C62.6847 76.0268 62.9096 76.0123 63.1347 76.0129C63.3582 76.0221 63.589 76.0391 63.7934 76.0556C64.2142 76.091 64.6435 76.0909 65.0717 76.0849C66.7885 76.0505 68.5105 75.8845 70.2273 75.7016C70.2326 75.701 70.2378 75.7024 70.242 75.7057C70.2462 75.7089 70.2489 75.7137 70.2495 75.7189C70.2501 75.7239 70.2487 75.729 70.2457 75.733C70.2427 75.7371 70.2383 75.74 70.2334 75.741C68.5316 76.0667 66.811 76.2854 65.0818 76.3958C64.647 76.414 64.2114 76.4266 63.7703 76.402C63.5439 76.3898 63.3433 76.3817 63.1353 76.3782C62.9286 76.3835 62.7224 76.4027 62.5181 76.4356C62.1129 76.5005 61.7201 76.6278 61.3538 76.8128C61.0003 76.9801 60.704 77.2475 60.5016 77.5818C60.4189 77.7374 60.386 77.9146 60.4073 78.0895C60.4285 78.2644 60.5029 78.4286 60.6205 78.56C60.8819 78.8815 61.1795 79.172 61.5073 79.4257C62.1893 79.9313 62.9247 80.3609 63.7004 80.7067C65.2529 81.4389 66.877 82.0265 68.4593 82.7382C69.252 83.088 70.0219 83.4866 70.792 83.8771C71.5502 84.2855 72.339 84.6347 73.1513 84.9215C73.5479 85.0782 73.9629 85.1835 74.3863 85.2348C74.81 85.2727 75.2366 85.2636 75.6583 85.2078C76.4991 85.1083 77.3094 84.8329 78.0364 84.3995C78.393 84.1856 78.718 83.923 79.002 83.6194C79.2903 83.3276 79.5209 82.984 79.6816 82.6067C79.8333 82.225 79.9098 81.8177 79.9068 81.4071C79.8948 80.995 79.859 80.5524 79.8291 80.1277C79.7623 79.2702 79.6993 78.4117 79.5886 77.5594C79.5192 76.7044 79.3321 75.8631 79.0324 75.0592L79.0315 75.0572C79.0294 75.0526 79.0292 75.0474 79.0309 75.0426C79.0325 75.0378 79.036 75.0339 79.0404 75.0315C79.0449 75.0292 79.0501 75.0287 79.055 75.03C79.0599 75.0314 79.064 75.0346 79.0666 75.0389L79.0666 75.0389Z" fill="black"/>
<path d="M71.7981 76.0027C71.8375 76.4623 71.9048 76.9191 71.9997 77.3706C72.0863 77.8156 72.2172 78.2508 72.3905 78.6698C72.5435 79.0722 72.8079 79.4229 73.1528 79.6811C73.3198 79.7928 73.5117 79.8622 73.7117 79.8832C73.9189 79.8988 74.1273 79.8771 74.3268 79.8191C74.7499 79.6937 75.1493 79.4992 75.5088 79.2435C75.8818 78.9996 76.215 78.6999 76.4967 78.3548C77.0729 77.6453 77.4028 76.7683 77.437 75.8555C77.5559 76.8064 77.3083 77.767 76.7443 78.5424C76.1682 79.3271 75.3574 79.9087 74.4288 80.2034C74.1816 80.2709 73.9242 80.2931 73.6691 80.269C73.4066 80.2396 73.1559 80.144 72.9406 79.9911C72.5454 79.6827 72.2532 79.2617 72.1027 78.7839C71.8126 77.8872 71.7089 76.9408 71.7981 76.0027Z" fill="black"/>
<path d="M64.924 78.5126C64.8153 78.2608 64.7784 77.9838 64.8173 77.7124C64.8505 77.433 64.9509 77.1657 65.1099 76.9334C65.2682 76.7013 65.4797 76.5103 65.7269 76.3763C65.8462 76.31 65.9723 76.2569 66.1032 76.2182C66.2339 76.1851 66.3673 76.1641 66.5018 76.1553C66.3984 76.2474 66.2898 76.3143 66.1903 76.3931C66.0951 76.4776 65.9903 76.5425 65.9056 76.6303C65.8622 76.6728 65.8178 76.7127 65.7726 76.7511L65.6538 76.8825C65.5742 76.9672 65.5024 77.059 65.4393 77.1567C65.1733 77.5671 64.9977 78.0293 64.924 78.5126Z" fill="black"/>
<path d="M67.0751 78.5132C66.9644 78.2659 66.9299 77.9913 66.9759 77.7243C67.0158 77.4558 67.1068 77.1975 67.2438 76.9631C67.382 76.7335 67.5569 76.5282 67.7615 76.355C67.8634 76.2713 67.9707 76.1944 68.0827 76.1249C68.1985 76.0613 68.3187 76.0062 68.4424 75.96C68.371 76.0679 68.294 76.1719 68.2117 76.2718L67.9873 76.5685C67.8437 76.7601 67.7101 76.959 67.5871 77.1644C67.3366 77.5796 67.1632 78.0365 67.0751 78.5132Z" fill="black"/>
<path d="M70.8228 85.9989C70.0769 85.7565 69.3575 85.4393 68.6757 85.0521C67.5126 84.3878 65.481 83.2462 64.9075 83.0235C63.099 82.3153 60.9525 81.5836 60.1792 80.3981C58.8612 78.3776 60.1786 77.334 60.1786 77.334C60.5956 79.5569 63.2027 80.8038 66.931 82.2359C70.6594 83.6678 71.1215 84.344 73.6708 85.1714C75.0251 85.6129 78.0963 85.3504 79.5422 83.2382C79.6453 83.0881 79.7334 82.9282 79.8051 82.7609L80.07 80.6851C82.0267 88.4347 73.6907 86.9256 70.8228 85.9989Z" fill="black"/>
<path d="M82.5526 80.0488C82.1543 79.9189 81.807 79.6672 81.5598 79.3295C81.3126 78.9917 81.178 78.5849 81.1749 78.1665C81.1392 77.5669 81.2962 76.9716 81.623 76.4674C81.9499 75.9631 82.4295 75.5763 82.9919 75.3634C85.0108 74.5145 85.9667 72.0491 86.3265 70.8288C86.6277 69.7914 87.0935 68.809 87.7064 67.919C88.7114 66.4723 90.2887 65.0253 92.213 66.0589C92.8801 66.4385 93.3864 67.0472 93.6378 67.7716C94.1197 69.0625 94.8923 70.3372 92.8011 73.1772C92.462 73.6314 92.0955 74.0646 91.7038 74.4744C91.0978 75.1279 90.623 75.8915 90.3054 76.7238C90.0148 77.5352 87.1711 81.5158 82.5526 80.0488Z" fill="black"/>
<path d="M82.9343 68.4961C83.1359 69.5257 83.1345 70.5847 82.93 71.6138C82.7372 72.6499 82.3791 73.6484 81.8693 74.5711C81.6149 75.0252 81.3353 75.4647 81.0316 75.8875C80.897 76.0933 80.7904 76.316 80.7145 76.5498C80.6483 76.7877 80.621 77.0347 80.6337 77.2813C80.6328 77.7891 80.7237 78.2929 80.9018 78.7684C80.9801 79.0113 81.1204 79.2295 81.309 79.4016C81.4975 79.5737 81.7277 79.6937 81.9769 79.7498C81.7131 79.7283 81.4628 79.6241 81.2618 79.452C81.0636 79.2747 80.9036 79.0591 80.7914 78.8181C80.5693 78.3373 80.4416 77.8184 80.4152 77.2896C80.3913 77.0195 80.4068 76.7474 80.4611 76.4818C80.5233 76.2167 80.6226 75.9616 80.7562 75.7242C81.0292 75.2599 81.2995 74.8517 81.5293 74.3905C82.0021 73.4893 82.3608 72.5329 82.5971 71.5433C82.8456 70.5472 82.959 69.5223 82.9343 68.4961Z" fill="black"/>
<path d="M89.4541 64.3721C89.6436 64.3845 89.8294 64.4304 90.0028 64.5078C90.174 64.5798 90.3358 64.6724 90.4846 64.7834C90.6363 64.8962 90.7704 65.0306 90.8828 65.1825C91.0047 65.336 91.0797 65.5214 91.099 65.7164C90.9422 65.5972 90.8019 65.5025 90.6624 65.4013L90.245 65.1009C89.9527 64.891 89.6871 64.6462 89.4541 64.3721Z" fill="black"/>
<path d="M84.3095 38.3532C84.3102 38.3593 84.3096 38.3655 84.3078 38.3714C84.3061 38.3773 84.3032 38.3827 84.2993 38.3875C84.2955 38.3923 84.2907 38.3962 84.2853 38.3991C84.2799 38.402 84.2739 38.4039 84.2678 38.4045L71.4591 40.1993L58.9424 41.8979L59.0257 55.647L59.0643 62.669L59.0836 69.691C59.0841 69.8075 59.0425 69.9202 58.9664 70.0085C58.8903 70.0969 58.7849 70.1548 58.6695 70.1717H58.6663L41.6532 72.6588L24.6305 75.0849H24.6273C24.5349 75.0981 24.4407 75.0824 24.3576 75.04L12.6529 69.2103L0.964224 63.3484H0.961016C0.906422 63.321 0.860633 63.2789 0.828856 63.2267C0.797079 63.1746 0.78059 63.1146 0.78127 63.0536L0.961016 48.4776C1.02841 43.6158 1.03484 38.757 1.07652 33.8984C1.07683 33.8615 1.09077 33.8261 1.11565 33.7989C1.14054 33.7717 1.17463 33.7546 1.21136 33.7509L10.7337 32.7446L11.1284 32.703L11.2151 32.6934C11.1638 32.8151 11.1124 32.9369 11.0642 33.0619L10.785 33.0908L1.37503 34.033C1.37824 38.85 1.34612 43.6638 1.37503 48.4776L1.43922 62.8517L13.022 68.4667L24.6369 74.1394L41.5088 71.6556L58.1111 69.2712L58.1303 62.6691L58.1721 55.647L58.2587 41.603V41.5999C58.2588 41.5179 58.2889 41.4388 58.3433 41.3775C58.3976 41.3161 58.4726 41.2767 58.554 41.2666L71.4013 39.7635L84.2582 38.3116C84.2643 38.311 84.2705 38.3116 84.2764 38.3133C84.2823 38.3151 84.2877 38.318 84.2925 38.3218C84.2973 38.3257 84.3012 38.3305 84.3041 38.3358C84.3071 38.3412 84.3089 38.3471 84.3095 38.3532Z" fill="black"/>
<path d="M11.5723 32.6523C11.6172 32.7678 11.6654 32.8832 11.7103 32.9953C11.537 33.0113 11.3637 33.0306 11.1904 33.0466C11.2578 32.9216 11.3252 32.7966 11.3894 32.6716L11.5723 32.6523Z" fill="black"/>
<path d="M11.8164 32.6278C12.102 32.599 12.3877 32.5701 12.6733 32.5381C12.622 32.663 12.5706 32.7913 12.5192 32.9163C12.3395 32.9323 12.1598 32.9515 11.9801 32.9707C11.9256 32.8554 11.8709 32.7432 11.8164 32.6278Z" fill="black"/>
<path d="M12.9685 32.6611L13.0519 32.8631C12.9941 32.8694 12.9364 32.8758 12.8818 32.8823C12.9107 32.8085 12.9396 32.7348 12.9685 32.6611Z" fill="black"/>
<path d="M14.0682 32.3877H14.1002L13.9558 32.7756C13.7569 32.7947 13.5578 32.814 13.3621 32.8332L13.2305 32.4775C13.5097 32.4487 13.7889 32.4166 14.0682 32.3877Z" fill="black"/>
<path d="M14.2747 32.5488L14.3421 32.738C14.2972 32.7444 14.249 32.7476 14.2041 32.7508L14.2747 32.5488Z" fill="black"/>
<path d="M15.4873 32.333L15.3557 32.6407L14.5469 32.7177L14.4346 32.3812C14.7844 32.3715 15.1374 32.3555 15.4873 32.333Z" fill="black"/>
<path d="M15.5832 32.3662L15.6827 32.6098C15.6153 32.6162 15.5479 32.6226 15.4805 32.629L15.5832 32.3662Z" fill="black"/>
<path d="M96.8395 29.4077C96.8367 29.4194 96.8295 29.4296 96.8193 29.4362C96.8092 29.4427 96.7969 29.4451 96.785 29.4429L88.6523 27.7283C85.9564 27.1578 83.2637 26.5799 80.5742 25.9944L70.6988 27.1L60.7849 28.1609L50.8679 29.2185L40.9476 30.2217C37.6386 30.5582 34.3297 30.8658 31.0209 31.1768L21.0909 32.103C19.5632 32.244 18.0366 32.3872 16.511 32.5325C16.2639 32.5548 16.0168 32.5773 15.7697 32.603L15.667 32.3209C15.9622 32.2985 16.2576 32.2728 16.556 32.2344C16.3795 32.212 16.1997 32.1927 16.0232 32.1735C16.2094 32.1542 16.3923 32.1319 16.5752 32.1126C18.0644 31.946 19.5525 31.7782 21.0396 31.6094L30.9502 30.4973C34.2527 30.1224 37.5552 29.7505 40.8609 29.4109L50.7812 28.3693L60.7047 27.3853L70.6282 26.4046L80.5549 25.472H80.5614C80.5872 25.4708 80.6131 25.473 80.6384 25.4784C83.3375 26.1066 86.0334 26.7465 88.7261 27.3982L96.8042 29.3499C96.8104 29.3512 96.8163 29.3538 96.8215 29.3574C96.8267 29.3611 96.8311 29.3657 96.8344 29.3712C96.8377 29.3766 96.8398 29.3826 96.8407 29.3889C96.8416 29.3952 96.8412 29.4015 96.8395 29.4077Z" fill="black"/>
<path d="M29.394 60.2515V71.4879L54.6329 68.2413V57.3574L29.394 60.2515ZM43.7337 65.0525C41.8722 65.0525 41.8754 62.168 43.7337 62.168C45.5952 62.168 45.592 65.0525 43.7337 65.0525V65.0525Z" fill="black"/>
<path d="M29.394 46.9995V58.236L54.6329 54.9894V44.1055L29.394 46.9995ZM43.7337 51.8005C41.8722 51.8005 41.8754 48.9161 43.7337 48.9161C45.5952 48.9161 45.592 51.8005 43.7337 51.8005V51.8005Z" fill="black"/>
<path d="M85.2471 30.0674L85.251 30.0671C85.7807 29.9318 86.3145 29.8208 86.8461 29.6972C87.3793 29.5821 87.9128 29.4692 88.4476 29.364C88.476 29.3584 88.5054 29.3616 88.5318 29.3733L88.5392 29.3766C89.6604 29.8698 90.7709 30.3857 91.8767 30.9113C92.9809 31.4401 94.0805 31.9787 95.1695 32.5396L95.1783 32.5441C95.2106 32.5608 95.235 32.5896 95.2461 32.6242C95.2572 32.6589 95.254 32.6965 95.2373 32.7288C95.2266 32.7492 95.211 32.7666 95.1919 32.7795C95.1727 32.7924 95.1507 32.8003 95.1277 32.8025C94.6707 32.8438 94.2143 32.8908 93.756 32.9229C93.298 32.9562 92.8408 32.9964 92.3812 33.0189C92.8313 32.9234 93.2836 32.8457 93.735 32.761C94.1863 32.675 94.6395 32.604 95.0919 32.5273L95.0502 32.7901C93.9271 32.301 92.8146 31.7895 91.7068 31.2681C90.6005 30.7436 89.4989 30.2093 88.408 29.6524L88.4994 29.665C87.9601 29.7442 87.4195 29.8155 86.8784 29.8847C86.336 29.9454 85.7956 30.0187 85.2511 30.0677H85.251L85.2471 30.0674Z" fill="black"/>
<path d="M82.9243 34.2518L82.9203 34.2519L80.2448 34.6801C79.3533 34.8252 78.4587 34.9466 77.5658 35.0808C76.6721 35.2092 75.78 35.3492 74.885 35.4681L72.2013 35.8321C72.1726 35.8356 72.1435 35.8326 72.1162 35.8233C71.0376 35.4525 69.9546 35.0944 68.881 34.7091L65.6548 33.5697C65.6331 33.5621 65.613 33.5504 65.5958 33.5352C65.5787 33.5199 65.5647 33.5014 65.5546 33.4807C65.5446 33.4601 65.5388 33.4377 65.5374 33.4147C65.5361 33.3918 65.5393 33.3688 65.5468 33.3471C65.5573 33.3177 65.5753 33.2915 65.5992 33.2714C65.6231 33.2512 65.6519 33.2377 65.6827 33.2322C67.1274 32.986 68.5784 32.7764 70.0265 32.5501C71.4748 32.325 72.9268 32.1214 74.38 31.9248C72.9439 32.2214 71.5066 32.5111 70.0657 32.7792C68.6246 33.0461 67.1863 33.3298 65.7417 33.5768L65.7697 33.2394L69.0083 34.3434C70.0897 34.7059 71.1617 35.0957 72.2382 35.4727L72.1532 35.4639L74.8409 35.1291C75.7364 35.015 76.6347 34.9222 77.5315 34.8177C78.4291 34.719 79.325 34.6074 80.2239 34.5196C81.1224 34.4283 82.0201 34.3308 82.9202 34.2517H82.9203L82.9243 34.2518Z" fill="black"/>
<path d="M72.5 28.5642C71.5341 28.8444 70.563 29.0999 69.5941 29.366C69.3514 29.4302 69.1105 29.5029 68.8658 29.5576L68.1292 29.7113L66.6583 30.0289L65.9228 30.1878C65.6557 30.2602 65.3765 30.2769 65.1027 30.2369C64.8122 30.1925 64.542 30.0613 64.3276 29.8606C64.2191 29.7513 64.1357 29.6198 64.0832 29.4752C64.0306 29.3305 64.0102 29.1762 64.0234 29.0229C64.0845 28.4719 64.336 27.9594 64.7347 27.5736C64.9257 27.3837 65.142 27.2209 65.3774 27.0899C65.4932 27.0255 65.6125 26.9677 65.7348 26.9167C65.8469 26.8691 65.9574 26.8181 66.0663 26.7638C66.9474 26.3563 67.6893 25.6996 68.2001 24.875C68.4401 24.4615 68.5991 24.0063 68.6686 23.5335C68.7314 23.0691 68.732 22.5533 68.7572 22.0561L69.0027 16.0499L69.0072 16.1005C68.983 16.0342 68.9492 15.9719 68.9068 15.9155C68.8577 15.8483 68.8018 15.7864 68.7399 15.7307C68.6042 15.6193 68.4583 15.5209 68.304 15.437C67.9741 15.2632 67.6211 15.1373 67.2556 15.063C66.8784 14.9899 66.4965 14.9438 66.1128 14.925C65.7262 14.9035 65.3378 14.9059 64.9475 14.9124C65.3332 14.8596 65.7205 14.8014 66.1128 14.7838C66.5072 14.7614 66.9028 14.7673 67.2964 14.8015C67.7016 14.8405 68.099 14.9374 68.4766 15.0892C68.6738 15.1721 68.8547 15.2895 69.0107 15.4359C69.189 15.591 69.3222 15.7912 69.3963 16.0154C69.4001 16.0278 69.4018 16.0407 69.4013 16.0536L69.4008 16.0661L69.1553 22.0726C69.1289 22.5755 69.1324 23.0646 69.0624 23.5939C68.9853 24.1155 68.8097 24.6177 68.5451 25.074C67.9951 25.9666 67.1946 26.6782 66.2431 27.1203C66.1275 27.1779 66.0103 27.2319 65.8915 27.2824C65.7822 27.3278 65.6757 27.3794 65.5723 27.4368C65.3688 27.55 65.1819 27.6905 65.0168 27.8544C64.688 28.1721 64.4777 28.5925 64.4211 29.0459C64.4107 29.1428 64.4221 29.2408 64.4544 29.3328C64.4866 29.4248 64.539 29.5084 64.6077 29.5777C64.7638 29.72 64.9587 29.8129 65.1676 29.8445C65.392 29.8764 65.6206 29.8609 65.8386 29.799L66.5741 29.6401L68.0451 29.3225L68.7794 29.1588C69.025 29.1076 69.2744 29.0744 69.522 29.0326C70.5144 28.8753 71.5045 28.7074 72.5 28.5642Z" fill="black"/>
<path d="M66.4078 10.6207C66.8347 11.1046 67.2295 11.6174 67.7526 12.1142L62.1586 19.0336C62.0623 12.4475 57.4761 12.1142 57.4761 12.1142L65.015 9.24902C65.2768 9.45679 65.5265 9.67934 65.7628 9.9156C65.9874 10.1431 66.196 10.3803 66.4078 10.6207Z" fill="black"/>
<path d="M70.1438 12.1138H67.7527C67.7192 11.7587 67.6224 11.4125 67.4671 11.0914C67.3181 10.7691 67.1248 10.4692 66.8926 10.2003C66.6576 9.92551 66.3777 9.69253 66.0646 9.5113C65.7472 9.32523 65.3829 9.23404 65.0151 9.24855L66.0806 7.24219L70.1438 12.1138Z" fill="black"/>
<path d="M62.16 19.0337C61.4457 18.8138 60.7794 18.4611 60.1962 17.9942C59.5994 17.5333 59.079 16.9813 58.6544 16.3585C58.5441 16.2053 58.4443 16.0448 58.3558 15.878C58.2671 15.7115 58.1639 15.5527 58.0878 15.3801C57.9296 15.0383 57.8 14.684 57.7003 14.3209C57.4934 13.6041 57.4173 12.856 57.4755 12.1123C57.6652 12.8071 57.8981 13.4895 58.173 14.1553C58.4426 14.8034 58.7814 15.4207 59.1835 15.9963C59.5778 16.5795 60.0275 17.1235 60.5263 17.6206C61.0358 18.1306 61.5818 18.6028 62.16 19.0337Z" fill="black"/>
<path d="M60.1998 16.8154C62.5065 16.8154 62.5104 13.2354 60.1998 13.2354C57.893 13.2354 57.8892 16.8154 60.1998 16.8154Z" fill="black"/>
<path d="M43.458 31.4247L49.3558 30.4045C51.3646 30.0631 53.399 29.7126 55.4284 29.4503L55.4349 29.4495C55.4649 29.4455 55.4954 29.4512 55.5221 29.4656L57.8817 30.736C58.6661 31.1637 59.4585 31.576 60.2501 31.9896C61.0388 32.4089 61.84 32.8039 62.6361 33.2088C63.4317 33.6147 64.2372 34.0014 65.0373 34.3987C65.0575 34.4087 65.0741 34.4249 65.0847 34.4448C65.0952 34.4648 65.0992 34.4876 65.0961 34.51C65.093 34.5323 65.0829 34.5532 65.0672 34.5695C65.0516 34.5858 65.0312 34.5968 65.009 34.6009L65.0049 34.6017C62.9917 34.9652 60.9771 35.3199 58.9592 35.6536C56.9422 35.9931 54.9254 36.3338 52.9034 36.6426L52.9014 36.6429C52.8572 36.6497 52.8119 36.6419 52.7724 36.6208C51.1789 35.7667 49.6006 34.8745 48.0386 33.9991C46.4877 33.1159 44.9612 32.2521 43.458 31.4247ZM43.4973 31.4314C45.125 32.2739 46.7295 33.08 48.3094 33.8667C49.8783 34.6612 51.4309 35.4388 52.9683 36.2545L52.8375 36.2327C54.8546 35.8939 56.8769 35.587 58.899 35.2789C60.9201 34.965 62.9446 34.6721 64.9706 34.3881L64.9382 34.5911C64.149 34.1729 63.3651 33.7442 62.5714 33.3347C61.7781 32.9242 60.9899 32.5039 60.1894 32.1076C59.3916 31.7059 58.5946 31.3028 57.7896 30.9151L55.3813 29.7393L55.4748 29.7546C53.5129 30.1008 51.556 30.3588 49.5735 30.626L46.5682 31.0182L43.4973 31.4314Z" fill="black"/>
<path d="M50.5039 32.6802C50.9367 32.584 51.3741 32.5099 51.8145 32.458C52.2316 32.5243 52.6507 32.5773 53.0687 32.6375L55.5783 32.9887L58.0877 33.3401L59.3425 33.5156C59.7439 33.6939 60.1459 33.8687 60.542 34.0852C60.1015 34.1846 59.667 34.2423 59.232 34.3035L57.9772 34.1279L55.4676 33.7767L52.9581 33.4254C52.5397 33.3686 52.1222 33.3044 51.7028 33.2537C51.2937 33.0829 50.8936 32.8915 50.5039 32.6802Z" fill="black"/>
<path d="M17.9004 33.6474L23.7982 32.6272C25.807 32.2857 27.8413 31.9353 29.8707 31.673L29.8772 31.6721C29.9073 31.6682 29.9378 31.6738 29.9645 31.6882L32.3241 32.9586C33.1085 33.3864 33.9008 33.7987 34.6924 34.2123C35.4812 34.6315 36.2824 35.0266 37.0784 35.4314C37.8741 35.8374 38.6796 36.2241 39.4796 36.6213C39.4999 36.6313 39.5165 36.6475 39.527 36.6675C39.5376 36.6875 39.5416 36.7102 39.5385 36.7326C39.5353 36.755 39.5252 36.7758 39.5096 36.7921C39.494 36.8085 39.4736 36.8194 39.4513 36.8236L39.4473 36.8243C37.4341 37.1879 35.4195 37.5426 33.4016 37.8762C31.3846 38.2157 29.3677 38.5565 27.3458 38.8652L27.3438 38.8656C27.2995 38.8724 27.2543 38.8646 27.2148 38.8434C25.6213 37.9894 24.043 37.0971 22.481 36.2217C20.93 35.3385 19.4036 34.4747 17.9004 33.6474ZM17.9397 33.6541C19.5674 34.4965 21.1719 35.3026 22.7518 36.0893C24.3206 36.8838 25.8733 37.6614 27.4107 38.4772L27.2799 38.4554C29.297 38.1166 31.3193 37.8097 33.3413 37.5016C35.3625 37.1876 37.387 36.8948 39.413 36.6107L39.3806 36.8137C38.5913 36.3956 37.8075 35.9669 37.0137 35.5573C36.2205 35.1468 35.4323 34.7265 34.6317 34.3303C33.834 33.9286 33.037 33.5254 32.232 33.1377L29.8236 31.9619L29.9172 31.9772C27.9553 32.3234 25.9984 32.5815 24.0159 32.8486L21.0105 33.2409L17.9397 33.6541Z" fill="black"/>
<path d="M32.4886 33.1388C33.2116 32.9912 33.936 32.8521 34.6616 32.7214C35.3879 32.5952 36.1123 32.4565 36.8402 32.3406C38.2955 32.1057 39.7483 31.855 41.2103 31.6644L41.218 31.6634C41.2497 31.6592 41.2818 31.6652 41.3098 31.6806L43.6619 32.966C44.4455 33.3951 45.2381 33.8069 46.0314 34.2172C46.8289 34.6196 47.6263 35.022 48.4319 35.4085L50.8433 36.5784C50.873 36.5928 50.8974 36.6163 50.913 36.6454C50.9286 36.6745 50.9345 36.7078 50.93 36.7405C50.9254 36.7732 50.9107 36.8036 50.8878 36.8274C50.8649 36.8513 50.835 36.8672 50.8025 36.873L50.7962 36.8741L47.7728 37.3967C46.7648 37.5691 45.7564 37.7395 44.7463 37.8992C43.7357 38.0563 42.7253 38.2139 41.7124 38.3556C40.6996 38.4992 39.6882 38.6507 38.6733 38.7804L38.6663 38.7812C38.6421 38.7843 38.6175 38.7795 38.5963 38.7675C37.7342 38.2804 36.8766 37.7849 36.0235 37.2811C36.0191 37.2785 36.0158 37.2743 36.0145 37.2693C36.0131 37.2644 36.0137 37.2591 36.0161 37.2546C36.0185 37.2501 36.0225 37.2467 36.0274 37.2451C36.0323 37.2434 36.0376 37.2438 36.0422 37.246C36.9372 37.6714 37.8269 38.1067 38.7114 38.552L38.6345 38.5392C39.6391 38.3453 40.6473 38.1732 41.6541 37.9932C42.6607 37.8115 43.6697 37.6456 44.6788 37.479C45.6882 37.3153 46.6994 37.1622 47.7109 37.0111L50.7462 36.563L50.699 36.8587L48.3424 35.5824C47.5587 35.1534 46.7667 34.7403 45.9748 34.3273C45.1788 33.9221 44.382 33.5185 43.5763 33.1322L41.1603 31.9712L41.2597 31.9874C39.8073 32.2411 38.3457 32.4345 36.8865 32.6437C36.1571 32.75 35.4243 32.8334 34.6933 32.9293C33.9619 33.0214 33.229 33.1044 32.4946 33.1782C32.4895 33.1787 32.4844 33.1772 32.4804 33.1741C32.4763 33.1709 32.4737 33.1664 32.4729 33.1613C32.4721 33.1563 32.4733 33.1511 32.4762 33.1469C32.4791 33.1428 32.4836 33.1398 32.4886 33.1388L32.4886 33.1388Z" fill="black"/>
<path d="M81.7169 13.8926C81.55 14.3638 81.3606 14.8253 81.1712 15.2868L80.417 16.5559L78.9696 18.9981H78.4111L78.4978 18.8538L80.003 16.3123L80.7572 15.04C81.0717 14.6554 81.3831 14.2676 81.7169 13.8926Z" fill="black"/>
<path d="M78.193 15.4886L78.0132 17.0591L77.7918 18.9981H77.3071L77.5351 17.0046L77.7116 15.4342C77.8431 14.9182 77.9715 14.4022 78.1319 13.8926C78.1705 14.4279 78.1832 14.9567 78.193 15.4886Z" fill="black"/>
<path d="M76.2065 18.998H76.5114L76.3413 17.809L76.2033 16.8539L75.9914 15.354C75.847 14.8669 75.7058 14.3765 75.5357 13.8926C75.5133 14.3124 75.5068 14.7291 75.5101 15.1457V15.4245L75.571 15.838L75.7283 16.9212L76.0268 18.998H76.2065Z" fill="black"/>
<path d="M75.1888 18.9981H74.7042L74.4025 16.9213L74.1875 15.4245C74.1842 14.915 74.1842 14.4054 74.2131 13.8926C74.3832 14.3766 74.5244 14.8669 74.6689 15.354L74.8807 16.854L75.086 18.2834L75.1888 18.9981Z" fill="black"/>
<path d="M75.5705 15.5563V15.8383L75.5673 17.0305V18.9984H75.0859V15.5563C75.1565 15.066 75.2271 14.5756 75.3266 14.082C75.3972 14.4378 75.4582 14.7935 75.5096 15.1461C75.532 15.2839 75.5513 15.4185 75.5705 15.5563Z" fill="black"/>
<path d="M77.0534 15.8018L76.8865 17.2665L76.6907 18.9972H76.2061L76.3409 17.8082L76.4083 17.212L76.572 15.7473C76.6971 15.2666 76.8223 14.7859 76.9764 14.3115C77.0213 14.8083 77.0373 15.3051 77.0534 15.8018Z" fill="black"/>
<path d="M73.7026 20.9604V22.6911C73.7862 22.6815 73.8695 22.6751 73.953 22.6654L74.6751 21.0469C74.3509 21.0244 74.0269 20.9989 73.7026 20.9604ZM74.765 21.0758L73.9915 22.6622C74.4569 22.6141 74.9254 22.5821 75.3909 22.5628L74.765 21.0758ZM74.8677 21.0598L75.5288 22.4827L76.0551 21.1079C75.6604 21.1014 75.2624 21.0822 74.8677 21.0597L74.8677 21.0598ZM76.2221 21.2457L75.6797 22.5532C76.023 22.5404 76.3633 22.534 76.7067 22.5308L76.2221 21.2457ZM76.9056 21.1206C76.7387 21.1174 76.5687 21.1142 76.4018 21.1142L76.8928 22.3225L77.3101 21.1142C77.1752 21.1174 77.0405 21.1174 76.9056 21.1206L76.9056 21.1206ZM77.5251 21.4251L77.1046 22.5309C77.3743 22.534 77.6438 22.5373 77.9134 22.5468C77.7787 22.1718 77.6502 21.8001 77.5251 21.4251V21.4251ZM77.7498 21.1079C77.8877 21.4893 78.0194 21.8706 78.1477 22.252C78.321 21.8578 78.4912 21.4668 78.6677 21.0758C78.3627 21.0917 78.0578 21.1014 77.7497 21.1079L77.7498 21.1079ZM78.8474 21.2553C78.6869 21.6911 78.5201 22.1239 78.3532 22.5597C78.7222 22.5725 79.0913 22.595 79.4572 22.627C79.2453 22.1718 79.0464 21.7168 78.8473 21.2553L78.8474 21.2553ZM73.7027 18.999V20.9604C74.7663 20.8446 75.8358 20.7911 76.9057 20.8002C77.1015 20.8002 77.2973 20.8034 77.493 20.8066C77.5213 20.7986 77.5513 20.7986 77.5797 20.8066C77.9905 20.813 78.3981 20.829 78.8057 20.8514C78.816 20.8478 78.8268 20.8457 78.8377 20.8451C78.8543 20.8452 78.8706 20.8484 78.8859 20.8547C79.2935 20.8803 79.7011 20.9124 80.1086 20.9604V18.999L73.7027 18.999ZM74.4505 20.4316C74.3256 20.4275 74.2071 20.3751 74.1202 20.2854C74.0333 20.1957 73.9847 20.0757 73.9847 19.9509C73.9847 19.8261 74.0333 19.7062 74.1202 19.6165C74.2071 19.5267 74.3256 19.4743 74.4505 19.4702C74.5752 19.4745 74.6934 19.5271 74.7801 19.6168C74.8668 19.7064 74.9153 19.8262 74.9153 19.9509C74.9153 20.0755 74.8668 20.1953 74.7801 20.285C74.6934 20.3747 74.5752 20.4272 74.4504 20.4316L74.4505 20.4316ZM76.1835 20.4316C76.0586 20.4275 75.9402 20.3751 75.8533 20.2854C75.7664 20.1957 75.7178 20.0757 75.7178 19.9509C75.7178 19.8261 75.7664 19.7062 75.8533 19.6165C75.9402 19.5267 76.0586 19.4743 76.1835 19.4702C76.3083 19.4745 76.4265 19.5271 76.5132 19.6168C76.5999 19.7064 76.6483 19.8262 76.6483 19.9509C76.6483 20.0755 76.5999 20.1953 76.5132 20.285C76.4265 20.3747 76.3083 20.4272 76.1835 20.4316L76.1835 20.4316ZM77.8589 20.374C77.734 20.3699 77.6156 20.3174 77.5287 20.2277C77.4418 20.138 77.3932 20.0181 77.3932 19.8932C77.3932 19.7684 77.4418 19.6485 77.5287 19.5588C77.6156 19.4691 77.734 19.4166 77.8589 19.4125C77.9837 19.4169 78.1019 19.4694 78.1886 19.5591C78.2753 19.6488 78.3237 19.7686 78.3237 19.8932C78.3237 20.0179 78.2752 20.1377 78.1885 20.2273C78.1018 20.317 77.9836 20.3696 77.8589 20.3739L77.8589 20.374ZM79.5053 20.4316C79.3804 20.4275 79.262 20.3751 79.175 20.2854C79.0881 20.1957 79.0395 20.0757 79.0395 19.9509C79.0395 19.8261 79.0881 19.7062 79.175 19.6165C79.262 19.5267 79.3804 19.4743 79.5053 19.4702C79.6301 19.4745 79.7482 19.5271 79.835 19.6168C79.9217 19.7064 79.9701 19.8262 79.9701 19.9509C79.9701 20.0755 79.9216 20.1953 79.8349 20.285C79.7482 20.3747 79.63 20.4272 79.5053 20.4316L79.5053 20.4316ZM78.9886 21.0566C79.1683 21.579 79.3416 22.1014 79.5021 22.6303C79.7043 22.6494 79.9065 22.6655 80.1086 22.6912V20.9605C79.7363 21.0021 79.3641 21.0341 78.9886 21.0565L78.9886 21.0566ZM74.765 21.0759L73.9916 22.6623C74.4569 22.6142 74.9255 22.5822 75.3909 22.5629L74.765 21.0759ZM74.8677 21.0598L75.5289 22.4828L76.0552 21.108C75.6604 21.1014 75.2624 21.0822 74.8677 21.0597L74.8677 21.0598ZM76.2221 21.2457L75.6797 22.5533C76.0231 22.5405 76.3633 22.5341 76.7067 22.5309L76.2221 21.2457ZM76.9057 21.1207C76.7388 21.1175 76.5687 21.1143 76.4018 21.1143L76.8929 22.3226L77.3101 21.1143C77.1752 21.1174 77.0405 21.1174 76.9056 21.1206L76.9057 21.1207ZM77.5251 21.4252L77.1047 22.5309C77.3743 22.5341 77.6438 22.5374 77.9135 22.5469C77.7787 22.1718 77.6502 21.8001 77.5251 21.4251L77.5251 21.4252ZM77.7498 21.108C77.8878 21.4894 78.0194 21.8707 78.1478 22.2521C78.3211 21.8579 78.4912 21.4669 78.6677 21.0759C78.3627 21.0917 78.0578 21.1014 77.7497 21.1079L77.7498 21.108ZM78.8474 21.2554C78.6869 21.6912 78.5201 22.1239 78.3532 22.5597C78.7223 22.5726 79.0913 22.595 79.4572 22.627C79.2453 22.1718 79.0464 21.7168 78.8473 21.2553L78.8474 21.2554ZM74.765 21.0759L73.9916 22.6623C74.4569 22.6142 74.9255 22.5822 75.3909 22.563L74.765 21.0759ZM74.8677 21.0599L75.5289 22.4828L76.0552 21.108C75.6604 21.1014 75.2624 21.0822 74.8677 21.0597L74.8677 21.0599ZM76.2221 21.2458L75.6797 22.5533C76.0231 22.5405 76.3633 22.5341 76.7067 22.531L76.2221 21.2458ZM76.9057 21.1207C76.7388 21.1175 76.5687 21.1143 76.4018 21.1143L76.8929 22.3226L77.3101 21.1143C77.1752 21.1174 77.0405 21.1174 76.9056 21.1206L76.9057 21.1207ZM77.5251 21.4252L77.1047 22.531C77.3743 22.5341 77.6439 22.5374 77.9135 22.5469C77.7787 22.1718 77.6502 21.8001 77.5251 21.4251L77.5251 21.4252ZM77.7498 21.108C77.8878 21.4894 78.0194 21.8707 78.1478 22.2521C78.3211 21.8579 78.4912 21.4669 78.6677 21.0759C78.3627 21.0917 78.0578 21.1014 77.7497 21.1079L77.7498 21.108ZM78.8474 21.2554C78.6869 21.6913 78.5201 22.124 78.3532 22.5598C78.7223 22.5726 79.0913 22.5951 79.4572 22.6271C79.2453 22.1718 79.0464 21.7168 78.8473 21.2553L78.8474 21.2554ZM73.7027 24.5661V24.9635C73.7027 25.8118 74.0402 26.6253 74.6408 27.2252C75.2415 27.825 76.0562 28.162 76.9057 28.162C77.7552 28.162 78.5699 27.825 79.1706 27.2252C79.7712 26.6253 80.1087 25.8118 80.1087 24.9635V24.5661C77.9787 24.7797 75.8327 24.7797 73.7027 24.5661ZM78.2151 22.8258C78.1946 22.8396 78.1711 22.8482 78.1465 22.851C78.1219 22.8538 78.0971 22.8507 78.074 22.8418C78.0673 22.838 78.0608 22.8337 78.0547 22.829C77.6728 22.8418 77.2877 22.8483 76.9057 22.8515C75.8359 22.8573 74.7666 22.8038 73.7027 22.6912V24.5661C75.8327 24.3524 77.9787 24.3524 80.1087 24.5661V22.6911C79.4765 22.7648 78.8473 22.8032 78.2151 22.8257L78.2151 22.8258ZM74.5949 24.1238C74.47 24.1197 74.3516 24.0672 74.2647 23.9775C74.1778 23.8878 74.1292 23.7679 74.1292 23.6431C74.1292 23.5183 74.1778 23.3983 74.2647 23.3086C74.3516 23.2189 74.47 23.1665 74.5949 23.1623C74.7195 23.167 74.8374 23.2197 74.9238 23.3093C75.0103 23.399 75.0586 23.5186 75.0585 23.643C75.0585 23.7675 75.0102 23.8871 74.9238 23.9767C74.8373 24.0664 74.7194 24.119 74.5949 24.1237L74.5949 24.1238ZM76.0681 24.0949C75.9432 24.0908 75.8247 24.0384 75.7378 23.9487C75.6509 23.859 75.6023 23.739 75.6023 23.6142C75.6023 23.4894 75.6509 23.3695 75.7378 23.2798C75.8247 23.19 75.9432 23.1376 76.0681 23.1335C76.1926 23.1381 76.3105 23.1908 76.397 23.2805C76.4834 23.3701 76.5317 23.4897 76.5317 23.6142C76.5317 23.7386 76.4834 23.8582 76.3969 23.9479C76.3104 24.0375 76.1925 24.0902 76.068 24.0948L76.0681 24.0949ZM77.6856 24.0949C77.5607 24.0908 77.4423 24.0384 77.3554 23.9487C77.2684 23.859 77.2199 23.739 77.2199 23.6142C77.2199 23.4894 77.2684 23.3695 77.3554 23.2798C77.4423 23.19 77.5607 23.1376 77.6856 23.1335C77.8102 23.1381 77.9281 23.1908 78.0145 23.2804C78.101 23.3701 78.1493 23.4897 78.1493 23.6142C78.1493 23.7386 78.1009 23.8582 78.0145 23.9478C77.928 24.0375 77.8101 24.0901 77.6856 24.0948L77.6856 24.0949ZM79.3032 24.0373C79.1782 24.0332 79.0598 23.9807 78.9729 23.891C78.886 23.8013 78.8374 23.6814 78.8374 23.5565C78.8374 23.4317 78.886 23.3118 78.9729 23.2221C79.0598 23.1324 79.1782 23.0799 79.3032 23.0758C79.4277 23.0805 79.5456 23.1331 79.6321 23.2228C79.7185 23.3124 79.7668 23.432 79.7668 23.5565C79.7668 23.6809 79.7185 23.8006 79.632 23.8902C79.5456 23.9798 79.4277 24.0325 79.3031 24.0371L79.3032 24.0373ZM79.4572 22.6271C79.2453 22.172 79.0464 21.7169 78.8474 21.2554C78.6869 21.6912 78.5201 22.124 78.3532 22.5598C78.7222 22.5725 79.0912 22.5949 79.4572 22.6269L79.4572 22.6271ZM78.6677 21.0759C78.3627 21.0919 78.0579 21.1016 77.7498 21.108C77.8878 21.4894 78.0194 21.8707 78.1477 22.2521C78.321 21.8578 78.4911 21.4668 78.6677 21.0758L78.6677 21.0759ZM77.9135 22.5469C77.7787 22.172 77.6503 21.8002 77.5251 21.4252L77.1047 22.531C77.3743 22.534 77.6438 22.5372 77.9134 22.5468L77.9135 22.5469ZM77.3101 21.1143C77.1753 21.1175 77.0405 21.1175 76.9057 21.1207C76.7388 21.1175 76.5687 21.1143 76.4018 21.1143L76.8929 22.3226L77.3101 21.1143ZM76.7067 22.531L76.2221 21.2458L75.6797 22.5533C76.023 22.5404 76.3632 22.534 76.7067 22.5308L76.7067 22.531ZM76.0552 21.108C75.6604 21.1016 75.2625 21.0823 74.8677 21.0599L75.5289 22.4828L76.0552 21.108ZM74.765 21.0759L73.9916 22.6623C74.4569 22.6142 74.9255 22.5822 75.3909 22.563L74.765 21.0759ZM78.8474 21.2554C78.6869 21.6912 78.5201 22.1239 78.3532 22.5597C78.7223 22.5726 79.0913 22.595 79.4572 22.627C79.2453 22.1718 79.0464 21.7168 78.8473 21.2553L78.8474 21.2554ZM77.7498 21.108C77.8878 21.4894 78.0194 21.8707 78.1478 22.2521C78.3211 21.8579 78.4912 21.4669 78.6677 21.0759C78.3627 21.0917 78.0578 21.1014 77.7497 21.1079L77.7498 21.108ZM77.5251 21.4252L77.1047 22.5309C77.3743 22.5341 77.6438 22.5374 77.9135 22.5469C77.7787 22.1718 77.6502 21.8001 77.5251 21.4251L77.5251 21.4252ZM76.9057 21.1207C76.7388 21.1175 76.5687 21.1143 76.4018 21.1143L76.8929 22.3226L77.3101 21.1143C77.1752 21.1174 77.0405 21.1174 76.9056 21.1206L76.9057 21.1207ZM76.2221 21.2457L75.6797 22.5533C76.0231 22.5405 76.3633 22.5341 76.7067 22.5309L76.2221 21.2457ZM74.8677 21.0598L75.5289 22.4828L76.0552 21.108C75.6604 21.1014 75.2624 21.0822 74.8677 21.0597L74.8677 21.0598ZM74.765 21.0759L73.9916 22.6623C74.4569 22.6142 74.9255 22.5822 75.3909 22.5629L74.765 21.0759ZM78.8474 21.2554C78.6869 21.6912 78.5201 22.1239 78.3532 22.5597C78.7223 22.5725 79.0913 22.595 79.4572 22.627C79.2453 22.1718 79.0464 21.7168 78.8473 21.2553L78.8474 21.2554ZM77.7498 21.1079C77.8878 21.4893 78.0194 21.8707 78.1478 22.252C78.3211 21.8578 78.4912 21.4668 78.6677 21.0758C78.3627 21.0917 78.0578 21.1014 77.7497 21.1079L77.7498 21.1079ZM77.5251 21.4251L77.1047 22.5309C77.3743 22.534 77.6438 22.5373 77.9134 22.5469C77.7787 22.1718 77.6502 21.8001 77.5251 21.4251L77.5251 21.4251ZM76.9057 21.1207C76.7388 21.1175 76.5687 21.1143 76.4018 21.1143L76.8929 22.3225L77.3101 21.1143C77.1752 21.1174 77.0405 21.1174 76.9056 21.1206L76.9057 21.1207ZM76.2221 21.2457L75.6797 22.5533C76.0231 22.5404 76.3633 22.534 76.7067 22.5309L76.2221 21.2457ZM74.8677 21.0598L75.5289 22.4828L76.0552 21.1079C75.6604 21.1014 75.2624 21.0822 74.8677 21.0597L74.8677 21.0598ZM74.765 21.0758L73.9915 22.6623C74.4569 22.6141 74.9255 22.5821 75.3909 22.5629L74.765 21.0758Z" fill="black"/>
<path d="M21.5683 73.6533C21.6279 74.4447 21.6584 75.2361 21.7003 76.0275C21.744 76.8189 21.7638 77.6103 21.7923 78.4017C21.8104 79.1931 21.8396 79.9845 21.8483 80.7759C21.8585 81.5673 21.8788 82.3588 21.8789 83.1501L21.6504 82.8511L23.8838 83.4529L23.7242 83.4505L25.9497 82.9236L25.715 83.2218C25.7343 81.7529 25.7612 80.2841 25.8077 78.8153C25.8358 78.0809 25.8565 77.3465 25.8981 76.6121C25.9365 75.8777 25.9668 75.1433 26.0222 74.4089C26.0776 75.1433 26.1078 75.8777 26.1462 76.6121C26.1879 77.3465 26.2086 78.0809 26.2366 78.8153C26.2832 80.2841 26.3101 81.7529 26.3294 83.2218C26.3303 83.2898 26.3082 83.3561 26.2666 83.41C26.225 83.4639 26.1664 83.5022 26.1003 83.5186L26.0946 83.5199L23.8748 84.0702C23.8222 84.083 23.7673 84.0822 23.7151 84.0678L21.4864 83.4493C21.4209 83.431 21.3631 83.392 21.3219 83.338C21.2806 83.284 21.2581 83.2181 21.2578 83.1502C21.258 82.3588 21.2783 81.5673 21.2884 80.776C21.2971 79.9845 21.3264 79.1931 21.3444 78.4017C21.373 77.6103 21.3927 76.8189 21.4365 76.0275C21.4784 75.2361 21.5089 74.4447 21.5683 73.6533Z" fill="black"/>
<path d="M23.796 74.373C23.9534 75.9376 23.99 77.5024 23.9972 79.0671C23.9923 80.6319 23.9571 82.1966 23.8003 83.7615C23.642 82.1968 23.6054 80.632 23.5991 79.0673C23.6048 77.5025 23.6401 75.9378 23.796 74.373Z" fill="black"/>
<path d="M1.17455 63.085C1.23747 63.8763 1.2681 64.6678 1.313 65.4592C1.35351 66.2506 1.38125 67.042 1.40538 67.8334C1.45138 69.4162 1.48287 70.999 1.48781 72.5818L1.25729 72.2802C2.00229 72.479 2.74744 72.677 3.48907 72.8878L3.33119 72.8855C4.07344 72.7114 4.8139 72.5304 5.55874 72.367L5.33323 72.6534C5.346 72.0184 5.34953 71.3835 5.36998 70.7485C5.38965 70.1135 5.4003 69.4786 5.42804 68.8436C5.45037 68.2087 5.47686 67.5737 5.51415 66.9387C5.54817 66.3038 5.57809 65.6688 5.62841 65.0338C5.67864 65.6688 5.70857 66.3038 5.74267 66.9387C5.77989 67.5737 5.80637 68.2087 5.8287 68.8436C5.85643 69.4786 5.8671 70.1135 5.88676 70.7485C5.90721 71.3835 5.91074 72.0184 5.92359 72.6534C5.92487 72.7176 5.90455 72.7805 5.86585 72.8318C5.82716 72.8832 5.77234 72.9201 5.71016 72.9367L5.69794 72.9399C4.96101 73.1355 4.21977 73.3135 3.48018 73.4985C3.43051 73.511 3.37847 73.5109 3.32888 73.498L3.32222 73.4962C2.57651 73.3002 1.83433 73.0915 1.09185 72.8836L1.0891 72.8828C1.02343 72.8643 0.965613 72.8249 0.924483 72.7706C0.883353 72.7162 0.861172 72.6499 0.861329 72.5818C0.866265 70.999 0.897759 69.4162 0.943753 67.8334C0.967888 67.042 0.995626 66.2505 1.03614 65.4592C1.08099 64.6678 1.11163 63.8763 1.17455 63.085Z" fill="black"/>
<path d="M3.40108 63.8037C3.55842 65.3684 3.59509 66.9331 3.60222 68.4978C3.59728 70.0626 3.5621 71.6273 3.40524 73.1921C3.24696 71.6275 3.21045 70.0627 3.2041 68.498C3.20982 66.9333 3.24516 65.3685 3.40108 63.8037Z" fill="black"/>
<path d="M54.2326 70.2658C54.2863 70.9693 54.3165 71.6728 54.3534 72.3764C54.3936 73.08 54.4162 73.7835 54.4424 74.4871C54.4894 75.8942 54.5174 77.3012 54.536 78.7084L54.3687 78.4377L56.3828 79.4312L56.1562 79.4088C56.9428 79.1854 57.735 78.9825 58.5241 78.7683L58.2954 79.0677C58.2957 78.2913 58.3147 77.5149 58.3256 76.7385C58.3341 75.9621 58.3631 75.1857 58.3814 74.4093C58.4095 73.6329 58.4302 72.8565 58.4736 72.0802C58.5159 71.3037 58.5464 70.5273 58.6063 69.751C58.6663 70.5273 58.6967 71.3038 58.739 72.0802C58.7824 72.8565 58.8031 73.633 58.8312 74.4093C58.8495 75.1857 58.8785 75.9621 58.8871 76.7385C58.8979 77.5149 58.917 78.2913 58.9172 79.0677C58.917 79.1357 58.8946 79.2018 58.8532 79.2558C58.8119 79.3099 58.7541 79.349 58.6884 79.3671C57.9002 79.5844 57.115 79.813 56.3242 80.021L56.3192 80.0224C56.2449 80.0419 56.166 80.0334 56.0975 79.9986L54.0965 78.9792L54.0912 78.9765C54.0419 78.9513 54.0006 78.9128 53.972 78.8655C53.9434 78.8181 53.9285 78.7637 53.9292 78.7084C53.9479 77.3012 53.9758 75.8942 54.0228 74.4871C54.049 73.7835 54.0716 73.08 54.1118 72.3764C54.1488 71.6728 54.179 70.9693 54.2326 70.2658Z" fill="black"/>
<path d="M56.4195 70.0068C56.5463 71.6278 56.5524 73.2465 56.5289 74.8647C56.4935 76.4826 56.4277 78.1001 56.2403 79.7152C56.1126 78.0943 56.1066 76.4755 56.1309 74.8573C56.1672 73.2395 56.2331 71.6221 56.4195 70.0068Z" fill="black"/>
<path d="M80.113 53.8692C79.7949 53.8509 79.4825 53.7768 79.19 53.6504C78.315 53.2968 77.5332 52.7468 76.9053 52.043C77.1971 52.1548 77.4807 52.287 77.754 52.4386C78.0275 52.5809 78.2893 52.7387 78.5531 52.892C78.8123 53.0534 79.0737 53.2081 79.3298 53.3745C79.5894 53.5361 79.8413 53.7062 80.113 53.8692Z" fill="black"/>
<path d="M14.5024 16.2325C14.7622 16.6583 15.0725 17.0511 15.4268 17.4024C15.0679 17.4147 14.7117 17.3376 14.3902 17.1779C14.1579 17.0584 13.9618 16.8792 13.8221 16.6588C13.6859 16.4353 13.6106 16.18 13.6039 15.9184C13.5973 15.5605 13.6812 15.2067 13.8477 14.8896C14.0097 15.3625 14.2296 15.8136 14.5024 16.2325Z" fill="black"/>
<path d="M15.6729 16.372C15.6793 16.7303 15.5942 17.0843 15.4257 17.4008C15.2638 16.9279 15.0439 16.4768 14.771 16.0579C14.5105 15.6327 14.2002 15.24 13.8467 14.8881C14.2049 14.8753 14.5605 14.9536 14.8802 15.1156C15.1124 15.2348 15.3094 15.4128 15.4514 15.6316C15.5905 15.854 15.667 16.1098 15.6729 16.372Z" fill="black"/>
<path d="M13.6451 19.2891C13.9049 19.7157 14.2165 20.1086 14.5727 20.459C14.2138 20.4718 13.8574 20.3946 13.5359 20.2346C13.3028 20.1151 13.1057 19.9359 12.9647 19.7154C12.8285 19.4919 12.7532 19.2366 12.7464 18.9751C12.7399 18.6171 12.8238 18.2633 12.9904 17.9463C13.1537 18.4186 13.3735 18.8695 13.6451 19.2891Z" fill="black"/>
<path d="M14.8164 19.4315C14.8226 19.7895 14.7388 20.1432 14.5725 20.4604C14.4078 19.9886 14.1881 19.5379 13.9178 19.1175C13.6561 18.6922 13.3447 18.2996 12.9902 17.9477C13.3485 17.9345 13.7042 18.0129 14.0237 18.1753C14.2582 18.2923 14.4561 18.4713 14.5959 18.6928C14.7357 18.9143 14.8119 19.1698 14.8164 19.4316L14.8164 19.4315Z" fill="black"/>
<path d="M12.6793 22.6544C12.94 23.0803 13.2514 23.4732 13.6068 23.8242C13.2475 23.8377 12.8907 23.7594 12.5702 23.5966C12.3366 23.4793 12.1392 23.301 11.999 23.0807C11.8627 22.8571 11.7874 22.6019 11.7807 22.3403C11.7738 21.9823 11.8577 21.6284 12.0246 21.3115C12.1879 21.7838 12.4077 22.2347 12.6793 22.6544Z" fill="black"/>
<path d="M13.8506 22.7926C13.8572 23.1516 13.7733 23.5065 13.6066 23.8247C13.4423 23.3522 13.2214 22.9013 12.9488 22.4817C12.6882 22.0566 12.3779 21.6639 12.0244 21.312C12.3827 21.2988 12.7384 21.3771 13.0578 21.5395C13.2902 21.6587 13.4871 21.8366 13.6291 22.0555C13.7678 22.2769 13.8443 22.5315 13.8506 22.7926Z" fill="black"/>
<path d="M12.2075 26.2371C12.4683 26.664 12.7797 27.0578 13.135 27.4102C12.7757 27.4237 12.4189 27.3454 12.0983 27.1826C11.8655 27.0638 11.6691 26.8843 11.5301 26.6631C11.3911 26.4419 11.3146 26.1873 11.3088 25.9262C11.3035 25.5684 11.3873 25.2149 11.5527 24.8975C11.7174 25.3682 11.9372 25.8179 12.2075 26.2371Z" fill="black"/>
<path d="M13.3789 26.3795C13.3871 26.7387 13.3031 27.094 13.1349 27.4116C12.7962 26.4694 12.2563 25.612 11.5527 24.8989C11.911 24.8857 12.2667 24.964 12.5862 25.1264C12.8198 25.2438 13.0172 25.4221 13.1574 25.6425C13.2979 25.863 13.3746 26.1181 13.3789 26.3795Z" fill="black"/>
<path d="M12.0661 28.427C12.4244 28.4149 12.78 28.493 13.1002 28.6542C13.3332 28.7731 13.5304 28.9516 13.6717 29.1716C13.8105 29.393 13.8869 29.6477 13.8929 29.9089C13.8997 30.2676 13.8152 30.6221 13.6472 30.9392C13.2882 30.9528 12.9316 30.8752 12.6109 30.7135C12.3778 30.5948 12.1812 30.4156 12.0416 30.1947C11.9044 29.9721 11.8288 29.7172 11.8226 29.4559C11.816 29.098 11.8997 28.7441 12.0661 28.427Z" fill="black"/>
<path d="M16.649 17.1745C16.2195 17.3769 15.8055 17.6104 15.4102 17.8732C15.4652 17.5326 15.5909 17.2073 15.7792 16.9181C15.9089 16.7225 16.0869 16.5635 16.296 16.4565C16.499 16.3572 16.7254 16.3151 16.9507 16.3348C17.282 16.3679 17.6078 16.4432 17.9199 16.5591L16.649 17.1745Z" fill="black"/>
<path d="M17.7402 17.6227C17.6053 17.8603 17.4027 18.0524 17.158 18.1746C16.9134 18.2967 16.6378 18.3434 16.3666 18.3085C16.0121 18.2591 15.6798 18.1076 15.4102 17.8727C15.6522 17.8509 15.8912 17.8025 16.1226 17.7284C16.3521 17.6553 16.5762 17.5664 16.7934 17.4624C17.011 17.3553 17.2183 17.2287 17.4128 17.0842C17.6123 16.941 17.7841 16.763 17.92 16.5586C17.9967 16.9232 17.9325 17.3034 17.7402 17.6227Z" fill="black"/>
<path d="M16.1482 20.0588C15.6186 20.2511 15.0795 20.4209 14.5371 20.6485C14.6927 20.3045 14.9127 19.9934 15.1854 19.7319C15.385 19.5442 15.6209 19.3991 15.8786 19.3056C16.123 19.2173 16.3834 19.1823 16.6424 19.2031C16.9998 19.2389 17.3539 19.3021 17.7016 19.3922C17.2049 19.6605 16.685 19.8836 16.1482 20.0588Z" fill="black"/>
<path d="M17.3389 20.5464C17.1289 20.802 16.854 20.9966 16.5429 21.1099C16.2319 21.2232 15.8961 21.2511 15.5705 21.1905C15.1796 21.1171 14.8197 20.9285 14.5371 20.6489C14.8297 20.6604 15.1227 20.6378 15.4101 20.5816C15.6971 20.5317 15.9795 20.4577 16.2541 20.3605C16.5324 20.2651 16.7994 20.1394 17.05 19.9855C17.3061 19.8352 17.5281 19.6333 17.7016 19.3926C17.7241 19.5995 17.7035 19.8088 17.6411 20.0074C17.5787 20.2059 17.4758 20.3894 17.3389 20.5464Z" fill="black"/>
<path d="M15.5447 22.5519C15.0152 22.7442 14.476 22.9141 13.9336 23.1416C14.0891 22.7967 14.3104 22.4854 14.5851 22.225C14.7831 22.0368 15.0181 21.8916 15.2752 21.7988C15.5195 21.7105 15.78 21.6755 16.039 21.6962C16.3963 21.7321 16.7504 21.7953 17.0981 21.8853C16.6014 22.1537 16.0815 22.3768 15.5447 22.5519Z" fill="black"/>
<path d="M16.7354 23.0405C16.5254 23.2961 16.2505 23.4907 15.9395 23.604C15.6284 23.7173 15.2926 23.7452 14.9671 23.6846C14.5762 23.6112 14.2162 23.4226 13.9336 23.143C14.2262 23.1545 14.5192 23.1319 14.8066 23.0757C15.0937 23.0258 15.376 22.9518 15.6507 22.8545C15.929 22.7592 16.1959 22.6334 16.4466 22.4796C16.7027 22.3293 16.9246 22.1274 17.0981 21.8867C17.1206 22.0936 17.1 22.3029 17.0376 22.5015C16.9752 22.7 16.8723 22.8835 16.7354 23.0405Z" fill="black"/>
<path d="M15.0381 25.6066C14.5022 25.8501 13.9406 26.0489 13.3789 26.2988C13.536 25.9454 13.7568 25.6238 14.0304 25.3502C14.2276 25.1512 14.4592 24.9894 14.7141 24.8727C14.9482 24.7694 15.1997 24.7107 15.4555 24.6996C15.7314 24.674 16.0138 24.7284 16.5113 24.6611C16.3134 24.8817 16.0803 25.068 15.8213 25.2124C15.5693 25.3609 15.3076 25.4926 15.0381 25.6066Z" fill="black"/>
<path d="M16.6044 25.0105C16.6081 25.1242 16.6006 25.238 16.5819 25.3502C16.5367 25.5573 16.4529 25.7541 16.3348 25.9303C16.1277 26.2399 15.8358 26.4836 15.4939 26.6321C15.1766 26.7723 14.8279 26.8265 14.4829 26.7892C14.0735 26.742 13.6882 26.5709 13.3789 26.2988C13.6872 26.2987 13.9944 26.261 14.2936 26.1867C14.5942 26.1187 14.8876 26.0221 15.1698 25.8982C15.4578 25.7755 15.7269 25.6126 15.9689 25.4143C16.2215 25.2234 16.4105 24.961 16.5113 24.6611C16.5355 24.7174 16.5559 24.7752 16.5724 24.8342C16.5864 24.8923 16.5971 24.9512 16.6044 25.0105Z" fill="black"/>
<path d="M13.3662 29.9503C13.3837 29.5976 13.461 29.2503 13.5949 28.9235C13.6827 28.7079 13.8145 28.513 13.9819 28.3512C14.1324 28.214 14.3137 28.1149 14.5105 28.0622C14.8212 28.0041 15.1215 27.9005 15.4019 27.7549C15.4485 27.7895 15.4929 27.8269 15.5347 27.8671C15.5723 27.9096 15.6074 27.9543 15.6397 28.0009C15.6942 28.094 15.7366 28.1937 15.766 28.2974C15.8135 28.4917 15.8174 28.6941 15.7775 28.8901C15.7132 29.2276 15.5406 29.535 15.2858 29.7659C15.0561 29.9778 14.7674 30.1151 14.4578 30.1596C14.0808 30.2113 13.6972 30.1378 13.3662 29.9503Z" fill="black"/>
<path d="M16.4697 14.2622C16.283 14.7748 16.1559 15.3071 16.091 15.8487C15.8581 15.5543 15.7035 15.206 15.6416 14.8359C15.5964 14.5557 15.6196 14.2688 15.709 13.9994C15.8021 13.7307 15.961 13.4894 16.1713 13.2976C16.4491 13.0457 16.7856 12.8672 17.1501 12.7783C16.8677 13.2456 16.6395 13.7435 16.4697 14.2622Z" fill="black"/>
<path d="M17.5318 14.6276C17.437 14.8953 17.2771 15.1354 17.0664 15.3263C16.7905 15.5797 16.4549 15.7594 16.0908 15.8486C16.3706 15.38 16.5988 14.8825 16.7712 14.3648C16.9576 13.8521 17.0846 13.3198 17.1499 12.7783C17.3836 13.0726 17.5392 13.4209 17.6025 13.7911C17.6482 14.0715 17.6239 14.3588 17.5318 14.6276Z" fill="black"/>
<path d="M12.0664 28.4277C12.4213 28.7794 12.7323 29.1725 12.9927 29.5987C13.2649 30.0175 13.4848 30.4679 13.6474 30.94C13.292 30.5889 12.9809 30.1957 12.7211 29.7691C12.4495 29.35 12.2297 28.8996 12.0664 28.4277Z" fill="white"/>
<path d="M13.3662 29.9483C13.757 29.5888 14.1588 29.2803 14.5253 28.9387C14.7109 28.7754 14.8827 28.5971 15.0392 28.4057C15.2019 28.2141 15.3252 27.9922 15.4019 27.7529C15.4468 28.026 15.3925 28.3061 15.2488 28.5427C15.117 28.7803 14.9458 28.9939 14.7425 29.1744C14.5455 29.3535 14.3293 29.5102 14.0977 29.6418C13.869 29.7766 13.6229 29.8798 13.3662 29.9483Z" fill="white"/>
<path d="M11.6671 32.3276C11.7185 32.427 11.7666 32.5295 11.8148 32.6288C11.8693 32.7442 11.9239 32.8564 11.9785 32.9718C12.0747 33.1737 12.171 33.3724 12.2641 33.5743C12.3475 33.3532 12.4342 33.1352 12.5176 32.9173C12.5689 32.7924 12.6203 32.6641 12.6717 32.5392C12.691 32.4847 12.7134 32.4334 12.7359 32.3789C12.3797 32.3693 12.0234 32.3532 11.6671 32.3276ZM13.0504 32.8629L12.967 32.6609C12.9381 32.7346 12.9092 32.8083 12.8803 32.882C12.7551 33.1994 12.6299 33.5166 12.4984 33.8307C12.8129 33.8179 13.1275 33.8083 13.442 33.8051L13.0504 32.8629ZM14.0678 32.3885C13.9137 32.3885 13.7596 32.3917 13.6024 32.3949C13.4676 32.3917 13.3328 32.3917 13.1948 32.3885L13.2301 32.4783L13.3617 32.834L13.6473 33.5936L13.9554 32.7763L14.0999 32.3885L14.0678 32.3885ZM14.3405 32.7378L14.2732 32.5487L14.2025 32.7507L13.8398 33.8083C14.1384 33.8115 14.4368 33.8179 14.7385 33.8307L14.3405 32.7378ZM14.4336 32.3821L14.546 32.7186L14.8829 33.7346L15.3548 32.6416L15.4863 32.334C15.1365 32.3565 14.7835 32.3725 14.4337 32.3821H14.4336ZM15.6821 32.6097L15.5826 32.3661L15.4799 32.6288L15.0081 33.8435C15.4125 33.866 15.8201 33.9013 16.2277 33.9589L15.6821 32.6097ZM11.6671 32.3276C11.7185 32.427 11.7666 32.5295 11.8148 32.6288C11.8693 32.7443 11.9239 32.8565 11.9784 32.9718C12.0747 33.1737 12.171 33.3724 12.264 33.5744C12.3475 33.3532 12.4342 33.1352 12.5176 32.9173C12.5689 32.7924 12.6203 32.6642 12.6716 32.5392C12.6909 32.4847 12.7134 32.4334 12.7358 32.3789C12.3797 32.3693 12.0234 32.3532 11.6671 32.3276L11.6671 32.3276ZM13.0503 32.8629L12.967 32.6609C12.938 32.7346 12.9092 32.8083 12.8803 32.882C12.7551 33.1994 12.6299 33.5166 12.4983 33.8307C12.8128 33.8179 13.1274 33.8083 13.442 33.8051L13.0503 32.8629ZM14.0678 32.3885C13.9136 32.3885 13.7596 32.3918 13.6024 32.3949C13.4676 32.3918 13.3328 32.3918 13.1948 32.3885L13.2301 32.4783L13.3617 32.834L13.6473 33.5936L13.9554 32.7763L14.0998 32.3885L14.0678 32.3885ZM14.3405 32.7378L14.2731 32.5487L14.2025 32.7507L13.8398 33.8083C14.1383 33.8115 14.4368 33.8179 14.7384 33.8307L14.3405 32.7378ZM14.4336 32.3821L14.546 32.7187L14.8829 33.7346L15.3547 32.6417L15.4863 32.334C15.1365 32.3565 14.7835 32.3725 14.4337 32.3821L14.4336 32.3821ZM15.6821 32.6097L15.5826 32.3661L15.4799 32.6289L15.0081 33.8435C15.4125 33.866 15.8201 33.9013 16.2277 33.9589L15.6821 32.6097ZM11.497 32.4686C11.4617 32.536 11.4232 32.6065 11.3879 32.6738L11.5708 32.6545C11.5452 32.5936 11.5228 32.5295 11.4971 32.4686L11.497 32.4686ZM11.6671 32.3276C11.7185 32.427 11.7665 32.5296 11.8148 32.6289C11.8693 32.7443 11.9239 32.8565 11.9784 32.9718C12.1582 32.9526 12.3378 32.9334 12.5176 32.9173C12.5689 32.7924 12.6203 32.6642 12.6716 32.5392C12.6909 32.4847 12.7134 32.4334 12.7358 32.3789C12.3797 32.3693 12.0234 32.3532 11.6671 32.3276L11.6671 32.3276ZM12.967 32.6609C12.938 32.7346 12.9092 32.8083 12.8803 32.882C12.9348 32.8756 12.9926 32.8692 13.0503 32.8629L12.967 32.6609ZM13.6024 32.3949C13.4676 32.3918 13.3328 32.3918 13.1948 32.3885L13.2301 32.4783C13.5093 32.4494 13.7885 32.4173 14.0678 32.3885C13.9137 32.3885 13.7597 32.3917 13.6025 32.3949L13.6024 32.3949ZM9.94043 27.6709L10.6529 32.2346C10.9225 32.1994 11.1921 32.1738 11.4585 32.1514C11.4708 32.1424 11.4851 32.1366 11.5002 32.1344C11.5153 32.1321 11.5307 32.1336 11.5451 32.1386L11.5516 32.145C12.0073 32.1129 12.4598 32.0904 12.9123 32.0808C12.9459 32.0713 12.9815 32.0713 13.0151 32.0808C13.2108 32.0777 13.4066 32.0744 13.6024 32.0744C14.4112 32.0777 15.2167 32.0969 16.0223 32.1738C16.1988 32.193 16.3785 32.2123 16.5551 32.2347L16.5743 32.1129L17.2643 27.6709L9.94043 27.6709ZM11.0734 31.9687C10.9487 31.9641 10.8307 31.9115 10.7441 31.8218C10.6576 31.7322 10.6092 31.6125 10.6092 31.4879C10.6092 31.3634 10.6576 31.2437 10.7441 31.154C10.8307 31.0644 10.9487 31.0118 11.0734 31.0072C11.198 31.0118 11.3159 31.0644 11.4025 31.1541C11.489 31.2437 11.5374 31.3634 11.5374 31.4879C11.5374 31.6124 11.489 31.7321 11.4025 31.8218C11.316 31.9114 11.198 31.9641 11.0734 31.9687L11.0734 31.9687ZM12.8065 31.9687C12.6818 31.9641 12.5638 31.9115 12.4773 31.8218C12.3907 31.7322 12.3423 31.6125 12.3423 31.4879C12.3423 31.3634 12.3907 31.2437 12.4773 31.154C12.5638 31.0644 12.6818 31.0118 12.8065 31.0072C12.9312 31.0117 13.0492 31.0643 13.1359 31.1539C13.2225 31.2436 13.2709 31.3633 13.2709 31.4879C13.2709 31.6125 13.2225 31.7322 13.1359 31.8219C13.0493 31.9116 12.9312 31.9642 12.8065 31.9687L12.8065 31.9687ZM14.4817 31.911C14.3571 31.9065 14.2391 31.8538 14.1525 31.7642C14.0659 31.6745 14.0176 31.5548 14.0176 31.4303C14.0176 31.3057 14.0659 31.186 14.1525 31.0964C14.2391 31.0067 14.3571 30.9541 14.4817 30.9495C14.6063 30.9541 14.7243 31.0068 14.8108 31.0964C14.8974 31.1861 14.9457 31.3057 14.9457 31.4302C14.9457 31.5548 14.8974 31.6744 14.8109 31.7641C14.7243 31.8537 14.6064 31.9064 14.4818 31.911L14.4817 31.911ZM16.1282 31.9687C16.0035 31.9641 15.8855 31.9115 15.799 31.8218C15.7124 31.7322 15.664 31.6125 15.664 31.4879C15.664 31.3634 15.7124 31.2437 15.799 31.154C15.8855 31.0644 16.0035 31.0118 16.1282 31.0072C16.2528 31.0118 16.3708 31.0644 16.4573 31.1541C16.5438 31.2437 16.5922 31.3634 16.5922 31.4879C16.5922 31.6124 16.5439 31.7321 16.4573 31.8218C16.3708 31.9114 16.2528 31.9641 16.1282 31.9687L16.1282 31.9687ZM15.6821 32.6097L15.5826 32.3661L15.4799 32.6288L15.0081 33.8435C15.4125 33.866 15.8201 33.9013 16.2277 33.9589L15.6821 32.6097ZM14.4336 32.3821L14.546 32.7186L14.8829 33.7346L15.3547 32.6416L15.4863 32.334C15.1365 32.3565 14.7835 32.3725 14.4337 32.3821H14.4336ZM14.3405 32.7378L14.2731 32.5487L14.2025 32.7507L13.8398 33.8083C14.1384 33.8115 14.4368 33.8179 14.7385 33.8307L14.3405 32.7378ZM14.0678 32.3885C13.9137 32.3885 13.7596 32.3917 13.6024 32.3949C13.4676 32.3917 13.3328 32.3917 13.1948 32.3885L13.2301 32.4783L13.3617 32.834L13.6473 33.5936L13.9554 32.7763L14.0998 32.3885L14.0678 32.3885ZM13.0503 32.8629L12.967 32.6609C12.9381 32.7346 12.9092 32.8083 12.8803 32.882C12.7551 33.1994 12.6299 33.5166 12.4983 33.8307C12.8129 33.8179 13.1274 33.8083 13.442 33.8051L13.0503 32.8629ZM11.6671 32.3276C11.7185 32.427 11.7666 32.5295 11.8148 32.6288C11.8693 32.7442 11.9239 32.8564 11.9785 32.9718C12.0747 33.1737 12.171 33.3724 12.2641 33.5743C12.3475 33.3532 12.4342 33.1352 12.5176 32.9173C12.5689 32.7924 12.6203 32.6641 12.6717 32.5392C12.6909 32.4847 12.7134 32.4334 12.7358 32.3789C12.3797 32.3693 12.0234 32.3532 11.6671 32.3276H11.6671ZM15.6821 32.6097L15.5826 32.3661L15.4799 32.6288L15.0081 33.8435C15.4125 33.866 15.8201 33.9012 16.2277 33.9589L15.6821 32.6097ZM14.4336 32.3821L14.546 32.7186L14.8829 33.7346L15.3548 32.6416L15.4863 32.334C15.1365 32.3565 14.7835 32.3725 14.4337 32.3821L14.4336 32.3821ZM14.3406 32.7378L14.2732 32.5487L14.2026 32.7506L13.8398 33.8083C14.1384 33.8115 14.4368 33.8179 14.7385 33.8306L14.3406 32.7378ZM14.0678 32.3884C13.9137 32.3884 13.7596 32.3917 13.6024 32.3949C13.4676 32.3917 13.3328 32.3917 13.1948 32.3884L13.2301 32.4783L13.3617 32.834L13.6473 33.5936L13.9554 32.7763L14.0999 32.3885L14.0678 32.3884ZM13.0504 32.8628L12.967 32.6609C12.9381 32.7346 12.9092 32.8083 12.8803 32.882C12.7551 33.1994 12.6299 33.5166 12.4984 33.8307C12.8129 33.8179 13.1275 33.8083 13.442 33.8051L13.0504 32.8628ZM11.6671 32.3276C11.7185 32.4269 11.7666 32.5295 11.8148 32.6288C11.8693 32.7442 11.924 32.8564 11.9785 32.9718C12.0747 33.1737 12.171 33.3724 12.2641 33.5743C12.3475 33.3532 12.4342 33.1352 12.5176 32.9173C12.569 32.7924 12.6204 32.6641 12.6717 32.5392C12.691 32.4847 12.7134 32.4334 12.7359 32.3789C12.3797 32.3693 12.0234 32.3532 11.6671 32.3276L11.6671 32.3276ZM14.0678 32.3884C13.7886 32.4173 13.5094 32.4494 13.2301 32.4783L13.3618 32.834C13.5575 32.8147 13.7565 32.7955 13.9555 32.7763L14.0999 32.3884H14.0678ZM14.2732 32.5487L14.2026 32.7506C14.2475 32.7474 14.2957 32.7442 14.3406 32.7378L14.2732 32.5487ZM14.4337 32.3821L14.546 32.7186L15.3548 32.6416L15.4864 32.334C15.1365 32.3565 14.7835 32.3725 14.4337 32.3821L14.4337 32.3821ZM15.5827 32.3661L15.4799 32.6288C15.5473 32.6225 15.6147 32.6161 15.6822 32.6097L15.5827 32.3661ZM15.6661 32.3212L15.7688 32.6032L16.2598 33.9589V33.9621C16.2685 33.9616 16.2772 33.9627 16.2855 33.9653L16.5102 32.5327L16.5551 32.2346C16.2567 32.2731 15.9613 32.2988 15.6661 32.3212L15.6661 32.3212ZM16.2567 33.9686C16.2567 33.9718 16.2567 33.9782 16.2502 33.9782C16.2468 33.9796 16.2429 33.9797 16.2394 33.9786C16.2359 33.9774 16.2329 33.975 16.231 33.9718C15.359 34.0789 14.481 34.1302 13.6025 34.1256C13.1885 34.1224 12.7744 34.1128 12.3604 34.0935C12.3399 34.1087 12.3157 34.1181 12.2903 34.1209C12.265 34.1238 12.2393 34.1198 12.216 34.1095C12.2024 34.1021 12.1895 34.0935 12.1774 34.0839C11.7602 34.0583 11.3398 34.023 10.9226 33.9653L11.1376 35.3434H16.0705L16.2855 33.9653C16.2758 33.9648 16.266 33.9659 16.2567 33.9685L16.2567 33.9686ZM12.1678 35.2216C12.0429 35.2175 11.9244 35.1651 11.8375 35.0754C11.7506 34.9857 11.702 34.8657 11.702 34.7409C11.702 34.6161 11.7506 34.4962 11.8375 34.4065C11.9244 34.3168 12.0429 34.2643 12.1678 34.2602C12.2927 34.2643 12.4111 34.3168 12.498 34.4065C12.585 34.4962 12.6335 34.6161 12.6335 34.7409C12.6335 34.8657 12.585 34.9857 12.498 35.0754C12.4111 35.1651 12.2927 35.2175 12.1678 35.2216ZM13.7853 35.2216C13.6604 35.2175 13.542 35.1651 13.4551 35.0754C13.3682 34.9857 13.3196 34.8657 13.3196 34.7409C13.3196 34.6161 13.3682 34.4962 13.4551 34.4065C13.542 34.3168 13.6604 34.2643 13.7853 34.2602C13.9103 34.2643 14.0287 34.3168 14.1156 34.4065C14.2025 34.4962 14.2511 34.6161 14.2511 34.7409C14.2511 34.8657 14.2025 34.9857 14.1156 35.0754C14.0287 35.1651 13.9103 35.2175 13.7853 35.2216ZM15.4029 35.164C15.278 35.1599 15.1595 35.1074 15.0726 35.0177C14.9857 34.928 14.9371 34.8081 14.9371 34.6832C14.9371 34.5584 14.9857 34.4385 15.0726 34.3488C15.1595 34.2591 15.278 34.2066 15.4029 34.2025C15.5278 34.2066 15.6462 34.2591 15.7331 34.3488C15.8201 34.4385 15.8686 34.5584 15.8686 34.6832C15.8686 34.808 15.8201 34.928 15.7332 35.0177C15.6463 35.1074 15.5278 35.1599 15.4029 35.164H15.4029ZM15.6821 32.6096L15.5826 32.3661L15.4799 32.6288L15.0081 33.8435C15.4125 33.8659 15.8201 33.9012 16.2277 33.9589L15.6821 32.6096ZM14.4336 32.3821L14.546 32.7186L14.8829 33.7346L15.3548 32.6416L15.4863 32.3339C15.1365 32.3565 14.7835 32.3725 14.4337 32.3821L14.4336 32.3821ZM14.3406 32.7378L14.2732 32.5487L14.2025 32.7506L13.8398 33.8083C14.1384 33.8115 14.4368 33.8179 14.7385 33.8306L14.3406 32.7378ZM14.0678 32.3884C13.9137 32.3884 13.7596 32.3917 13.6024 32.3948C13.4676 32.3917 13.3328 32.3917 13.1948 32.3884L13.2301 32.4783L13.3617 32.834L13.6473 33.5936L13.9554 32.7763L14.0999 32.3885L14.0678 32.3884ZM13.0504 32.8628L12.967 32.6609C12.9381 32.7346 12.9092 32.8083 12.8803 32.882C12.7551 33.1994 12.6299 33.5166 12.4984 33.8307C12.8129 33.8179 13.1275 33.8083 13.442 33.8051L13.0504 32.8628ZM11.6671 32.3276C11.7185 32.4269 11.7666 32.5295 11.8148 32.6288C11.8693 32.7442 11.924 32.8564 11.9785 32.9718C12.0747 33.1737 12.171 33.3724 12.2641 33.5743C12.3475 33.3532 12.4342 33.1352 12.5176 32.9173C12.569 32.7924 12.6204 32.6641 12.6717 32.5392C12.691 32.4847 12.7134 32.4334 12.7359 32.3789C12.3797 32.3693 12.0234 32.3532 11.6671 32.3276L11.6671 32.3276ZM11.7089 32.9974C11.664 32.8853 11.6158 32.7699 11.5709 32.6545C11.5452 32.5936 11.5228 32.5295 11.4971 32.4686C11.4617 32.5359 11.4233 32.6064 11.3879 32.6737C11.3237 32.7988 11.2564 32.9237 11.189 33.0487C11.0895 33.2378 10.9868 33.4269 10.8809 33.6159C10.8796 33.6172 10.8781 33.6181 10.8764 33.6186C10.8747 33.6192 10.8729 33.6194 10.8712 33.6192L10.9226 33.9653C11.3012 33.9108 11.6832 33.8788 12.0619 33.8531C11.9464 33.5679 11.8276 33.2826 11.7089 32.9974L11.7089 32.9974ZM11.9785 32.9718C12.0747 33.1737 12.171 33.3724 12.2641 33.5743C12.3475 33.3532 12.4342 33.1352 12.5176 32.9173C12.3379 32.9334 12.1582 32.9526 11.9785 32.9718L11.9785 32.9718ZM13.0504 32.8628C12.9926 32.8692 12.9349 32.8756 12.8804 32.882C12.7551 33.1994 12.6299 33.5166 12.4984 33.8307C12.8129 33.8179 13.1275 33.8083 13.442 33.8051L13.0504 32.8628ZM13.3618 32.834L13.6474 33.5936L13.9555 32.7763C13.7565 32.7955 13.5575 32.8147 13.3618 32.834L13.3618 32.834ZM14.3406 32.7378C14.2957 32.7442 14.2475 32.7474 14.2026 32.7506L13.8399 33.8083C14.1384 33.8115 14.4369 33.8179 14.7385 33.8306L14.3406 32.7378ZM14.546 32.7186L14.8829 33.7346L15.3548 32.6417L14.546 32.7186ZM15.6822 32.6097C15.6148 32.6161 15.5474 32.6225 15.4799 32.6288L15.0081 33.8435C15.4125 33.8659 15.8201 33.9012 16.2277 33.9589L15.6822 32.6097ZM10.6529 32.2346L10.7332 32.7442L10.7845 33.0904L10.8616 33.5743C10.929 33.4013 10.9964 33.2314 11.0638 33.0615C11.1119 32.9366 11.1633 32.8147 11.2146 32.693C11.2659 32.5648 11.3173 32.4366 11.3719 32.3083C11.1311 32.2892 10.8936 32.2635 10.6529 32.2346Z" fill="black"/>
<path d="M14.0491 31.506C13.7813 31.2655 13.5829 30.9576 13.4747 30.6144C13.4243 30.4433 13.3588 30.2738 13.3204 30.0989L13.2118 29.5716C13.1232 28.8614 13.0961 28.145 13.1309 27.4302C13.1435 26.7142 13.2507 26.0088 13.3338 25.3004C13.4637 24.601 13.5639 23.8937 13.7339 23.2033C13.8934 22.5102 14.053 21.8172 14.2546 21.1359C14.4488 20.4526 14.6354 19.7674 14.8748 19.0985C15.1062 18.4275 15.3139 17.7491 15.5713 17.0878C15.8318 16.4275 16.079 15.7633 16.3503 15.1084C15.9728 16.4766 15.5357 17.8217 15.1681 19.187L14.8822 20.2073L14.619 21.2329C14.534 21.5752 14.4313 21.9134 14.355 22.2575L14.1227 23.2889C13.9463 23.9725 13.8469 24.6694 13.7052 25.3594C13.6011 26.0541 13.4917 26.7494 13.4354 27.4489C13.3662 28.1467 13.3558 28.849 13.4045 29.5486L13.4669 30.0692C13.49 30.2427 13.5395 30.41 13.5746 30.5821C13.6547 30.9242 13.8177 31.2415 14.0491 31.506Z" fill="black"/>
<path d="M10.8689 33.6104L10.8624 33.5752L10.8528 33.604C10.8496 33.6104 10.8528 33.6168 10.8592 33.6232C10.8656 33.6264 10.8689 33.6232 10.872 33.62L10.8689 33.6104Z" fill="#FCFCFC"/>
<path d="M22.2261 34.2275C23.2786 33.9381 24.3464 33.7072 25.4244 33.5358C26.5002 33.3501 27.5855 33.2246 28.6753 33.1602C27.623 33.4502 26.5552 33.6811 25.4769 33.8519C24.4011 34.0369 23.3158 34.1623 22.2261 34.2275Z" fill="black"/>
<path d="M34.9648 34.0888C36.0173 33.7994 37.0851 33.5685 38.1632 33.3971C39.2389 33.2114 40.3242 33.0859 41.414 33.0215C40.3617 33.3115 39.2939 33.5424 38.2156 33.7131C37.1398 33.8982 36.0546 34.0236 34.9648 34.0888Z" fill="black"/>
<path d="M48.0273 31.8241C49.0799 31.5348 50.1476 31.3039 51.2257 31.1325C52.3014 30.9467 53.3867 30.8213 54.4765 30.7568C53.4242 31.0469 52.3564 31.2778 51.2781 31.4485C50.2023 31.6335 49.1171 31.7589 48.0273 31.8241Z" fill="black"/>
<path d="M102.576 52.0777C101.906 51.6237 101.316 51.062 100.829 50.4154C100.33 49.7815 99.8804 49.1103 99.4838 48.4079C99.0849 47.7079 98.7244 46.9876 98.392 46.2551C98.0594 45.5209 97.7491 44.7836 97.4722 44.0179L97.7772 44.2081C96.1684 44.4161 94.5336 44.2748 92.9845 43.7939C92.215 43.5688 91.4628 43.2887 90.7335 42.9559C90.0039 42.6323 89.2937 42.267 88.6062 41.8618C87.2358 41.0571 85.9328 40.1429 84.71 39.1282C83.4875 38.1192 82.3312 37.0328 81.2485 35.8756L81.2432 35.87C81.2049 35.8285 81.184 35.774 81.1846 35.7176C81.1852 35.6612 81.2073 35.6072 81.2465 35.5666C81.7139 35.0838 82.1977 34.6353 82.6993 34.1988C83.1982 33.7611 83.7249 33.3552 84.2627 32.9651C84.8003 32.5702 85.3727 32.2249 85.9729 31.9333C86.5732 31.614 87.2368 31.4312 87.9162 31.3981C87.9294 31.3981 87.9426 31.4002 87.9551 31.4044C88.5926 31.6248 89.2354 31.8291 89.8753 32.0421L91.7971 32.675C93.0764 33.1028 94.3642 33.5052 95.6495 33.9152L95.4022 34.0493L97.0878 27.0021C97.6563 24.6547 98.2352 22.31 98.8247 19.968L98.8171 20.005C98.8582 19.8038 98.9215 19.6078 99.0058 19.4205C99.0791 19.2456 99.166 19.0825 99.2526 18.9188C99.4332 18.6031 99.6355 18.3002 99.8579 18.0123C100.295 17.4472 100.782 16.9224 101.313 16.4444C102.361 15.5025 103.5 14.6677 104.715 13.9524C105.322 13.588 105.952 13.2616 106.599 12.975C107.25 12.6942 107.917 12.4534 108.597 12.254C109.958 11.8515 111.368 11.642 112.787 11.6317C114.204 11.6169 115.616 11.8057 116.979 12.1923C117.662 12.387 118.326 12.6409 118.965 12.9511C119.123 13.0335 119.276 13.1248 119.432 13.2113L119.664 13.3428L119.885 13.494C120.032 13.5961 120.181 13.693 120.324 13.7995L120.736 14.1432C121.811 15.0896 122.575 16.3385 122.927 17.7262C123.232 19.0912 123.271 20.5022 123.041 21.882C123.04 21.8871 123.039 21.8921 123.036 21.8966C123.033 21.9011 123.03 21.905 123.026 21.9081C123.021 21.9112 123.017 21.9134 123.011 21.9147C123.006 21.916 123.001 21.9162 122.996 21.9154C122.986 21.9138 122.977 21.9085 122.971 21.9006C122.964 21.8927 122.961 21.8828 122.962 21.8727C123.096 20.5099 122.977 19.1342 122.611 17.8145C122.219 16.5254 121.453 15.3818 120.408 14.5294L120.012 14.2246C119.874 14.1308 119.73 14.046 119.589 13.9563L119.378 13.8233L119.154 13.7092C119.005 13.6341 118.858 13.5543 118.707 13.483C118.094 13.2072 117.459 12.9836 116.809 12.8147C115.501 12.4789 114.152 12.3328 112.803 12.3807C112.13 12.4013 111.459 12.4694 110.796 12.5845C110.132 12.6926 109.475 12.8454 108.832 13.0417C108.188 13.2387 107.557 13.4747 106.943 13.7484C106.33 14.0269 105.733 14.3381 105.154 14.6807C103.988 15.3706 102.889 16.1657 101.869 17.0559C101.367 17.4948 100.905 17.9778 100.49 18.4992C100.286 18.7546 100.101 19.0236 99.9344 19.3044C99.8581 19.4448 99.7804 19.585 99.7184 19.7278C99.6597 19.8547 99.6124 19.9866 99.5771 20.1218L99.5695 20.159C98.9554 22.4947 98.3314 24.8279 97.6975 27.1584L95.7743 34.1447L95.7726 34.1508C95.766 34.1747 95.7548 34.1971 95.7395 34.2167C95.7243 34.2363 95.7053 34.2527 95.6837 34.265C95.662 34.2773 95.6382 34.2852 95.6135 34.2882C95.5888 34.2913 95.5638 34.2895 95.5398 34.2829L95.5269 34.2789C94.2549 33.8297 92.9854 33.3729 91.7073 32.9415L89.7933 32.2856C89.1545 32.0691 88.5188 31.8438 87.8776 31.6345L87.9162 31.6408C87.2752 31.6799 86.6507 31.8592 86.0869 32.1661C85.5077 32.4625 84.9575 32.8124 84.4436 33.2111C83.9232 33.6055 83.4252 34.0285 82.952 34.4783C82.4779 34.9254 82.014 35.3924 81.5844 35.8734L81.5825 35.5644C82.6922 36.6591 83.8704 37.6822 85.1102 38.6275C86.3373 39.5825 87.6252 40.4569 88.9658 41.2454C89.6363 41.6343 90.3193 41.9999 91.0224 42.3198C91.7202 42.6469 92.4407 42.9235 93.1783 43.1473C94.6345 43.6269 96.1746 43.7988 97.7009 43.6522L97.712 43.6511C97.7755 43.6443 97.8394 43.6597 97.893 43.6945C97.9465 43.7294 97.9864 43.7816 98.0058 43.8424C98.2443 44.5883 98.5256 45.3358 98.825 46.068C99.1252 46.8017 99.4536 47.5242 99.8195 48.2264C100.169 48.9368 100.572 49.62 101.023 50.2704C101.466 50.9275 102.004 51.5145 102.621 52.0119C102.63 52.0181 102.635 52.0274 102.637 52.0379C102.639 52.0483 102.636 52.059 102.63 52.0675C102.624 52.0755 102.615 52.081 102.605 52.0829C102.595 52.0847 102.585 52.0829 102.576 52.0777Z" fill="black"/>
</svg>
