<svg width="108" height="90" viewBox="0 0 108 90" fill="none" xmlns="http://www.w3.org/2000/svg">
<path d="M33.4809 70.914C33.4692 70.914 33.4576 70.9118 33.4467 70.9073C33.4359 70.9028 33.426 70.8963 33.4178 70.888C33.4095 70.8798 33.4029 70.87 33.3984 70.8592C33.3939 70.8484 33.3916 70.8368 33.3916 70.8251V62.3963C33.392 62.3729 33.4015 62.3506 33.4182 62.3342C33.4349 62.3178 33.4574 62.3086 33.4809 62.3086C33.5043 62.3086 33.5268 62.3178 33.5435 62.3342C33.5602 62.3506 33.5698 62.3729 33.5701 62.3963V70.8251C33.5701 70.8368 33.5678 70.8484 33.5633 70.8592C33.5589 70.87 33.5523 70.8798 33.544 70.888C33.5357 70.8963 33.5259 70.9028 33.515 70.9073C33.5042 70.9117 33.4926 70.914 33.4809 70.914Z" fill="black"/>
<path d="M42.3765 55.7113C42.1844 56.0371 41.9582 56.3416 41.7017 56.6198C41.4556 56.9065 41.1856 57.1698 40.9204 57.4384C40.3735 57.9574 39.8119 58.4627 39.2212 58.9324C38.0429 59.8781 36.7943 60.7331 35.4862 61.4901C34.1793 62.2575 32.7981 62.8911 31.3636 63.3814C30.6437 63.6259 29.9068 63.8173 29.1588 63.9543C28.78 63.9997 28.4025 64.0736 28.0222 64.0947C27.6415 64.1055 27.2603 64.1229 26.8795 64.1278C25.3614 64.0767 23.853 63.8636 22.3804 63.4919C20.9103 63.137 19.4632 62.6934 18.0471 62.1635C16.6297 61.6436 15.2379 61.0594 13.853 60.4692C13.5067 60.3235 13.1595 60.1748 12.8106 60.0477C12.6399 59.9879 12.4559 59.9256 12.2732 59.8502C12.1886 59.8009 12.0999 59.7578 12.0192 59.7028C11.9399 59.6457 11.864 59.5839 11.7922 59.5177C11.5172 59.2431 11.3107 58.9079 11.1894 58.5391C11.066 58.1758 10.9978 57.7961 10.987 57.4126L10.988 57.4237C10.0806 52.461 8.91553 47.5486 7.49756 42.7064C6.80746 40.2809 6.03664 37.8792 5.24465 35.486C4.45121 33.093 3.60538 30.7183 2.70718 28.362C2.25396 27.186 1.79991 26.0103 1.32392 24.8436C1.09357 24.2585 0.823438 23.6898 0.624106 23.0704C0.426544 22.4566 0.297455 21.8228 0.239182 21.1807C0.206552 20.8554 0.197321 20.5281 0.211558 20.2015C0.247706 19.8479 0.394035 19.5144 0.629966 19.2481C0.865897 18.9817 1.17956 18.7959 1.52687 18.7166C1.8422 18.6378 2.1635 18.5849 2.48751 18.5586C3.14228 18.5149 3.79912 18.6047 4.41797 18.8225L6.21994 19.4125L13.4281 21.7724C13.7366 21.8607 14.0376 21.9732 14.3283 22.1088C14.6192 22.255 14.8858 22.4449 15.1189 22.6718C15.59 23.125 15.8975 23.7211 15.9934 24.3671L16.5282 28.1146C16.5288 28.1192 16.5276 28.1239 16.5248 28.1276C16.522 28.1313 16.5179 28.1338 16.5133 28.1345C16.5086 28.1352 16.5039 28.1341 16.5001 28.1314C16.4964 28.1287 16.4938 28.1246 16.493 28.12L15.8633 24.3884C15.755 23.7784 15.4523 23.2195 15 22.795C14.777 22.5836 14.5227 22.4076 14.246 22.2733C13.962 22.1458 13.6684 22.041 13.3679 21.9597L6.1284 19.6975L4.3185 19.132C3.73861 18.9353 3.12451 18.8592 2.51402 18.9083C2.2081 18.9382 1.90481 18.9906 1.60662 19.065C1.3331 19.1281 1.08625 19.2751 0.900752 19.4854C0.715251 19.6956 0.600401 19.9585 0.572329 20.2372C0.561715 20.5409 0.571756 20.845 0.602382 21.1473C0.659641 21.7627 0.784773 22.3698 0.975507 22.9577C1.16346 23.5403 1.43629 24.115 1.6697 24.7028C2.14895 25.8722 2.61062 27.0482 3.0547 28.231C4.83065 32.9617 6.38645 37.7658 7.7221 42.6434C8.3893 45.0786 9.01173 47.526 9.56357 49.9894C10.1462 52.4458 10.6245 54.9247 11.1107 57.4014L11.1115 57.4078L11.1117 57.4126C11.1093 58.154 11.3865 58.8692 11.8883 59.416C11.9552 59.4767 12.0257 59.5334 12.0993 59.5858C12.1738 59.6364 12.2569 59.6735 12.335 59.7183C12.5011 59.7829 12.6752 59.8398 12.8609 59.9007C13.2217 60.0251 13.5697 60.1675 13.9198 60.3077C15.316 60.8745 16.7126 61.4327 18.1321 61.9272C19.5485 62.4246 20.9898 62.8483 22.4501 63.1965C23.9043 63.5495 25.3901 63.757 26.8855 63.8158C27.2576 63.8132 27.6295 63.7984 28.0018 63.7906C28.373 63.7726 28.7385 63.7025 29.1075 63.6613C29.8423 63.5316 30.5666 63.3483 31.2746 63.113C32.6939 62.633 34.065 62.0214 35.37 61.2864C36.6803 60.5533 37.9348 59.7252 39.1234 58.8088C39.7236 58.3575 40.2955 57.8703 40.8538 57.3683C41.1245 57.1087 41.4005 56.8535 41.6525 56.5757C41.9137 56.3073 42.1458 56.0121 42.3447 55.695L42.3459 55.6932C42.3483 55.6891 42.3522 55.6862 42.3568 55.685C42.3614 55.6839 42.3662 55.6846 42.3703 55.687C42.3743 55.6894 42.3773 55.6933 42.3784 55.6979C42.3796 55.7024 42.3789 55.7073 42.3765 55.7113L42.3765 55.7113Z" fill="black"/>
<path d="M1.67519 20.3448L4.40929 21.3022L7.13659 22.2776L9.86062 23.262L12.5798 24.2592C12.6029 24.2676 12.6235 24.2816 12.6398 24.3C12.6562 24.3183 12.6677 24.3403 12.6735 24.3642L12.674 24.3668C13.2178 26.6877 13.7404 29.0134 14.2417 31.3439C14.7476 33.6734 15.2327 36.0076 15.7584 38.3326C16.7935 42.9863 17.9242 47.6184 19.0166 52.2591C19.2774 53.4044 19.7534 54.4901 20.4197 55.4584C21.0847 56.4218 21.9547 57.227 22.9675 57.8163C23.9834 58.3929 25.1289 58.7039 26.2976 58.7206C26.8876 58.7167 27.477 58.6823 28.0635 58.6174C28.654 58.5541 29.2442 58.4881 29.8289 58.3911C31 58.2128 32.1519 57.9261 33.2697 57.5348C34.3848 57.1272 35.4679 56.6372 36.5099 56.0689C37.5609 55.5112 38.5871 54.9028 39.6038 54.279C40.6255 53.6629 41.6377 53.0297 42.6509 52.3983C42.6548 52.3958 42.6596 52.3949 42.6642 52.3959C42.6688 52.3969 42.6728 52.3997 42.6754 52.4036C42.6779 52.4075 42.6788 52.4123 42.6779 52.4169C42.677 52.4215 42.6743 52.4255 42.6704 52.4281C40.6895 53.7604 38.7183 55.1112 36.6304 56.2882C35.5879 56.8856 34.4998 57.4 33.3762 57.8266C32.2456 58.2447 31.0769 58.552 29.8867 58.7444C29.2931 58.8447 28.6963 58.9134 28.0995 58.9793C27.4989 59.0476 26.8952 59.0846 26.2907 59.09C25.0584 59.0801 23.8495 58.7523 22.7817 58.1383C21.7394 57.5017 20.8406 56.6566 20.142 55.6561C19.4434 54.6557 18.9602 53.5217 18.7228 52.3256C17.7011 47.6688 16.7176 43.0035 15.6386 38.3597C15.1072 36.036 14.5352 33.7215 13.984 31.4023C13.4307 29.0835 12.8962 26.7605 12.3804 24.4333L12.4746 24.5407L9.76468 23.5187L7.05953 22.4838L4.35777 21.44L1.66268 20.3781C1.65832 20.3764 1.65482 20.3731 1.65291 20.3688C1.65101 20.3646 1.65086 20.3597 1.6525 20.3553C1.65413 20.351 1.65743 20.3474 1.66167 20.3454C1.66591 20.3434 1.67076 20.3432 1.67517 20.3448L1.67519 20.3448Z" fill="black"/>
<path d="M33.2548 6.60065C32.5059 6.14694 32.317 4.7799 32.8944 3.8649C33.6226 2.71104 34.4364 4.80509 34.4364 4.80509C35.7643 6.77092 38.4628 1.51444 38.4628 1.51444C38.4628 1.51444 36.3211 -1.1779 31.4381 0.616996C26.555 2.41189 29.8961 8.52309 29.8961 8.52309C29.8961 8.52309 24.7989 10.9163 26.5122 17.2839C26.5122 17.2839 31.067 16.2264 30.7955 8.64194C30.7955 8.64194 32.7016 7.89274 33.2547 6.60065" fill="black"/>
<path d="M33.7892 6.73728C33.5169 6.8044 33.2291 6.76325 32.9866 6.62254C32.9765 6.61641 32.9677 6.60837 32.9607 6.59885C32.9537 6.58934 32.9487 6.57855 32.9459 6.56709C32.9431 6.55564 32.9426 6.54375 32.9444 6.5321C32.9462 6.52045 32.9503 6.50927 32.9565 6.49919C32.9626 6.48912 32.9707 6.48035 32.9802 6.47338C32.9897 6.46642 33.0005 6.4614 33.012 6.45861C33.0235 6.45582 33.0354 6.45531 33.0471 6.45711C33.0588 6.45891 33.07 6.463 33.0801 6.46912C33.0866 6.47323 33.0926 6.47803 33.098 6.48342C33.2872 6.65335 33.5347 6.74423 33.7892 6.73728Z" fill="black"/>
<path d="M38.3246 1.79064C38.6155 2.25506 38.843 2.75609 39.0012 3.28049C39.1707 3.81185 39.2346 4.3711 39.1894 4.92688L39.1552 4.8259C39.3181 4.9967 39.4769 5.17134 39.6338 5.34789L40.1038 5.88732C40.145 5.9418 40.1746 6.0041 40.1908 6.0704C40.207 6.13669 40.2095 6.20559 40.1981 6.27287C40.1867 6.34016 40.1617 6.40442 40.1246 6.46172C40.0874 6.51903 40.039 6.56817 39.9821 6.60614C39.8856 6.67991 39.7824 6.74457 39.6738 6.79929C39.6178 6.83422 39.5547 6.8562 39.4891 6.86364C39.4235 6.87107 39.3571 6.86377 39.2947 6.84226L39.3568 6.8049C39.3498 7.57391 39.2688 8.34046 39.1151 9.09404C39.0346 9.48731 38.8674 9.85777 38.6255 10.1785C38.4839 10.3539 38.2842 10.4731 38.0622 10.5146C37.9506 10.5274 37.8377 10.5229 37.7274 10.5011L37.4525 10.4539C37.0947 10.3899 36.7282 10.39 36.3703 10.4543C36.0185 10.5271 35.693 10.6935 35.4281 10.9358C34.912 11.4821 34.5137 12.1283 34.2579 12.8344C34.2565 12.8379 34.2538 12.8407 34.2503 12.8423C34.2469 12.8438 34.243 12.8439 34.2394 12.8425C34.2362 12.8412 34.2336 12.8387 34.232 12.8356C34.2305 12.8325 34.2301 12.8289 34.2309 12.8255C34.3232 12.4519 34.4504 12.0878 34.6108 11.7379C34.7681 11.3768 34.9878 11.046 35.2599 10.7608C35.5441 10.4668 35.9075 10.2609 36.3062 10.1681C36.6996 10.0851 37.1057 10.0811 37.5007 10.1566L37.7887 10.215C37.8655 10.2326 37.9446 10.2388 38.0232 10.2334C38.1806 10.2063 38.3232 10.1242 38.4255 10.0018C38.6504 9.71613 38.8145 9.38771 38.9079 9.0366C39.1274 8.31155 39.2496 7.56068 39.2713 6.80359C39.2718 6.79212 39.2767 6.78129 39.2852 6.77348C39.2936 6.76567 39.3048 6.76152 39.3163 6.76194C39.3222 6.76225 39.3281 6.76369 39.3335 6.76619C39.384 6.77985 39.4368 6.78254 39.4884 6.77409C39.54 6.76565 39.5892 6.74626 39.6327 6.71724C39.7335 6.6622 39.8282 6.59652 39.9149 6.52134C39.9554 6.49171 39.9893 6.45402 40.0145 6.41065C40.0396 6.36729 40.0555 6.31918 40.061 6.26939C40.0666 6.2196 40.0618 6.16919 40.0468 6.12137C40.0318 6.07354 40.0071 6.02933 39.9741 5.99153L39.4698 5.50344C39.301 5.33832 39.134 5.17133 38.9712 5.00046C38.959 4.98773 38.9497 4.97259 38.9437 4.95604C38.9377 4.93948 38.9353 4.92186 38.9366 4.90431L38.937 4.89943C38.9596 4.63883 38.9589 4.37673 38.935 4.11624C38.9076 3.85259 38.864 3.59086 38.8045 3.33254C38.6798 2.80983 38.5109 2.2986 38.2997 1.80432C38.2989 1.80264 38.2984 1.80081 38.2983 1.79894C38.2983 1.79707 38.2985 1.79521 38.2991 1.79344C38.2998 1.79168 38.3007 1.79006 38.302 1.78867C38.3032 1.78728 38.3048 1.78615 38.3065 1.78535C38.3096 1.78402 38.3132 1.78382 38.3165 1.78478C38.3198 1.78574 38.3226 1.78781 38.3246 1.79064Z" fill="black"/>
<path d="M37.5527 3.8868C37.7139 3.72467 37.9296 3.62794 38.1581 3.61532C38.3837 3.59355 38.6104 3.64371 38.8056 3.75859C38.5803 3.7758 38.3776 3.77431 38.1735 3.79262C37.9648 3.81094 37.7574 3.84239 37.5527 3.8868Z" fill="black"/>
<path d="M38.0984 4.98732C38.1678 4.98492 38.2336 4.95573 38.2818 4.9059C38.3301 4.85607 38.357 4.7895 38.357 4.72022C38.357 4.65094 38.3301 4.58437 38.2818 4.53454C38.2336 4.48471 38.1678 4.45552 38.0984 4.45312C38.029 4.45552 37.9633 4.48471 37.9151 4.53454C37.8668 4.58437 37.8398 4.65094 37.8398 4.72022C37.8398 4.7895 37.8668 4.85607 37.9151 4.9059C37.9633 4.95573 38.029 4.98492 38.0984 4.98732Z" fill="black"/>
<path d="M34.6289 8.05469C34.8786 8.3574 35.1058 8.66354 35.3486 8.95722C35.5871 9.25595 35.8515 9.5331 36.1388 9.78545C35.772 9.63229 35.4519 9.3856 35.2107 9.07012C34.9595 8.76771 34.7626 8.42415 34.6289 8.05469Z" fill="black"/>
<path d="M16.3027 26.9586C16.48 26.137 16.6954 25.3394 16.9279 24.5384C17.1632 23.7403 17.4091 22.9439 17.6936 22.1607C18.2468 20.5848 18.908 19.0487 19.6725 17.5633C20.0623 16.8204 20.4931 16.0996 20.9629 15.4043C21.4293 14.6999 21.9573 14.0381 22.5408 13.4267C23.1246 12.7999 23.7983 12.263 24.54 11.8334C25.2967 11.3976 26.1441 11.1423 27.0161 11.0873L27.0184 11.0872C27.0332 11.0865 27.0481 11.0872 27.0628 11.0892C27.9063 11.2119 28.7421 11.3568 29.5765 11.521C30.4108 11.6833 31.2429 11.859 32.0699 12.0629C32.908 12.2488 33.7268 12.5129 34.5153 12.8517C34.906 13.0451 35.2604 13.2496 35.6453 13.4327L36.7925 13.9803C37.1797 14.163 37.5544 14.3708 37.9143 14.6024C38.2843 14.834 38.6043 15.1367 38.8556 15.4931C39.3493 16.1664 39.9291 16.7923 40.4839 17.4275C41.6063 18.6927 42.7505 19.9389 43.9163 21.1662C43.936 21.187 43.9484 21.2134 43.9519 21.2417C43.9553 21.2701 43.9496 21.2987 43.9355 21.3236L43.9344 21.3255C43.5021 22.0853 43.0355 22.8173 42.5455 23.5381C42.0546 24.2574 41.5334 24.9577 40.9743 25.6304C40.4138 26.3079 39.7989 26.9388 39.1358 27.5167C38.4647 28.1235 37.6763 28.5869 36.819 28.8785L36.9333 28.8108C36.3137 29.4392 35.68 30.0426 35.0118 30.6212C34.677 30.9093 34.3344 31.1903 33.968 31.4521C33.7822 31.587 33.5885 31.7105 33.3877 31.822C33.1561 31.9664 32.8905 32.0476 32.6175 32.0575L32.9175 31.7095C33.0595 32.3312 33.2072 32.954 33.3619 33.5724L33.6008 34.4959C33.6411 34.649 33.6838 34.8011 33.7282 34.9497C33.767 35.0875 33.8137 35.223 33.8681 35.3556L33.8746 35.3699C33.8905 35.4055 33.8992 35.4439 33.9003 35.4828C33.9014 35.5218 33.8947 35.5606 33.8807 35.597C33.8668 35.6334 33.8458 35.6667 33.8189 35.695C33.792 35.7233 33.7598 35.746 33.7242 35.7619C33.6945 35.775 33.663 35.7832 33.6307 35.7863C31.6408 35.9728 29.6541 36.1001 27.6591 36.1695C25.6606 36.2508 23.659 36.205 21.6663 36.0323C21.1669 35.9803 20.6675 35.9175 20.1703 35.8221C19.6649 35.7359 19.1704 35.5956 18.6951 35.4037C18.4459 35.3021 18.2131 35.1642 18.0044 34.9944C17.8939 34.9 17.7997 34.7883 17.7252 34.6636C17.654 34.538 17.6147 34.4283 17.558 34.31C17.3574 33.8463 17.1933 33.3678 17.0673 32.8787C16.8194 31.9113 16.6397 30.9278 16.5295 29.9353C16.4134 28.9451 16.3366 27.9598 16.3027 26.9586ZM16.3593 26.9639C16.5069 28.935 16.8444 30.8873 17.3669 32.7939C17.5035 33.2619 17.6765 33.7185 17.8843 34.1596C17.9378 34.2632 17.9895 34.386 18.0442 34.4738C18.1006 34.5604 18.1706 34.6375 18.2514 34.702C18.4342 34.8391 18.636 34.9489 18.8506 35.028C19.7758 35.331 20.7371 35.5104 21.7095 35.5617C23.6836 35.6853 25.6632 35.6973 27.6386 35.5976C29.6179 35.5205 31.6011 35.3848 33.5698 35.192L33.3325 35.6228C33.2613 35.4605 33.2013 35.2935 33.153 35.1231C33.1049 34.965 33.0606 34.8087 33.0186 34.6523C32.9321 34.3398 32.8578 34.0265 32.7823 33.7136C32.633 33.0873 32.492 32.4618 32.3556 31.8329C32.3476 31.7959 32.347 31.7578 32.3537 31.7206C32.3605 31.6834 32.3745 31.6479 32.395 31.6162C32.4155 31.5844 32.4421 31.557 32.4733 31.5355C32.5044 31.514 32.5395 31.4988 32.5765 31.4908C32.6025 31.4853 32.6291 31.4833 32.6557 31.4848C32.8198 31.4645 32.9776 31.4093 33.1184 31.323C33.3003 31.2242 33.4761 31.1147 33.6448 30.9948C33.9913 30.7531 34.3275 30.4842 34.6569 30.2068C35.3142 29.6504 35.9518 29.0566 36.5637 28.4495L36.5658 28.4475C36.5971 28.4166 36.6358 28.394 36.6781 28.3817C37.4708 28.1198 38.2034 27.7032 38.8332 27.1561C39.4876 26.606 40.0971 26.0048 40.6559 25.3583C41.2238 24.7145 41.7586 24.0385 42.265 23.3413C42.771 22.6446 43.2547 21.926 43.6977 21.191L43.7158 21.3501C42.5901 20.0845 41.4603 18.824 40.3434 17.5506C39.789 16.9083 39.2312 16.2772 38.7084 15.5971C38.2335 14.9176 37.4513 14.5352 36.7002 14.1711C35.9394 13.8159 35.1508 13.4672 34.399 13.0954C33.6195 12.7909 32.8132 12.5595 31.9906 12.4041C30.3424 12.0486 28.6642 11.8094 26.9961 11.5637L27.0426 11.5657C26.2464 11.6244 25.4746 11.8662 24.7876 12.272C24.0918 12.6836 23.4547 13.1865 22.8931 13.7673C22.3212 14.3526 21.8023 14.9874 21.3428 15.6642C20.8738 16.3406 20.4428 17.0425 20.0518 17.7666C19.2597 19.2184 18.5631 20.7202 17.9665 22.2623C17.3599 23.8015 16.8187 25.3776 16.3593 26.9639L16.3593 26.9639Z" fill="black"/>
<path d="M36.7499 28.6314C36.547 28.1705 36.3564 27.7058 36.1635 27.2422C35.9699 26.7791 35.7877 26.3116 35.5869 25.8522C35.4005 25.3868 35.2004 24.9272 34.9926 24.4723C34.892 24.2431 34.7825 24.0185 34.6639 23.7987C34.6087 23.6869 34.5465 23.5786 34.4778 23.4745C34.4451 23.4214 34.4097 23.3701 34.3716 23.3207L34.2441 23.1826C34.6128 23.5314 34.909 23.9492 35.116 24.4121C35.3514 24.8591 35.5514 25.3219 35.7515 25.7838C35.9393 26.251 36.1246 26.7188 36.2912 27.1936C36.4578 27.6682 36.6163 28.1458 36.7499 28.6314Z" fill="black"/>
<path d="M33.9218 37.503C33.9049 37.5029 33.8883 37.4981 33.874 37.489C33.8597 37.48 33.8483 37.467 33.841 37.4517L32.9579 35.5815C32.9528 35.5709 32.9499 35.5594 32.9493 35.5477C32.9487 35.536 32.9505 35.5243 32.9544 35.5132C32.9584 35.5022 32.9645 35.492 32.9724 35.4833C32.9803 35.4746 32.9898 35.4676 33.0005 35.4626C33.0111 35.4576 33.0227 35.4547 33.0344 35.4542C33.0461 35.4537 33.0579 35.4554 33.0689 35.4594C33.08 35.4634 33.0902 35.4696 33.0988 35.4775C33.1075 35.4854 33.1145 35.495 33.1195 35.5056L34.0026 37.3758C34.009 37.3894 34.0118 37.4044 34.0109 37.4194C34.0099 37.4343 34.0052 37.4488 33.9971 37.4615C33.9891 37.4742 33.978 37.4846 33.9648 37.4919C33.9516 37.4991 33.9369 37.5029 33.9218 37.503Z" fill="black"/>
<path d="M17.8936 34.6572L18.9715 38.6156C18.4075 36.6302 18.0078 35.097 17.8936 34.6572Z" fill="black"/>
<path d="M55.9603 59.53C55.3577 60.588 55.6363 62.7635 55.5112 63.5038C55.3413 64.5505 54.9424 65.547 54.3427 66.4224C54.1807 65.1772 53.9902 63.9349 53.7941 62.6925C53.5979 61.4531 53.3762 60.2164 53.1715 58.977C52.9412 57.7431 52.7252 56.5036 52.4835 55.2726L52.1168 53.4233C51.9832 52.8079 51.8609 52.1923 51.7188 51.5797C51.7984 52.2037 51.8922 52.8248 51.9803 53.4489L52.2675 55.3096C52.4636 56.5519 52.6825 57.7885 52.8901 59.0252C53.1203 60.2618 53.3364 61.4985 53.578 62.7323C53.8197 63.9632 54.0641 65.1971 54.3427 66.4224C52.9952 68.3937 50.7266 69.6388 48.1965 70.589C46.3007 71.2967 44.3483 71.8432 42.3601 72.2227C40.9046 59.4648 43.176 50.4905 43.176 50.4905C43.176 50.4905 42.9173 50.17 42.019 50.17C41.1178 50.17 38.6132 51.6449 38.6132 51.6449C29.1038 57.4141 26.1473 54.209 23.8986 51.7726C22.4231 50.1729 20.2768 43.2238 18.9805 38.6516C27.7194 41.8567 32.5722 37.4121 33.4819 37.4121C33.769 37.4121 35.1762 37.2646 37.1378 37.0774C37.3688 37.3128 37.5487 37.5933 37.6661 37.9012C37.7835 38.2092 37.8359 38.538 37.8201 38.8671C38.6331 40.0187 39.6196 38.0956 39.1903 37.4121C39.0941 37.2555 39.0196 37.0866 38.9686 36.9101C39.3581 36.876 39.7618 36.8392 40.174 36.8051C40.8591 37.7411 41.6523 39.1253 42.3601 39.806C43.6025 41.0029 43.8185 39.0799 43.8185 39.0799C45.3594 40.1917 45.3594 38.2261 45.3594 38.2261C46.7296 39.0374 46.2577 37.0774 46.2577 37.0774C46.3517 36.9958 46.4211 36.8897 46.4583 36.771C46.4954 36.6523 46.4988 36.5257 46.468 36.4052C48.2181 36.3184 49.9719 36.343 51.7188 36.479C57.052 37.0178 62.1294 52.5412 62.1294 52.5412C62.3227 55.2982 58.1437 55.6839 55.9603 59.53Z" fill="black"/>
<path d="M25.4538 63.8804C25.6527 65.1177 25.7752 66.361 25.9046 67.6037C26.0248 68.8472 26.082 70.0955 26.1596 71.3422L26.3968 75.0821L26.6163 78.8233C26.6166 78.828 26.615 78.8326 26.6119 78.8361C26.6088 78.8396 26.6045 78.8418 26.5998 78.8421C26.5952 78.8425 26.5905 78.841 26.587 78.838C26.5834 78.835 26.5811 78.8307 26.5807 78.8261L26.2189 75.0959L25.8749 71.3642C25.7588 70.1205 25.6223 68.8783 25.5487 67.6313C25.4843 66.3835 25.4131 65.1363 25.4182 63.8831C25.4182 63.8786 25.4199 63.8743 25.423 63.871C25.4261 63.8677 25.4302 63.8656 25.4347 63.8653C25.4392 63.8649 25.4437 63.8663 25.4473 63.8691C25.4508 63.8719 25.4531 63.8759 25.4538 63.8804H25.4538Z" fill="black"/>
<path d="M29.3571 63.7806C29.4826 65.0323 29.5316 66.2854 29.5874 67.5384C29.6339 68.7916 29.6173 70.0458 29.6212 71.2998L29.6373 75.0615L29.6355 78.8236C29.6355 78.8283 29.6337 78.8328 29.6304 78.8361C29.6272 78.8395 29.6227 78.8414 29.618 78.8415C29.6133 78.8416 29.6088 78.8398 29.6054 78.8366C29.602 78.8333 29.6 78.8289 29.5999 78.8242L29.4589 75.0648L29.3358 71.3051C29.2933 70.0519 29.2303 68.799 29.2305 67.545C29.2398 66.2908 29.2423 65.0368 29.3215 63.7813C29.3218 63.7768 29.3238 63.7726 29.327 63.7696C29.3303 63.7665 29.3345 63.7647 29.339 63.7647C29.3435 63.7646 29.3478 63.7662 29.3512 63.7691C29.3545 63.7721 29.3567 63.7762 29.3571 63.7806Z" fill="black"/>
<path d="M28.063 81.8245C32.9244 81.8245 36.8653 80.2316 36.8653 78.2667C36.8653 76.3018 32.9244 74.709 28.063 74.709C23.2017 74.709 19.2607 76.3018 19.2607 78.2667C19.2607 80.2316 23.2017 81.8245 28.063 81.8245Z" fill="black"/>
<path d="M32.6367 31.7725C32.4502 31.9047 32.2338 31.9887 32.0068 32.017C31.8901 32.0332 31.7715 32.0288 31.6563 32.004C31.5947 31.9954 31.5369 31.9689 31.4904 31.9277C31.4438 31.8865 31.4104 31.8325 31.3945 31.7725C31.4324 31.8066 31.4769 31.8325 31.5252 31.8486C31.5736 31.8648 31.6248 31.8708 31.6756 31.8664C31.7789 31.8638 31.8819 31.8552 31.9842 31.8404C32.2004 31.8064 32.4181 31.7837 32.6367 31.7725Z" fill="black"/>
<path d="M36.5568 28.8194C37.4965 29.427 38.4332 30.0394 39.3809 30.628C39.6185 30.7735 39.857 30.9186 40.0989 31.0525C40.2188 31.1226 40.3419 31.182 40.4617 31.2452C40.5188 31.2689 40.586 31.3039 40.6344 31.3189C40.6559 31.3239 40.6771 31.3302 40.6978 31.3378C40.7453 31.3467 40.7936 31.3578 40.8407 31.3709C41.1077 31.4831 41.366 31.6148 41.6134 31.765C41.8575 31.9073 42.0978 32.0542 42.3345 32.206C43.2897 32.8039 44.1939 33.4794 45.0379 34.2256C45.471 34.599 45.8531 35.0275 46.1744 35.5002L46.2829 35.693L46.3701 35.882C46.4351 36.0117 46.4908 36.1459 46.5368 36.2835C46.5825 36.4326 46.5889 36.591 46.5555 36.7433C46.5176 36.8965 46.4321 37.0339 46.3113 37.1358L46.3348 37.0601C46.3708 37.2413 46.3934 37.4249 46.4024 37.6094C46.4165 37.7984 46.3938 37.9884 46.3356 38.1689C46.3205 38.2171 46.2967 38.2622 46.2656 38.3021L46.219 38.3642L46.1536 38.4113C46.1108 38.4427 46.0606 38.4628 46.0079 38.4696C45.9584 38.4817 45.907 38.4832 45.8569 38.4741C45.7611 38.4631 45.6673 38.4386 45.5784 38.4012L45.3309 38.273L45.4154 38.225C45.409 38.4338 45.3766 38.641 45.3189 38.8417C45.2671 39.0534 45.1446 39.2411 44.9716 39.3739C44.8764 39.4311 44.7694 39.4657 44.6587 39.4751C44.5481 39.4846 44.4367 39.4686 44.3332 39.4284C44.2341 39.3915 44.1371 39.3488 44.0429 39.3007L43.7782 39.134L43.8842 39.0871C43.8567 39.4231 43.7444 39.7467 43.558 40.0278C43.5036 40.1035 43.4328 40.166 43.3509 40.2108C43.269 40.2555 43.1781 40.2813 43.0849 40.2863L42.9439 40.2754C42.8999 40.2646 42.8585 40.2475 42.8157 40.2332C42.7334 40.2033 42.6553 40.1631 42.5832 40.1134C42.3125 39.92 42.0699 39.6901 41.8624 39.4303C41.653 39.1798 41.4571 38.921 41.2704 38.6572C40.8961 38.1305 40.5451 37.5909 40.1717 37.075C39.9922 36.8178 39.7959 36.5725 39.5843 36.3409C39.4879 36.2341 39.3767 36.1418 39.254 36.0667C39.2104 36.0382 39.1599 36.0217 39.1079 36.0188C39.0711 36.0194 39.036 36.0341 39.0099 36.0598L39.0642 35.959C39.0273 36.3007 39.067 36.6463 39.1805 36.9708C39.2095 37.0503 39.244 37.1276 39.2837 37.2024C39.3035 37.2394 39.3246 37.2758 39.347 37.3111C39.3729 37.3612 39.3996 37.4193 39.4235 37.4741C39.4866 37.6833 39.4991 37.9045 39.4598 38.1195C39.3933 38.5339 39.1919 38.915 38.8866 39.2038C38.7963 39.288 38.6867 39.349 38.5674 39.3815C38.448 39.414 38.3226 39.4171 38.2018 39.3903C37.9816 39.3157 37.7932 39.1689 37.6673 38.9738C37.6435 38.9453 37.6311 38.909 37.6328 38.8719L37.6338 38.8503C37.6519 38.4256 37.5526 38.0042 37.3467 37.6322C37.294 37.541 37.2346 37.454 37.1689 37.3717C37.1007 37.2856 37.0357 37.2246 36.9456 37.1256C36.7773 36.9442 36.6377 36.7383 36.5316 36.5149C36.336 36.077 36.2198 35.608 36.1885 35.1296C36.1521 34.6636 36.1561 34.1953 36.2004 33.73L36.2084 33.7816C36.066 33.5108 35.8542 33.2826 35.5946 33.1201C35.3272 32.9442 35.0343 32.8104 34.7261 32.7235C34.4154 32.629 34.0967 32.5633 33.774 32.527C33.6115 32.5147 33.4488 32.4979 33.2855 32.4891L32.7939 32.477C32.7892 32.4772 32.7846 32.4755 32.7811 32.4723C32.7776 32.469 32.7756 32.4646 32.7754 32.4599C32.7755 32.4553 32.7773 32.4508 32.7804 32.4475C32.7835 32.4441 32.7878 32.4419 32.7924 32.4414L33.2866 32.418C33.4516 32.4167 33.6169 32.4244 33.7825 32.4273C34.115 32.4453 34.4452 32.4937 34.7688 32.5719C35.0982 32.6492 35.4135 32.7772 35.7033 32.9516C35.8505 33.0406 35.9874 33.1457 36.1114 33.2648C36.2446 33.387 36.3541 33.5324 36.4347 33.6939C36.4407 33.7062 36.4436 33.7197 36.4432 33.7334L36.4428 33.7456C36.4203 34.1977 36.4313 34.6508 36.4756 35.1012C36.5155 35.5418 36.633 35.9718 36.8227 36.3716C36.9192 36.562 37.0442 36.7366 37.1935 36.8894C37.259 36.9597 37.364 37.0555 37.4402 37.1483C37.5211 37.2434 37.5937 37.3453 37.6571 37.4528C37.9061 37.8868 38.0276 38.382 38.0077 38.8818L37.9742 38.7583C38.075 38.8768 38.1844 39.005 38.2984 39.0217C38.3599 39.0327 38.4232 39.0286 38.4828 39.0097C38.5423 38.9908 38.5963 38.9577 38.6402 38.9132C38.8762 38.6819 39.0323 38.3815 39.0857 38.0556C39.1136 37.9036 39.1084 37.7474 39.0705 37.5976L39.0309 37.5068C39.004 37.463 38.979 37.4185 38.9557 37.3731C38.9093 37.2828 38.8692 37.1893 38.8358 37.0934C38.7067 36.711 38.6667 36.3042 38.719 35.9041C38.7235 35.867 38.7411 35.8328 38.7686 35.8074L38.7733 35.8032C38.866 35.7185 38.9875 35.6722 39.1132 35.6736C39.2226 35.6781 39.329 35.7109 39.4218 35.7688C39.5736 35.8624 39.7106 35.9779 39.8285 36.1114C40.0474 36.3575 40.2498 36.6176 40.4344 36.8902C40.8013 37.4254 41.1374 37.9727 41.4944 38.5031C41.6733 38.7677 41.8525 39.0314 42.047 39.2813C42.2313 39.5317 42.449 39.7558 42.6941 39.9474C42.7525 39.9917 42.8166 40.028 42.8847 40.0553C42.9177 40.0672 42.9506 40.0831 42.9837 40.0929L43.0832 40.1036C43.1505 40.1015 43.2165 40.0843 43.2762 40.0531C43.3359 40.0219 43.3877 39.9777 43.4278 39.9237C43.6042 39.6708 43.7151 39.3783 43.7507 39.0723C43.7536 39.0543 43.7636 39.0381 43.7785 39.0273C43.7934 39.0166 43.8119 39.0122 43.83 39.0151C43.8395 39.0168 43.8486 39.0203 43.8568 39.0254L44.1064 39.1875C44.1928 39.2327 44.2816 39.2732 44.3724 39.3087C44.458 39.3443 44.5506 39.3598 44.6431 39.354C44.7355 39.3482 44.8254 39.3213 44.9059 39.2753C45.0579 39.1588 45.1661 38.9945 45.2127 38.8089C45.2715 38.6198 45.3021 38.4231 45.3035 38.225C45.3036 38.2156 45.3062 38.2063 45.3109 38.198C45.3155 38.1898 45.3222 38.1828 45.3303 38.1779C45.3384 38.1729 45.3477 38.1701 45.3572 38.1696C45.3667 38.1692 45.3761 38.1711 45.3846 38.1753L45.388 38.177L45.6231 38.294C45.701 38.3251 45.7829 38.3453 45.8664 38.3539C45.9428 38.3655 46.0206 38.3482 46.0849 38.3056C46.1492 38.2629 46.1953 38.1979 46.2141 38.1232C46.2627 37.9589 46.2796 37.787 46.2637 37.6164C46.2529 37.441 46.2259 37.2669 46.1832 37.0964C46.1799 37.0829 46.1803 37.0687 46.1844 37.0553C46.1886 37.042 46.1962 37.03 46.2066 37.0206C46.2971 36.935 46.3596 36.8242 46.3859 36.7025C46.4122 36.5809 46.4011 36.4542 46.354 36.339C46.3056 36.2137 46.2486 36.0919 46.1833 35.9746L46.087 35.787L45.9823 35.619C45.6551 35.1803 45.2723 34.7858 44.8434 34.4454C43.9908 33.733 43.0983 33.0696 42.1702 32.4584C41.7195 32.1476 41.2459 31.871 40.7536 31.6312C40.733 31.6263 40.7129 31.6193 40.6937 31.6105C40.6542 31.6018 40.5993 31.5909 40.5537 31.5778C40.4697 31.5492 40.4133 31.5158 40.342 31.4848C40.2149 31.4168 40.0899 31.3464 39.9707 31.2714C39.7285 31.1247 39.4948 30.9696 39.2613 30.8139C38.3288 30.1897 37.425 29.5294 36.5362 28.8484C36.5325 28.8456 36.53 28.8415 36.5293 28.8369C36.5286 28.8323 36.5298 28.8277 36.5324 28.8239C36.5351 28.8201 36.5392 28.8176 36.5437 28.8167C36.5483 28.8159 36.553 28.8168 36.5568 28.8194L36.5568 28.8194Z" fill="black"/>
<path d="M40.5625 35.1914C41.1845 35.7682 41.7744 36.3786 42.3294 37.0198C42.8891 37.6596 43.411 38.3314 43.8925 39.0316C43.9055 39.0511 43.9102 39.0749 43.9058 39.0978C43.9013 39.1208 43.888 39.1411 43.8686 39.1543C43.8493 39.1675 43.8256 39.1726 43.8025 39.1685C43.7794 39.1645 43.7589 39.1515 43.7453 39.1324L43.7431 39.1291C43.2894 38.417 42.7945 37.7318 42.261 37.077C41.7298 36.418 41.1628 35.7885 40.5625 35.1914Z" fill="black"/>
<path d="M42.3604 34.8066C43.4393 35.8759 44.4636 36.9988 45.4292 38.171C45.4439 38.1893 45.4507 38.2127 45.4482 38.2361C45.4457 38.2594 45.434 38.2808 45.4158 38.2956C45.3975 38.3104 45.3741 38.3175 45.3507 38.3152C45.3273 38.3129 45.3057 38.3014 45.2907 38.2834L45.2882 38.28C44.3713 37.0739 43.3941 35.9146 42.3604 34.8066Z" fill="black"/>
<path d="M43.6455 34.5283C44.1041 34.9291 44.559 35.3342 45.0101 35.7438L45.6809 36.3656C45.9015 36.5776 46.1216 36.7861 46.3282 37.0228C46.3437 37.0406 46.3515 37.0639 46.3499 37.0874C46.3483 37.111 46.3373 37.133 46.3195 37.1485C46.3016 37.164 46.2783 37.1718 46.2547 37.1702C46.2311 37.1686 46.2091 37.1576 46.1935 37.1398L46.1909 37.1367L46.1885 37.1336C46.0057 36.9022 45.7942 36.68 45.5863 36.4601L44.9484 35.8081C44.5186 35.3773 44.0843 34.9507 43.6455 34.5283Z" fill="black"/>
<path d="M38.3488 27.8313C38.5788 28.1165 38.8347 28.3801 39.1131 28.6186C39.3868 28.8662 39.6642 29.1099 39.9454 29.3496L41.6468 30.7723C42.7835 31.718 43.9455 32.6357 45.094 33.5657L45.11 33.5801L45.1136 33.5838C45.6145 34.1055 46.1831 34.558 46.8044 34.9291C47.426 35.2909 48.1008 35.5529 48.8041 35.7054C50.2194 36.0135 51.6948 35.8895 53.0385 35.3497C53.6966 35.0814 54.3615 34.6981 55.0394 34.3918C55.7129 34.0669 56.4028 33.7761 57.0956 33.495C57.7928 33.2235 58.4986 32.9744 59.215 32.7576C59.9324 32.5295 60.6702 32.3708 61.418 32.2837C61.427 32.2829 61.4361 32.2839 61.4447 32.2866L61.448 32.2876C62.1022 32.5045 62.7859 32.6199 63.4753 32.6296C64.1594 32.6435 64.837 32.4948 65.4521 32.1958C65.7566 32.0327 66.0492 31.8485 66.3278 31.6446C66.6684 31.4801 67.0514 31.4243 67.4249 31.4846C67.7804 31.5222 68.1318 31.5918 68.4748 31.6923C68.5494 31.7178 68.626 31.7368 68.7039 31.749C68.771 31.7571 68.8391 31.7529 68.9046 31.7364C69.0296 31.7012 69.1386 31.6241 69.2133 31.5181L69.2847 31.4515C69.2713 31.4581 69.2589 31.4667 69.248 31.4769C69.2209 31.5016 69.2027 31.5345 69.1965 31.5706C69.1917 31.5975 69.1934 31.6251 69.2014 31.6512C69.2094 31.6773 69.2234 31.7011 69.2424 31.7208L69.2171 31.5121C69.2615 31.4244 69.2789 31.3256 69.2672 31.2281C69.2616 31.1735 69.2511 31.1195 69.2359 31.0668C69.2212 31.015 69.202 30.9645 69.1787 30.916C69.1675 30.8939 69.1608 30.8698 69.1592 30.8451C69.1576 30.8204 69.161 30.7956 69.1692 30.7723L69.1733 30.7608C69.2218 30.539 69.207 30.3081 69.1307 30.0943C69.06 29.8516 68.9674 29.6159 68.8541 29.3899C68.8413 29.3639 68.8339 29.3357 68.8323 29.3068C68.8306 29.2779 68.8348 29.2489 68.8446 29.2217L68.8495 29.2082C68.8834 29.1194 68.8989 29.0246 68.895 28.9296C68.8847 28.8278 68.8582 28.7282 68.8165 28.6347C68.7702 28.5334 68.7126 28.4377 68.6448 28.3493C68.5778 28.2596 68.5026 28.1762 68.4202 28.1003C68.3845 28.0683 68.3596 28.0262 68.3487 27.9796C68.3378 27.933 68.3415 27.8842 68.3593 27.8398L68.3648 27.8263C68.4381 27.6516 68.4419 27.4557 68.3756 27.2783C68.2842 27.1078 68.1311 26.9784 67.9473 26.9168C67.5011 26.7771 67.0276 26.7467 66.5671 26.8282C65.5764 26.966 64.6006 27.1949 63.6521 27.512L63.6499 27.5127C63.6181 27.5228 63.5849 27.5272 63.5516 27.5259C62.6668 27.4889 61.7719 27.8793 60.8486 28.1669C60.382 28.3119 59.9414 28.4747 59.4275 28.5826C58.9346 28.6853 58.4508 28.7374 57.9647 28.7934C56.024 28.9737 54.0908 29.0361 52.1555 29.0588L51.43 29.0658L51.0673 29.0678L50.8859 29.0686C50.8227 29.0688 50.7492 29.0666 50.6814 29.0605C50.2647 29.0216 49.8734 28.8436 49.5707 28.5553C49.4689 28.4549 49.3997 28.3767 49.3126 28.2862L47.3341 26.1747C46.0162 24.766 44.7079 23.348 43.4094 21.9205C43.4045 21.9151 43.4018 21.9079 43.402 21.9005C43.4023 21.8932 43.4054 21.8862 43.4107 21.881C43.416 21.8759 43.4231 21.873 43.4305 21.873C43.4379 21.8731 43.445 21.8759 43.4503 21.8811C44.8395 23.221 46.2174 24.5718 47.5839 25.9336L49.6346 27.9754C49.7167 28.0568 49.8112 28.1557 49.883 28.2227C50.1142 28.4323 50.4095 28.5582 50.7212 28.5801C50.8172 28.5874 50.9355 28.5797 51.0591 28.5772L51.4205 28.5664L52.1429 28.542C54.0677 28.4626 55.9976 28.3874 57.9012 28.1889C58.3739 28.1354 58.8518 28.0838 59.3047 27.9897C59.7371 27.9022 60.2072 27.7348 60.6617 27.5934C61.1203 27.4467 61.5773 27.2938 62.0562 27.1612C62.5482 27.0119 63.0612 26.9438 63.5752 26.9596L63.4748 26.9735C63.9739 26.8184 64.468 26.6863 64.9733 26.5709C65.4801 26.4516 65.9938 26.363 66.5113 26.3056C66.7774 26.2772 67.0452 26.2674 67.3126 26.2765C67.5984 26.2859 67.8802 26.3468 68.1443 26.4562C68.4435 26.5725 68.6861 26.7998 68.8213 27.0905C68.8825 27.2422 68.9084 27.4057 68.8973 27.5688C68.8883 27.727 68.8503 27.8823 68.7851 28.0267L68.7297 27.7529C68.8347 27.8527 68.9298 27.9624 69.0136 28.0806C69.0992 28.1983 69.1711 28.3253 69.228 28.4592C69.2876 28.6018 69.323 28.7533 69.3328 28.9075C69.3371 29.0696 69.3064 29.2307 69.2428 29.3799L69.2381 29.1983C69.3584 29.4535 69.4531 29.7199 69.5207 29.9937C69.5569 30.1352 69.5792 30.2798 69.5874 30.4256C69.6007 30.5883 69.5772 30.7519 69.5185 30.9043L69.5132 30.7492C69.5778 30.8928 69.616 31.0468 69.626 31.2038C69.638 31.3728 69.599 31.5414 69.514 31.688L69.4887 31.4793C69.5082 31.4994 69.5226 31.5238 69.5309 31.5505C69.5391 31.5771 69.5408 31.6054 69.536 31.6329C69.5294 31.6702 69.5106 31.7043 69.4824 31.7297C69.4696 31.7416 69.4551 31.7516 69.4393 31.7592L69.5107 31.6927C69.452 31.7892 69.3701 31.8694 69.2723 31.9261C69.1818 31.9831 69.0832 32.0259 68.9798 32.0532C68.8751 32.0757 68.7672 32.0788 68.6614 32.0623C68.5675 32.0449 68.4754 32.0196 68.3858 31.9865C68.0631 31.8808 67.7314 31.8042 67.3949 31.7577C67.0783 31.6948 66.75 31.7279 66.4524 31.8526C66.1622 32.0502 65.8592 32.2283 65.5452 32.3856C64.8986 32.6912 64.1884 32.8391 63.4733 32.817C62.767 32.7947 62.0675 32.6726 61.3955 32.4545L61.4254 32.4584C60.6935 32.5474 59.9732 32.7138 59.2766 32.9548C58.5715 33.1814 57.883 33.4577 57.2038 33.7532C56.5283 34.058 55.8575 34.3727 55.2023 34.7193C54.5352 35.0507 53.9221 35.4409 53.2134 35.7635C51.7926 36.3884 50.2082 36.5417 48.6935 36.2008C47.9408 36.03 47.2197 35.7421 46.5567 35.3477C45.9028 34.9477 45.3084 34.4582 44.7909 33.8934L44.8105 33.9114C43.6702 32.9634 42.5578 31.9853 41.4482 31.0025C40.8924 30.5125 40.3471 30.0103 39.8123 29.496C39.5436 29.2405 39.2791 28.9803 39.0187 28.7154C38.8913 28.5796 38.76 28.449 38.6395 28.3061L38.4587 28.0927C38.4021 28.0172 38.3516 27.9355 38.2987 27.858C38.2946 27.8519 38.2931 27.8444 38.2944 27.8371C38.2958 27.8299 38.3 27.8234 38.3061 27.8192C38.3122 27.815 38.3197 27.8134 38.327 27.8146C38.3343 27.8159 38.3408 27.82 38.3451 27.826L38.3488 27.8313Z" fill="black"/>
<path d="M64.9336 27.9681C65.5297 27.7779 66.1428 27.6456 66.7643 27.5728C67.078 27.5346 67.3948 27.5288 67.7097 27.5555C68.0377 27.5711 68.3554 27.6746 68.6294 27.8553C68.6485 27.8692 68.6613 27.8902 68.6649 27.9135C68.6685 27.9369 68.6627 27.9607 68.6487 27.9797C68.6347 27.9988 68.6137 28.0115 68.5903 28.0151C68.5669 28.0187 68.543 28.0129 68.5239 27.999L68.5194 27.9955C68.2765 27.8215 67.9914 27.7154 67.6936 27.6881C67.3881 27.6477 67.0792 27.6388 66.7718 27.6615C66.1506 27.7046 65.535 27.8072 64.9336 27.9681Z" fill="black"/>
<path d="M65.748 29.0142C66.307 28.8931 66.8755 28.8209 67.447 28.7985C67.736 28.7888 68.0252 28.8065 68.3109 28.8511C68.6159 28.8843 68.9003 29.0211 69.1163 29.2385C69.132 29.2562 69.1401 29.2794 69.1386 29.303C69.1372 29.3266 69.1264 29.3486 69.1087 29.3643C69.0999 29.3721 69.0897 29.378 69.0786 29.3819C69.0675 29.3857 69.0558 29.3873 69.0441 29.3866C69.0204 29.3852 68.9983 29.3744 68.9826 29.3567L68.9793 29.3527L68.9762 29.3489C68.7933 29.1524 68.5494 29.0231 68.2838 28.9819C68.0085 28.9243 67.7284 28.8927 67.4472 28.8875C66.8782 28.8804 66.3097 28.9228 65.748 29.0142Z" fill="black"/>
<path d="M66.0469 30.148C66.6266 30.0433 67.2176 30.0146 67.8048 30.0626C68.1028 30.0842 68.3961 30.1483 68.6759 30.2528C68.9682 30.356 69.2255 30.539 69.4184 30.7811C69.4255 30.7905 69.4307 30.8011 69.4337 30.8125C69.4366 30.8239 69.4373 30.8357 69.4357 30.8473C69.4341 30.8589 69.4301 30.8701 69.4241 30.8802C69.4182 30.8904 69.4102 30.8992 69.4008 30.9062C69.3914 30.9133 69.3807 30.9184 69.3693 30.9213C69.3579 30.9242 69.346 30.9248 69.3343 30.9231C69.3227 30.9214 69.3115 30.9174 69.3014 30.9114C69.2913 30.9054 69.2825 30.8974 69.2755 30.888L69.2731 30.8846L69.2717 30.8825C69.1075 30.6569 68.8834 30.4815 68.6246 30.3762C68.36 30.2619 68.0803 30.1861 67.7941 30.151C67.2143 30.0742 66.6269 30.0732 66.0469 30.148Z" fill="black"/>
<path d="M56.8242 1.63379V18.8135L80.7253 20.9289V1.63379H56.8242ZM78.0911 18.3648L59.2658 16.8263V3.94151L78.0911 3.74918V18.3648Z" fill="black"/>
<path d="M60.6856 5.33143C60.7106 5.85719 60.7327 6.36188 60.7441 6.85833C60.7569 7.35546 60.7647 7.84431 60.7458 8.33797L60.6794 8.27167C61.1041 8.2859 61.5289 8.30698 61.9536 8.30892C62.3784 8.31315 62.8031 8.30335 63.2279 8.28926L63.1791 8.33797C63.1605 7.83582 63.1471 7.33368 63.1425 6.83158C63.1327 6.32943 63.1321 5.82728 63.1371 5.32518L63.2279 5.41579C62.8146 5.41759 62.3993 5.3971 61.9793 5.38692L60.6856 5.33143ZM60.673 5.31882L61.928 5.26333C62.3574 5.25318 62.7917 5.2327 63.2279 5.23449C63.2519 5.23472 63.2749 5.24435 63.2919 5.26131C63.3089 5.27826 63.3185 5.30119 63.3188 5.32516C63.3237 5.82728 63.3231 6.32942 63.3134 6.83156C63.3087 7.33367 63.2953 7.83582 63.2768 8.33795L63.2767 8.34135C63.2765 8.34753 63.275 8.3536 63.2725 8.35923C63.2699 8.36485 63.2662 8.36992 63.2617 8.37413C63.2572 8.37835 63.2519 8.38163 63.2461 8.38379C63.2403 8.38594 63.2341 8.38694 63.2279 8.38671C62.8031 8.37262 62.3784 8.36282 61.9536 8.36708C61.5289 8.36899 61.1041 8.39007 60.6794 8.4043C60.6709 8.40458 60.6625 8.4032 60.6546 8.40024C60.6467 8.39728 60.6395 8.3928 60.6333 8.38705C60.6272 8.3813 60.6222 8.3744 60.6187 8.36674C60.6153 8.35908 60.6133 8.3508 60.613 8.34239L60.6129 8.33796C60.5939 7.8273 60.6018 7.31189 60.6145 6.80476C60.626 6.29691 60.648 5.79736 60.673 5.31882H60.673Z" fill="black"/>
<path d="M72.909 5.0654C72.953 6.08842 72.9828 7.08451 73.009 8.07273C73.0395 9.06338 73.053 10.0367 73.0643 11.0094C73.0756 11.9814 73.0604 12.9425 73.0285 13.9088C73.0017 14.8752 72.9618 15.8492 72.959 16.8274L72.8944 16.7629C73.4748 16.771 74.0552 16.7559 74.6356 16.7535C75.2159 16.7493 75.7963 16.7271 76.3767 16.7148L76.2638 16.8274C76.2318 15.846 76.2082 14.8646 76.1932 13.8833L76.16 10.9391C76.1526 9.95774 76.1552 8.97635 76.1677 7.99499L76.2222 5.05085L76.3767 5.2051L74.6734 5.14201L72.909 5.0654ZM72.8798 5.03628L74.5977 4.9597L76.3767 4.89658C76.3963 4.89588 76.4158 4.89905 76.4342 4.90588C76.4526 4.91272 76.4694 4.9231 76.4837 4.93643C76.4981 4.94975 76.5096 4.96577 76.5178 4.98356C76.5259 5.00134 76.5305 5.02056 76.5311 5.0401L76.5312 5.04183L76.5314 5.05087L76.5858 7.99501C76.5975 8.97638 76.6001 9.95777 76.5935 10.9392L76.5603 13.8833C76.5442 14.8646 76.5206 15.846 76.4897 16.8274L76.4895 16.8335C76.4885 16.8625 76.4761 16.8899 76.455 16.9099C76.4339 16.9298 76.4058 16.9407 76.3767 16.9401C75.7963 16.9278 75.2159 16.9056 74.6356 16.9014C74.0552 16.899 73.4748 16.8839 72.8944 16.8919C72.886 16.892 72.8777 16.8905 72.8699 16.8874C72.8621 16.8843 72.855 16.8797 72.849 16.8739C72.843 16.8681 72.8382 16.8611 72.8349 16.8535C72.8316 16.8458 72.8298 16.8375 72.8297 16.8292L72.8297 16.8274C72.8269 15.8429 72.7871 14.854 72.7603 13.8577C72.7283 12.8612 72.7131 11.8596 72.7244 10.8689C72.7357 9.8788 72.7492 8.88933 72.7797 7.91723C72.8059 6.9427 72.8358 5.97603 72.8798 5.03628Z" fill="black"/>
<path d="M70.3777 21.6946V20.0134L67.7437 19.7803V21.4308C66.1438 21.4739 64.9521 21.9117 64.8893 22.5576C64.8105 23.3681 66.5383 24.1985 68.7484 24.4125C70.9586 24.6265 72.8142 24.1429 72.893 23.3324C72.9549 22.6961 71.9026 22.0474 70.3777 21.6946Z" fill="black"/>
<path d="M45.7326 24.271C47.04 23.4397 48.3624 22.6337 49.6893 21.835C49.7048 21.8259 49.723 21.8224 49.7408 21.8251C50.9685 22.0134 52.1918 22.2292 53.4145 22.4482C54.6367 22.6702 55.8632 22.8663 57.0916 23.0505L60.7764 23.605C62.0032 23.7985 63.2317 23.9824 64.4567 24.1876C64.4809 24.1915 64.5026 24.2049 64.5169 24.2248C64.5312 24.2447 64.537 24.2695 64.5331 24.2936C64.5291 24.3171 64.5163 24.3382 64.4973 24.3526C63.5877 25.034 62.6718 25.7068 61.7494 26.371L60.3707 27.3738L58.9831 28.3649C58.9812 28.3663 58.9789 28.3668 58.9766 28.3665C58.9743 28.3661 58.9722 28.3649 58.9708 28.363C58.9694 28.3611 58.9688 28.3588 58.9691 28.3565C58.9694 28.3542 58.9706 28.3521 58.9725 28.3507L60.317 27.3022L61.6703 26.2655C62.571 25.5724 63.4764 24.8854 64.3864 24.2048L64.4271 24.3698C63.1998 24.1786 61.976 23.9661 60.7507 23.7632L57.0789 23.1287C55.855 22.9165 54.6293 22.7163 53.3993 22.5419C52.1698 22.3646 50.9408 22.184 49.7163 21.9759L49.7678 21.9661C48.4337 22.7528 47.0953 23.5322 45.7418 24.2863C45.7397 24.2874 45.7374 24.2877 45.7351 24.2871C45.7329 24.2865 45.731 24.2851 45.7298 24.2831C45.7286 24.2811 45.7282 24.2787 45.7288 24.2765C45.7293 24.2742 45.7307 24.2723 45.7326 24.271V24.271Z" fill="black"/>
<path d="M47.3164 25.9072C48.0682 26.0991 48.8143 26.3097 49.5595 26.5231L51.7886 27.1844L54.0057 27.8851C54.7424 28.1258 55.4784 28.3692 56.2085 28.6316C55.4566 28.4399 54.7106 28.2293 53.9654 28.016L51.7363 27.3544L49.5194 26.6535C48.7826 26.4128 48.0466 26.1694 47.3164 25.9072Z" fill="black"/>
<path d="M72.6143 22.7118C73.0651 22.6507 73.5212 22.6374 73.9748 22.6723C74.441 22.6946 74.8978 22.8117 75.317 23.0164C75.5362 23.1301 75.725 23.2942 75.8679 23.4952C76.0104 23.7049 76.0892 23.9512 76.0951 24.2045C76.0996 24.4476 76.063 24.6898 75.987 24.9208C75.9197 25.1586 75.8043 25.3802 75.6479 25.5717C75.4915 25.7633 75.2997 25.9232 75.0829 26.0428C74.8793 26.1601 74.6656 26.2592 74.4445 26.3391C74.0045 26.5025 73.5405 26.5927 73.0712 26.6058C72.6081 26.6154 72.1462 26.5554 71.701 26.4278C71.2739 26.2964 70.8191 26.2826 70.3848 26.3878C70.5879 26.2778 70.8142 26.2173 71.0452 26.2112C71.2756 26.1963 71.5069 26.2043 71.7356 26.2352C72.1706 26.3134 72.6138 26.3358 73.0544 26.3019C73.4883 26.2666 73.9148 26.1694 74.321 26.0133C74.5229 25.9352 74.7188 25.8423 74.9069 25.7353C75.0884 25.6397 75.2495 25.5099 75.3813 25.353C75.5133 25.1961 75.6143 25.0158 75.679 24.8214C75.7502 24.6258 75.7881 24.4198 75.7911 24.2117C75.7952 24.012 75.7423 23.8152 75.6388 23.6443C75.5264 23.4716 75.3751 23.3276 75.197 23.2238C74.8133 23.0103 74.3931 22.87 73.9579 22.81C73.5136 22.7393 73.0642 22.7064 72.6143 22.7118Z" fill="black"/>
<path d="M70.7753 27.5942C70.7753 27.5942 70.6986 30.096 69.3654 31.5988C69.4189 31.4773 69.4448 31.3456 69.4414 31.2129C69.438 31.0803 69.4054 30.95 69.3458 30.8314C69.5599 30.3186 69.0459 29.2929 69.0459 29.2929C69.3458 28.6091 68.5747 27.9253 68.5747 27.9253C68.5747 27.9253 69.0459 26.9424 67.8037 26.6005C67.8037 26.6005 71.1983 25.0193 70.7753 27.5942Z" fill="black"/>
<path d="M78.0619 46.3087C78.0498 46.3088 78.0378 46.3069 78.0262 46.3031L55.0528 38.7239C55.0386 38.7192 55.0255 38.7118 55.0142 38.7021C55.0029 38.6923 54.9936 38.6805 54.9869 38.6672C54.9802 38.6539 54.9762 38.6394 54.9751 38.6245C54.974 38.6096 54.9758 38.5947 54.9805 38.5806C54.9852 38.5664 54.9926 38.5533 55.0024 38.542C55.0121 38.5308 55.024 38.5215 55.0374 38.5148C55.0507 38.5081 55.0652 38.5041 55.0801 38.503C55.095 38.5019 55.11 38.5037 55.1242 38.5084L78.0494 46.0719L107.568 29.2276V27.8765L52.8227 17.9151L43.8574 21.365C43.8293 21.3757 43.7981 21.3749 43.7706 21.3627C43.7431 21.3505 43.7216 21.3279 43.7108 21.2999C43.6999 21.2719 43.7007 21.2408 43.7128 21.2133C43.7249 21.1859 43.7475 21.1643 43.7755 21.1534L52.7706 17.6919C52.7902 17.6848 52.8113 17.6828 52.832 17.6861L107.702 27.6701C107.728 27.6749 107.751 27.6887 107.769 27.7091C107.786 27.7295 107.795 27.7552 107.795 27.7817V29.2935C107.795 29.3135 107.79 29.3331 107.78 29.3504C107.77 29.3677 107.755 29.382 107.738 29.3919L78.1184 46.2937C78.1012 46.3035 78.0817 46.3087 78.0619 46.3087Z" fill="black"/>
<path d="M77.9984 44.8739C77.9893 44.8739 77.9802 44.8725 77.9715 44.8697L53.5563 37.1631C53.5452 37.1595 53.5348 37.1539 53.5259 37.1463C53.5169 37.1388 53.5095 37.1296 53.5042 37.1192C53.4933 37.0983 53.4912 37.0739 53.4983 37.0514C53.5054 37.029 53.5212 37.0102 53.5422 36.9994C53.5632 36.9885 53.5877 36.9864 53.6102 36.9936L77.988 44.6883L107.638 27.7042C107.648 27.6984 107.659 27.6946 107.671 27.6931C107.682 27.6916 107.694 27.6924 107.705 27.6955C107.717 27.6985 107.727 27.7038 107.737 27.711C107.746 27.7181 107.754 27.727 107.759 27.7371C107.765 27.7473 107.769 27.7585 107.771 27.7701C107.772 27.7817 107.771 27.7935 107.768 27.8048C107.765 27.8161 107.76 27.8266 107.753 27.8359C107.745 27.8452 107.737 27.8529 107.726 27.8587L78.0428 44.8623C78.0293 44.8699 78.014 44.8739 77.9984 44.8739Z" fill="black"/>
<path d="M78.0625 46.2852C78.0396 46.2852 78.0176 46.2764 78.001 46.2606C77.9844 46.2449 77.9746 46.2233 77.9735 46.2005L77.9093 44.7903C77.9087 44.7786 77.9105 44.767 77.9145 44.756C77.9185 44.745 77.9246 44.7348 77.9325 44.7262C77.9404 44.7176 77.9499 44.7105 77.9605 44.7056C77.9712 44.7006 77.9827 44.6978 77.9944 44.6973C78.0178 44.697 78.0404 44.7056 78.0577 44.7214C78.075 44.7371 78.0856 44.7588 78.0875 44.782L78.1518 46.1922C78.1523 46.2038 78.1506 46.2155 78.1466 46.2265C78.1426 46.2375 78.1365 46.2477 78.1286 46.2563C78.1207 46.2649 78.1112 46.2719 78.1005 46.2769C78.0899 46.2819 78.0784 46.2847 78.0667 46.2852H78.0625Z" fill="black"/>
<path d="M78.0712 45.7811L78.2497 56.6701L78.3835 67.5592C78.4317 71.1888 78.5312 74.8185 78.4727 78.4482C78.4406 80.2631 78.4084 82.0779 78.3376 83.8927L78.2302 86.6149C78.1765 87.5224 78.1397 88.4298 78.0712 89.3372C78.0704 89.3484 78.0653 89.3589 78.057 89.3666C78.0487 89.3743 78.0379 89.3785 78.0266 89.3785C78.0153 89.3785 78.0044 89.3743 77.9961 89.3666C77.9879 89.3589 77.9828 89.3484 77.982 89.3372C77.9135 88.4298 77.8766 87.5224 77.8229 86.6149L77.7155 83.8927C77.6447 82.0779 77.6125 80.2631 77.5804 78.4482C77.5219 74.8185 77.6214 71.1888 77.6696 67.5592L77.8035 56.6701L77.982 45.7811C77.9822 45.7694 77.9869 45.7583 77.9953 45.7501C78.0036 45.7419 78.0149 45.7373 78.0266 45.7373C78.0383 45.7373 78.0495 45.7419 78.0579 45.7501C78.0662 45.7583 78.071 45.7694 78.0712 45.7811Z" fill="black"/>
<path d="M105.413 30.832L105.591 41.721L105.725 52.61C105.774 56.2398 105.873 59.8694 105.815 63.4991C105.782 65.3139 105.75 67.1287 105.679 68.9436L105.572 71.6659C105.518 72.5733 105.481 73.4807 105.413 74.3881C105.412 74.3993 105.407 74.4098 105.399 74.4175C105.391 74.4251 105.38 74.4294 105.368 74.4294C105.357 74.4294 105.346 74.4251 105.338 74.4175C105.33 74.4098 105.325 74.3993 105.324 74.3881C105.255 73.4807 105.218 72.5733 105.165 71.6659L105.057 68.9436C104.987 67.1287 104.954 65.3139 104.922 63.4991C104.864 59.8694 104.963 56.2398 105.011 52.61L105.145 41.721L105.324 30.832C105.324 30.8203 105.329 30.8091 105.337 30.8009C105.345 30.7927 105.357 30.7881 105.368 30.7881C105.38 30.7881 105.391 30.7927 105.4 30.8009C105.408 30.8091 105.413 30.8203 105.413 30.832H105.413Z" fill="black"/>
<path d="M59.9441 60.7461C59.9441 60.7461 61.9853 60.9158 68.9972 65.7192C70.1444 66.52 71.5481 66.8687 72.9377 66.6981C73.308 66.6571 73.6706 66.5643 74.0149 66.4223C74.0149 66.4223 79.3477 67.7975 74.5932 68.6949C74.5932 68.6949 67.7826 68.8872 62.7068 65.1692L62.7711 67.2205H60.2011C60.2011 67.2205 59.0446 61.9 59.9441 60.7461Z" fill="black"/>
<path d="M62.125 52.9326C62.5193 53.5951 62.8934 54.2682 63.2781 54.9357L64.3982 56.9561C64.7759 57.6267 65.1308 58.3115 65.497 58.9864C65.8591 59.6528 66.2919 60.2785 66.788 60.8527C67.032 61.1427 67.2909 61.4198 67.5637 61.6829C67.8357 61.9443 68.1299 62.1918 68.4206 62.4444C69.0015 62.9485 69.5972 63.4343 70.1865 63.9276C70.7794 64.4165 71.3826 64.8932 72.0068 65.3397C72.3161 65.5669 72.6329 65.7837 72.9614 65.9812L73.2105 66.1246L73.468 66.2513C73.6403 66.3358 73.8245 66.3937 74.0143 66.423C73.6268 66.3819 73.2525 66.2595 72.9158 66.0638C72.5703 65.8875 72.2356 65.691 71.9084 65.484C71.2586 65.0629 70.6329 64.6078 70.0161 64.1424C69.3963 63.6802 68.804 63.1843 68.2101 62.6912C67.9159 62.4426 67.6164 62.1981 67.3289 61.9297C66.4661 61.1288 65.7494 60.1844 65.2109 59.1387C64.857 58.4528 64.4964 57.7742 64.1562 57.0829L63.1241 55.0164C62.7914 54.3216 62.4481 53.6324 62.125 52.9326Z" fill="black"/>
<path d="M57.4082 57.6416C57.9238 58.0738 58.3948 58.5563 58.8142 59.0819C59.2459 59.5976 59.6242 60.1555 59.9435 60.747C59.4274 60.3154 58.9564 59.8329 58.5376 59.3067C58.1065 58.7906 57.7281 58.2328 57.4082 57.6416Z" fill="black"/>
<path d="M45.2885 76.3469C45.2885 76.3469 47.3341 76.244 54.9246 80.0732C56.1684 80.7145 57.6062 80.8737 58.9607 80.52C59.3222 80.4302 59.6692 80.29 59.9915 80.1036C59.9915 80.1036 65.4603 80.7581 60.8679 82.2791C60.8679 82.2791 54.1436 83.3744 48.6169 80.3637L48.9543 82.3883L46.4071 82.7296C46.4071 82.7296 44.5509 77.61 45.2885 76.3469Z" fill="black"/>
<path d="M49.5938 70.0176C49.7623 70.6443 49.9085 71.2756 50.0666 71.9045L50.2852 72.8516C50.3458 73.1612 50.4425 73.4627 50.5732 73.75C50.7049 74.0315 50.8729 74.2946 51.0729 74.5327C51.2784 74.7712 51.5027 75.0038 51.732 75.2242C52.1905 75.6685 52.6873 76.0716 53.2167 76.4289C54.2921 77.1398 55.3886 77.8362 56.4938 78.5056C57.0473 78.8398 57.6081 79.1625 58.1835 79.4548C58.4677 79.6076 58.7596 79.7455 59.0582 79.8679C59.3514 80.0036 59.6676 80.0833 59.9902 80.1029C59.6623 80.122 59.334 80.0722 59.0265 79.9569C58.7148 79.8581 58.4084 79.7432 58.1087 79.6126C57.5114 79.349 56.9314 79.0509 56.3574 78.7433C55.2098 78.1239 54.1094 77.4365 53.016 76.7231C52.4716 76.3506 51.9626 75.9291 51.4955 75.4638C51.2634 75.2287 51.043 74.9885 50.8318 74.7302C50.6196 74.4665 50.4479 74.1727 50.3225 73.8584C50.1997 73.5487 50.1133 73.2258 50.0652 72.8962L49.8961 71.939C49.7958 71.2984 49.6836 70.6603 49.5938 70.0176Z" fill="black"/>
<path d="M45.1144 71.582C45.2693 72.365 45.3579 73.1595 45.3792 73.9573C45.4167 74.7545 45.386 75.5535 45.2876 76.3455C45.132 75.5627 45.0434 74.7681 45.0228 73.9702C44.9861 73.173 45.0168 72.3741 45.1144 71.582Z" fill="black"/>
<path d="M39.2039 8.19311C38.84 8.22864 38.4732 8.1662 38.1417 8.01227C37.9688 7.93606 37.8172 7.81876 37.7002 7.67061C37.5837 7.52176 37.5307 7.33308 37.5527 7.14551C37.6019 7.30642 37.6875 7.45385 37.8031 7.57635C37.9186 7.69885 38.0609 7.79312 38.2189 7.85183C38.5379 7.99092 38.8672 8.10502 39.2039 8.19311Z" fill="black"/>
<path d="M73.7166 6.4974C73.8271 6.49358 73.9319 6.44708 74.0087 6.36771C74.0856 6.28834 74.1285 6.1823 74.1285 6.07194C74.1285 5.96159 74.0856 5.85555 74.0087 5.77618C73.9319 5.69681 73.8271 5.65031 73.7166 5.64648C73.6061 5.65031 73.5013 5.69681 73.4245 5.77618C73.3476 5.85555 73.3047 5.96159 73.3047 6.07194C73.3047 6.1823 73.3476 6.28834 73.4245 6.36771C73.5013 6.44708 73.6061 6.49358 73.7166 6.4974Z" fill="black"/>
<path d="M73.785 8.84602C73.8955 8.84219 74.0002 8.7957 74.0771 8.71633C74.1539 8.63696 74.1969 8.53092 74.1969 8.42057C74.1969 8.31021 74.1539 8.20418 74.0771 8.12481C74.0002 8.04544 73.8955 7.99894 73.785 7.99512C73.6744 7.99894 73.5697 8.04544 73.4928 8.12481C73.416 8.20418 73.373 8.31021 73.373 8.42057C73.373 8.53092 73.416 8.63696 73.4928 8.71633C73.5697 8.7957 73.6744 8.84219 73.785 8.84602Z" fill="black"/>
<path d="M73.8191 11.3636C73.9297 11.3598 74.0344 11.3133 74.1113 11.2339C74.1881 11.1545 74.2311 11.0485 74.2311 10.9382C74.2311 10.8278 74.1881 10.7218 74.1113 10.6424C74.0344 10.563 73.9297 10.5165 73.8191 10.5127C73.7086 10.5165 73.6039 10.563 73.527 10.6424C73.4502 10.7218 73.4072 10.8278 73.4072 10.9382C73.4072 11.0485 73.4502 11.1545 73.527 11.2339C73.6039 11.3133 73.7086 11.3598 73.8191 11.3636Z" fill="black"/>
<path d="M73.8191 14.1556C73.9297 14.1518 74.0344 14.1053 74.1113 14.0259C74.1881 13.9465 74.2311 13.8405 74.2311 13.7301C74.2311 13.6198 74.1881 13.5137 74.1113 13.4344C74.0344 13.355 73.9297 13.3085 73.8191 13.3047C73.7086 13.3085 73.6039 13.355 73.527 13.4344C73.4502 13.5137 73.4072 13.6198 73.4072 13.7301C73.4072 13.8405 73.4502 13.9465 73.527 14.0259C73.6039 14.1053 73.7086 14.1518 73.8191 14.1556Z" fill="black"/>
<path d="M73.8865 16.4017C73.9971 16.3979 74.1018 16.3514 74.1786 16.272C74.2555 16.1926 74.2984 16.0866 74.2984 15.9762C74.2984 15.8659 74.2555 15.7598 74.1786 15.6805C74.1018 15.6011 73.9971 15.5546 73.8865 15.5508C73.776 15.5546 73.6712 15.6011 73.5944 15.6805C73.5176 15.7598 73.4746 15.8659 73.4746 15.9762C73.4746 16.0866 73.5176 16.1926 73.5944 16.272C73.6712 16.3514 73.776 16.3979 73.8865 16.4017Z" fill="black"/>
<path d="M61.9431 7.00501C62.0049 7.00467 62.0654 6.98698 62.1175 6.95396C62.1697 6.92093 62.2115 6.87391 62.2381 6.81829C62.2816 6.72125 62.3112 6.6186 62.326 6.51336C62.3395 6.45709 62.3412 6.39864 62.3309 6.3417C62.3206 6.28476 62.2986 6.23057 62.2663 6.18254C62.2268 6.13772 62.176 6.10439 62.1191 6.08606C62.0622 6.06773 62.0014 6.06509 61.9431 6.07842C61.8392 6.09939 61.7455 6.15479 61.6771 6.23561C61.6198 6.31702 61.5893 6.4142 61.5898 6.51367C61.5873 6.61767 61.6082 6.72091 61.6508 6.81583C61.6768 6.87161 61.718 6.91896 61.7697 6.95242C61.8214 6.98589 61.8815 7.00412 61.9431 7.00501ZM61.9431 7.03022C61.798 7.03918 61.6536 7.00383 61.5292 6.92888C61.4638 6.88117 61.4108 6.81862 61.3745 6.7464C61.3382 6.67418 61.3196 6.59436 61.3204 6.51357C61.3191 6.43175 61.3347 6.35055 61.3661 6.27497C61.3976 6.19939 61.4442 6.13104 61.5031 6.07413C61.5607 6.01876 61.6305 5.97777 61.707 5.95453C61.7835 5.93129 61.8644 5.92645 61.9431 5.94041C62.0867 5.96262 62.2203 6.0276 62.3262 6.12683C62.4399 6.22683 62.5144 6.36384 62.5363 6.51346C62.5454 6.59217 62.5333 6.67186 62.5013 6.74436C62.4693 6.81686 62.4185 6.87957 62.3542 6.92604C62.2308 7.00129 62.0876 7.0376 61.9431 7.03022Z" fill="black"/>
<path d="M62.7606 8.34595C62.4968 8.39008 62.2308 8.41967 61.9637 8.43458C61.8204 8.44085 61.6758 8.44826 61.5294 8.44448C61.383 8.44112 61.2366 8.42198 61.0946 8.40872L61.0801 8.40733C61.0718 8.40656 61.0637 8.40416 61.0563 8.40027C61.0489 8.39638 61.0424 8.39107 61.0371 8.38466C61.0317 8.37824 61.0277 8.37084 61.0253 8.36288C61.0228 8.35492 61.022 8.34655 61.0227 8.33826L61.0228 8.33712C61.0431 8.18356 61.0544 8.02895 61.0565 7.87407C61.0466 7.71238 61.0696 7.55035 61.1242 7.39779C61.1885 7.23343 61.3005 7.09193 61.4458 6.99135C61.5911 6.89077 61.7632 6.83568 61.94 6.8331C62.1168 6.83053 62.2904 6.88059 62.4386 6.97689C62.5868 7.0732 62.7028 7.21138 62.7719 7.3738C62.8387 7.53492 62.8583 7.71162 62.8285 7.88342C62.8113 8.05299 62.7828 8.21088 62.7606 8.34595ZM62.743 8.32832L62.6751 7.86478C62.6678 7.72793 62.6302 7.59438 62.5651 7.47371C62.4985 7.36073 62.4051 7.26574 62.2933 7.19703C62.1814 7.12831 62.0543 7.08797 61.9232 7.07952C61.7857 7.07605 61.6496 7.10835 61.5283 7.17324C61.407 7.23813 61.3048 7.33339 61.2316 7.44965C61.1549 7.5773 61.1203 7.72574 61.1326 7.87406C61.1348 8.02894 61.146 8.18355 61.1663 8.33711L61.0946 8.26559C61.2288 8.25229 61.3586 8.23314 61.4884 8.22979C61.6182 8.22601 61.7498 8.23342 61.8828 8.23969C62.1499 8.25579 62.4286 8.288 62.743 8.32832Z" fill="black"/>
<path d="M64.339 5.33143C64.364 5.85719 64.386 6.36188 64.3974 6.85833C64.4102 7.35546 64.4181 7.84431 64.3991 8.33797L64.3327 8.27167C64.7575 8.2859 65.1822 8.30698 65.6069 8.30892C66.0317 8.31315 66.4565 8.30335 66.8812 8.28926L66.8324 8.33797C66.8138 7.83582 66.8004 7.33368 66.7958 6.83158C66.786 6.32943 66.7855 5.82728 66.7904 5.32518L66.8812 5.41579C66.4679 5.41759 66.0526 5.3971 65.6326 5.38692L64.339 5.33143ZM64.3263 5.31882L65.5813 5.26333C66.0107 5.25318 66.4451 5.2327 66.8812 5.23449C66.9053 5.23472 66.9282 5.24435 66.9452 5.26131C66.9622 5.27826 66.9719 5.30119 66.9721 5.32516C66.977 5.82728 66.9765 6.32942 66.9667 6.83156C66.9621 7.33367 66.9487 7.83582 66.9301 8.33795L66.93 8.34135C66.9298 8.34753 66.9284 8.3536 66.9258 8.35923C66.9232 8.36485 66.9196 8.36992 66.915 8.37413C66.9105 8.37835 66.9052 8.38163 66.8994 8.38379C66.8936 8.38594 66.8874 8.38694 66.8812 8.38671C66.4565 8.37262 66.0317 8.36282 65.6069 8.36708C65.1822 8.36899 64.7575 8.39007 64.3327 8.4043C64.3243 8.40458 64.3159 8.4032 64.308 8.40024C64.3001 8.39728 64.2928 8.3928 64.2867 8.38705C64.2805 8.3813 64.2756 8.3744 64.2721 8.36674C64.2686 8.35908 64.2667 8.3508 64.2664 8.34239L64.2662 8.33796C64.2472 7.8273 64.2551 7.31189 64.2679 6.80476C64.2793 6.29691 64.3014 5.79736 64.3263 5.31882Z" fill="black"/>
<path d="M65.5975 7.00501C65.6592 7.00467 65.7197 6.98698 65.7719 6.95396C65.824 6.92093 65.8658 6.87391 65.8925 6.81829C65.9359 6.72125 65.9655 6.6186 65.9804 6.51336C65.9938 6.45709 65.9955 6.39864 65.9852 6.3417C65.9749 6.28476 65.9529 6.23057 65.9206 6.18254C65.8812 6.13772 65.8303 6.10439 65.7734 6.08606C65.7165 6.06773 65.6557 6.06509 65.5975 6.07842C65.4935 6.09939 65.3998 6.15479 65.3314 6.23561C65.2741 6.31702 65.2436 6.4142 65.2441 6.51367C65.2416 6.61767 65.2625 6.72091 65.3052 6.81583C65.3311 6.87161 65.3723 6.91896 65.424 6.95242C65.4757 6.98589 65.5358 7.00412 65.5975 7.00501ZM65.5975 7.03022C65.4523 7.03918 65.308 7.00383 65.1835 6.92888C65.1181 6.88117 65.0651 6.81862 65.0288 6.7464C64.9925 6.67418 64.9739 6.59436 64.9747 6.51357C64.9734 6.43175 64.989 6.35055 65.0204 6.27497C65.0519 6.19939 65.0985 6.13104 65.1574 6.07413C65.215 6.01876 65.2849 5.97777 65.3613 5.95453C65.4378 5.93129 65.5187 5.92645 65.5975 5.94041C65.7411 5.96262 65.8746 6.0276 65.9806 6.12683C66.0943 6.22683 66.1687 6.36384 66.1906 6.51346C66.1997 6.59217 66.1876 6.67186 66.1556 6.74436C66.1236 6.81686 66.0728 6.87957 66.0085 6.92604C65.8852 7.00129 65.7419 7.0376 65.5975 7.03022Z" fill="black"/>
<path d="M66.4139 8.34595C66.1501 8.39009 65.8841 8.41968 65.617 8.43459C65.4737 8.44086 65.3292 8.44826 65.1828 8.44449C65.0363 8.44113 64.8899 8.42199 64.7479 8.40873L64.7334 8.40734C64.7251 8.40657 64.717 8.40417 64.7096 8.40027C64.7023 8.39638 64.6957 8.39108 64.6904 8.38466C64.6851 8.37825 64.6811 8.37085 64.6786 8.36289C64.6761 8.35493 64.6753 8.34656 64.6761 8.33827L64.6762 8.33713C64.6964 8.18357 64.7077 8.02895 64.7099 7.87408C64.6999 7.71239 64.7229 7.55036 64.7775 7.3978C64.8419 7.23344 64.9538 7.09194 65.0991 6.99135C65.2444 6.89077 65.4165 6.83568 65.5933 6.8331C65.7701 6.83053 65.9437 6.88059 66.0919 6.97689C66.2401 7.0732 66.3561 7.21139 66.4253 7.3738C66.492 7.53493 66.5116 7.71163 66.4818 7.88342C66.4646 8.053 66.4361 8.21089 66.4139 8.34595ZM66.3963 8.32833L66.3284 7.86479C66.3211 7.72793 66.2835 7.59439 66.2184 7.47372C66.1518 7.36074 66.0585 7.26574 65.9466 7.19703C65.8347 7.12832 65.7076 7.08798 65.5765 7.07953C65.439 7.07606 65.3029 7.10836 65.1816 7.17325C65.0603 7.23814 64.9581 7.3334 64.8849 7.44965C64.8082 7.57731 64.7736 7.72575 64.7859 7.87407C64.7881 8.02894 64.7993 8.18356 64.8196 8.33712L64.7479 8.26559C64.8821 8.2523 65.0119 8.23315 65.1417 8.22979C65.2715 8.22602 65.4031 8.23343 65.5361 8.23969C65.8031 8.25579 66.0819 8.288 66.3963 8.32833Z" fill="black"/>
<path d="M68.0606 5.33143C68.0856 5.85719 68.1077 6.36188 68.1192 6.85833C68.1319 7.35546 68.1397 7.84431 68.1208 8.33797L68.0544 8.27167C68.4791 8.2859 68.9039 8.30698 69.3287 8.30892C69.7534 8.31315 70.1781 8.30335 70.6029 8.28926L70.5541 8.33797C70.5355 7.83582 70.5222 7.33368 70.5175 6.83158C70.5077 6.32943 70.5071 5.82728 70.5121 5.32518L70.6029 5.41579C70.1896 5.41759 69.7743 5.3971 69.3543 5.38692L68.0606 5.33143ZM68.048 5.31882L69.303 5.26333C69.7325 5.25318 70.1667 5.2327 70.6029 5.23449C70.6269 5.23472 70.6499 5.24435 70.6669 5.2613C70.6839 5.27826 70.6936 5.30119 70.6938 5.32516C70.6988 5.82728 70.6982 6.32942 70.6884 6.83156C70.6837 7.33367 70.6703 7.83582 70.6518 8.33795L70.6517 8.34135C70.6515 8.34753 70.65 8.3536 70.6475 8.35923C70.6449 8.36485 70.6413 8.36992 70.6367 8.37413C70.6322 8.37835 70.6269 8.38163 70.6211 8.38379C70.6153 8.38594 70.6091 8.38694 70.6029 8.38671C70.1781 8.37262 69.7534 8.36282 69.3287 8.36708C68.9039 8.36899 68.4791 8.39007 68.0544 8.4043C68.0459 8.40458 68.0375 8.4032 68.0296 8.40024C68.0217 8.39728 68.0145 8.3928 68.0083 8.38705C68.0022 8.3813 67.9972 8.3744 67.9937 8.36674C67.9903 8.35908 67.9883 8.3508 67.988 8.34239L67.9879 8.33796C67.9689 7.8273 67.9768 7.31189 67.9895 6.80476C68.001 6.29691 68.0231 5.79736 68.048 5.31882Z" fill="black"/>
<path d="M69.3182 7.00501C69.38 7.00468 69.4404 6.98698 69.4926 6.95396C69.5448 6.92094 69.5866 6.87392 69.6132 6.81829C69.6567 6.72126 69.6863 6.61861 69.7011 6.51336C69.7146 6.45709 69.7162 6.39864 69.706 6.3417C69.6957 6.28476 69.6737 6.23057 69.6414 6.18254C69.6019 6.13772 69.551 6.10438 69.4941 6.08606C69.4373 6.06773 69.3765 6.06509 69.3182 6.07842C69.2143 6.0994 69.1205 6.15479 69.0521 6.23561C68.9948 6.31702 68.9643 6.4142 68.9649 6.51367C68.9624 6.61767 68.9832 6.7209 69.0259 6.81583C69.0518 6.87161 69.093 6.91895 69.1447 6.95242C69.1964 6.98588 69.2565 7.00412 69.3182 7.00501ZM69.3182 7.03022C69.1731 7.03918 69.0287 7.00383 68.9042 6.92888C68.8388 6.88117 68.7858 6.81861 68.7495 6.74639C68.7132 6.67417 68.6946 6.59436 68.6954 6.51357C68.6941 6.43175 68.7097 6.35055 68.7412 6.27497C68.7726 6.19939 68.8192 6.13104 68.8781 6.07413C68.9357 6.01876 69.0056 5.97777 69.0821 5.95453C69.1585 5.93129 69.2395 5.92645 69.3182 5.94041C69.4618 5.96262 69.5953 6.02759 69.7013 6.12683C69.815 6.22682 69.8895 6.36383 69.9114 6.51346C69.9205 6.59217 69.9084 6.67186 69.8764 6.74436C69.8443 6.81687 69.7936 6.87957 69.7293 6.92604C69.6059 7.00129 69.4626 7.0376 69.3182 7.03022Z" fill="black"/>
<path d="M70.1356 8.34596C69.8718 8.3901 69.6058 8.41969 69.3387 8.4346C69.1954 8.44087 69.0508 8.44827 68.9044 8.4445C68.758 8.44114 68.6116 8.42199 68.4696 8.40873L68.4551 8.40735C68.4468 8.40657 68.4387 8.40417 68.4313 8.40027C68.424 8.39638 68.4174 8.39108 68.4121 8.38467C68.4068 8.37825 68.4027 8.37085 68.4003 8.36289C68.3978 8.35493 68.397 8.34657 68.3977 8.33828L68.3979 8.33714C68.4181 8.18357 68.4294 8.02896 68.4316 7.87409C68.4216 7.71239 68.4446 7.55036 68.4992 7.3978C68.5636 7.23344 68.6755 7.09194 68.8208 6.99136C68.9661 6.89078 69.1382 6.83568 69.315 6.8331C69.4918 6.83053 69.6654 6.88059 69.8136 6.9769C69.9618 7.07321 70.0778 7.21139 70.1469 7.37381C70.2137 7.53493 70.2333 7.71163 70.2035 7.88343C70.1863 8.05301 70.1578 8.2109 70.1356 8.34596ZM70.118 8.32834L70.0501 7.8648C70.0428 7.72794 70.0052 7.59439 69.9401 7.47373C69.8734 7.36074 69.7801 7.26575 69.6682 7.19704C69.5563 7.12833 69.4293 7.08798 69.2982 7.07954C69.1606 7.07606 69.0245 7.10836 68.9033 7.17325C68.782 7.23815 68.6798 7.3334 68.6066 7.44966C68.5299 7.57732 68.4953 7.72576 68.5076 7.87408C68.5098 8.02895 68.521 8.18356 68.5413 8.33713L68.4696 8.2656C68.6038 8.2523 68.7336 8.23316 68.8634 8.2298C68.9932 8.22602 69.1248 8.23343 69.2578 8.2397C69.5248 8.2558 69.8036 8.28801 70.118 8.32834Z" fill="black"/>
<path d="M66.4112 9.07265C66.4362 9.59841 66.4583 10.1031 66.4697 10.5995C66.4824 11.0967 66.4903 11.5855 66.4714 12.0792L66.4049 12.0129C66.8297 12.0271 67.2544 12.0482 67.6792 12.0501C68.104 12.0544 68.5287 12.0446 68.9535 12.0305L68.9047 12.0792C68.8861 11.577 68.8727 11.0749 68.868 10.5728C68.8583 10.0706 68.8577 9.5685 68.8627 9.0664L68.9535 9.15701C68.5401 9.15881 68.1249 9.13831 67.7049 9.12817L66.4112 9.07265ZM66.3986 9.06004L67.6536 9.00454C68.083 8.9944 68.5173 8.97391 68.9535 8.9757C68.9775 8.97593 69.0005 8.98556 69.0175 9.00252C69.0345 9.01948 69.0441 9.04241 69.0444 9.06638C69.0493 9.56849 69.0487 10.0706 69.039 10.5728C69.0343 11.0749 69.0209 11.577 69.0024 12.0792L69.0023 12.0826C69.0021 12.0888 69.0006 12.0948 68.9981 12.1005C68.9955 12.1061 68.9918 12.1111 68.9873 12.1153C68.9828 12.1196 68.9775 12.1228 68.9717 12.125C68.9659 12.1271 68.9597 12.1281 68.9535 12.1279C68.5287 12.1138 68.104 12.104 67.6792 12.1083C67.2544 12.1102 66.8297 12.1313 66.4049 12.1455C66.3879 12.1461 66.3714 12.1399 66.3589 12.1283C66.3465 12.1167 66.3392 12.1006 66.3386 12.0836L66.3385 12.0792C66.3195 11.5685 66.3274 11.0531 66.3401 10.546C66.3516 10.0381 66.3736 9.53857 66.3986 9.06004Z" fill="black"/>
<path d="M67.6687 10.7462C67.7305 10.7459 67.7909 10.7282 67.8431 10.6952C67.8953 10.6622 67.9371 10.6151 67.9637 10.5595C68.0072 10.4625 68.0368 10.3598 68.0516 10.2546C68.0651 10.1983 68.0667 10.1399 68.0565 10.0829C68.0462 10.026 68.0242 9.97179 67.9919 9.92375C67.9524 9.87894 67.9015 9.84561 67.8447 9.82728C67.7878 9.80895 67.727 9.80631 67.6687 9.81964C67.5648 9.8406 67.471 9.89599 67.4027 9.97683C67.3453 10.0582 67.3148 10.1554 67.3154 10.2549C67.3129 10.3589 67.3338 10.4621 67.3764 10.5571C67.4024 10.6128 67.4436 10.6602 67.4953 10.6937C67.547 10.7271 67.6071 10.7453 67.6687 10.7462ZM67.6687 10.7714C67.5236 10.7804 67.3792 10.7451 67.2548 10.6701C67.1894 10.6224 67.1364 10.5598 67.1001 10.4876C67.0637 10.4154 67.0452 10.3356 67.046 10.2548C67.0447 10.173 67.0603 10.0918 67.0917 10.0162C67.1232 9.9406 67.1698 9.87225 67.2287 9.81534C67.2863 9.75997 67.3561 9.71899 67.4326 9.69574C67.5091 9.6725 67.59 9.66766 67.6687 9.68163C67.8123 9.70383 67.9458 9.76881 68.0518 9.86804C68.1655 9.96803 68.2399 10.105 68.2619 10.2547C68.2709 10.3334 68.2588 10.4131 68.2268 10.4856C68.1948 10.5581 68.1441 10.6208 68.0798 10.6673C67.9564 10.7425 67.8131 10.7788 67.6687 10.7714V10.7714Z" fill="black"/>
<path d="M68.4862 12.0872C68.2224 12.1313 67.9563 12.1609 67.6892 12.1758C67.546 12.1821 67.4014 12.1895 67.255 12.1857C67.1086 12.1824 66.9622 12.1632 66.8202 12.1499L66.8057 12.1486C66.7974 12.1478 66.7893 12.1454 66.7819 12.1415C66.7745 12.1376 66.768 12.1323 66.7627 12.1259C66.7573 12.1195 66.7533 12.1121 66.7509 12.1041C66.7484 12.0961 66.7475 12.0878 66.7483 12.0795L66.7484 12.0784C66.7687 11.9248 66.78 11.7702 66.7821 11.6153C66.7722 11.4536 66.7952 11.2916 66.8498 11.139C66.9141 10.9747 67.0261 10.8332 67.1714 10.7326C67.3167 10.632 67.4887 10.5769 67.6656 10.5743C67.8424 10.5717 68.016 10.6218 68.1642 10.7181C68.3124 10.8144 68.4284 10.9526 68.4975 11.115C68.5643 11.2761 68.5839 11.4528 68.5541 11.6246C68.5369 11.7942 68.5084 11.9521 68.4862 12.0872ZM68.4686 12.0695L68.4007 11.606C68.3934 11.4691 68.3558 11.3356 68.2907 11.2149C68.224 11.1019 68.1307 11.007 68.0188 10.9382C67.9069 10.8695 67.7799 10.8292 67.6488 10.8207C67.5112 10.8172 67.3751 10.8495 67.2538 10.9144C67.1326 10.9793 67.0303 11.0746 66.9571 11.1909C66.8804 11.3185 66.8458 11.467 66.8582 11.6153C66.8603 11.7702 66.8716 11.9248 66.8919 12.0783L66.8202 12.0068C66.9544 11.9935 67.0842 11.9744 67.214 11.971C67.3437 11.9672 67.4754 11.9746 67.6083 11.9809C67.8754 11.997 68.1541 12.0292 68.4686 12.0695Z" fill="black"/>
<path d="M62.4376 9.07265C62.4626 9.59841 62.4846 10.1031 62.4961 10.5995C62.5088 11.0967 62.5167 11.5855 62.4977 12.0792L62.4313 12.0129C62.8561 12.0271 63.2808 12.0482 63.7056 12.0501C64.1303 12.0544 64.5551 12.0446 64.9799 12.0305L64.931 12.0792C64.9125 11.577 64.8991 11.0749 64.8944 10.5728C64.8847 10.0706 64.8841 9.5685 64.889 9.0664L64.9799 9.15701C64.5665 9.15881 64.1513 9.13831 63.7312 9.12817L62.4376 9.07265ZM62.425 9.06004L63.6799 9.00454C64.1094 8.9944 64.5437 8.97391 64.9799 8.9757C65.0039 8.97593 65.0269 8.98556 65.0439 9.00252C65.0608 9.01948 65.0705 9.04241 65.0707 9.06638C65.0757 9.56849 65.0751 10.0706 65.0653 10.5728C65.0607 11.0749 65.0473 11.577 65.0287 12.0792L65.0286 12.0826C65.0284 12.0888 65.027 12.0948 65.0244 12.1005C65.0218 12.1061 65.0182 12.1111 65.0137 12.1153C65.0091 12.1196 65.0038 12.1228 64.998 12.125C64.9922 12.1271 64.986 12.1281 64.9799 12.1279C64.5551 12.1138 64.1303 12.104 63.7056 12.1083C63.2808 12.1102 62.8561 12.1313 62.4313 12.1455C62.4229 12.1458 62.4145 12.1444 62.4066 12.1415C62.3987 12.1385 62.3915 12.134 62.3853 12.1283C62.3791 12.1225 62.3742 12.1156 62.3707 12.108C62.3672 12.1003 62.3653 12.092 62.365 12.0836L62.3648 12.0792C62.3459 11.5685 62.3538 11.0531 62.3665 10.546C62.3779 10.0381 62.4 9.53857 62.425 9.06004Z" fill="black"/>
<path d="M60.6856 12.9701C60.7106 13.4959 60.7327 14.0006 60.7441 14.497C60.7569 14.9941 60.7647 15.483 60.7458 15.9767L60.6794 15.9104C61.1041 15.9246 61.5289 15.9457 61.9536 15.9476C62.3784 15.9518 62.8031 15.942 63.2279 15.9279L63.1791 15.9767C63.1605 15.4745 63.1471 14.9724 63.1425 14.4703C63.1327 13.9681 63.1321 13.466 63.1371 12.9639L63.2279 13.0545C62.8146 13.0563 62.3993 13.0358 61.9793 13.0256L60.6856 12.9701ZM60.673 12.9575L61.928 12.902C62.3574 12.8918 62.7917 12.8714 63.2279 12.8732C63.2519 12.8734 63.2749 12.883 63.2919 12.9C63.3089 12.9169 63.3185 12.9399 63.3188 12.9638C63.3237 13.466 63.3231 13.9681 63.3134 14.4702C63.3087 14.9724 63.2953 15.4745 63.2768 15.9766L63.2767 15.98C63.2765 15.9862 63.275 15.9923 63.2725 15.9979C63.2699 16.0035 63.2662 16.0086 63.2617 16.0128C63.2572 16.017 63.2519 16.0203 63.2461 16.0225C63.2403 16.0246 63.2341 16.0256 63.2279 16.0254C62.8031 16.0113 62.3784 16.0015 61.9536 16.0057C61.5289 16.0077 61.1041 16.0288 60.6794 16.043C60.6709 16.0433 60.6625 16.0419 60.6546 16.0389C60.6467 16.036 60.6395 16.0315 60.6333 16.0257C60.6272 16.02 60.6222 16.0131 60.6187 16.0054C60.6153 15.9978 60.6133 15.9895 60.613 15.9811L60.6129 15.9767C60.5939 15.466 60.6018 14.9506 60.6145 14.4434C60.626 13.9356 60.648 13.436 60.673 12.9575L60.673 12.9575Z" fill="black"/>
<path d="M61.9431 14.6437C62.0049 14.6433 62.0654 14.6256 62.1175 14.5926C62.1697 14.5596 62.2115 14.5126 62.2381 14.4569C62.2816 14.3599 62.3112 14.2573 62.326 14.152C62.3395 14.0958 62.3412 14.0373 62.3309 13.9804C62.3206 13.9234 62.2986 13.8692 62.2663 13.8212C62.2268 13.7764 62.176 13.743 62.1191 13.7247C62.0622 13.7064 62.0014 13.7037 61.9431 13.7171C61.8392 13.738 61.7455 13.7934 61.6771 13.8743C61.6198 13.9557 61.5893 14.0529 61.5898 14.1523C61.5873 14.2563 61.6082 14.3596 61.6508 14.4545C61.6768 14.5103 61.718 14.5576 61.7697 14.5911C61.8214 14.6246 61.8815 14.6428 61.9431 14.6437ZM61.9431 14.6689C61.798 14.6779 61.6536 14.6425 61.5292 14.5676C61.4638 14.5198 61.4108 14.4573 61.3745 14.3851C61.3382 14.3129 61.3196 14.233 61.3204 14.1522C61.3191 14.0704 61.3347 13.9892 61.3661 13.9136C61.3976 13.8381 61.4442 13.7697 61.5031 13.7128C61.5607 13.6574 61.6305 13.6164 61.707 13.5932C61.7835 13.57 61.8644 13.5651 61.9431 13.5791C62.0868 13.6013 62.2203 13.6663 62.3263 13.7655C62.4399 13.8655 62.5144 14.0025 62.5363 14.1521C62.5454 14.2308 62.5333 14.3105 62.5013 14.383C62.4693 14.4555 62.4185 14.5182 62.3542 14.5647C62.2308 14.64 62.0876 14.6763 61.9431 14.6689Z" fill="black"/>
<path d="M62.7606 15.9846C62.4968 16.0287 62.2308 16.0583 61.9637 16.0733C61.8204 16.0795 61.6758 16.0869 61.5294 16.0832C61.383 16.0798 61.2366 16.0607 61.0946 16.0474L61.0801 16.046C61.0718 16.0452 61.0637 16.0428 61.0563 16.0389C61.0489 16.0351 61.0424 16.0297 61.0371 16.0233C61.0317 16.0169 61.0277 16.0095 61.0253 16.0016C61.0228 15.9936 61.022 15.9852 61.0227 15.9769L61.0228 15.9758C61.0431 15.8222 61.0544 15.6676 61.0565 15.5127C61.0466 15.3511 61.0696 15.189 61.1242 15.0365C61.1885 14.8721 61.3005 14.7306 61.4458 14.63C61.5911 14.5294 61.7632 14.4743 61.94 14.4718C62.1168 14.4692 62.2904 14.5193 62.4386 14.6156C62.5868 14.7119 62.7028 14.8501 62.7719 15.0125C62.8387 15.1736 62.8583 15.3503 62.8285 15.5221C62.8113 15.6916 62.7828 15.8496 62.7606 15.9846ZM62.743 15.967L62.6751 15.5034C62.6678 15.3666 62.6302 15.233 62.5651 15.1124C62.4985 14.9994 62.4051 14.9044 62.2933 14.8357C62.1814 14.767 62.0543 14.7266 61.9232 14.7182C61.7857 14.7147 61.6496 14.747 61.5283 14.8119C61.407 14.8768 61.3048 14.9721 61.2316 15.0883C61.1549 15.216 61.1203 15.3644 61.1326 15.5127C61.1348 15.6676 61.146 15.8222 61.1663 15.9758L61.0946 15.9042C61.2288 15.891 61.3586 15.8718 61.4884 15.8685C61.6182 15.8647 61.7498 15.8721 61.8828 15.8784C62.1499 15.8945 62.4286 15.9266 62.743 15.967Z" fill="black"/>
<path d="M64.339 12.9701C64.364 13.4959 64.386 14.0006 64.3974 14.497C64.4102 14.9941 64.4181 15.483 64.3991 15.9766L64.3327 15.9103C64.7575 15.9246 65.1822 15.9457 65.6069 15.9476C66.0317 15.9518 66.4565 15.942 66.8812 15.9279L66.8324 15.9766C66.8138 15.4745 66.8004 14.9724 66.7958 14.4703C66.786 13.9681 66.7855 13.466 66.7904 12.9639L66.8812 13.0545C66.4679 13.0563 66.0526 13.0358 65.6326 13.0256L64.339 12.9701ZM64.3263 12.9575L65.5813 12.902C66.0107 12.8918 66.4451 12.8714 66.8812 12.8732C66.9053 12.8734 66.9282 12.883 66.9452 12.9C66.9622 12.9169 66.9719 12.9399 66.9721 12.9638C66.977 13.466 66.9765 13.9681 66.9667 14.4702C66.9621 14.9723 66.9487 15.4745 66.9301 15.9766L66.93 15.98C66.9298 15.9862 66.9283 15.9923 66.9258 15.9979C66.9232 16.0035 66.9196 16.0086 66.915 16.0128C66.9105 16.017 66.9052 16.0203 66.8994 16.0225C66.8936 16.0246 66.8874 16.0256 66.8812 16.0254C66.4565 16.0113 66.0317 16.0015 65.6069 16.0057C65.1822 16.0077 64.7575 16.0287 64.3327 16.043C64.3243 16.0433 64.3159 16.0419 64.308 16.0389C64.3001 16.036 64.2928 16.0315 64.2867 16.0257C64.2805 16.02 64.2756 16.0131 64.2721 16.0054C64.2686 15.9978 64.2667 15.9895 64.2664 15.9811L64.2662 15.9766C64.2472 15.466 64.2551 14.9506 64.2679 14.4434C64.2793 13.9356 64.3014 13.436 64.3263 12.9575V12.9575Z" fill="black"/>
<path d="M68.0294 12.9701C68.0544 13.4959 68.0764 14.0006 68.0879 14.497C68.1006 14.9941 68.1085 15.483 68.0895 15.9767L68.0231 15.9104C68.4479 15.9246 68.8726 15.9457 69.2974 15.9476C69.7222 15.9518 70.1469 15.942 70.5717 15.9279L70.5228 15.9767C70.5043 15.4745 70.4909 14.9724 70.4862 14.4703C70.4765 13.9681 70.4759 13.466 70.4808 12.9639L70.5717 13.0545C70.1583 13.0563 69.7431 13.0358 69.323 13.0256L68.0294 12.9701ZM68.0168 12.9575L69.2717 12.902C69.7012 12.8918 70.1355 12.8714 70.5717 12.8732C70.5957 12.8734 70.6187 12.883 70.6357 12.9C70.6527 12.9169 70.6623 12.9399 70.6625 12.9638C70.6675 13.466 70.6669 13.9681 70.6572 14.4702C70.6525 14.9724 70.6391 15.4745 70.6206 15.9766L70.6204 15.98C70.6202 15.9862 70.6188 15.9923 70.6162 15.9979C70.6137 16.0035 70.61 16.0086 70.6055 16.0128C70.6009 16.017 70.5956 16.0203 70.5898 16.0225C70.584 16.0246 70.5778 16.0256 70.5717 16.0254C70.1469 16.0113 69.7222 16.0015 69.2974 16.0057C68.8726 16.0077 68.4479 16.0288 68.0231 16.043C68.0147 16.0433 68.0063 16.0419 67.9984 16.0389C67.9905 16.036 67.9832 16.0315 67.9771 16.0257C67.9709 16.02 67.966 16.0131 67.9625 16.0054C67.959 15.9978 67.9571 15.9895 67.9568 15.9811L67.9566 15.9767C67.9377 15.466 67.9456 14.9506 67.9583 14.4434C67.9697 13.9356 67.9918 13.436 68.0168 12.9575V12.9575Z" fill="black"/>
<path d="M69.2869 14.6427C69.3487 14.6424 69.4091 14.6247 69.4613 14.5916C69.5135 14.5586 69.5553 14.5116 69.5819 14.4559C69.6254 14.3589 69.655 14.2563 69.6698 14.151C69.6833 14.0948 69.685 14.0363 69.6747 13.9794C69.6644 13.9224 69.6424 13.8682 69.6101 13.8202C69.5706 13.7754 69.5197 13.7421 69.4629 13.7237C69.406 13.7054 69.3452 13.7028 69.2869 13.7161C69.183 13.7371 69.0892 13.7925 69.0208 13.8733C68.9635 13.9547 68.933 14.0519 68.9336 14.1514C68.9311 14.2553 68.9519 14.3586 68.9946 14.4535C69.0205 14.5093 69.0617 14.5566 69.1134 14.5901C69.1651 14.6236 69.2253 14.6418 69.2869 14.6427ZM69.2869 14.6679C69.1418 14.6769 68.9974 14.6415 68.8729 14.5666C68.8075 14.5189 68.7545 14.4563 68.7182 14.3841C68.6819 14.3119 68.6634 14.2321 68.6641 14.1513C68.6629 14.0694 68.6785 13.9882 68.7099 13.9127C68.7413 13.8371 68.7879 13.7687 68.8468 13.7118C68.9044 13.6564 68.9743 13.6155 69.0508 13.5922C69.1272 13.569 69.2082 13.5641 69.2869 13.5781C69.4305 13.6003 69.5641 13.6653 69.67 13.7645C69.7837 13.8645 69.8581 14.0015 69.8801 14.1511C69.8891 14.2298 69.8771 14.3095 69.8451 14.382C69.8131 14.4545 69.7623 14.5172 69.698 14.5637C69.5746 14.639 69.4313 14.6753 69.2869 14.6679Z" fill="black"/>
<path d="M70.1054 15.9846C69.8415 16.0287 69.5755 16.0583 69.3084 16.0733C69.1652 16.0795 69.0206 16.0869 68.8741 16.0832C68.7277 16.0798 68.5813 16.0607 68.4394 16.0474L68.4249 16.046C68.4165 16.0452 68.4085 16.0428 68.4011 16.0389C68.3937 16.0351 68.3871 16.0298 68.3818 16.0233C68.3765 16.0169 68.3725 16.0095 68.37 16.0016C68.3676 15.9936 68.3667 15.9852 68.3675 15.9769L68.3676 15.9758C68.3879 15.8222 68.3991 15.6676 68.4013 15.5127C68.3913 15.3511 68.4143 15.189 68.469 15.0365C68.5333 14.8721 68.6452 14.7306 68.7906 14.63C68.9359 14.5294 69.1079 14.4743 69.2847 14.4718C69.4616 14.4692 69.6351 14.5193 69.7833 14.6156C69.9315 14.7119 70.0476 14.8501 70.1167 15.0125C70.1834 15.1736 70.203 15.3503 70.1732 15.5221C70.156 15.6916 70.1275 15.8496 70.1054 15.9846ZM70.0877 15.967L70.0198 15.5034C70.0125 15.3666 69.9749 15.233 69.9098 15.1124C69.8432 14.9994 69.7498 14.9044 69.638 14.8357C69.5261 14.767 69.399 14.7266 69.2679 14.7182C69.1304 14.7147 68.9942 14.747 68.873 14.8119C68.7517 14.8768 68.6495 14.9721 68.5763 15.0883C68.4996 15.216 68.465 15.3644 68.4774 15.5127C68.4795 15.6676 68.4908 15.8222 68.511 15.9758L68.4393 15.9042C68.5736 15.891 68.7033 15.8718 68.8331 15.8685C68.9629 15.8647 69.0945 15.8721 69.2275 15.8784C69.4946 15.8945 69.7733 15.9266 70.0877 15.967Z" fill="black"/>
<path d="M49.844 23.0421L49.7949 23.3213L50.0749 23.3703L50.124 23.0911L49.844 23.0421Z" fill="black"/>
<path d="M60.1101 25.122L59.5526 25.0248L59.6015 24.7456L60.1589 24.8428L60.1101 25.122ZM58.995 24.9276L58.4375 24.8304L58.4864 24.5511L59.0438 24.6484L58.995 24.9276ZM57.88 24.7331L57.3226 24.6359L57.3714 24.3567L57.9289 24.4539L57.88 24.7331ZM56.765 24.5387L56.2075 24.4412L56.2566 24.162L56.8141 24.2595L56.765 24.5387ZM55.6502 24.344L55.0927 24.2467L55.1416 23.9675L55.699 24.0648L55.6502 24.344ZM54.5352 24.1495L53.9778 24.0523L54.0266 23.7731L54.5841 23.8703L54.5352 24.1495ZM53.4202 23.9551L52.8627 23.8578L52.9116 23.5786L53.469 23.6759L53.4202 23.9551ZM52.3052 23.7603L51.7478 23.6631L51.7966 23.3839L52.3541 23.4811L52.3052 23.7603ZM51.1903 23.5659L50.6328 23.4687L50.6817 23.1895L51.2391 23.2867L51.1903 23.5659Z" fill="black"/>
<path d="M60.7171 24.9386L60.668 25.2178L60.948 25.2668L60.9971 24.9876L60.7171 24.9386Z" fill="black"/>
<path d="M48.9286 24.0174L48.8691 24.2949L49.1472 24.3542L49.2066 24.0767L48.9286 24.0174Z" fill="black"/>
<path d="M58.8972 26.4264L58.3556 26.3112L58.415 26.0337L58.9566 26.1489L58.8972 26.4264ZM57.8141 26.1963L57.2723 26.081L57.3314 25.8035L57.8732 25.9187L57.8141 26.1963ZM56.7307 25.9658L56.189 25.8509L56.2481 25.5733L56.7898 25.6883L56.7307 25.9658ZM55.6471 25.7356L55.1054 25.6204L55.1649 25.3429L55.7065 25.4581L55.6471 25.7356ZM54.5638 25.5052L54.0222 25.3902L54.0813 25.1127L54.6229 25.2276L54.5638 25.5052ZM53.4805 25.275L52.9387 25.1598L52.9979 24.8822L53.5396 24.9975L53.4805 25.275ZM52.397 25.0448L51.8553 24.9296L51.9147 24.652L52.4564 24.7673L52.397 25.0448ZM51.3135 24.8144L50.7719 24.6991L50.8313 24.4216L51.3729 24.5368L51.3135 24.8144ZM50.2301 24.5842L49.6885 24.469L49.7479 24.1914L50.2895 24.3066L50.2301 24.5842Z" fill="black"/>
<path d="M59.4989 26.2635L59.4395 26.541L59.7175 26.6003L59.777 26.3228L59.4989 26.2635Z" fill="black"/>
<path d="M49.8047 25.6504C50.2903 25.678 50.7714 25.7589 51.2393 25.8916C51.7104 26.0123 52.1667 26.185 52.5995 26.4064C52.1138 26.3794 51.6326 26.2985 51.1649 26.1652C50.6939 26.0439 50.2378 25.8713 49.8047 25.6504Z" fill="black"/>
</svg>
