<svg width="49" height="48" viewBox="0 0 49 48" fill="none" xmlns="http://www.w3.org/2000/svg">
<path d="M36.5 16H34.5V12C34.5 6.48 30.02 2 24.5 2C18.98 2 14.5 6.48 14.5 12V16H12.5C10.3 16 8.5 17.8 8.5 20V40C8.5 42.2 10.3 44 12.5 44H36.5C38.7 44 40.5 42.2 40.5 40V20C40.5 17.8 38.7 16 36.5 16ZM24.5 34C22.3 34 20.5 32.2 20.5 30C20.5 27.8 22.3 26 24.5 26C26.7 26 28.5 27.8 28.5 30C28.5 32.2 26.7 34 24.5 34ZM30.7 16H18.3V12C18.3 8.58 21.08 5.8 24.5 5.8C27.92 5.8 30.7 8.58 30.7 12V16Z" fill="#323232"/>
</svg>
