<svg width="149" height="24" viewBox="0 0 149 24" fill="none" xmlns="http://www.w3.org/2000/svg">
<path d="M47.0841 4.37035L43.387 18.4103H39.2049L36.9421 9.17035L34.5986 18.4103H30.4165L26.8203 4.37035H30.5175L32.558 14.5903L35.0834 4.37035H38.8816L41.306 14.5903L43.3668 4.37035H47.0841Z" fill="#1F2937"/>
<path d="M53.9483 18.5704C52.8439 18.5704 51.8472 18.337 50.9583 17.8703C50.0828 17.4037 49.3892 16.737 48.8773 15.8704C48.379 15.0037 48.1298 13.9903 48.1298 12.8303C48.1298 11.6837 48.3857 10.677 48.8975 9.81035C49.4094 8.93035 50.1097 8.25702 50.9987 7.79035C51.8876 7.32368 52.8843 7.09035 53.9888 7.09035C55.0932 7.09035 56.0899 7.32368 56.9788 7.79035C57.8678 8.25702 58.5681 8.93035 59.08 9.81035C59.5918 10.677 59.8477 11.6837 59.8477 12.8303C59.8477 13.977 59.585 14.9904 59.0598 15.8704C58.5479 16.737 57.8408 17.4037 56.9384 17.8703C56.0495 18.337 55.0528 18.5704 53.9483 18.5704ZM53.9483 15.6103C54.6083 15.6103 55.1673 15.3704 55.6252 14.8904C56.0966 14.4104 56.3323 13.7237 56.3323 12.8303C56.3323 11.937 56.1034 11.2503 55.6454 10.7703C55.2009 10.2903 54.6487 10.0503 53.9888 10.0503C53.3153 10.0503 52.7564 10.2903 52.3119 10.7703C51.8674 11.237 51.6452 11.9237 51.6452 12.8303C51.6452 13.7237 51.8607 14.4104 52.2917 14.8904C52.7362 15.3704 53.2884 15.6103 53.9483 15.6103Z" fill="#1F2937"/>
<path d="M65.1352 9.11035C65.5393 8.49702 66.0444 8.01702 66.6505 7.67035C67.2566 7.31035 67.93 7.13035 68.6708 7.13035V10.7503H67.7213C66.8593 10.7503 66.2128 10.937 65.7818 11.3104C65.3507 11.6704 65.1352 12.3104 65.1352 13.2304V18.4103H61.6805V7.25035H65.1352V9.11035Z" fill="#1F2937"/>
<path d="M77.2114 18.4103L73.7769 13.7303V18.4103H70.3221V3.61035H73.7769V11.7903L77.1912 7.25035H81.4541L76.7669 12.8503L81.4945 18.4103H77.2114Z" fill="#1F2937"/>
<path d="M86.2658 8.83035C86.589 8.31035 87.0537 7.89035 87.6598 7.57035C88.2659 7.25035 88.9595 7.09035 89.7407 7.09035C90.6701 7.09035 91.5119 7.32368 92.2661 7.79035C93.0204 8.25702 93.613 8.92368 94.044 9.79035C94.4885 10.657 94.7107 11.6637 94.7107 12.8104C94.7107 13.957 94.4885 14.9703 94.044 15.8503C93.613 16.717 93.0204 17.3903 92.2661 17.8703C91.5119 18.337 90.6701 18.5704 89.7407 18.5704C88.9461 18.5704 88.2524 18.417 87.6598 18.1103C87.0672 17.7903 86.6025 17.3703 86.2658 16.8503V18.4103H82.811V3.61035H86.2658V8.83035ZM91.1954 12.8104C91.1954 11.957 90.9529 11.2904 90.468 10.8104C89.9966 10.317 89.4107 10.0703 88.7104 10.0703C88.0234 10.0703 87.4376 10.317 86.9527 10.8104C86.4813 11.3037 86.2456 11.977 86.2456 12.8303C86.2456 13.6837 86.4813 14.357 86.9527 14.8503C87.4376 15.3437 88.0234 15.5904 88.7104 15.5904C89.3973 15.5904 89.9832 15.3437 90.468 14.8503C90.9529 14.3437 91.1954 13.6637 91.1954 12.8104Z" fill="#1F2937"/>
<path d="M101.655 18.5704C100.55 18.5704 99.5536 18.337 98.6647 17.8703C97.7892 17.4037 97.0956 16.737 96.5838 15.8704C96.0854 15.0037 95.8362 13.9903 95.8362 12.8303C95.8362 11.6837 96.0922 10.677 96.604 9.81035C97.1158 8.93035 97.8162 8.25702 98.7051 7.79035C99.594 7.32368 100.591 7.09035 101.695 7.09035C102.8 7.09035 103.796 7.32368 104.685 7.79035C105.574 8.25702 106.275 8.93035 106.786 9.81035C107.298 10.677 107.554 11.6837 107.554 12.8303C107.554 13.977 107.291 14.9904 106.766 15.8704C106.254 16.737 105.547 17.4037 104.645 17.8703C103.756 18.337 102.759 18.5704 101.655 18.5704ZM101.655 15.6103C102.315 15.6103 102.874 15.3704 103.332 14.8904C103.803 14.4104 104.039 13.7237 104.039 12.8303C104.039 11.937 103.81 11.2503 103.352 10.7703C102.907 10.2903 102.355 10.0503 101.695 10.0503C101.022 10.0503 100.463 10.2903 100.018 10.7703C99.5738 11.237 99.3516 11.9237 99.3516 12.8303C99.3516 13.7237 99.5671 14.4104 99.9981 14.8904C100.443 15.3704 100.995 15.6103 101.655 15.6103Z" fill="#1F2937"/>
<path d="M114.519 18.5704C113.414 18.5704 112.417 18.337 111.528 17.8703C110.653 17.4037 109.959 16.737 109.448 15.8704C108.949 15.0037 108.7 13.9903 108.7 12.8303C108.7 11.6837 108.956 10.677 109.468 9.81035C109.98 8.93035 110.68 8.25702 111.569 7.79035C112.458 7.32368 113.455 7.09035 114.559 7.09035C115.663 7.09035 116.66 7.32368 117.549 7.79035C118.438 8.25702 119.138 8.93035 119.65 9.81035C120.162 10.677 120.418 11.6837 120.418 12.8303C120.418 13.977 120.155 14.9904 119.63 15.8704C119.118 16.737 118.411 17.4037 117.509 17.8703C116.62 18.337 115.623 18.5704 114.519 18.5704ZM114.519 15.6103C115.179 15.6103 115.737 15.3704 116.195 14.8904C116.667 14.4104 116.903 13.7237 116.903 12.8303C116.903 11.937 116.674 11.2503 116.216 10.7703C115.771 10.2903 115.219 10.0503 114.559 10.0503C113.886 10.0503 113.327 10.2903 112.882 10.7703C112.438 11.237 112.215 11.9237 112.215 12.8303C112.215 13.7237 112.431 14.4104 112.862 14.8904C113.306 15.3704 113.859 15.6103 114.519 15.6103Z" fill="#1F2937"/>
<path d="M126.837 18.5704C125.854 18.5704 124.978 18.4037 124.21 18.0703C123.443 17.737 122.837 17.2837 122.392 16.7103C121.948 16.1237 121.698 15.4703 121.645 14.7503H125.059C125.099 15.137 125.281 15.4504 125.604 15.6904C125.928 15.9304 126.325 16.0503 126.796 16.0503C127.227 16.0503 127.557 15.9703 127.786 15.8103C128.029 15.637 128.15 15.417 128.15 15.1503C128.15 14.8303 127.982 14.597 127.645 14.4503C127.308 14.2903 126.763 14.117 126.008 13.9303C125.2 13.7437 124.527 13.5503 123.988 13.3503C123.449 13.137 122.985 12.8103 122.594 12.3703C122.204 11.917 122.008 11.3103 122.008 10.5503C122.008 9.91035 122.183 9.33035 122.534 8.81035C122.897 8.27702 123.422 7.85702 124.109 7.55035C124.81 7.24368 125.638 7.09035 126.594 7.09035C128.009 7.09035 129.12 7.43702 129.928 8.13035C130.75 8.82368 131.221 9.74368 131.342 10.8904H128.15C128.096 10.5037 127.921 10.197 127.625 9.97035C127.342 9.74368 126.965 9.63035 126.493 9.63035C126.089 9.63035 125.78 9.71035 125.564 9.87035C125.349 10.017 125.241 10.2237 125.241 10.4903C125.241 10.8103 125.409 11.0504 125.746 11.2104C126.096 11.3704 126.635 11.5303 127.362 11.6903C128.197 11.9037 128.877 12.117 129.403 12.3304C129.928 12.5304 130.386 12.8637 130.776 13.3303C131.181 13.7837 131.389 14.397 131.403 15.1704C131.403 15.8237 131.214 16.4103 130.837 16.9303C130.473 17.437 129.941 17.837 129.241 18.1303C128.554 18.4237 127.753 18.5704 126.837 18.5704Z" fill="#1F2937"/>
<path d="M139.8 15.5103V18.4103H138.042C136.789 18.4103 135.813 18.1103 135.112 17.5103C134.412 16.897 134.062 15.9037 134.062 14.5303V10.0904H132.688V7.25035H134.062V4.53035H137.517V7.25035H139.779V10.0904H137.517V14.5704C137.517 14.9037 137.597 15.1437 137.759 15.2903C137.921 15.437 138.19 15.5103 138.567 15.5103H139.8Z" fill="#1F2937"/>
<g clip-path="url(#clip0_8073_61013)">
<path d="M11.4661 22.4C5.19052 22.4 0.152344 17.3432 0.152344 11.2C0.152344 4.9875 5.19052 0 11.4661 0C17.7418 0 22.7799 4.9875 22.7799 11.2C22.7799 17.3432 17.7418 22.4 11.4661 22.4ZM11.4661 1.8816C6.28442 1.8816 2.04882 6.0704 2.04882 11.2007C2.04882 16.331 6.28442 20.5233 11.4661 20.5233C16.6479 20.5233 20.8835 16.3303 20.8835 11.2007C20.8835 6.0711 16.6479 1.8816 11.4661 1.8816ZM17.0163 12.2829H8.83993C8.66669 12.2838 8.50012 12.2168 8.37663 12.0966C8.25313 11.9763 8.18276 11.8125 8.1809 11.641V10.6967C8.1809 10.332 8.47152 10.0443 8.83993 10.0443H17.0856C17.4504 10.0443 17.7411 10.3362 17.7411 10.6967V11.634C17.6711 11.9952 17.3769 12.2829 17.0163 12.2829ZM14.8985 8.6695H6.64859C6.47523 8.67081 6.30845 8.60393 6.18488 8.48357C6.0613 8.36321 5.99105 8.19921 5.98956 8.0276V7.0833C5.98956 6.7914 6.28442 6.5037 6.64859 6.5037H14.8942C15.1891 6.5037 15.4797 6.7956 15.4797 7.0833V8.0206C15.4797 8.3818 15.1898 8.6695 14.8985 8.6695ZM6.64929 13.7305H14.8992C15.264 13.7305 15.5547 14.0182 15.5547 14.3794V15.3167C15.5554 15.4887 15.4872 15.6541 15.365 15.7764C15.2427 15.8987 15.0765 15.968 14.9027 15.9691H6.64929C6.28442 15.8963 5.9938 15.6079 5.9938 15.2474V14.3066C5.99026 14.0189 6.28442 13.7305 6.64929 13.7305Z" fill="#4589EF"/>
</g>
<defs>
<clipPath id="clip0_8073_61013">
<rect width="22.6276" height="22.4" fill="white" transform="translate(0.152344)"/>
</clipPath>
</defs>
</svg>
