<svg width="100%" height="100%" viewBox="0 0 114 16" fill="none" xmlns="http://www.w3.org/2000/svg">
<path d="M21.0841 1.37133L17.387 15.4113H13.2049L10.9421 6.17133L8.59855 15.4113H4.41649L0.820312 1.37133H4.5175L6.55803 11.5913L9.08343 1.37133H12.8816L15.306 11.5913L17.3668 1.37133H21.0841Z" fill="#1F2937"/>
<path d="M27.9483 15.5713C26.8439 15.5713 25.8472 15.338 24.9583 14.8713C24.0828 14.4047 23.3892 13.738 22.8773 12.8713C22.379 12.0047 22.1298 10.9913 22.1298 9.83133C22.1298 8.68466 22.3857 7.67799 22.8975 6.81133C23.4094 5.93133 24.1097 5.25799 24.9987 4.79133C25.8876 4.32466 26.8843 4.09133 27.9888 4.09133C29.0932 4.09133 30.0899 4.32466 30.9788 4.79133C31.8678 5.25799 32.5681 5.93133 33.08 6.81133C33.5918 7.67799 33.8477 8.68466 33.8477 9.83133C33.8477 10.978 33.585 11.9913 33.0598 12.8713C32.5479 13.738 31.8408 14.4047 30.9384 14.8713C30.0495 15.338 29.0528 15.5713 27.9483 15.5713ZM27.9483 12.6113C28.6083 12.6113 29.1673 12.3713 29.6252 11.8913C30.0966 11.4113 30.3323 10.7247 30.3323 9.83133C30.3323 8.93799 30.1034 8.25133 29.6454 7.77133C29.2009 7.29133 28.6487 7.05133 27.9888 7.05133C27.3153 7.05133 26.7564 7.29133 26.3119 7.77133C25.8674 8.23799 25.6452 8.92466 25.6452 9.83133C25.6452 10.7247 25.8607 11.4113 26.2917 11.8913C26.7362 12.3713 27.2884 12.6113 27.9483 12.6113Z" fill="#1F2937"/>
<path d="M39.1352 6.11133C39.5393 5.49799 40.0444 5.01799 40.6505 4.67133C41.2566 4.31133 41.93 4.13133 42.6708 4.13133V7.75133H41.7213C40.8593 7.75133 40.2128 7.93799 39.7817 8.31133C39.3507 8.67133 39.1352 9.31133 39.1352 10.2313V15.4113H35.6805V4.25133H39.1352V6.11133Z" fill="#1F2937"/>
<path d="M51.2114 15.4113L47.7769 10.7313V15.4113H44.3221V0.611328H47.7769V8.79133L51.1912 4.25133H55.4541L50.7669 9.85133L55.4945 15.4113H51.2114Z" fill="#1F2937"/>
<path d="M60.2658 5.83133C60.589 5.31133 61.0537 4.89133 61.6598 4.57133C62.2659 4.25133 62.9595 4.09133 63.7407 4.09133C64.6701 4.09133 65.5119 4.32466 66.2661 4.79133C67.0204 5.25799 67.613 5.92466 68.044 6.79133C68.4885 7.65799 68.7107 8.66466 68.7107 9.81133C68.7107 10.958 68.4885 11.9713 68.044 12.8513C67.613 13.718 67.0204 14.3913 66.2661 14.8713C65.5119 15.338 64.6701 15.5713 63.7407 15.5713C62.9461 15.5713 62.2524 15.418 61.6598 15.1113C61.0672 14.7913 60.6025 14.3713 60.2658 13.8513V15.4113H56.811V0.611328H60.2658V5.83133ZM65.1954 9.81133C65.1954 8.95799 64.9529 8.29133 64.468 7.81133C63.9966 7.31799 63.4107 7.07133 62.7104 7.07133C62.0234 7.07133 61.4376 7.31799 60.9527 7.81133C60.4813 8.30466 60.2456 8.97799 60.2456 9.83133C60.2456 10.6847 60.4813 11.358 60.9527 11.8513C61.4376 12.3447 62.0234 12.5913 62.7104 12.5913C63.3973 12.5913 63.9832 12.3447 64.468 11.8513C64.9529 11.3447 65.1954 10.6647 65.1954 9.81133Z" fill="#1F2937"/>
<path d="M75.6548 15.5713C74.5503 15.5713 73.5536 15.338 72.6647 14.8713C71.7892 14.4047 71.0956 13.738 70.5838 12.8713C70.0854 12.0047 69.8363 10.9913 69.8363 9.83133C69.8363 8.68466 70.0922 7.67799 70.604 6.81133C71.1158 5.93133 71.8162 5.25799 72.7051 4.79133C73.594 4.32466 74.5907 4.09133 75.6952 4.09133C76.7996 4.09133 77.7963 4.32466 78.6853 4.79133C79.5742 5.25799 80.2746 5.93133 80.7864 6.81133C81.2982 7.67799 81.5541 8.68466 81.5541 9.83133C81.5541 10.978 81.2915 11.9913 80.7662 12.8713C80.2544 13.738 79.5473 14.4047 78.6449 14.8713C77.7559 15.338 76.7592 15.5713 75.6548 15.5713ZM75.6548 12.6113C76.3147 12.6113 76.8737 12.3713 77.3316 11.8913C77.8031 11.4113 78.0388 10.7247 78.0388 9.83133C78.0388 8.93799 77.8098 8.25133 77.3518 7.77133C76.9074 7.29133 76.3552 7.05133 75.6952 7.05133C75.0217 7.05133 74.4628 7.29133 74.0183 7.77133C73.5738 8.23799 73.3516 8.92466 73.3516 9.83133C73.3516 10.7247 73.5671 11.4113 73.9981 11.8913C74.4426 12.3713 74.9948 12.6113 75.6548 12.6113Z" fill="#1F2937"/>
<path d="M88.5185 15.5713C87.4141 15.5713 86.4174 15.338 85.5285 14.8713C84.653 14.4047 83.9594 13.738 83.4475 12.8713C82.9492 12.0047 82.7 10.9913 82.7 9.83133C82.7 8.68466 82.9559 7.67799 83.4677 6.81133C83.9796 5.93133 84.6799 5.25799 85.5689 4.79133C86.4578 4.32466 87.4545 4.09133 88.559 4.09133C89.6634 4.09133 90.6601 4.32466 91.549 4.79133C92.438 5.25799 93.1384 5.93133 93.6502 6.81133C94.162 7.67799 94.4179 8.68466 94.4179 9.83133C94.4179 10.978 94.1552 11.9913 93.63 12.8713C93.1181 13.738 92.411 14.4047 91.5086 14.8713C90.6197 15.338 89.623 15.5713 88.5185 15.5713ZM88.5185 12.6113C89.1785 12.6113 89.7375 12.3713 90.1954 11.8913C90.6668 11.4113 90.9025 10.7247 90.9025 9.83133C90.9025 8.93799 90.6736 8.25133 90.2156 7.77133C89.7711 7.29133 89.2189 7.05133 88.559 7.05133C87.8855 7.05133 87.3266 7.29133 86.8821 7.77133C86.4376 8.23799 86.2154 8.92466 86.2154 9.83133C86.2154 10.7247 86.4309 11.4113 86.8619 11.8913C87.3064 12.3713 87.8586 12.6113 88.5185 12.6113Z" fill="#1F2937"/>
<path d="M100.837 15.5713C99.8536 15.5713 98.9781 15.4047 98.2104 15.0713C97.4427 14.738 96.8366 14.2847 96.3921 13.7113C95.9476 13.1247 95.6985 12.4713 95.6446 11.7513H99.059C99.0994 12.138 99.2812 12.4513 99.6044 12.6913C99.9277 12.9313 100.325 13.0513 100.796 13.0513C101.227 13.0513 101.557 12.9713 101.786 12.8113C102.029 12.638 102.15 12.418 102.15 12.1513C102.15 11.8313 101.982 11.598 101.645 11.4513C101.308 11.2913 100.763 11.118 100.008 10.9313C99.2004 10.7447 98.5269 10.5513 97.9882 10.3513C97.4494 10.138 96.9847 9.81133 96.5942 9.37133C96.2036 8.91799 96.0083 8.31133 96.0083 7.55133C96.0083 6.91133 96.1833 6.33133 96.5335 5.81133C96.8972 5.27799 97.4225 4.85799 98.1094 4.55133C98.8098 4.24466 99.6381 4.09133 100.594 4.09133C102.009 4.09133 103.12 4.43799 103.928 5.13133C104.75 5.82466 105.221 6.74466 105.342 7.89133H102.15C102.096 7.50466 101.921 7.19799 101.625 6.97133C101.342 6.74466 100.965 6.63133 100.493 6.63133C100.089 6.63133 99.7795 6.71133 99.564 6.87133C99.3485 7.01799 99.2408 7.22466 99.2408 7.49133C99.2408 7.81133 99.4091 8.05133 99.7459 8.21133C100.096 8.37133 100.635 8.53133 101.362 8.69133C102.197 8.90466 102.877 9.11799 103.403 9.33133C103.928 9.53133 104.386 9.86466 104.776 10.3313C105.181 10.7847 105.389 11.398 105.403 12.1713C105.403 12.8247 105.214 13.4113 104.837 13.9313C104.473 14.438 103.941 14.838 103.241 15.1313C102.554 15.4247 101.753 15.5713 100.837 15.5713Z" fill="#1F2937"/>
<path d="M113.8 12.5113V15.4113H112.042C110.789 15.4113 109.813 15.1113 109.112 14.5113C108.412 13.898 108.062 12.9047 108.062 11.5313V7.09133H106.688V4.25133H108.062V1.53133H111.517V4.25133H113.779V7.09133H111.517V11.5713C111.517 11.9047 111.597 12.1447 111.759 12.2913C111.921 12.438 112.19 12.5113 112.567 12.5113H113.8Z" fill="#1F2937"/>
</svg>
